<svg
  height="24"
  viewBox="0 0 29 24"
  width="29"
  xmlns="http://www.w3.org/2000/svg"
>
  <path
    d="m62.9772727 307h2.6363637c1.0920175 0 1.9772727.895431 1.9772727 2v20c0 1.104569-.8852552 2-1.9772727 2h-2.6363637c-1.0920175 0-1.9772727-.895431-1.9772727-2v-20c0-1.104569.8852552-2 1.9772727-2zm-.6590909 6c0 .36819.2950851.666667.6590909.666667h2.6363637c.3640058 0 .6590909-.298477.6590909-.666667s-.2950851-.666667-.6590909-.666667h-2.6363637c-.3640058 0-.6590909.298477-.6590909.666667zm.6590909 3.333333c-.3640058 0-.6590909.298477-.6590909.666667s.2950851.666667.6590909.666667h2.6363637c.3640058 0 .6590909-.298477.6590909-.666667s-.2950851-.666667-.6590909-.666667zm7.9090909-9.333333h2.6363637c.5244053 0 1.0273324.210714 1.3981429.585786.3708106.375073.5791298.883781.5791298 1.414214v20c0 1.104569-.8852552 2-1.9772727 2h-2.6363637c-1.0920175 0-1.9772727-.895431-1.9772727-2v-20c0-1.104569.8852552-2 1.9772727-2zm-.6590909 6c0 .36819.2950851.666667.6590909.666667h2.6363637c.3640058 0 .6590909-.298477.6590909-.666667s-.2950851-.666667-.6590909-.666667h-2.6363637c-.3640058 0-.6590909.298477-.6590909.666667zm0 4c0 .36819.2950851.666667.6590909.666667h2.6363637c.3640058 0 .6590909-.298477.6590909-.666667s-.2950851-.666667-.6590909-.666667h-2.6363637c-.3640058 0-.6590909.298477-.6590909.666667zm7.9090909-10c.7280117 0 1.3181819.596954 1.3181819 1.333333v21.333334c-.0001115.7363-.5902489 1.333129-1.3181819 1.333129-.7279329 0-1.3180703-.596829-1.3181818-1.333129v-21.333334c0-.736379.5901701-1.333333 1.3181818-1.333333zm9.8863637 0c1.0920175 0 1.9772727.895431 1.9772727 2v20c0 1.104569-.8852552 2-1.9772727 2-1.0920176 0-1.9772728-.895431-1.9772728-2v-20c0-1.104569.8852552-2 1.9772728-2zm-6.5909091 0c.1748018 0 .3424441.070238.4660476.195262.1236036.125024.1930433.294594.1930433.471405v22.666666c0 .36819-.2950851.666667-.6590909.666667-.3640059 0-.6590909-.298477-.6590909-.666667v-22.666666c0-.36819.295085-.666667.6590909-.666667zm3.1024113.195262c.1236035.125024.1930432.294594.1930432.471405v22.666666c0 .36819-.295085.666667-.6590909.666667-.3640058 0-.6590909-.298477-.6590909-.666667v-22.666666c0-.36819.2950851-.666667.6590909-.666667.1748018 0 .3424442.070238.4660477.195262z"
    fill="#04264f"
    fill-opacity=".4"
    transform="translate(-61 -307)"
  />
</svg>
