<?xml version="1.0" encoding="UTF-8"?>
<svg width="82px" height="82px" viewBox="0 0 82 82" version="1.1" xmlns="http://www.w3.org/2000/svg" xmlns:xlink="http://www.w3.org/1999/xlink">
    <!-- Generator: Sketch 62 (91390) - https://sketch.com -->
    <title>满意度评价</title>
    <desc>Created with Sketch.</desc>
    <g id="页面-1" stroke="none" stroke-width="1" fill="none" fill-rule="evenodd">
        <g id="首页" transform="translate(-409.000000, -10373.000000)">
            <g id="模块8" transform="translate(0.000000, 10173.000000)">
                <g id="满意度评价" transform="translate(409.000000, 200.000000)">
                    <circle id="椭圆形" fill="#3477F4" fill-rule="evenodd" cx="41" cy="41" r="41"></circle>
                    <path d="M38,38 C38,45.7319865 44.2680135,52 52,52 C59.7319865,52 66,45.7319865 66,38 C66,30.2680135 59.7319865,24 52,24 C44.2680135,24 38,30.2680135 38,38 Z" id="路径" fill="#FFFFFF" fill-rule="nonzero" opacity="0.2"></path>
                    <g id="编组" stroke-width="1" fill-rule="evenodd" transform="translate(26.000000, 23.000000)" fill="#FFFFFF" stroke="#FFFFFF">
                        <path d="M26.719192,6.57324336 L26.619192,6.40213256 L26.719192,6.57324336 Z M22.9274762,8.70143413 C21.5180358,8.90494761 20.0941667,8.44086589 19.075344,7.44590852 L15.1141286,3.44619322 L11.73469,7.2790755 C10.7253949,8.39403421 9.21892755,8.92008939 7.73497464,8.67576751 L3.11498263,7.81807454 C3.05196018,8.44348048 3.02126198,9.07172265 3.02293987,9.70029354 C3.02293987,17.3468081 8.44936229,23.4276587 14.9836566,23.4276587 C21.5200897,23.4276587 26.9443026,17.3468081 26.9443026,9.70029354 C26.9443026,9.08643349 26.9229137,8.53673999 26.880136,8.04907415 L22.9231984,8.69929524 L22.9274762,8.70143413 Z M13.4885758,26.3771814 C5.93617219,25.5365995 0.0349879261,18.3927229 0.0349879261,9.70243242 C0.0349879261,6.76788192 0.591098082,5.03752383 0.591098082,5.03752379 C0.69800675,4.6310555 1.09584212,4.37199991 1.51081871,4.43863594 L8.27611261,5.69630043 C8.72987855,5.75113878 9.18340577,5.59232525 9.50383271,5.26638452 L13.4928536,0.72980902 C13.8738543,0.283568634 14.4255286,0.0188988369 15.0120189,0.00097830185 C15.5985092,-0.0169422332 16.1653135,0.213551833 16.5728483,0.635698082 L21.1864237,5.29846779 C21.4751732,5.58935618 22.0419777,5.7754392 22.446227,5.70913374 L28.4714666,4.71669102 C28.8864103,4.65680224 29.284243,4.9091907 29.4125761,5.31557887 C29.4125761,5.31557887 29.936603,6.66307653 29.936603,9.70029354 C29.936603,18.3884452 24.0375576,25.5344606 16.4808762,26.3750425 L16.4808762,34.842889 C16.4808762,35.2449994 16.3247376,35.6321376 16.0445436,35.9166094 C15.7659671,36.2017344 15.3844187,36.3628326 14.9857955,36.3636364 C14.5858837,36.3613808 14.2033454,36.1999065 13.9227768,35.9149227 C13.6422082,35.6299388 13.4867262,35.2449261 13.4907147,34.8450279 L13.4907147,26.3750425 L13.4885758,26.3771814 Z M28.2704114,25.7675991 C28.8079742,25.6981732 29.3407148,25.9268418 29.6606868,26.3643481 C29.9815196,26.8028195 30.0456861,27.3824574 29.8296587,27.8829566 C29.615227,28.380169 29.1490406,28.7228569 28.6104941,28.7791495 C25.092028,29.1855376 21.9457279,31.1704231 19.9651202,34.1755568 C19.7468509,34.5068087 19.4049087,34.736745 19.0157911,34.8139253 C18.6266735,34.8911057 18.2228563,34.8090887 17.8946793,34.5862228 C17.2084667,34.117399 17.02312,33.1859129 17.4775967,32.4901153 C19.9415924,28.7556217 23.8685857,26.2745149 28.2704114,25.7675991 L28.2704114,25.7675991 Z M1.36109677,28.7791495 C0.822063879,28.7224533 0.355761273,28.3788619 0.141932209,27.8808177 C-0.0755047099,27.3812586 -0.0111609234,26.8037934 0.310904119,26.3643481 C0.63048487,25.9275687 1.16219722,25.6989897 1.69904062,25.7675991 C6.10086637,26.2766538 10.0278596,28.7556217 12.4918553,32.4922542 C12.9463321,33.1880518 12.7609853,34.1195379 12.0747727,34.5883616 C11.7463338,34.811025 11.342331,34.8927038 10.9531893,34.8151167 C10.5640475,34.7375295 10.2222619,34.5071553 10.0043318,34.1755568 C8.02372411,31.1704231 4.87742401,29.1833988 1.36109677,28.7791495 L1.36109677,28.7791495 Z" id="形状" stroke-width="0.6" fill-rule="nonzero"></path>
                    </g>
                </g>
            </g>
        </g>
    </g>
</svg>