<?xml version="1.0" encoding="UTF-8"?>
<svg width="29px" height="24px" viewBox="0 0 29 24" version="1.1" xmlns="http://www.w3.org/2000/svg" xmlns:xlink="http://www.w3.org/1999/xlink">
    <!-- Generator: Sketch 62 (91390) - https://sketch.com -->
    <title>教育行业-当前</title>
    <desc>Created with Sketch.</desc>
    <g id="页面-1" stroke="none" stroke-width="1" fill="none" fill-rule="evenodd">
        <g id="智能客服官网首页-hover" transform="translate(-2466.000000, -764.000000)" fill="#3477F4" fill-rule="nonzero">
            <g id="模块1备份-2" transform="translate(2045.000000, 0.000000)">
                <g id="1" transform="translate(360.000000, 457.000000)">
                    <path d="M62.9772727,307 L65.6136364,307 C66.7056539,307 67.5909091,307.895431 67.5909091,309 L67.5909091,329 C67.5909091,330.104569 66.7056539,331 65.6136364,331 L62.9772727,331 C61.8852552,331 61,330.104569 61,329 L61,309 C61,307.895431 61.8852552,307 62.9772727,307 Z M62.9772727,312.333333 C62.6132669,312.333333 62.3181818,312.63181 62.3181818,313 C62.3181818,313.36819 62.6132669,313.666667 62.9772727,313.666667 L65.6136364,313.666667 C65.9776422,313.666667 66.2727273,313.36819 66.2727273,313 C66.2727273,312.63181 65.9776422,312.333333 65.6136364,312.333333 L62.9772727,312.333333 L62.9772727,312.333333 Z M62.9772727,316.333333 C62.6132669,316.333333 62.3181818,316.63181 62.3181818,317 C62.3181818,317.36819 62.6132669,317.666667 62.9772727,317.666667 L65.6136364,317.666667 C65.9776422,317.666667 66.2727273,317.36819 66.2727273,317 C66.2727273,316.63181 65.9776422,316.333333 65.6136364,316.333333 L62.9772727,316.333333 Z M70.8863636,307 L73.5227273,307 C74.0471326,307 74.5500597,307.210714 74.9208702,307.585786 C75.2916808,307.960859 75.5,308.469567 75.5,309 L75.5,329 C75.5,330.104569 74.6147448,331 73.5227273,331 L70.8863636,331 C69.7943461,331 68.9090909,330.104569 68.9090909,329 L68.9090909,309 C68.9090909,307.895431 69.7943461,307 70.8863636,307 Z M70.8863636,312.333333 C70.5223578,312.333333 70.2272727,312.63181 70.2272727,313 C70.2272727,313.36819 70.5223578,313.666667 70.8863636,313.666667 L73.5227273,313.666667 C73.8867331,313.666667 74.1818182,313.36819 74.1818182,313 C74.1818182,312.63181 73.8867331,312.333333 73.5227273,312.333333 L70.8863636,312.333333 L70.8863636,312.333333 Z M70.8863636,316.333333 C70.5223578,316.333333 70.2272727,316.63181 70.2272727,317 C70.2272727,317.36819 70.5223578,317.666667 70.8863636,317.666667 L73.5227273,317.666667 C73.8867331,317.666667 74.1818182,317.36819 74.1818182,317 C74.1818182,316.63181 73.8867331,316.333333 73.5227273,316.333333 L70.8863636,316.333333 L70.8863636,316.333333 Z M78.1363636,307 C78.8643753,307 79.4545455,307.596954 79.4545455,308.333333 L79.4545455,329.666667 C79.454434,330.402967 78.8642966,330.999796 78.1363636,330.999796 C77.4084307,330.999796 76.8182933,330.402967 76.8181818,329.666667 L76.8181818,308.333333 C76.8181818,307.596954 77.4083519,307 78.1363636,307 Z M88.0227273,307 C89.1147448,307 90,307.895431 90,309 L90,329 C90,330.104569 89.1147448,331 88.0227273,331 C86.9307097,331 86.0454545,330.104569 86.0454545,329 L86.0454545,309 C86.0454545,307.895431 86.9307097,307 88.0227273,307 Z M81.4318182,307 C81.60662,307 81.7742623,307.070238 81.8978658,307.195262 C82.0214694,307.320286 82.0909091,307.489856 82.0909091,307.666667 L82.0909091,330.333333 C82.0909091,330.701523 81.795824,331 81.4318182,331 C81.0678123,331 80.7727273,330.701523 80.7727273,330.333333 L80.7727273,307.666667 C80.7727273,307.298477 81.0678123,307 81.4318182,307 Z M84.0681818,307 C84.2429836,307 84.410626,307.070238 84.5342295,307.195262 C84.657833,307.320286 84.7272727,307.489856 84.7272727,307.666667 L84.7272727,330.333333 C84.7272727,330.701523 84.4321877,331 84.0681818,331 C83.704176,331 83.4090909,330.701523 83.4090909,330.333333 L83.4090909,307.666667 C83.4090909,307.298477 83.704176,307 84.0681818,307 L84.0681818,307 Z" id="教育行业-当前"></path>
                </g>
            </g>
        </g>
    </g>
</svg>