<?xml version="1.0" encoding="UTF-8"?>
<svg width="31px" height="32px" viewBox="0 0 31 32" version="1.1" xmlns="http://www.w3.org/2000/svg" xmlns:xlink="http://www.w3.org/1999/xlink">
    <!-- Generator: Sketch 62 (91390) - https://sketch.com -->
    <title>产品介绍</title>
    <desc>Created with Sketch.</desc>
    <g id="页面-1" stroke="none" stroke-width="1" fill="none" fill-rule="evenodd">
        <g id="首页" transform="translate(-599.000000, -821.000000)" fill-rule="nonzero">
            <g id="模块1" transform="translate(0.000000, 600.000000)">
                <g id="小程序备份-2" transform="translate(551.000000, 197.000000)">
                    <g id="产品介绍" transform="translate(48.000000, 24.000000)">
                        <path d="M6.54739361,27.8097569 C6.62230478,27.7458208 6.68179304,27.6797536 6.75229766,27.6158175 L6.76772053,27.5945055 C6.49010859,27.8545122 6.47688899,27.8758242 6.54739361,27.8076257 L6.54739361,27.8097569 Z" id="路径" fill="#000000"></path>
                        <path d="M11.7955812,15.4445222 L3.01114629,10.9668665 L2.98250377,10.951948 C2.61950442,10.7715824 2.21840616,10.6745877 1.81036449,10.6684982 C1.33601213,10.6605156 0.877850201,10.8353323 0.536874789,11.1544122 C0.204600571,11.4813093 0.0220127145,11.9236161 0.0301228384,12.3819847 L0.0301228384,24.4616384 C0.0301228384,24.9624709 0.235026883,25.5187146 0.607379411,26.0259407 C0.970918843,26.5225108 1.46885774,26.9423576 2.0174718,27.2023643 L10.8019068,31.6821512 L10.8261427,31.6949384 L10.8349558,31.6949384 C11.2337476,31.8867465 11.6281328,31.9805194 12.0026886,31.9805195 C12.477085,31.9887379 12.935337,31.8138867 13.2761783,31.4946054 C13.6079034,31.1682363 13.7904469,30.726798 13.7829302,30.2691642 L13.7829302,18.1916417 C13.7829302,17.688678 13.5780262,17.1324342 13.2078769,16.6252081 C12.8434745,16.1282185 12.3595225,15.724463 11.7977845,15.4487845 L11.7977845,15.4445222 L11.7955812,15.4445222 Z M30.369142,11.1544122 C30.0295198,10.8359841 29.5729816,10.661182 29.1000589,10.6684982 C28.7188932,10.6684982 28.3267113,10.7644023 27.9301228,10.951948 L19.1126388,15.4466534 C18.566228,15.7087912 18.0660859,16.1286381 17.7025464,16.6230769 C17.3323972,17.130303 17.1274931,17.688678 17.1274931,18.1895105 L17.1274931,30.2691642 C17.1274931,30.7465535 17.3081612,31.1813187 17.6342451,31.4946054 C17.9745439,31.8133594 18.4318939,31.9881688 18.9055315,31.9805195 L18.9121413,31.9805195 C19.3175428,31.9719947 19.7163346,31.8739594 20.0820773,31.6949384 L28.8599025,27.2023643 C29.4063133,26.9402264 29.9064554,26.5203796 30.2699949,26.0259407 C30.6401442,25.5187146 30.8428449,24.9603397 30.8428449,24.457376 L30.875894,12.3819847 C30.8835083,11.9237041 30.7009941,11.4815757 30.369142,11.1544122 Z" id="形状" fill="#3477F4"></path>
                        <path d="M27.4387938,7.83826176 C28.2275642,7.48448221 28.6770311,6.91545122 28.6726567,6.27822177 C28.6660148,5.64738593 28.2187511,5.09114218 27.440997,4.75228103 L17.5042522,0.374791871 C16.8899176,0.126030219 16.2290867,0.0026855457 15.5631719,0.0124875 C14.8074505,0.0124875 14.075965,0.153146853 13.5097248,0.408891128 L3.46501976,4.97179489 C2.67845259,5.32770564 2.2267824,5.89673663 2.23332063,6.53396604 C2.23779872,7.16267067 2.68506237,7.71891442 3.46281648,8.05990677 L13.3995614,12.4352647 C13.780727,12.6036297 14.2434135,12.7165834 14.7391491,12.7677323 L14.7038968,12.7997003 L15.3428449,12.7997003 C16.0985663,12.7997003 16.8278485,12.659041 17.3984953,12.4011655 L27.4365905,7.84039292 L27.4387938,7.83826176 Z" id="路径" fill="#3477F4"></path>
                    </g>
                </g>
            </g>
        </g>
    </g>
</svg>