<?xml version="1.0" encoding="UTF-8"?>
<svg width="70px" height="70px" viewBox="0 0 70 70" version="1.1" xmlns="http://www.w3.org/2000/svg" xmlns:xlink="http://www.w3.org/1999/xlink">
    <!-- Generator: Sketch 62 (91390) - https://sketch.com -->
    <title>移动端语音</title>
    <desc>Created with Sketch.</desc>
    <g id="页面-1" stroke="none" stroke-width="1" fill="none" fill-rule="evenodd">
        <g id="首页" transform="translate(-436.000000, -8803.000000)">
            <g id="模块7" transform="translate(0.000000, 8643.000000)">
                <g id="移动端语音" transform="translate(436.000000, 160.000000)">
                    <circle id="椭圆形" fill="#EEEFF2" cx="35" cy="35" r="35"></circle>
                    <g id="编组" transform="translate(19.923077, 18.846154)" fill="#3477F4" fill-rule="nonzero">
                        <path d="M14.0832614,32.0895307 C16.6603748,32.0895307 18.750183,30.0501782 18.755537,27.4908385 L9.41089653,27.4908385 C9.41625055,30.0501782 11.5059696,32.0895307 14.0832614,32.0895307 Z M26.9159127,23.2988166 L25.9516982,23.2988166 C25.3630236,22.0632733 25.0077843,20.6953503 24.9426883,19.2391743 L24.8961976,19.2391743 L24.8961976,14.318932 C24.9408144,14.205615 24.9232354,14.0918126 24.9245739,13.9776131 C24.6205993,14.0120318 24.3216219,14.0303002 24.008367,14.0303002 C19.5679205,14.0303002 15.9732754,10.4799665 15.9732754,6.10031855 C15.9732754,4.77471297 16.3059832,3.52535806 16.8889915,2.42713657 C16.5960373,1.06009615 15.3673787,0.0339333143 13.894086,0.0339333143 C12.2025723,0.0339333143 10.8318983,1.38641197 10.8318983,3.05474844 C10.8318983,3.19674766 10.8429187,3.33645231 10.8621485,3.47320048 C6.53944584,4.72180524 3.32150076,8.51642348 2.99472702,13.1055843 L2.94471154,13.1055843 L2.94471154,13.3642983 C2.94471154,13.5338766 2.93221882,13.7044257 2.93221882,13.8759897 C2.93221882,14.0475096 2.94471154,14.2180146 2.94471154,14.387637 L2.94471154,19.2391743 L2.93913443,19.2391743 C2.87403846,20.6953503 2.51875455,22.0632733 1.93012456,23.2988166 L1.22968477,23.2988166 C0.560744464,23.2988166 0,23.9326503 0,24.7042471 L0,24.7165143 C0,25.4880669 0.560744464,26.1229155 1.22972939,26.1229155 L26.9159127,26.1229155 C27.5848084,26.1229155 28.1086101,25.4880669 28.1086101,24.7165143 L28.1086101,24.7042471 C28.1086101,23.9326503 27.5848084,23.2988166 26.9159127,23.2988166 Z" id="形状"></path>
                        <path d="M24.0074747,0.0506572754 C20.6244473,0.0506572754 17.8819839,2.75561458 17.8819839,6.09233165 C17.8819839,9.42904872 20.6244473,12.134006 24.0074747,12.134006 C27.3906359,12.134006 30.1330993,9.42904872 30.1330993,6.09233165 C30.1330993,2.75561458 27.3906359,0.0506572754 24.0074747,0.0506572754 Z" id="路径" opacity="0.4"></path>
                    </g>
                </g>
            </g>
        </g>
    </g>
</svg>