<?xml version="1.0" encoding="UTF-8"?>
<svg width="1920px" height="490px" viewBox="0 0 1920 490" version="1.1" xmlns="http://www.w3.org/2000/svg" xmlns:xlink="http://www.w3.org/1999/xlink">
    <!-- Generator: Sketch 62 (91390) - https://sketch.com -->
    <title>底部背景</title>
    <desc>Created with Sketch.</desc>
    <g id="页面-1" stroke="none" stroke-width="1" fill="none" fill-rule="evenodd">
        <g id="首页" transform="translate(0.000000, -11457.000000)">
            <g id="底部栏" transform="translate(0.000000, 11457.000000)">
                <g id="底部背景">
                    <path d="M0,272.07793 C202.914062,272.07793 364.115885,260.788328 483.605469,238.209124 C960,55.480734 971.753716,43.6003073 1248.33984,11.2841652 C1432.7306,-10.2599295 1656.61731,-0.954510219 1920,39.2004231 L1920,490 L0,490 L0,272.07793 Z" id="矩形" fill="#EDF2F9"></path>
                    <g id="图形" transform="translate(420.000000, 66.000000)">
                        <rect id="矩形备份-63" fill="#D7DBE0" x="37.048" y="0" width="339.094" height="264" rx="5.936"></rect>
                        <path d="M37.048,25.228 L376.142,25.228 L376.142,251.292 C376.142,254.570362 373.484362,257.228 370.206,257.228 L42.984,257.228 C39.7056377,257.228 37.048,254.570362 37.048,251.292 L37.048,25.228 L37.048,25.228 Z" id="矩形备份-63" fill="#FFFFFF"></path>
                        <g id="矩形备份-101" opacity="0.8" transform="translate(61.534000, 49.714000)">
                            <rect id="矩形" fill="#E8ECF1" x="0" y="0" width="86.0845569" height="51.537465" rx="4.487616"></rect>
                            <rect id="矩形" fill="#D7DBE0" opacity="0.5" x="25.8253671" y="8.5895775" width="19.6764702" height="4.90833" rx="1.121904"></rect>
                            <rect id="矩形备份-90" fill="#FFFFFF" x="25.8253671" y="15.9520725" width="54.1102929" height="30.6770625" rx="1.121904"></rect>
                            <rect id="矩形备份-90" fill="#D7DBE0" opacity="0.5" x="29.5147052" y="19.63332" width="46.7316166" height="4.90833" rx="1.121904"></rect>
                            <rect id="矩形备份-102" fill="#D7DBE0" opacity="0.5" x="29.5147052" y="27.6093563" width="46.7316166" height="4.90833" rx="1.121904"></rect>
                            <rect id="矩形备份-103" fill="#D7DBE0" opacity="0.5" x="29.5147052" y="35.5853925" width="30.7444846" height="4.90833" rx="1.121904"></rect>
                            <ellipse id="椭圆形" fill="#FFFFFF" cx="13.5275732" cy="13.4979075" rx="8.60845569" ry="8.5895775"></ellipse>
                            <g id="客服系统图标" opacity="0.6" transform="translate(9.039957, 9.536184)" fill-rule="nonzero">
                                <g id="客服">
                                    <path d="M7.292376,0 C8.2217917,-1.70730895e-16 8.975232,0.753440295 8.975232,1.682856 L8.975232,6.45587824 C8.975232,7.38529395 8.2217917,8.13873424 7.292376,8.13873424 L7.25259816,8.14014616 C7.21951023,8.14190611 7.1861887,8.14279747 7.15265679,8.14279747 L6.58253728,8.14279747 L6.30004238,8.77161733 C6.24944648,8.88424134 6.11736745,8.93482812 6.00448208,8.88481808 L4.32955301,8.14279747 L1.82236506,8.14279747 L1.722,8.138 L1.682856,8.13873424 C0.753440295,8.13873424 3.35865202e-16,7.38529395 0,6.45587824 L0,1.682856 C1.08224008e-16,0.753440295 0.753440295,-5.13137097e-17 1.682856,0 L7.292376,0 Z" id="形状结合" fill="#7C858B" opacity="0.604073661"></path>
                                    <path d="M7.69067084,5.79905775 C7.79252885,5.91576151 7.780494,6.09294083 7.66379025,6.19479884 C7.03083403,6.74723747 5.82090182,7.0866936 4.48639508,7.0866936 C3.15394473,7.0866936 1.94559894,6.74827543 1.31184715,6.19727908 C1.19494836,6.09564496 1.1825739,5.91848904 1.28420802,5.80159025 C1.38584214,5.68469146 1.56299806,5.672317 1.67989685,5.77395112 C2.19643119,6.22303629 3.27726169,6.5257416 4.48639508,6.5257416 C5.69727031,6.5257416 6.77937555,6.22214835 7.29492975,5.77217716 C7.41163351,5.67031915 7.58881283,5.682354 7.69067084,5.79905775 Z M4.48208546,1.49296179 C4.62666123,1.49296179 4.74386306,1.61016361 4.74386306,1.75473939 L4.74386306,5.34483219 C4.74386306,5.48940796 4.62666123,5.60660979 4.48208546,5.60660979 C4.33750968,5.60660979 4.22030786,5.48940796 4.22030786,5.34483219 L4.22030786,1.75473939 C4.22030786,1.61016361 4.33750968,1.49296179 4.48208546,1.49296179 Z M2.98621346,1.86692979 C3.13078923,1.86692979 3.24799106,1.98413161 3.24799106,2.12870739 L3.24799106,4.97086419 C3.24799106,5.11543996 3.13078923,5.23264179 2.98621346,5.23264179 C2.84163768,5.23264179 2.72443586,5.11543996 2.72443586,4.97086419 L2.72443586,2.12870739 C2.72443586,1.98413161 2.84163768,1.86692979 2.98621346,1.86692979 Z M5.97795746,1.86692979 C6.12253323,1.86692979 6.23973506,1.98413161 6.23973506,2.12870739 L6.23973506,4.97086419 C6.23973506,5.11543996 6.12253323,5.23264179 5.97795746,5.23264179 C5.83338168,5.23264179 5.71617986,5.11543996 5.71617986,4.97086419 L5.71617986,2.12870739 C5.71617986,1.98413161 5.83338168,1.86692979 5.97795746,1.86692979 Z M1.49034146,2.24089779 C1.63491723,2.24089779 1.75211906,2.35809961 1.75211906,2.50267539 L1.75211906,4.59689619 C1.75211906,4.74147196 1.63491723,4.85867379 1.49034146,4.85867379 C1.34576568,4.85867379 1.22856386,4.74147196 1.22856386,4.59689619 L1.22856386,2.50267539 C1.22856386,2.35809961 1.34576568,2.24089779 1.49034146,2.24089779 Z M7.47382946,2.24089779 C7.61840523,2.24089779 7.73560706,2.35809961 7.73560706,2.50267539 L7.73560706,4.59689619 C7.73560706,4.74147196 7.61840523,4.85867379 7.47382946,4.85867379 C7.32925368,4.85867379 7.21205186,4.74147196 7.21205186,4.59689619 L7.21205186,2.50267539 C7.21205186,2.35809961 7.32925368,2.24089779 7.47382946,2.24089779 Z" id="形状结合" fill="#FFFFFF"></path>
                                </g>
                            </g>
                        </g>
                        <g id="矩形备份-114" opacity="0.8" transform="translate(61.534000, 116.494000)">
                            <rect id="矩形" fill="#E8ECF1" x="0" y="0" width="86.0845569" height="51.537465" rx="4.487616"></rect>
                            <rect id="矩形" fill="#EFF1F3" opacity="0.6" x="25.8253671" y="8.5895775" width="19.6764702" height="4.90833" rx="1.121904"></rect>
                            <rect id="矩形备份-90" fill="#FFFFFF" x="25.8253671" y="15.9520725" width="54.1102929" height="30.6770625" rx="1.121904"></rect>
                            <rect id="矩形备份-90" fill="#EFF1F3" x="29.5147052" y="19.63332" width="46.7316166" height="4.90833" rx="1.121904"></rect>
                            <rect id="矩形备份-102" fill="#EFF1F3" x="29.5147052" y="27.6093563" width="46.7316166" height="4.90833" rx="1.121904"></rect>
                            <rect id="矩形备份-103" fill="#EFF1F3" x="29.5147052" y="35.5853925" width="30.7444846" height="4.90833" rx="1.121904"></rect>
                            <ellipse id="椭圆形" fill="#FFFFFF" cx="13.5275732" cy="13.4979075" rx="8.60845569" ry="8.5895775"></ellipse>
                            <g id="客服系统图标" opacity="0.6" transform="translate(9.039957, 9.536184)" fill-rule="nonzero">
                                <g id="客服">
                                    <path d="M7.292376,0 C8.2217917,-1.70730895e-16 8.975232,0.753440295 8.975232,1.682856 L8.975232,6.45587824 C8.975232,7.38529395 8.2217917,8.13873424 7.292376,8.13873424 L7.25259816,8.14014616 C7.21951023,8.14190611 7.1861887,8.14279747 7.15265679,8.14279747 L6.58253728,8.14279747 L6.30004238,8.77161733 C6.24944648,8.88424134 6.11736745,8.93482812 6.00448208,8.88481808 L4.32955301,8.14279747 L1.82236506,8.14279747 L1.722,8.138 L1.682856,8.13873424 C0.753440295,8.13873424 3.35865202e-16,7.38529395 0,6.45587824 L0,1.682856 C1.08224008e-16,0.753440295 0.753440295,-5.13137097e-17 1.682856,0 L7.292376,0 Z" id="形状结合" fill="#7C858B" opacity="0.604073661"></path>
                                    <path d="M7.69067084,5.79905775 C7.79252885,5.91576151 7.780494,6.09294083 7.66379025,6.19479884 C7.03083403,6.74723747 5.82090182,7.0866936 4.48639508,7.0866936 C3.15394473,7.0866936 1.94559894,6.74827543 1.31184715,6.19727908 C1.19494836,6.09564496 1.1825739,5.91848904 1.28420802,5.80159025 C1.38584214,5.68469146 1.56299806,5.672317 1.67989685,5.77395112 C2.19643119,6.22303629 3.27726169,6.5257416 4.48639508,6.5257416 C5.69727031,6.5257416 6.77937555,6.22214835 7.29492975,5.77217716 C7.41163351,5.67031915 7.58881283,5.682354 7.69067084,5.79905775 Z M4.48208546,1.49296179 C4.62666123,1.49296179 4.74386306,1.61016361 4.74386306,1.75473939 L4.74386306,5.34483219 C4.74386306,5.48940796 4.62666123,5.60660979 4.48208546,5.60660979 C4.33750968,5.60660979 4.22030786,5.48940796 4.22030786,5.34483219 L4.22030786,1.75473939 C4.22030786,1.61016361 4.33750968,1.49296179 4.48208546,1.49296179 Z M2.98621346,1.86692979 C3.13078923,1.86692979 3.24799106,1.98413161 3.24799106,2.12870739 L3.24799106,4.97086419 C3.24799106,5.11543996 3.13078923,5.23264179 2.98621346,5.23264179 C2.84163768,5.23264179 2.72443586,5.11543996 2.72443586,4.97086419 L2.72443586,2.12870739 C2.72443586,1.98413161 2.84163768,1.86692979 2.98621346,1.86692979 Z M5.97795746,1.86692979 C6.12253323,1.86692979 6.23973506,1.98413161 6.23973506,2.12870739 L6.23973506,4.97086419 C6.23973506,5.11543996 6.12253323,5.23264179 5.97795746,5.23264179 C5.83338168,5.23264179 5.71617986,5.11543996 5.71617986,4.97086419 L5.71617986,2.12870739 C5.71617986,1.98413161 5.83338168,1.86692979 5.97795746,1.86692979 Z M1.49034146,2.24089779 C1.63491723,2.24089779 1.75211906,2.35809961 1.75211906,2.50267539 L1.75211906,4.59689619 C1.75211906,4.74147196 1.63491723,4.85867379 1.49034146,4.85867379 C1.34576568,4.85867379 1.22856386,4.74147196 1.22856386,4.59689619 L1.22856386,2.50267539 C1.22856386,2.35809961 1.34576568,2.24089779 1.49034146,2.24089779 Z M7.47382946,2.24089779 C7.61840523,2.24089779 7.73560706,2.35809961 7.73560706,2.50267539 L7.73560706,4.59689619 C7.73560706,4.74147196 7.61840523,4.85867379 7.47382946,4.85867379 C7.32925368,4.85867379 7.21205186,4.74147196 7.21205186,4.59689619 L7.21205186,2.50267539 C7.21205186,2.35809961 7.32925368,2.24089779 7.47382946,2.24089779 Z" id="形状结合" fill="#FFFFFF"></path>
                                </g>
                            </g>
                        </g>
                        <g id="矩形备份-112" opacity="0.8" transform="translate(163.188000, 49.714000)">
                            <rect id="矩形" fill="#E8ECF1" x="0" y="0" width="86.0845569" height="51.537465" rx="4.487616"></rect>
                            <rect id="矩形" fill="#D7DBE0" opacity="0.5" x="25.8253671" y="8.5895775" width="19.6764702" height="4.90833" rx="1.121904"></rect>
                            <rect id="矩形备份-90" fill="#FFFFFF" x="25.8253671" y="15.9520725" width="54.1102929" height="30.6770625" rx="1.121904"></rect>
                            <rect id="矩形备份-90" fill="#D7DBE0" opacity="0.5" x="29.5147052" y="19.63332" width="46.7316166" height="4.90833" rx="1.121904"></rect>
                            <rect id="矩形备份-102" fill="#D7DBE0" opacity="0.5" x="29.5147052" y="27.6093563" width="46.7316166" height="4.90833" rx="1.121904"></rect>
                            <rect id="矩形备份-103" fill="#D7DBE0" opacity="0.5" x="29.5147052" y="35.5853925" width="30.7444846" height="4.90833" rx="1.121904"></rect>
                            <ellipse id="椭圆形" fill="#FFFFFF" cx="13.5275732" cy="13.4979075" rx="8.60845569" ry="8.5895775"></ellipse>
                            <g id="客服系统图标" opacity="0.6" transform="translate(9.039957, 9.536184)" fill-rule="nonzero">
                                <g id="客服">
                                    <path d="M7.292376,0 C8.2217917,-1.70730895e-16 8.975232,0.753440295 8.975232,1.682856 L8.975232,6.45587824 C8.975232,7.38529395 8.2217917,8.13873424 7.292376,8.13873424 L7.25259816,8.14014616 C7.21951023,8.14190611 7.1861887,8.14279747 7.15265679,8.14279747 L6.58253728,8.14279747 L6.30004238,8.77161733 C6.24944648,8.88424134 6.11736745,8.93482812 6.00448208,8.88481808 L4.32955301,8.14279747 L1.82236506,8.14279747 L1.722,8.138 L1.682856,8.13873424 C0.753440295,8.13873424 3.35865202e-16,7.38529395 0,6.45587824 L0,1.682856 C1.08224008e-16,0.753440295 0.753440295,-5.13137097e-17 1.682856,0 L7.292376,0 Z" id="形状结合" fill="#7C858B" opacity="0.604073661"></path>
                                    <path d="M7.69067084,5.79905775 C7.79252885,5.91576151 7.780494,6.09294083 7.66379025,6.19479884 C7.03083403,6.74723747 5.82090182,7.0866936 4.48639508,7.0866936 C3.15394473,7.0866936 1.94559894,6.74827543 1.31184715,6.19727908 C1.19494836,6.09564496 1.1825739,5.91848904 1.28420802,5.80159025 C1.38584214,5.68469146 1.56299806,5.672317 1.67989685,5.77395112 C2.19643119,6.22303629 3.27726169,6.5257416 4.48639508,6.5257416 C5.69727031,6.5257416 6.77937555,6.22214835 7.29492975,5.77217716 C7.41163351,5.67031915 7.58881283,5.682354 7.69067084,5.79905775 Z M4.48208546,1.49296179 C4.62666123,1.49296179 4.74386306,1.61016361 4.74386306,1.75473939 L4.74386306,5.34483219 C4.74386306,5.48940796 4.62666123,5.60660979 4.48208546,5.60660979 C4.33750968,5.60660979 4.22030786,5.48940796 4.22030786,5.34483219 L4.22030786,1.75473939 C4.22030786,1.61016361 4.33750968,1.49296179 4.48208546,1.49296179 Z M2.98621346,1.86692979 C3.13078923,1.86692979 3.24799106,1.98413161 3.24799106,2.12870739 L3.24799106,4.97086419 C3.24799106,5.11543996 3.13078923,5.23264179 2.98621346,5.23264179 C2.84163768,5.23264179 2.72443586,5.11543996 2.72443586,4.97086419 L2.72443586,2.12870739 C2.72443586,1.98413161 2.84163768,1.86692979 2.98621346,1.86692979 Z M5.97795746,1.86692979 C6.12253323,1.86692979 6.23973506,1.98413161 6.23973506,2.12870739 L6.23973506,4.97086419 C6.23973506,5.11543996 6.12253323,5.23264179 5.97795746,5.23264179 C5.83338168,5.23264179 5.71617986,5.11543996 5.71617986,4.97086419 L5.71617986,2.12870739 C5.71617986,1.98413161 5.83338168,1.86692979 5.97795746,1.86692979 Z M1.49034146,2.24089779 C1.63491723,2.24089779 1.75211906,2.35809961 1.75211906,2.50267539 L1.75211906,4.59689619 C1.75211906,4.74147196 1.63491723,4.85867379 1.49034146,4.85867379 C1.34576568,4.85867379 1.22856386,4.74147196 1.22856386,4.59689619 L1.22856386,2.50267539 C1.22856386,2.35809961 1.34576568,2.24089779 1.49034146,2.24089779 Z M7.47382946,2.24089779 C7.61840523,2.24089779 7.73560706,2.35809961 7.73560706,2.50267539 L7.73560706,4.59689619 C7.73560706,4.74147196 7.61840523,4.85867379 7.47382946,4.85867379 C7.32925368,4.85867379 7.21205186,4.74147196 7.21205186,4.59689619 L7.21205186,2.50267539 C7.21205186,2.35809961 7.32925368,2.24089779 7.47382946,2.24089779 Z" id="形状结合" fill="#FFFFFF"></path>
                                </g>
                            </g>
                        </g>
                        <g id="矩形备份-115" opacity="0.8" transform="translate(163.188000, 116.494000)">
                            <rect id="矩形" fill="#E8ECF1" x="0" y="0" width="86.0845569" height="51.537465" rx="4.487616"></rect>
                            <rect id="矩形" fill="#EFF1F3" opacity="0.6" x="25.8253671" y="8.5895775" width="19.6764702" height="4.90833" rx="1.121904"></rect>
                            <rect id="矩形备份-90" fill="#FFFFFF" x="25.8253671" y="15.9520725" width="54.1102929" height="30.6770625" rx="1.121904"></rect>
                            <rect id="矩形备份-90" fill="#EFF1F3" x="29.5147052" y="19.63332" width="46.7316166" height="4.90833" rx="1.121904"></rect>
                            <rect id="矩形备份-102" fill="#EFF1F3" x="29.5147052" y="27.6093563" width="46.7316166" height="4.90833" rx="1.121904"></rect>
                            <rect id="矩形备份-103" fill="#EFF1F3" x="29.5147052" y="35.5853925" width="30.7444846" height="4.90833" rx="1.121904"></rect>
                            <ellipse id="椭圆形" fill="#FFFFFF" cx="13.5275732" cy="13.4979075" rx="8.60845569" ry="8.5895775"></ellipse>
                            <g id="客服系统图标" opacity="0.6" transform="translate(9.039957, 9.536184)" fill-rule="nonzero">
                                <g id="客服">
                                    <path d="M7.292376,0 C8.2217917,-1.70730895e-16 8.975232,0.753440295 8.975232,1.682856 L8.975232,6.45587824 C8.975232,7.38529395 8.2217917,8.13873424 7.292376,8.13873424 L7.25259816,8.14014616 C7.21951023,8.14190611 7.1861887,8.14279747 7.15265679,8.14279747 L6.58253728,8.14279747 L6.30004238,8.77161733 C6.24944648,8.88424134 6.11736745,8.93482812 6.00448208,8.88481808 L4.32955301,8.14279747 L1.82236506,8.14279747 L1.722,8.138 L1.682856,8.13873424 C0.753440295,8.13873424 3.35865202e-16,7.38529395 0,6.45587824 L0,1.682856 C1.08224008e-16,0.753440295 0.753440295,-5.13137097e-17 1.682856,0 L7.292376,0 Z" id="形状结合" fill="#7C858B" opacity="0.604073661"></path>
                                    <path d="M7.69067084,5.79905775 C7.79252885,5.91576151 7.780494,6.09294083 7.66379025,6.19479884 C7.03083403,6.74723747 5.82090182,7.0866936 4.48639508,7.0866936 C3.15394473,7.0866936 1.94559894,6.74827543 1.31184715,6.19727908 C1.19494836,6.09564496 1.1825739,5.91848904 1.28420802,5.80159025 C1.38584214,5.68469146 1.56299806,5.672317 1.67989685,5.77395112 C2.19643119,6.22303629 3.27726169,6.5257416 4.48639508,6.5257416 C5.69727031,6.5257416 6.77937555,6.22214835 7.29492975,5.77217716 C7.41163351,5.67031915 7.58881283,5.682354 7.69067084,5.79905775 Z M4.48208546,1.49296179 C4.62666123,1.49296179 4.74386306,1.61016361 4.74386306,1.75473939 L4.74386306,5.34483219 C4.74386306,5.48940796 4.62666123,5.60660979 4.48208546,5.60660979 C4.33750968,5.60660979 4.22030786,5.48940796 4.22030786,5.34483219 L4.22030786,1.75473939 C4.22030786,1.61016361 4.33750968,1.49296179 4.48208546,1.49296179 Z M2.98621346,1.86692979 C3.13078923,1.86692979 3.24799106,1.98413161 3.24799106,2.12870739 L3.24799106,4.97086419 C3.24799106,5.11543996 3.13078923,5.23264179 2.98621346,5.23264179 C2.84163768,5.23264179 2.72443586,5.11543996 2.72443586,4.97086419 L2.72443586,2.12870739 C2.72443586,1.98413161 2.84163768,1.86692979 2.98621346,1.86692979 Z M5.97795746,1.86692979 C6.12253323,1.86692979 6.23973506,1.98413161 6.23973506,2.12870739 L6.23973506,4.97086419 C6.23973506,5.11543996 6.12253323,5.23264179 5.97795746,5.23264179 C5.83338168,5.23264179 5.71617986,5.11543996 5.71617986,4.97086419 L5.71617986,2.12870739 C5.71617986,1.98413161 5.83338168,1.86692979 5.97795746,1.86692979 Z M1.49034146,2.24089779 C1.63491723,2.24089779 1.75211906,2.35809961 1.75211906,2.50267539 L1.75211906,4.59689619 C1.75211906,4.74147196 1.63491723,4.85867379 1.49034146,4.85867379 C1.34576568,4.85867379 1.22856386,4.74147196 1.22856386,4.59689619 L1.22856386,2.50267539 C1.22856386,2.35809961 1.34576568,2.24089779 1.49034146,2.24089779 Z M7.47382946,2.24089779 C7.61840523,2.24089779 7.73560706,2.35809961 7.73560706,2.50267539 L7.73560706,4.59689619 C7.73560706,4.74147196 7.61840523,4.85867379 7.47382946,4.85867379 C7.32925368,4.85867379 7.21205186,4.74147196 7.21205186,4.59689619 L7.21205186,2.50267539 C7.21205186,2.35809961 7.32925368,2.24089779 7.47382946,2.24089779 Z" id="形状结合" fill="#FFFFFF"></path>
                                </g>
                            </g>
                        </g>
                        <g id="矩形备份-113" opacity="0.8" transform="translate(264.842000, 49.714000)">
                            <rect id="矩形" fill="#E8ECF1" x="0" y="0" width="86.0845569" height="51.537465" rx="4.487616"></rect>
                            <rect id="矩形" fill="#EFF1F3" opacity="0.5" x="25.8253671" y="8.5895775" width="19.6764702" height="4.90833" rx="1.121904"></rect>
                        </g>
                        <g id="矩形备份-113" transform="translate(289.000000, 16.000000)">
                            <rect id="矩形" fill="#6877A7" x="0" y="0" width="120.51838" height="72.152451" rx="6.2826624"></rect>
                            <rect id="矩形" fill="#D7DAE0" opacity="0.5" x="36.1555139" y="12.0254085" width="27.5470582" height="6.871662" rx="1.5706656"></rect>
                            <rect id="矩形备份-90" fill="#FFFFFF" x="36.1555139" y="22.3329015" width="75.7544101" height="42.9478875" rx="1.5706656"></rect>
                            <rect id="矩形备份-90" fill="#D7DAE0" x="41.3205873" y="27.486648" width="65.4242633" height="6.871662" rx="1.5706656"></rect>
                            <rect id="矩形备份-102" fill="#D7DAE0" x="41.3205873" y="38.6530987" width="65.4242633" height="6.871662" rx="1.5706656"></rect>
                            <rect id="矩形备份-103" fill="#D7DAE0" x="41.3205873" y="49.8195495" width="43.0422785" height="6.871662" rx="1.5706656"></rect>
                            <ellipse id="椭圆形" fill="#FFFFFF" cx="18.9386025" cy="18.8970705" rx="12.051838" ry="12.0254085"></ellipse>
                            <g id="客服系统图标" opacity="0.6" transform="translate(12.655940, 13.350658)" fill-rule="nonzero">
                                <g id="客服">
                                    <path d="M2.3559984,11.3942279 C1.05481641,11.3942279 1.59348836e-16,10.3394115 0,9.03822954 L0,2.3559984 C-1.59348836e-16,1.05481641 1.05481641,2.39023253e-16 2.3559984,0 L10.2093264,0 C11.5105084,9.16658508e-16 12.5653248,1.05481641 12.5653248,2.3559984 L12.5653248,9.03822954 C12.5653248,10.3394115 11.5105084,11.3942279 10.2093264,11.3942279 L10.1813918,11.3945806 C10.1259626,11.3981195 10.0700531,11.3999165 10.0137195,11.3999165 L9.21555219,11.3999165 L8.82005934,12.2802643 C8.74922508,12.4379379 8.56431443,12.5087594 8.40627491,12.4387453 L6.06137421,11.3999165 L2.55131109,11.3999165 L2.38357513,11.3945806 L2.38357513,11.3945806 L2.3559984,11.3942279 Z" id="形状结合" fill="#C6D1E9"></path>
                                    <path d="M10.7669392,8.11868085 C10.9095404,8.28206611 10.8926916,8.53011716 10.7293063,8.67271837 C9.84316764,9.44613246 8.14926255,9.92137104 6.28095311,9.92137104 C4.41552262,9.92137104 2.72383852,9.4475856 1.83658601,8.67619071 C1.6729277,8.53390295 1.65560346,8.28588465 1.79789123,8.12222635 C1.94017899,7.95856804 2.18819729,7.9412438 2.35185559,8.08353157 C3.07500366,8.71225081 4.58816637,9.13603824 6.28095311,9.13603824 C7.97617843,9.13603824 9.49112577,8.71100769 10.2129017,8.08104803 C10.3762869,7.93844681 10.624338,7.9552956 10.7669392,8.11868085 Z M6.27491964,2.0901465 C6.47732572,2.0901465 6.64140828,2.25422906 6.64140828,2.45663514 L6.64140828,7.48276506 C6.64140828,7.68517115 6.47732572,7.8492537 6.27491964,7.8492537 C6.07251355,7.8492537 5.908431,7.68517115 5.908431,7.48276506 L5.908431,2.45663514 C5.908431,2.25422906 6.07251355,2.0901465 6.27491964,2.0901465 Z M4.18069884,2.6137017 C4.38310492,2.6137017 4.54718748,2.77778426 4.54718748,2.98019034 L4.54718748,6.95920986 C4.54718748,7.16161595 4.38310492,7.3256985 4.18069884,7.3256985 C3.97829275,7.3256985 3.8142102,7.16161595 3.8142102,6.95920986 L3.8142102,2.98019034 C3.8142102,2.77778426 3.97829275,2.6137017 4.18069884,2.6137017 Z M8.36914044,2.6137017 C8.57154652,2.6137017 8.73562908,2.77778426 8.73562908,2.98019034 L8.73562908,6.95920986 C8.73562908,7.16161595 8.57154652,7.3256985 8.36914044,7.3256985 C8.16673435,7.3256985 8.0026518,7.16161595 8.0026518,6.95920986 L8.0026518,2.98019034 C8.0026518,2.77778426 8.16673435,2.6137017 8.36914044,2.6137017 Z M2.08647804,3.1372569 C2.28888412,3.1372569 2.45296668,3.30133946 2.45296668,3.50374554 L2.45296668,6.43565466 C2.45296668,6.63806075 2.28888412,6.8021433 2.08647804,6.8021433 C1.88407195,6.8021433 1.7199894,6.63806075 1.7199894,6.43565466 L1.7199894,3.50374554 C1.7199894,3.30133946 1.88407195,3.1372569 2.08647804,3.1372569 Z M10.4633612,3.1372569 C10.6657673,3.1372569 10.8298499,3.30133946 10.8298499,3.50374554 L10.8298499,6.43565466 C10.8298499,6.63806075 10.6657673,6.8021433 10.4633612,6.8021433 C10.2609552,6.8021433 10.0968726,6.63806075 10.0968726,6.43565466 L10.0968726,3.50374554 C10.0968726,3.30133946 10.2609552,3.1372569 10.4633612,3.1372569 Z" id="形状结合" fill="#FFFFFF"></path>
                                </g>
                            </g>
                        </g>
                        <g id="矩形备份-116" opacity="0.8" transform="translate(264.842000, 116.494000)">
                            <rect id="矩形" fill="#E8ECF1" x="0" y="0" width="86.0845569" height="51.537465" rx="4.487616"></rect>
                            <rect id="矩形" fill="#EFF1F3" x="25.8253671" y="8.5895775" width="19.6764702" height="4.90833" rx="1.121904"></rect>
                            <rect id="矩形备份-90" fill="#FFFFFF" x="25.8253671" y="15.9520725" width="54.1102929" height="30.6770625" rx="1.121904"></rect>
                            <rect id="矩形备份-90" fill="#EFF1F3" x="29.5147052" y="19.63332" width="46.7316166" height="4.90833" rx="1.121904"></rect>
                            <rect id="矩形备份-102" fill="#EFF1F3" x="29.5147052" y="27.6093563" width="46.7316166" height="4.90833" rx="1.121904"></rect>
                            <rect id="矩形备份-103" fill="#EFF1F3" x="29.5147052" y="35.5853925" width="30.7444846" height="4.90833" rx="1.121904"></rect>
                            <ellipse id="椭圆形" fill="#FFFFFF" cx="13.5275732" cy="13.4979075" rx="8.60845569" ry="8.5895775"></ellipse>
                            <g id="客服系统图标" opacity="0.6" transform="translate(9.039957, 9.536184)" fill-rule="nonzero">
                                <g id="客服">
                                    <path d="M7.292376,0 C8.2217917,-1.70730895e-16 8.975232,0.753440295 8.975232,1.682856 L8.975232,6.45587824 C8.975232,7.38529395 8.2217917,8.13873424 7.292376,8.13873424 L7.25259816,8.14014616 C7.21951023,8.14190611 7.1861887,8.14279747 7.15265679,8.14279747 L6.58253728,8.14279747 L6.30004238,8.77161733 C6.24944648,8.88424134 6.11736745,8.93482812 6.00448208,8.88481808 L4.32955301,8.14279747 L1.82236506,8.14279747 L1.722,8.138 L1.682856,8.13873424 C0.753440295,8.13873424 3.35865202e-16,7.38529395 0,6.45587824 L0,1.682856 C1.08224008e-16,0.753440295 0.753440295,-5.13137097e-17 1.682856,0 L7.292376,0 Z" id="形状结合" fill="#7C858B" opacity="0.604073661"></path>
                                    <path d="M7.69067084,5.79905775 C7.79252885,5.91576151 7.780494,6.09294083 7.66379025,6.19479884 C7.03083403,6.74723747 5.82090182,7.0866936 4.48639508,7.0866936 C3.15394473,7.0866936 1.94559894,6.74827543 1.31184715,6.19727908 C1.19494836,6.09564496 1.1825739,5.91848904 1.28420802,5.80159025 C1.38584214,5.68469146 1.56299806,5.672317 1.67989685,5.77395112 C2.19643119,6.22303629 3.27726169,6.5257416 4.48639508,6.5257416 C5.69727031,6.5257416 6.77937555,6.22214835 7.29492975,5.77217716 C7.41163351,5.67031915 7.58881283,5.682354 7.69067084,5.79905775 Z M4.48208546,1.49296179 C4.62666123,1.49296179 4.74386306,1.61016361 4.74386306,1.75473939 L4.74386306,5.34483219 C4.74386306,5.48940796 4.62666123,5.60660979 4.48208546,5.60660979 C4.33750968,5.60660979 4.22030786,5.48940796 4.22030786,5.34483219 L4.22030786,1.75473939 C4.22030786,1.61016361 4.33750968,1.49296179 4.48208546,1.49296179 Z M2.98621346,1.86692979 C3.13078923,1.86692979 3.24799106,1.98413161 3.24799106,2.12870739 L3.24799106,4.97086419 C3.24799106,5.11543996 3.13078923,5.23264179 2.98621346,5.23264179 C2.84163768,5.23264179 2.72443586,5.11543996 2.72443586,4.97086419 L2.72443586,2.12870739 C2.72443586,1.98413161 2.84163768,1.86692979 2.98621346,1.86692979 Z M5.97795746,1.86692979 C6.12253323,1.86692979 6.23973506,1.98413161 6.23973506,2.12870739 L6.23973506,4.97086419 C6.23973506,5.11543996 6.12253323,5.23264179 5.97795746,5.23264179 C5.83338168,5.23264179 5.71617986,5.11543996 5.71617986,4.97086419 L5.71617986,2.12870739 C5.71617986,1.98413161 5.83338168,1.86692979 5.97795746,1.86692979 Z M1.49034146,2.24089779 C1.63491723,2.24089779 1.75211906,2.35809961 1.75211906,2.50267539 L1.75211906,4.59689619 C1.75211906,4.74147196 1.63491723,4.85867379 1.49034146,4.85867379 C1.34576568,4.85867379 1.22856386,4.74147196 1.22856386,4.59689619 L1.22856386,2.50267539 C1.22856386,2.35809961 1.34576568,2.24089779 1.49034146,2.24089779 Z M7.47382946,2.24089779 C7.61840523,2.24089779 7.73560706,2.35809961 7.73560706,2.50267539 L7.73560706,4.59689619 C7.73560706,4.74147196 7.61840523,4.85867379 7.47382946,4.85867379 C7.32925368,4.85867379 7.21205186,4.74147196 7.21205186,4.59689619 L7.21205186,2.50267539 C7.21205186,2.35809961 7.32925368,2.24089779 7.47382946,2.24089779 Z" id="形状结合" fill="#FFFFFF"></path>
                                </g>
                            </g>
                        </g>
                        <g id="矩形备份-114" opacity="0.8" transform="translate(61.534000, 182.494000)">
                            <rect id="矩形" fill="#E8ECF1" x="0" y="0" width="86.0845569" height="51.537465" rx="4.487616"></rect>
                            <rect id="矩形" fill="#EFF1F3" opacity="0.6" x="25.8253671" y="8.5895775" width="19.6764702" height="4.90833" rx="1.121904"></rect>
                            <rect id="矩形备份-90" fill="#FFFFFF" x="25.8253671" y="15.9520725" width="54.1102929" height="30.6770625" rx="1.121904"></rect>
                            <rect id="矩形备份-90" fill="#EFF1F3" x="29.5147052" y="19.63332" width="46.7316166" height="4.90833" rx="1.121904"></rect>
                            <rect id="矩形备份-102" fill="#EFF1F3" x="29.5147052" y="27.6093563" width="46.7316166" height="4.90833" rx="1.121904"></rect>
                            <rect id="矩形备份-103" fill="#EFF1F3" x="29.5147052" y="35.5853925" width="30.7444846" height="4.90833" rx="1.121904"></rect>
                            <ellipse id="椭圆形" fill="#FFFFFF" cx="13.5275732" cy="13.4979075" rx="8.60845569" ry="8.5895775"></ellipse>
                            <g id="客服系统图标" opacity="0.6" transform="translate(9.039957, 9.536184)" fill-rule="nonzero">
                                <g id="客服">
                                    <path d="M7.292376,0 C8.2217917,-1.70730895e-16 8.975232,0.753440295 8.975232,1.682856 L8.975232,6.45587824 C8.975232,7.38529395 8.2217917,8.13873424 7.292376,8.13873424 L7.25259816,8.14014616 C7.21951023,8.14190611 7.1861887,8.14279747 7.15265679,8.14279747 L6.58253728,8.14279747 L6.30004238,8.77161733 C6.24944648,8.88424134 6.11736745,8.93482812 6.00448208,8.88481808 L4.32955301,8.14279747 L1.82236506,8.14279747 L1.722,8.138 L1.682856,8.13873424 C0.753440295,8.13873424 3.35865202e-16,7.38529395 0,6.45587824 L0,1.682856 C1.08224008e-16,0.753440295 0.753440295,-5.13137097e-17 1.682856,0 L7.292376,0 Z" id="形状结合" fill="#7C858B" opacity="0.604073661"></path>
                                    <path d="M7.69067084,5.79905775 C7.79252885,5.91576151 7.780494,6.09294083 7.66379025,6.19479884 C7.03083403,6.74723747 5.82090182,7.0866936 4.48639508,7.0866936 C3.15394473,7.0866936 1.94559894,6.74827543 1.31184715,6.19727908 C1.19494836,6.09564496 1.1825739,5.91848904 1.28420802,5.80159025 C1.38584214,5.68469146 1.56299806,5.672317 1.67989685,5.77395112 C2.19643119,6.22303629 3.27726169,6.5257416 4.48639508,6.5257416 C5.69727031,6.5257416 6.77937555,6.22214835 7.29492975,5.77217716 C7.41163351,5.67031915 7.58881283,5.682354 7.69067084,5.79905775 Z M4.48208546,1.49296179 C4.62666123,1.49296179 4.74386306,1.61016361 4.74386306,1.75473939 L4.74386306,5.34483219 C4.74386306,5.48940796 4.62666123,5.60660979 4.48208546,5.60660979 C4.33750968,5.60660979 4.22030786,5.48940796 4.22030786,5.34483219 L4.22030786,1.75473939 C4.22030786,1.61016361 4.33750968,1.49296179 4.48208546,1.49296179 Z M2.98621346,1.86692979 C3.13078923,1.86692979 3.24799106,1.98413161 3.24799106,2.12870739 L3.24799106,4.97086419 C3.24799106,5.11543996 3.13078923,5.23264179 2.98621346,5.23264179 C2.84163768,5.23264179 2.72443586,5.11543996 2.72443586,4.97086419 L2.72443586,2.12870739 C2.72443586,1.98413161 2.84163768,1.86692979 2.98621346,1.86692979 Z M5.97795746,1.86692979 C6.12253323,1.86692979 6.23973506,1.98413161 6.23973506,2.12870739 L6.23973506,4.97086419 C6.23973506,5.11543996 6.12253323,5.23264179 5.97795746,5.23264179 C5.83338168,5.23264179 5.71617986,5.11543996 5.71617986,4.97086419 L5.71617986,2.12870739 C5.71617986,1.98413161 5.83338168,1.86692979 5.97795746,1.86692979 Z M1.49034146,2.24089779 C1.63491723,2.24089779 1.75211906,2.35809961 1.75211906,2.50267539 L1.75211906,4.59689619 C1.75211906,4.74147196 1.63491723,4.85867379 1.49034146,4.85867379 C1.34576568,4.85867379 1.22856386,4.74147196 1.22856386,4.59689619 L1.22856386,2.50267539 C1.22856386,2.35809961 1.34576568,2.24089779 1.49034146,2.24089779 Z M7.47382946,2.24089779 C7.61840523,2.24089779 7.73560706,2.35809961 7.73560706,2.50267539 L7.73560706,4.59689619 C7.73560706,4.74147196 7.61840523,4.85867379 7.47382946,4.85867379 C7.32925368,4.85867379 7.21205186,4.74147196 7.21205186,4.59689619 L7.21205186,2.50267539 C7.21205186,2.35809961 7.32925368,2.24089779 7.47382946,2.24089779 Z" id="形状结合" fill="#FFFFFF"></path>
                                </g>
                            </g>
                        </g>
                        <g id="矩形备份-115" opacity="0.8" transform="translate(163.188000, 182.494000)">
                            <rect id="矩形" fill="#E8ECF1" x="0" y="0" width="86.0845569" height="51.537465" rx="4.487616"></rect>
                            <rect id="矩形" fill="#EFF1F3" opacity="0.6" x="25.8253671" y="8.5895775" width="19.6764702" height="4.90833" rx="1.121904"></rect>
                            <rect id="矩形备份-90" fill="#FFFFFF" x="25.8253671" y="15.9520725" width="54.1102929" height="30.6770625" rx="1.121904"></rect>
                            <rect id="矩形备份-90" fill="#EFF1F3" x="29.5147052" y="19.63332" width="46.7316166" height="4.90833" rx="1.121904"></rect>
                            <rect id="矩形备份-102" fill="#EFF1F3" x="29.5147052" y="27.6093563" width="46.7316166" height="4.90833" rx="1.121904"></rect>
                            <rect id="矩形备份-103" fill="#EFF1F3" x="29.5147052" y="35.5853925" width="30.7444846" height="4.90833" rx="1.121904"></rect>
                            <ellipse id="椭圆形" fill="#FFFFFF" cx="13.5275732" cy="13.4979075" rx="8.60845569" ry="8.5895775"></ellipse>
                            <g id="客服系统图标" opacity="0.6" transform="translate(9.039957, 9.536184)" fill-rule="nonzero">
                                <g id="客服">
                                    <path d="M7.292376,0 C8.2217917,-1.70730895e-16 8.975232,0.753440295 8.975232,1.682856 L8.975232,6.45587824 C8.975232,7.38529395 8.2217917,8.13873424 7.292376,8.13873424 L7.25259816,8.14014616 C7.21951023,8.14190611 7.1861887,8.14279747 7.15265679,8.14279747 L6.58253728,8.14279747 L6.30004238,8.77161733 C6.24944648,8.88424134 6.11736745,8.93482812 6.00448208,8.88481808 L4.32955301,8.14279747 L1.82236506,8.14279747 L1.722,8.138 L1.682856,8.13873424 C0.753440295,8.13873424 3.35865202e-16,7.38529395 0,6.45587824 L0,1.682856 C1.08224008e-16,0.753440295 0.753440295,-5.13137097e-17 1.682856,0 L7.292376,0 Z" id="形状结合" fill="#7C858B" opacity="0.604073661"></path>
                                    <path d="M7.69067084,5.79905775 C7.79252885,5.91576151 7.780494,6.09294083 7.66379025,6.19479884 C7.03083403,6.74723747 5.82090182,7.0866936 4.48639508,7.0866936 C3.15394473,7.0866936 1.94559894,6.74827543 1.31184715,6.19727908 C1.19494836,6.09564496 1.1825739,5.91848904 1.28420802,5.80159025 C1.38584214,5.68469146 1.56299806,5.672317 1.67989685,5.77395112 C2.19643119,6.22303629 3.27726169,6.5257416 4.48639508,6.5257416 C5.69727031,6.5257416 6.77937555,6.22214835 7.29492975,5.77217716 C7.41163351,5.67031915 7.58881283,5.682354 7.69067084,5.79905775 Z M4.48208546,1.49296179 C4.62666123,1.49296179 4.74386306,1.61016361 4.74386306,1.75473939 L4.74386306,5.34483219 C4.74386306,5.48940796 4.62666123,5.60660979 4.48208546,5.60660979 C4.33750968,5.60660979 4.22030786,5.48940796 4.22030786,5.34483219 L4.22030786,1.75473939 C4.22030786,1.61016361 4.33750968,1.49296179 4.48208546,1.49296179 Z M2.98621346,1.86692979 C3.13078923,1.86692979 3.24799106,1.98413161 3.24799106,2.12870739 L3.24799106,4.97086419 C3.24799106,5.11543996 3.13078923,5.23264179 2.98621346,5.23264179 C2.84163768,5.23264179 2.72443586,5.11543996 2.72443586,4.97086419 L2.72443586,2.12870739 C2.72443586,1.98413161 2.84163768,1.86692979 2.98621346,1.86692979 Z M5.97795746,1.86692979 C6.12253323,1.86692979 6.23973506,1.98413161 6.23973506,2.12870739 L6.23973506,4.97086419 C6.23973506,5.11543996 6.12253323,5.23264179 5.97795746,5.23264179 C5.83338168,5.23264179 5.71617986,5.11543996 5.71617986,4.97086419 L5.71617986,2.12870739 C5.71617986,1.98413161 5.83338168,1.86692979 5.97795746,1.86692979 Z M1.49034146,2.24089779 C1.63491723,2.24089779 1.75211906,2.35809961 1.75211906,2.50267539 L1.75211906,4.59689619 C1.75211906,4.74147196 1.63491723,4.85867379 1.49034146,4.85867379 C1.34576568,4.85867379 1.22856386,4.74147196 1.22856386,4.59689619 L1.22856386,2.50267539 C1.22856386,2.35809961 1.34576568,2.24089779 1.49034146,2.24089779 Z M7.47382946,2.24089779 C7.61840523,2.24089779 7.73560706,2.35809961 7.73560706,2.50267539 L7.73560706,4.59689619 C7.73560706,4.74147196 7.61840523,4.85867379 7.47382946,4.85867379 C7.32925368,4.85867379 7.21205186,4.74147196 7.21205186,4.59689619 L7.21205186,2.50267539 C7.21205186,2.35809961 7.32925368,2.24089779 7.47382946,2.24089779 Z" id="形状结合" fill="#FFFFFF"></path>
                                </g>
                            </g>
                        </g>
                        <g id="矩形备份-116" opacity="0.8" transform="translate(264.842000, 182.494000)">
                            <rect id="矩形" fill="#E8ECF1" x="0" y="0" width="86.0845569" height="51.537465" rx="4.487616"></rect>
                            <rect id="矩形" fill="#EFF1F3" x="25.8253671" y="8.5895775" width="19.6764702" height="4.90833" rx="1.121904"></rect>
                            <rect id="矩形备份-90" fill="#FFFFFF" x="25.8253671" y="15.9520725" width="54.1102929" height="30.6770625" rx="1.121904"></rect>
                            <rect id="矩形备份-90" fill="#EFF1F3" x="29.5147052" y="19.63332" width="46.7316166" height="4.90833" rx="1.121904"></rect>
                            <rect id="矩形备份-102" fill="#EFF1F3" x="29.5147052" y="27.6093563" width="46.7316166" height="4.90833" rx="1.121904"></rect>
                            <rect id="矩形备份-103" fill="#EFF1F3" x="29.5147052" y="35.5853925" width="30.7444846" height="4.90833" rx="1.121904"></rect>
                            <ellipse id="椭圆形" fill="#FFFFFF" cx="13.5275732" cy="13.4979075" rx="8.60845569" ry="8.5895775"></ellipse>
                            <g id="客服系统图标" opacity="0.6" transform="translate(9.039957, 9.536184)" fill-rule="nonzero">
                                <g id="客服">
                                    <path d="M7.292376,0 C8.2217917,-1.70730895e-16 8.975232,0.753440295 8.975232,1.682856 L8.975232,6.45587824 C8.975232,7.38529395 8.2217917,8.13873424 7.292376,8.13873424 L7.25259816,8.14014616 C7.21951023,8.14190611 7.1861887,8.14279747 7.15265679,8.14279747 L6.58253728,8.14279747 L6.30004238,8.77161733 C6.24944648,8.88424134 6.11736745,8.93482812 6.00448208,8.88481808 L4.32955301,8.14279747 L1.82236506,8.14279747 L1.722,8.138 L1.682856,8.13873424 C0.753440295,8.13873424 3.35865202e-16,7.38529395 0,6.45587824 L0,1.682856 C1.08224008e-16,0.753440295 0.753440295,-5.13137097e-17 1.682856,0 L7.292376,0 Z" id="形状结合" fill="#7C858B" opacity="0.604073661"></path>
                                    <path d="M7.69067084,5.79905775 C7.79252885,5.91576151 7.780494,6.09294083 7.66379025,6.19479884 C7.03083403,6.74723747 5.82090182,7.0866936 4.48639508,7.0866936 C3.15394473,7.0866936 1.94559894,6.74827543 1.31184715,6.19727908 C1.19494836,6.09564496 1.1825739,5.91848904 1.28420802,5.80159025 C1.38584214,5.68469146 1.56299806,5.672317 1.67989685,5.77395112 C2.19643119,6.22303629 3.27726169,6.5257416 4.48639508,6.5257416 C5.69727031,6.5257416 6.77937555,6.22214835 7.29492975,5.77217716 C7.41163351,5.67031915 7.58881283,5.682354 7.69067084,5.79905775 Z M4.48208546,1.49296179 C4.62666123,1.49296179 4.74386306,1.61016361 4.74386306,1.75473939 L4.74386306,5.34483219 C4.74386306,5.48940796 4.62666123,5.60660979 4.48208546,5.60660979 C4.33750968,5.60660979 4.22030786,5.48940796 4.22030786,5.34483219 L4.22030786,1.75473939 C4.22030786,1.61016361 4.33750968,1.49296179 4.48208546,1.49296179 Z M2.98621346,1.86692979 C3.13078923,1.86692979 3.24799106,1.98413161 3.24799106,2.12870739 L3.24799106,4.97086419 C3.24799106,5.11543996 3.13078923,5.23264179 2.98621346,5.23264179 C2.84163768,5.23264179 2.72443586,5.11543996 2.72443586,4.97086419 L2.72443586,2.12870739 C2.72443586,1.98413161 2.84163768,1.86692979 2.98621346,1.86692979 Z M5.97795746,1.86692979 C6.12253323,1.86692979 6.23973506,1.98413161 6.23973506,2.12870739 L6.23973506,4.97086419 C6.23973506,5.11543996 6.12253323,5.23264179 5.97795746,5.23264179 C5.83338168,5.23264179 5.71617986,5.11543996 5.71617986,4.97086419 L5.71617986,2.12870739 C5.71617986,1.98413161 5.83338168,1.86692979 5.97795746,1.86692979 Z M1.49034146,2.24089779 C1.63491723,2.24089779 1.75211906,2.35809961 1.75211906,2.50267539 L1.75211906,4.59689619 C1.75211906,4.74147196 1.63491723,4.85867379 1.49034146,4.85867379 C1.34576568,4.85867379 1.22856386,4.74147196 1.22856386,4.59689619 L1.22856386,2.50267539 C1.22856386,2.35809961 1.34576568,2.24089779 1.49034146,2.24089779 Z M7.47382946,2.24089779 C7.61840523,2.24089779 7.73560706,2.35809961 7.73560706,2.50267539 L7.73560706,4.59689619 C7.73560706,4.74147196 7.61840523,4.85867379 7.47382946,4.85867379 C7.32925368,4.85867379 7.21205186,4.74147196 7.21205186,4.59689619 L7.21205186,2.50267539 C7.21205186,2.35809961 7.32925368,2.24089779 7.47382946,2.24089779 Z" id="形状结合" fill="#FFFFFF"></path>
                                </g>
                            </g>
                        </g>
                        <path d="M51.146,8.904 C53.1949764,8.904 54.856,10.5650236 54.856,12.614 C54.856,14.6629764 53.1949764,16.324 51.146,16.324 C49.0970236,16.324 47.436,14.6629764 47.436,12.614 C47.436,10.5650236 49.0970236,8.904 51.146,8.904 Z M64.502,8.904 C66.5509764,8.904 68.212,10.5650236 68.212,12.614 C68.212,14.6629764 66.5509764,16.324 64.502,16.324 C62.4530236,16.324 60.792,14.6629764 60.792,12.614 C60.792,10.5650236 62.4530236,8.904 64.502,8.904 Z M77.858,8.904 C79.9069764,8.904 81.568,10.5650236 81.568,12.614 C81.568,14.6629764 79.9069764,16.324 77.858,16.324 C75.8090236,16.324 74.148,14.6629764 74.148,12.614 C74.148,10.5650236 75.8090236,8.904 77.858,8.904 Z" id="形状结合" fill="#FFFFFF" opacity="0.4"></path>
                        <path d="M351.285,108.332 C351.899693,108.332 352.398,108.830307 352.398,109.445 C352.398,110.059693 351.899693,110.558 351.285,110.558 C350.670307,110.558 350.172,110.059693 350.172,109.445 C350.172,108.830307 350.670307,108.332 351.285,108.332 Z M368.351,108.332 C368.965693,108.332 369.464,108.830307 369.464,109.445 C369.464,110.059693 368.965693,110.558 368.351,110.558 L354.995,110.558 C354.380307,110.558 353.882,110.059693 353.882,109.445 C353.882,108.830307 354.380307,108.332 354.995,108.332 L368.351,108.332 Z" id="形状结合" fill="#FFFFFF" opacity="0.5"></path>
                        <circle id="椭圆形备份-34" fill="#B7C8E6" cx="28.454" cy="157.002" r="23.002"></circle>
                        <g id="编组" transform="translate(18.066000, 147.356000)" fill="#FFFFFF" fill-rule="nonzero" stroke="#FFFFFF" stroke-width="0.53">
                            <path d="M3.95666963,9.20377405 C3.95666963,9.914975 4.53323186,10.4915372 5.24443281,10.4915372 C5.95563376,10.4915372 6.53219599,9.914975 6.53219599,9.20377405 C6.53219599,8.4925731 5.95563376,7.91601087 5.24443281,7.91601087 C4.53323186,7.91601087 3.95666963,8.4925731 3.95666963,9.20377405 L3.95666963,9.20377405 Z M9.04652751,9.20377405 C9.04652751,9.914975 9.62308974,10.4915372 10.3342907,10.4915372 C11.0454916,10.4915372 11.6220539,9.914975 11.6220539,9.20377405 C11.6220539,8.4925731 11.0454916,7.91601087 10.3342907,7.91601087 C9.62308974,7.91601087 9.04652751,8.4925731 9.04652751,9.20377405 L9.04652751,9.20377405 Z M14.1363854,9.20377405 C14.1363854,9.914975 14.7129476,10.4915372 15.4241486,10.4915372 C16.1353495,10.4915372 16.7119118,9.914975 16.7119118,9.20377405 C16.7119118,8.4925731 16.1353495,7.91601087 15.4241486,7.91601087 C14.7129476,7.91601087 14.1363854,8.4925731 14.1363854,9.20377405 L14.1363854,9.20377405 Z" id="形状"></path>
                            <path d="M19.9236577,5.59438764 C19.3945039,4.49930754 18.6420191,3.51439327 17.6815525,2.6732163 C15.7269723,0.957240489 13.1361472,0.0150970788 10.3862861,0.0150970788 C7.6333502,0.0150970788 5.04255034,0.960264946 3.09101977,2.6732163 C2.13055319,3.51439327 1.37809361,4.49625788 0.848914538,5.59438764 C0.298337432,6.73838832 0.019961413,7.95273281 0.019961413,9.20379925 C0.019961413,10.6720217 0.420676698,12.1310699 1.17618594,13.4280073 C1.83687846,14.5597841 2.77287215,15.5722209 3.8954748,16.3736515 L3.8954748,19.4171621 C3.8954748,19.6802142 4.03618764,19.9218683 4.2625178,20.0534069 C4.37570808,20.1176262 4.50417187,20.1512985 4.6295608,20.1512985 C4.75494973,20.1512985 4.88343872,20.1176766 4.9966038,20.0534069 L8.21752398,18.1936434 C8.9271875,18.3282317 9.65822385,18.3955259 10.3862357,18.3955259 C13.1391717,18.3955259 15.7299715,17.450358 17.6815021,15.7374067 C18.6419687,14.8962297 19.3944283,13.9143651 19.9236073,12.8162353 C20.4741844,11.6722346 20.7525854,10.4578901 20.7525854,9.20682371 C20.7556353,7.95270761 20.4742096,6.73836311 19.9236073,5.59438764 L19.9236577,5.59438764 Z M10.3862861,16.9272531 C9.66442398,16.9272531 8.94253662,16.8507595 8.24509694,16.7009229 C8.06768736,16.6642262 7.8811036,16.6917487 7.72511726,16.7835158 L5.36369721,18.1477473 L5.36369721,15.9882349 C5.36369721,15.7404815 5.23828308,15.5110765 5.03335095,15.3734133 C2.77902187,13.8959915 1.48513417,11.647787 1.48513417,9.20379925 C1.48513417,4.94591895 5.4768875,1.4833699 10.3862609,1.4833699 C15.2925847,1.4833699 19.2873877,4.94594416 19.2873877,9.20379925 C19.2873877,13.4616543 15.2925847,16.9273035 10.3862609,16.9273035 L10.3862861,16.9272531 Z" id="形状"></path>
                        </g>
                        <g id="对话" transform="translate(0.000000, 33.000000)">
                            <g id="girl" transform="translate(0.401280, 0.000000)">
                                <path d="M178.44222,229.37838 L95.43072,229.37838 C94.1363452,229.380325 92.9071882,229.946701 92.06472,230.92938 C90.24906,230.82708 88.32648,230.77164 86.33394,230.77164 C75.29676,230.77164 66.34848,232.45266 66.34848,234.52704 C66.34848,236.60142 75.29676,238.28244 86.33394,238.28244 C89.01156,238.28244 91.56378,238.18278 93.8982,238.00326 C94.388122,238.186795 94.9068892,238.28134 95.43006,238.28244 L178.44156,238.28244 C180.900348,238.28244 182.89359,236.289198 182.89359,233.83041 C182.89359,231.371622 180.900348,229.37838 178.44156,229.37838 L178.44222,229.37838 Z" id="Path_757" fill="#5C8BEA" fill-rule="nonzero"></path>
                                <ellipse id="Ellipse_53" fill="#5C8BEA" fill-rule="nonzero" cx="32.10504" cy="233.13378" rx="19.98546" ry="3.7554"></ellipse>
                                <g id="下身" transform="translate(16.955781, 115.096379)" fill-rule="nonzero">
                                    <path d="M82.7629595,28.9842607 L160.345959,28.9842607 C162.097785,28.9842607 163.517919,30.4043953 163.517919,32.1562207 L163.517919,117.758221 C163.517919,119.510046 162.097785,120.930181 160.345959,120.930181 L82.7629595,120.930181 C81.9215888,120.930181 81.1146887,120.595903 80.5198115,120.000902 C79.924935,119.405902 79.5909994,118.598931 79.5909994,117.757561 L79.5909994,32.1562207 C79.5909994,30.4043953 81.011134,28.9842607 82.7629595,28.9842607 Z" id="Path_2243" fill="#946E6B"></path>
                                    <path d="M71.5785995,98.4750007 C71.5785995,98.4750007 74.5274795,108.395461 81.5894795,109.853401 C88.6514795,111.311341 86.8364795,60.2761807 95.2514795,51.4737607 C103.666479,42.6713407 139.887279,43.3465207 140.916879,28.9842607 L90.6849395,29.0311207 C83.8828343,29.0381029 77.8776645,33.472891 75.8699195,39.9719407 C71.1350795,55.2760207 64.3839395,82.9518007 71.5785995,98.4750007 Z" id="Path_758" fill="#5B2F2E"></path>
                                    <path d="M80.9829395,104.267821 L80.4503195,99.4240807 C80.3652481,98.6468502 79.9481532,97.9444056 79.3064675,97.49768 C78.6647819,97.0509544 77.8612345,96.903618 77.1027995,97.0936207 L71.5785995,98.4750007 C70.2373422,98.8096174 69.3639351,100.101372 69.5530595,101.470741 L70.1305595,105.656461 L69.9028595,105.700681 C69.9028595,105.700681 55.9768595,114.895801 54.4720595,115.402681 C52.9672595,115.909561 45.2881595,121.914241 56.3556995,120.788281 C67.4232395,119.662321 81.1327595,116.541181 81.6937595,114.298501 C82.2349595,112.137001 80.9017595,106.166641 81.0014195,104.728501 C81.0089118,104.574696 81.0027269,104.420531 80.9829395,104.267821 L80.9829395,104.267821 Z" id="Path_759" fill="#693B2C"></path>
                                    <path d="M34.3176395,108.070741 L35.4132395,103.675801 C35.6954545,102.698842 35.571678,101.649349 35.0699241,100.764851 C34.5681701,99.8803526 33.73086,99.2356303 32.7474995,98.9766007 L30.6354995,98.4934807 C28.9488066,98.1536217 27.2423459,98.9794592 26.4623195,100.513081 L23.5979195,105.813541 L23.3675795,105.780541 C23.3675795,105.780541 6.91773947,110.325301 5.31921947,110.327281 C3.72069947,110.329261 -5.69090053,113.775781 5.12847947,116.399281 C15.9478595,119.022781 29.9794595,120.531541 31.3245395,118.459801 C32.6135195,116.474521 33.5309195,110.060641 34.1486795,108.597421 C34.2184884,108.426477 34.2749767,108.250393 34.3176395,108.070741 L34.3176395,108.070741 Z" id="Path_761" fill="#693B2C"></path>
                                    <path d="M26.7362195,100.218721 C26.7362195,100.218721 46.7454395,28.6087207 64.6261595,25.1437207 C82.5068795,21.6787207 73.1012195,56.6587207 55.2812195,76.9537207 C37.4612195,97.2487207 35.3162195,102.693721 35.3162195,102.693721 L26.7362195,100.218721 Z" id="Path_762" fill="#1F4875"></path>
                                    <path d="M60.8529395,26.6214607 C60.8529395,26.6214607 58.6235919,41.3597281 59.4133789,56.4388454 C59.5721466,59.4701399 60.1070689,62.716312 60.2529995,65.7445875 C60.3357359,67.4614902 59.7437758,69.0807035 60.2529995,70.6197007 L55.8870995,76.2508207 C55.8870995,76.2508207 52.9382195,50.6659207 60.8529395,26.6214607 Z" id="Path_794" fill="#183A5F"></path>
                                    <path d="M148.025079,1.33554075 C148.025079,1.33554075 155.433579,31.5147007 125.073579,35.5070407 C94.7135795,39.4993807 88.2785795,32.3502607 86.6285795,42.0298207 C84.9785795,51.7093807 84.9785795,82.5637207 80.8535795,100.383721 C80.8535795,101.043721 68.8085795,101.868721 68.8085795,101.868721 C68.8085795,101.868721 48.1835795,48.4087207 63.6935795,20.0287207 C68.6488595,11.3662207 101.808579,5.27112075 110.388579,2.50242075 C118.968579,-0.266279253 147.546579,-0.858299253 148.025079,1.33554075 Z" id="Path_760" fill="#366090"></path>
                                </g>
                                <g id="上身" transform="translate(60.720000, 52.075422)" fill-rule="nonzero">
                                    <path d="M43.4148,46.9905782 C43.7793079,46.9905782 44.0748,47.2860703 44.0748,47.6505782 C44.0748,48.0150862 43.7793079,48.3105782 43.4148,48.3105782 L24.7137,48.3105782 C24.3491921,48.3105782 24.0537,48.0150862 24.0537,47.6505782 C24.0537,47.2860703 24.3491921,46.9905782 24.7137,46.9905782 L43.4148,46.9905782 Z M29.9847623,32.2545687 C30.183401,32.3898493 30.2928041,32.6224112 30.2703682,32.8616909 C30.2479323,33.1009705 30.0972042,33.3091414 29.87688,33.4051382 L20.10888,38.0059982 C20.0210646,38.0460192 19.9255409,38.0662954 19.82904,38.0654268 C19.5224778,38.0626974 19.2581376,37.8492542 19.1909157,37.5501406 C19.1236939,37.251027 19.2712914,36.9450062 19.54722,36.8113982 L29.31522,32.2111982 C29.5296514,32.1026748 29.7861237,32.1192882 29.9847623,32.2545687 Z M27.5473942,0.0751726425 C27.8647088,0.240992758 27.9919514,0.62956593 27.83418,0.950958223 L12.99342,29.3441582 C12.8795536,29.562142 12.6539318,29.6985784 12.408,29.6985784 C12.1773353,29.6982651 11.9635702,29.5775511 11.8441806,29.3801874 C11.7247911,29.1828236 11.7171019,28.9374499 11.8239,28.7329982 L26.66466,0.339798223 C26.8384235,0.0267629988 27.2300798,-0.0906474755 27.5473942,0.0751726425 Z" id="形状结合" fill="#7C858B"></path>
                                    <g id="Object" transform="translate(0.000000, 28.444578)" fill="#616B73">
                                        <path d="M3.54499404,0.658827064 L23.6926697,38.5544818 L37.47348,38.55456 C37.8080983,38.55456 38.07936,38.8258217 38.07936,39.16044 L38.07936,42.61356 C38.07936,42.9481783 37.8080983,43.21944 37.47348,43.21944 L21.72522,43.21944 C21.3906017,43.21944 21.11934,42.9481783 21.11934,42.61356 L21.1186697,41.2124818 L0.436572328,2.31146503 C0.211214042,1.88759204 0.372142011,1.36128608 0.796014997,1.1359278 L2.36945681,0.299384395 C2.7933298,0.074026109 3.31963576,0.234954078 3.54499404,0.658827064 Z" id="形状结合"></path>
                                    </g>
                                    <path d="M46.6356,68.5296782 C46.6356,68.5296782 37.78434,16.5625982 70.89852,9.92167822 C99.17226,4.93207822 104.2569,39.2870582 104.73936,66.5496782 L46.6356,68.5296782 Z" id="Path_766" fill="#7EA2CE"></path>
                                    <path d="M55.7271,44.5617782 C55.7271,44.5617782 60.05868,60.9376982 60.55368,61.9276982 C61.0203,62.8622582 55.17204,71.4376382 47.02368,66.7146782 C46.1076125,66.1761209 45.555574,65.1832096 45.58158,64.1208782 C45.6753,59.5794182 46.6294325,46.7517381 46.8360125,44.3717781 C47.0907725,41.4803181 54.318,38.8224182 55.7271,44.5617782 Z" id="Path_773" fill="#F7BA84"></path>
                                    <path d="M45.68058,59.0936582 C49.5741074,56.5422216 53.5971328,54.1940981 57.7335,52.0587182 C56.75604,48.4445582 55.87494,45.1201382 55.74492,44.6290982 C53.4211425,43.90286 50.8935814,44.7486618 49.47492,46.7272382 C48.0277598,48.5752382 46.81776,50.253178 45.84492,51.7610582 C45.78354,54.1588382 45.7281,56.7763982 45.68058,59.0936582 Z" id="Path_774" fill="#7EA2CE"></path>
                                    <path d="M55.8756,29.7157382 C55.8756,29.7157382 56.79498,48.2788982 57.80676,49.6807382 C57.50382,49.6147382 49.92372,52.5187382 46.92798,54.5092982 C46.46136,54.8194982 45.5532,54.6155582 45.58026,54.0948182 C45.85284,48.8220782 47.1471,32.3385782 49.69932,29.7157382 C52.74984,26.5807382 55.81092,28.4854982 55.8756,29.7157382 Z" id="Path_775" fill="#7EA2CE"></path>
                                    <path d="M55.47036,37.3327982 C55.47036,37.3327982 55.04994,44.5822382 59.05746,56.6496782 C59.05746,56.6496782 62.14164,55.3514582 62.304,54.8782382 C62.46636,54.4050182 58.14204,45.1194782 55.47036,37.3327982 Z" id="Path_793" fill="#6382A8"></path>
                                    <path d="M80.94108,41.9745782 C79.7215102,42.4558463 78.5950183,43.1457225 77.61204,44.0133182 C73.53522,47.6050382 59.74584,58.7973182 42.45186,62.4471182 C37.66686,63.3202982 35.68686,63.0820382 34.44936,62.4471182 C33.21186,61.8121982 31.06686,59.1114782 30.32436,60.3027782 C29.58186,61.4940782 30.65436,62.3672582 31.31436,63.6377582 C31.97436,64.9082582 33.37686,65.5438382 33.21186,66.4968782 C33.04686,67.4499182 24.54936,72.1352582 22.48686,71.6587382 C20.42436,71.1822182 20.42436,73.4057582 21.90936,73.8030782 C23.39436,74.2003982 58.04436,74.5178582 72.72936,68.7996182 C87.41436,63.0813782 93.87246,57.1836182 95.33436,54.9970382 C96.7395,52.8982382 97.5183,35.4531182 80.94108,41.9745782 Z" id="Path_776" fill="#FAC896"></path>
                                    <path d="M75.35682,46.0362182 C75.35682,46.0362182 91.61724,51.7386182 90.5883,59.4929582 C90.62526,59.4672182 95.84718,56.2200182 96.71772,53.6902382 C97.58826,51.1604582 79.41186,42.4669382 78.60072,42.8946182 C77.78958,43.3222982 75.35682,46.0362182 75.35682,46.0362182 Z" id="Path_777" fill="#7EA2CE"></path>
                                    <path d="M82.06176,28.2749582 C81.9522,32.6487782 81.08628,40.7964782 76.38576,44.6356982 C76.2855304,44.7200779 76.2401442,44.8529438 76.2678041,44.9810096 C76.2954641,45.1090753 76.3916399,45.2113661 76.51776,45.2468582 C79.50888,46.1266382 90.97968,50.3222582 92.39274,58.0376582 C92.4269419,58.2338049 92.5623191,58.3972414 92.7486701,58.4673605 C92.9350211,58.5374795 93.1445585,58.5038255 93.29958,58.3788782 C95.8683,56.2668782 103.40814,47.0928782 98.68254,29.0088782 C98.2284508,27.265842 97.2497216,25.7044371 95.87886,24.5360582 C93.68436,22.6702382 90.0108,20.6922182 85.6053,22.7982782 C83.4898198,23.8140479 82.1213923,25.9290067 82.06176,28.2749582 L82.06176,28.2749582 Z" id="Path_778" fill="#7EA2CE"></path>
                                </g>
                                <g id="头部" transform="translate(106.809590, 29.304469)" fill-rule="nonzero">
                                    <path d="M3.9153105,11.2756305 C2.24407368,11.9428341 1.08394482,13.4857698 0.9070305,15.2765505 C0.3288705,20.3407305 -0.4004295,32.8985505 6.1263105,35.6494305 C9.1233705,36.7773705 16.1622705,32.4372105 15.0897705,30.6631305 C14.6785905,29.9833305 11.7455505,8.3346705 3.9153105,11.2756305 Z" id="Path_768" fill="#55312F"></path>
                                    <path d="M30.1714305,32.2075305 L29.1563505,25.4372505 C28.6564276,21.8667133 25.3566678,19.3774885 21.7861305,19.8774111 C18.2155932,20.3773337 15.7263682,23.6770932 16.2262905,27.2476305 L17.3423505,35.2224105 C13.3684905,37.0704105 11.6340105,39.2325705 11.6340105,39.2325705 C11.6340105,39.2325705 17.1535905,51.1211505 22.6857105,54.7425705 C28.2178305,58.3639905 36.1345305,32.9797305 36.1345305,32.9797305 C34.1767045,32.5288425 32.1795274,32.2702153 30.1714305,32.2075305 L30.1714305,32.2075305 Z" id="Path_769" fill="#FAC896"></path>
                                    <path d="M17.3403705,34.8640305 L16.7965305,31.8940305 L24.8848305,29.0659305 C26.9935305,28.8415305 25.8688905,33.5281905 18.4135305,35.2118505 C17.9396505,35.3220705 17.4208905,35.3029305 17.3403705,34.8640305 Z" id="Path_770" fill="#F39C55"></path>
                                    <path d="M27.1420305,23.2605705 C27.0601905,30.1179705 20.4397305,32.1250305 20.4397305,32.1250305 C16.6267614,34.2097905 11.8459373,32.8238734 9.7391505,29.0230305 L4.9297305,20.2872705 C2.84535857,16.4742589 4.23119275,11.6937207 8.0317305,9.5866905 L15.2917305,5.5897305 C19.1047421,3.50535857 23.8852803,4.89119275 25.9923105,8.6917305 L30.8010705,17.4274905 C32.8912905,21.2231505 27.1935105,18.9276705 27.1420305,23.2605705 Z" id="Path_771" fill="#FAC896"></path>
                                    <path d="M26.7189705,2.4850905 C18.9923505,-0.518569499 9.9015105,-1.0346895 5.6082105,4.8927705 C4.78784568,6.02254662 4.32589254,7.37276558 4.2822705,8.7682905 C3.96162138,9.04420165 3.66325452,9.34499612 3.3899505,9.6678705 C1.4491842,12.0014127 0.61478778,15.0614275 1.1023905,18.0571305 C1.5132273,20.9909098 2.69271132,23.7638358 4.5211905,26.0946105 C4.78463082,26.4202434 5.19632496,26.5885051 5.61242988,26.5406062 C6.02853414,26.4927073 6.39122922,26.2353038 6.5737905,25.8583305 C8.06385996,22.8935044 9.2089626,19.7675576 9.9866505,16.5417705 C10.7327066,16.9343448 11.523677,17.2348646 12.3421905,17.4367305 C17.0585505,18.5587305 20.8093305,18.1350105 20.9221905,19.1230305 C21.0350505,20.1110505 22.1695905,19.8120705 22.6348905,19.5078105 C23.1001905,19.2035505 21.9748905,16.6658505 24.0103305,16.2632505 C26.0457705,15.8606505 26.7427305,17.5311105 26.4166905,18.3191505 C26.0906505,19.1071905 22.9774305,20.2991505 23.2486905,21.1881705 C23.5199505,22.0771905 26.4041505,28.1274105 27.6231705,28.5702705 C28.8421905,29.0131305 30.7825905,27.3637905 33.6535905,26.5374705 C37.3225305,25.4814705 37.0308105,26.6694705 38.9923305,25.6055505 C40.9538505,24.5416305 37.4598105,6.6609105 26.7189705,2.4850905 Z" id="Path_772" fill="#7A3F41"></path>
                                    <g id="五官" transform="translate(6.799410, 17.583749)">
                                        <circle id="Ellipse_54" fill="#231F20" cx="3.56212089" cy="8.02972189" r="1"></circle>
                                        <circle id="Ellipse_55" fill="#231F20" cx="9.83212089" cy="4.60564189" r="1"></circle>
                                        <path d="M3.34300089,12.5738219 C1.6392908,12.5738219 0.258160892,11.192692 0.258160892,9.48898189 C0.258160892,7.78527181 1.6392908,6.40414189 3.34300089,6.40414189 C5.04671098,6.40414189 6.42784089,7.78527181 6.42784089,9.48898189 C6.4256592,11.1917875 5.04580648,12.5716402 3.34300089,12.5738219 L3.34300089,12.5738219 Z M3.34300089,6.67342189 C1.78801004,6.67342189 0.527440892,7.93399105 0.527440892,9.48898189 C0.527440892,11.0439727 1.78801004,12.3045419 3.34300089,12.3045419 C4.89799174,12.3045419 6.15856089,11.0439727 6.15856089,9.48898189 C6.15674243,7.9347449 4.89723789,6.67524035 3.34300089,6.67342189 L3.34300089,6.67342189 Z" id="Path_787" fill="#FFFFFF"></path>
                                        <path d="M10.0545409,8.18020196 C8.65749719,8.18046886 7.39787939,7.33908021 6.86313059,6.04843118 C6.3283818,4.75778217 6.62383061,3.27208979 7.6116897,2.2842307 C8.59954879,1.29637161 10.0852412,1.0009228 11.3758902,1.53567159 C12.6665392,2.07042039 13.5079279,3.33003819 13.507661,4.72708189 C13.5054786,6.63328276 11.9607418,8.1780196 10.0545409,8.18020196 L10.0545409,8.18020196 Z M10.0545409,1.57492182 C8.77955116,1.57465494 7.62995669,2.34248479 7.14185426,3.52034509 C6.65375182,4.6982054 6.92327431,6.05411386 7.82473382,6.95576215 C8.72619333,7.85741048 10.0820453,8.1272169 11.2600078,7.63936107 C12.4379703,7.15150531 13.2060409,6.00207166 13.2060409,4.72708189 C13.2042227,2.9872033 11.7944191,1.57710443 10.0545409,1.57492182 L10.0545409,1.57492182 Z" id="Path_788" fill="#FFFFFF"></path>
                                        <polygon id="Path_2245" fill="#FFFFFF" transform="translate(6.315822, 6.870023) rotate(-37.236659) translate(-6.315822, -6.870023) " points="5.29696467 6.70505231 7.3346788 6.70505231 7.3346788 7.03499307 5.29696467 7.03499307"></polygon>
                                        <path d="M1.07326089,6.8687819 C0.957772657,6.8687819 0.850677406,6.80844527 0.790882487,6.70964193 C0.731087568,6.61083858 0.727294349,6.48796544 0.780880892,6.38566189 C0.812560892,6.32560189 1.56364089,4.90990189 2.68432089,4.62940189 C2.86052986,4.58659383 3.03826767,4.69398378 3.08233303,4.86988253 C3.12639838,5.04578129 3.02028047,5.22428149 2.84470089,5.26960189 C2.15368089,5.44252189 1.54318089,6.35464189 1.36564089,6.69124189 C1.30885225,6.80025653 1.19618009,6.86867371 1.07326089,6.8687819 Z" id="Path_789" fill="#55312F"></path>
                                        <path d="M6.58162089,2.38606197 C6.45565603,2.38589746 6.34077224,2.31403778 6.28550753,2.20084332 C6.23024283,2.08764887 6.2442383,1.95286672 6.32158089,1.85344189 C6.36316089,1.79998189 7.35316089,0.540041894 8.50618089,0.463481894 C8.68720829,0.453969555 8.84289114,0.590338368 8.85730089,0.771041894 C8.86309335,0.858392069 8.83394061,0.944464464 8.77625874,1.01031587 C8.71857686,1.07616728 8.63709315,1.11640089 8.54974089,1.12216189 C7.86540168,1.29012099 7.2613768,1.69218163 6.84232089,2.25868189 C6.77975028,2.33911738 6.68352743,2.38613259 6.58162089,2.38606197 Z" id="Path_790" fill="#55312F"></path>
                                        <path d="M8.43358089,10.8169019 L8.39332089,10.8169019 C7.62244089,10.7825819 6.69184089,8.10364189 6.42520089,7.28326189 C6.40344365,7.22630384 6.41487052,7.16198978 6.45491659,7.11601251 C6.49496266,7.07003524 6.55709984,7.04988971 6.61650498,7.06362385 C6.67591012,7.077358 6.72289932,7.12273295 6.73870089,7.18162189 C7.25218089,8.75836189 8.03626089,10.4710619 8.40784089,10.4875619 C8.67184089,10.4961419 9.10018089,10.3278419 9.66514089,9.44410189 L9.69484089,9.39856189 C9.74665471,9.32706482 9.84557203,9.30903012 9.9192841,9.35764119 C9.99299615,9.40625225 10.0153747,9.50427822 9.97006089,9.58006189 L9.94366089,9.62164189 C9.43612089,10.4149619 8.92792089,10.8169019 8.43358089,10.8169019 Z" id="Path_791" fill="#F39C55"></path>
                                        <path d="M10.2881809,13.4430419 C10.1212217,13.4435392 9.95452219,13.42985 9.78988089,13.4021219 C9.65661069,13.3773833 9.56822121,13.2498079 9.59188089,13.1163419 C9.61699436,12.9829084 9.7434988,12.893508 9.87766089,12.9143819 C9.95488089,12.9289019 11.7771409,13.2199619 12.0952609,11.6650019 C12.1225991,11.5310453 12.2533542,11.444614 12.3873109,11.471952 C12.5212675,11.4992901 12.6076989,11.6300453 12.5803609,11.7640019 C12.3499354,12.8222168 11.3666156,13.5425063 10.2881809,13.4430419 Z" id="Path_792" fill="#F97700"></path>
                                    </g>
                                </g>
                                <g id="对话框">
                                    <path d="M13.48578,0.297 L85.4964,0.27258 C92.90292,0.27258 98.91024,9.29544 98.9135418,20.43228 C98.91684,30.12306 94.37274,38.21532 88.31262,40.15572 L90.88662,48.05394 L79.54056,40.6032 L26.16372,40.62102 L17.99886,40.62432 L13.49832,40.62432 C6.09246,40.62432 0.08514,31.6008 0.0811780418,20.46462 C0.07722,9.32844 6.07992,0.29964 13.48578,0.297 Z" id="Path_780" fill="#8DBFFC" fill-rule="nonzero"></path>
                                    <circle id="椭圆形" fill="#FFFFFF" cx="20.71872" cy="20.46" r="8.58"></circle>
                                    <g id="客服系统图标" opacity="0.6" transform="translate(16.598720, 16.000000)" fill-rule="nonzero">
                                        <g id="客服">
                                            <path d="M7.292376,0 C8.2217917,-1.70730895e-16 8.975232,0.753440295 8.975232,1.682856 L8.975232,6.45587824 C8.975232,7.38529395 8.2217917,8.13873424 7.292376,8.13873424 L7.25259816,8.14014616 C7.21951023,8.14190611 7.1861887,8.14279747 7.15265679,8.14279747 L6.58253728,8.14279747 L6.30004238,8.77161733 C6.24944648,8.88424134 6.11736745,8.93482812 6.00448208,8.88481808 L4.32955301,8.14279747 L1.82236506,8.14279747 L1.722,8.138 L1.682856,8.13873424 C0.753440295,8.13873424 3.35865202e-16,7.38529395 0,6.45587824 L0,1.682856 C1.08224008e-16,0.753440295 0.753440295,-5.13137097e-17 1.682856,0 L7.292376,0 Z" id="形状结合" fill="#8DBFFC"></path>
                                            <path d="M7.69067084,5.79905775 C7.79252885,5.91576151 7.780494,6.09294083 7.66379025,6.19479884 C7.03083403,6.74723747 5.82090182,7.0866936 4.48639508,7.0866936 C3.15394473,7.0866936 1.94559894,6.74827543 1.31184715,6.19727908 C1.19494836,6.09564496 1.1825739,5.91848904 1.28420802,5.80159025 C1.38584214,5.68469146 1.56299806,5.672317 1.67989685,5.77395112 C2.19643119,6.22303629 3.27726169,6.5257416 4.48639508,6.5257416 C5.69727031,6.5257416 6.77937555,6.22214835 7.29492975,5.77217716 C7.41163351,5.67031915 7.58881283,5.682354 7.69067084,5.79905775 Z M4.48208546,1.49296179 C4.62666123,1.49296179 4.74386306,1.61016361 4.74386306,1.75473939 L4.74386306,5.34483219 C4.74386306,5.48940796 4.62666123,5.60660979 4.48208546,5.60660979 C4.33750968,5.60660979 4.22030786,5.48940796 4.22030786,5.34483219 L4.22030786,1.75473939 C4.22030786,1.61016361 4.33750968,1.49296179 4.48208546,1.49296179 Z M2.98621346,1.86692979 C3.13078923,1.86692979 3.24799106,1.98413161 3.24799106,2.12870739 L3.24799106,4.97086419 C3.24799106,5.11543996 3.13078923,5.23264179 2.98621346,5.23264179 C2.84163768,5.23264179 2.72443586,5.11543996 2.72443586,4.97086419 L2.72443586,2.12870739 C2.72443586,1.98413161 2.84163768,1.86692979 2.98621346,1.86692979 Z M5.97795746,1.86692979 C6.12253323,1.86692979 6.23973506,1.98413161 6.23973506,2.12870739 L6.23973506,4.97086419 C6.23973506,5.11543996 6.12253323,5.23264179 5.97795746,5.23264179 C5.83338168,5.23264179 5.71617986,5.11543996 5.71617986,4.97086419 L5.71617986,2.12870739 C5.71617986,1.98413161 5.83338168,1.86692979 5.97795746,1.86692979 Z M1.49034146,2.24089779 C1.63491723,2.24089779 1.75211906,2.35809961 1.75211906,2.50267539 L1.75211906,4.59689619 C1.75211906,4.74147196 1.63491723,4.85867379 1.49034146,4.85867379 C1.34576568,4.85867379 1.22856386,4.74147196 1.22856386,4.59689619 L1.22856386,2.50267539 C1.22856386,2.35809961 1.34576568,2.24089779 1.49034146,2.24089779 Z M7.47382946,2.24089779 C7.61840523,2.24089779 7.73560706,2.35809961 7.73560706,2.50267539 L7.73560706,4.59689619 C7.73560706,4.74147196 7.61840523,4.85867379 7.47382946,4.85867379 C7.32925368,4.85867379 7.21205186,4.74147196 7.21205186,4.59689619 L7.21205186,2.50267539 C7.21205186,2.35809961 7.32925368,2.24089779 7.47382946,2.24089779 Z" id="形状结合" fill="#FFFFFF"></path>
                                        </g>
                                    </g>
                                    <rect id="矩形" fill="#FFFFFF" x="36.3" y="12.2" width="43.56" height="5" rx="1"></rect>
                                    <rect id="矩形备份" fill="#FFFFFF" x="36.3" y="23.76" width="25.08" height="5" rx="1"></rect>
                                </g>
                            </g>
                            <g id="boy" transform="translate(179.921280, 71.414493)" fill-rule="nonzero">
                                <ellipse id="Ellipse_56" fill="#5C8BEA" transform="translate(101.401559, 153.498983) rotate(-3.612075) translate(-101.401559, -153.498983) " cx="101.401559" cy="153.498983" rx="93.4989574" ry="8.90525975"></ellipse>
                                <g id="下身" transform="translate(0.954360, 82.510341)">
                                    <path d="M75.02748,44.2302662 C75.53436,43.8342662 91.4364,33.1686662 91.575,31.0302662 C91.76706,28.0602662 99.495,46.2102662 107.415,49.1802662 C115.335,52.1502662 132.66,58.5852662 130.02,43.0752662 C127.38,27.5652662 117.645,2.65026619 103.455,0.175266195 C89.265,-2.29973381 35.31,22.1202662 32.835,30.3702662 C30.36,38.6202662 42.14364,61.7202662 75.02748,44.2302662 Z" id="Path_795" fill="#ACB7BD"></path>
                                    <path d="M176.08998,64.3411262 L171.89436,64.6493462 C170.947159,64.719033 170.016079,64.3758303 169.340712,63.7080529 C168.665346,63.0402761 168.311642,62.1131345 168.37062,61.1652062 L168.65046,56.6679662 C168.754838,54.9921404 170.104851,53.6640356 171.78216,53.5870862 L175.47816,53.4174662 C175.47816,53.2716062 175.47816,53.1858062 175.47816,53.1858062 C175.47816,53.1858062 181.98708,37.8177062 182.21016,36.2475662 C182.43324,34.6774262 186.94236,26.0320862 187.84854,37.1200862 C188.75472,48.2080862 188.17854,62.2561862 186.07512,63.2158262 C184.0476,64.1398262 177.93468,63.9154262 176.54076,64.2751262 C176.392758,64.3104652 176.241901,64.3325521 176.08998,64.3411262 L176.08998,64.3411262 Z" id="Path_796" fill="#693B2C"></path>
                                    <path d="M95.4855126,36.1327687 C95.3878259,35.9800652 95.2753475,35.7852326 95.0902035,35.4951058 C94.7838592,35.0150541 94.3535682,34.3213779 93.895726,33.5974648 C93.2575303,32.5883874 92.5904099,31.426824 91.740776,30.6913338 C91.740776,30.6840738 92.78346,29.5512062 93.45864,28.7704262 C93.5839436,28.6260142 93.7753423,28.5571749 93.9639221,28.5886945 C94.152502,28.6202142 94.3111105,28.7475546 94.38264,28.9248662 L99.6467776,42.283329 C98.6688601,40.907809 97.9838174,39.9412807 97.5916494,39.3837441 C96.2145512,37.4259537 95.5831994,36.2854723 95.4855126,36.1327687 Z" id="Path_812" fill="#8A9296"></path>
                                    <path d="M-1.87583282e-14,34.5988862 C-1.87583282e-14,34.5988862 0.165,78.4888862 56.76,76.6738862 C113.355,74.8588862 170.61,65.2888862 171.435,64.7938862 C172.26,64.2988862 173.25,53.4088862 171.435,53.2438862 C169.62,53.0788862 70.455,40.0438862 34.65,25.1938862 C21.12,21.7288862 2.31,21.7288862 -1.87583282e-14,34.5988862 Z" id="Path_804" fill="#D3D8DC"></path>
                                </g>
                                <g id="上身" transform="translate(0.000000, 42.105507)">
                                    <path d="M67.86054,36.3 C67.86054,36.3 74.32458,34.09164 74.76414,32.5776 C75.2037,31.06356 77.84436,24.23124 78.72414,23.90718 C79.60392,23.58312 77.40414,30.84246 77.07414,32.0529 C76.74414,33.26334 80.51208,35.51394 81.43014,35.21364 C82.3482,34.91334 80.7873,40.5042 75.6294,42.16344 C70.4715,43.82268 63.81672,40.65996 67.86054,36.3 Z" id="Path_797" fill="#FAC896"></path>
                                    <path d="M34.15698,18.11568 C35.545325,18.8050487 36.7137773,19.8681298 37.5309,21.18534 C40.25274,25.49316 48.63474,37.24578 59.14458,37.33554 C67.61436,37.4451 70.14414,35.21628 70.14414,35.21628 C70.14414,35.21628 75.42414,38.98554 75.97458,41.4051 C76.52502,43.82466 46.86,62.634 31.99284,36.894 C19.31358,14.94504 28.56546,15.39318 34.15698,18.11568 Z" id="Path_803" fill="#0B7D73"></path>
                                    <g id="手机" transform="translate(74.580000, 9.240000)">
                                        <path d="M11.50116,0.13398 L19.3872422,1.88009127 L23.10594,2.70336 C23.4431089,2.76886494 23.7328766,2.98267215 23.8949228,3.2855167 C24.0569689,3.58836125 24.0740753,3.94806422 23.9415,4.26492 L14.95032,28.23216 C14.6645381,28.9443271 13.9151411,29.3550995 13.16106,29.21292 L11.3982422,28.8220913 L9.1202422,28.3180913 L2.82612,26.92536 L2.8212422,26.9240913 L1.55628,26.6442 C1.21906809,26.5785181 0.929315713,26.3645749 0.767286947,26.0616349 C0.60525818,25.7586948 0.588156782,25.3989232 0.72072,25.08198 L9.7119,1.11474 C9.9978875,0.402755237 10.747122,-0.00792807583 11.50116,0.13398 Z" id="形状结合" fill="#6877A7"></path>
                                        <polygon id="Path_807" fill="#DCE9FF" points="22.36212 4.80942 18.32094 15.58326 17.95068 16.57326 16.13568 21.41238 15.74958 22.44594 14.29758 26.31288 1.34112 23.44188 1.69422 22.49016 2.079 21.48432 5.5704 12.16842 6.6561 9.25188 9.39906 1.94106 13.68906 2.88684 14.78598 3.13698 20.65404 4.42992 21.57276 4.62792"></polygon>
                                        <path d="M14.5035,26.69964 L1.21044,23.76594 L9.4545,1.63944 L22.80432,4.56984 L14.5035,26.69964 Z M2.0955,23.2848 L14.08902,25.93206 L21.92124,5.049 L9.87492,2.40504 L2.0955,23.2848 Z" id="Path_808" fill="#6877A7"></path>
                                    </g>
                                    <path d="M74.76414,41.0751 C74.76414,41.0751 79.16436,38.54532 79.71414,37.1151 C80.26392,35.68488 80.70414,31.8351 82.02414,31.1751 C83.34414,30.5151 83.45436,32.1651 83.45436,34.03554 C83.45436,35.90598 82.24458,37.66554 83.45436,37.33554 C84.66414,37.00554 92.25414,30.5151 93.13458,26.77554 C94.01502,23.03598 95.11458,23.5851 95.44458,24.9051 C95.77458,26.2251 96.32436,33.4851 92.80458,38.1051 C89.2848,42.7251 84.33414,48.08562 80.48436,50.30058 C76.63458,52.51554 68.16414,47.89554 74.76414,41.0751 Z" id="Path_809" fill="#FAC896"></path>
                                    <path d="M1.61436,79.24554 C1.61436,79.24554 -6.59208,6.61848 15.93636,0.69168 C23.61414,-0.28446 40.44414,-2.92446 40.44414,35.4651 C40.76358,47.07384 54.28104,53.4237 74.20776,40.43952 C74.7437453,40.0854346 75.3991861,39.9606874 76.0277694,40.0931249 C76.6563521,40.2255625 77.2057427,40.604159 77.5533,41.1444 C79.2561,43.8174 81.89346,48.35754 81.36414,50.09532 C81.58458,49.87554 62.88414,68.7951 39.23436,69.7851 C39.34458,69.894 32.30436,78.91554 1.61436,79.24554 Z" id="Path_810" fill="#179E98"></path>
                                    <path d="M48.444,68.35092 C48.444,68.35092 24.60216,76.27554 12.39216,54.49554 C12.39216,54.49554 11.8305,59.67522 11.06028,60.99522 C10.29006,62.31522 25.20738,75.6063 48.444,68.35092 Z" id="Path_814" fill="#0B7D73"></path>
                                    <path d="M1.61436,79.24554 C1.61436,79.24554 4.35107417,77.2379417 8.15535574,77.0102051 C13.0487406,76.7172712 20.6889084,75.5950974 28.0383391,73.9680176 C30.6938611,73.3801154 32.7886562,73.9721997 35.4387,72.7584 C32.3037,75.7284 25.36512,80.91336 3.09012,86.30292 C2.66244,85.64622 1.67574,80.29032 1.61436,79.24554 Z" id="Path_813" fill="#179E98"></path>
                                </g>
                                <g id="头部" transform="translate(9.073486, -0.000000)">
                                    <path d="M15.7392968,29.3842603 L15.7392968,29.3842603 C19.4978448,29.3846248 22.5445568,32.4316322 22.5445568,36.1901803 L22.5445568,47.4933403 C22.5445568,51.2518884 19.4978448,54.2988958 15.7392968,54.2992603 L15.7392968,54.2992603 C11.980491,54.2992603 8.93337677,51.2521462 8.93337677,47.4933403 L8.93337677,36.1901803 C8.93337677,32.4313745 11.980491,29.3842603 15.7392968,29.3842603 Z" id="Path_2240" fill="#FAC896" transform="translate(15.738967, 41.841760) rotate(27.602000) translate(-15.738967, -41.841760) "></path>
                                    <polygon id="Path_798" fill="#F39C55" points="13.6404144 34.8587074 20.6971344 47.1551674 23.9436744 40.7492074"></polygon>
                                    <path d="M17.3852544,39.8575474 C17.3852544,39.8575474 29.9655144,55.2830674 36.3543144,31.9606474 C42.7431144,8.63822737 19.4787744,10.9898074 14.7221544,18.5283274 C10.7383944,24.8418874 12.2392344,32.7962074 17.3852544,39.8575474 Z" id="Path_799" fill="#FAC896"></path>
                                    <path d="M12.4312944,5.06894737 C12.762021,5.07519487 13.0927887,5.05887696 13.4212944,5.02010737 C15.7128144,4.70000737 17.3067144,2.49956737 19.2952944,1.46930737 C20.9945669,0.569025265 22.8764514,0.0672947172 24.7983744,0.00212737315 C30.6967944,-0.129872627 35.1498144,5.90912737 37.9983744,10.2506074 C39.7308744,12.8906074 40.8654144,12.3434674 43.1958744,13.7981074 C45.5263344,15.2527474 46.0708344,18.1791874 45.7533744,21.2844874 C45.4359144,24.3897874 41.6455344,27.6561274 37.5086544,27.9379474 C33.3717744,28.2197674 27.9320544,26.8779874 25.1930544,30.9310474 C24.5661815,30.4667041 23.9161238,30.0345071 23.2453944,29.6361274 C23.2453944,29.6361274 22.9662144,25.8497074 21.3973944,25.6596274 C19.8285744,25.4695474 18.2914344,27.3842074 19.7394744,31.7586874 C20.6634744,34.5524674 19.0134744,35.5411474 19.0134744,35.5411474 C19.0134744,35.5411474 16.2896544,37.2221674 11.4162144,36.2242474 C8.94375423,36.0071519 6.60667747,35.0005892 4.75021442,33.3532474 C1.47595442,30.6076474 0.501134418,27.2119474 0.0477144184,23.1199474 C-0.405705582,19.0279474 2.53063442,19.2754474 2.17687442,14.1129274 C1.39939442,11.7950074 1.91287442,9.76814737 4.17799442,7.95776737 C6.39491977,6.06823232 9.21951965,5.04263911 12.1323144,5.06960737 L12.4312944,5.06894737 Z" id="Path_800" fill="#4D2B1F"></path>
                                    <path d="M28.9154544,31.1666674 C29.2799624,31.1666674 29.5754544,31.4621594 29.5754544,31.8266674 L29.5704646,31.7598438 C29.6270639,31.744038 29.6867323,31.7355874 29.7483744,31.7355874 C30.1128824,31.7355874 30.4083744,32.0310794 30.4083744,32.3955874 C30.4083744,32.4974532 30.3852969,32.593929 30.3440848,32.6800718 C30.4984722,32.7999416 30.5971344,32.9875226 30.5971344,33.1981474 C30.5971344,33.5626553 30.3016424,33.8581474 29.9371344,33.8581474 C29.5726265,33.8581474 29.2771344,33.5626553 29.2771344,33.1981474 C29.2771344,33.1822551 29.2776961,33.166494 29.2788007,33.1508829 C29.1854652,33.2062146 29.0748552,33.2370874 28.9570344,33.2370874 C28.5925265,33.2370874 28.2970344,32.9415953 28.2970344,32.5770874 C28.2970344,32.4498573 28.3330351,32.3310357 28.3954056,32.2302535 C28.3073112,32.1199541 28.2554544,31.9793666 28.2554544,31.8266674 C28.2554544,31.4621594 28.5509465,31.1666674 28.9154544,31.1666674 Z" id="形状结合" fill="#F97700"></path>
                                    <path d="M33.4014744,32.0721874 C33.7696274,32.0721874 34.0680744,32.3706344 34.0680744,32.7387874 C34.0680744,33.1069404 33.7696274,33.4053874 33.4014744,33.4053874 C33.0333214,33.4053874 32.7348744,33.1069404 32.7348744,32.7387874 C32.7348744,32.3706344 33.0333214,32.0721874 33.4014744,32.0721874 Z M34.4733144,29.7714274 C35.1271118,30.1050335 35.5817434,30.7314094 35.6962944,31.4564074 C35.7290851,31.589086 35.6481263,31.7232294 35.5154544,31.7560474 C35.4960968,31.7616022 35.4761672,31.7649238 35.4560544,31.7659474 C35.3422533,31.7659474 35.2431267,31.6883224 35.2158144,31.5778474 C35.1338517,31.0036865 34.7850605,30.5021615 34.2753144,30.2255074 C33.6624947,30.0435117 33.0025984,30.1108771 32.4391944,30.4129474 C32.3192873,30.4765591 32.1705186,30.4317271 32.1057243,30.3124549 C32.04093,30.1931826 32.0842887,30.0439779 32.2029144,29.9780074 C32.8991386,29.5999708 33.7202945,29.5252551 34.4733144,29.7714274 Z" id="形状结合" fill="#231F20"></path>
                                    <path d="M28.7814744,38.9434474 C28.7814744,38.9434474 30.2407344,41.0415874 31.4716344,40.6818874 C31.7085744,40.6759474 26.7552744,43.5337474 28.7814744,38.9434474 Z" id="Path_816" fill="#FFFFFF"></path>
                                </g>
                            </g>
                            <g id="对话框" transform="translate(265.320000, 64.680000)" fill-rule="nonzero">
                                <path d="M55.64262,0.17424 L9.05124,0.1551 C4.25964,0.1551 0.3729,7.04022 0.37092,15.53772 C0.37092,22.92972 3.30858,29.10666 7.22964,30.58572 L5.5638,36.61152 L12.90432,30.92694 L47.43882,30.9408 L52.71882,30.9408 L55.63074,30.9408 C60.423,30.9408 64.30908,24.05568 64.3117213,15.55884 C64.31436,7.062 60.43422,0.17622 55.64262,0.17424 Z" id="Path_811" fill="#8DBFFC"></path>
                                <g id="Group_245" transform="translate(14.520000, 21.780000)" fill="#FFFFFF">
                                    <circle id="Ellipse_57" cx="1.82754" cy="1.97802" r="1.80972"></circle>
                                    <circle id="Ellipse_58" cx="7.97808" cy="1.97802" r="1.80972"></circle>
                                    <circle id="Ellipse_59" cx="14.12862" cy="1.97802" r="1.80972"></circle>
                                </g>
                            </g>
                        </g>
                    </g>
                </g>
            </g>
        </g>
    </g>
</svg>