<?xml version="1.0" encoding="UTF-8"?>
<svg width="82px" height="82px" viewBox="0 0 82 82" version="1.1" xmlns="http://www.w3.org/2000/svg" xmlns:xlink="http://www.w3.org/1999/xlink">
    <!-- Generator: Sketch 62 (91390) - https://sketch.com -->
    <title>延误转接</title>
    <desc>Created with Sketch.</desc>
    <g id="页面-1" stroke="none" stroke-width="1" fill="none" fill-rule="evenodd">
        <g id="首页" transform="translate(-1419.000000, -10571.000000)">
            <g id="模块8" transform="translate(0.000000, 10173.000000)">
                <g id="延误转接" transform="translate(1419.000000, 398.000000)">
                    <circle id="椭圆形备份-24" fill="#3477F4" fill-rule="evenodd" cx="41" cy="41" r="41"></circle>
                    <path d="M30,48 C30,55.7319865 36.2680135,62 44,62 C51.7319865,62 58,55.7319865 58,48 C58,40.2680135 51.7319865,34 44,34 C36.2680135,34 30,40.2680135 30,48 Z" id="路径" fill="#FFFFFF" fill-rule="nonzero" opacity="0.2"></path>
                    <g id="编组" stroke-width="1" fill-rule="evenodd" transform="translate(24.000000, 24.000000)" fill="#FFFFFF" stroke="#FFFFFF">
                        <path d="M17.4133311,18.4854247 L25.2870154,18.4854247 C26.1656029,18.4930248 26.8751127,19.2050148 26.8796863,20.0836235 C26.8826297,20.5071782 26.715883,20.9142901 26.4166389,21.2140573 C26.1173947,21.5138245 25.7105746,21.6812819 25.2870154,21.679061 L15.8135417,21.679061 C15.3925727,21.6775402 14.9895091,21.5085597 14.6933311,21.2094013 C14.3877961,20.9165164 14.2174469,20.510011 14.2228984,20.0868048 L14.2228984,10.6097522 C14.2309201,9.73275011 14.9412914,9.02450349 15.8183136,9.01904758 C16.2420025,9.01538312 16.649529,9.18152744 16.9498429,9.48042159 C17.2501568,9.77931573 17.4182304,10.1860504 17.4165124,10.6097522 L17.4165124,18.4854247 L17.4133311,18.4854247 Z M17.0001615,30.6614013 C21.8146768,30.6474593 26.2706945,28.1146333 28.7458692,23.9850738 C29.0339179,23.4470581 29.5942606,23.1107974 30.2045326,23.1097324 C30.8148045,23.1086675 31.3763174,23.4429705 31.6662421,23.9799776 C31.9561668,24.5169847 31.9276191,25.1698555 31.5919276,25.6795066 C27.6837945,32.2459017 19.8703161,35.3921138 12.5023635,33.3662007 C5.13441094,31.3402875 0.0279237186,24.641565 0.0264063759,17.0001615 C0.0257558413,16.3302507 0.429006848,15.7260143 1.04788756,15.4695624 C1.66676827,15.2131105 2.37920984,15.355026 2.8525826,15.8290504 L7.19503874,20.1715066 C7.78121285,20.8269698 7.75365459,21.8260683 7.1322398,22.4482225 C6.51082501,23.0703767 5.51176001,23.099123 4.85560015,22.5137288 L4.24717909,21.908489 C6.28524759,27.1777767 11.3504655,30.6542505 17.0001615,30.6614013 L17.0001615,30.6614013 Z M17.0001615,3.33931944 C11.7668112,3.31624845 6.98617698,6.30329393 4.71244225,11.0169569 C4.45323457,11.5485848 3.93009669,11.9015436 3.34008957,11.9428771 C2.75008246,11.9842106 2.18284223,11.7076393 1.85204279,11.2173449 C1.52124335,10.7270506 1.47714101,10.0975205 1.73634868,9.56589254 C5.1993814,2.4594721 13.1093642,-1.31591097 20.8123687,0.461032964 C28.5153731,2.2379769 33.9723467,9.09684739 33.9723467,17.0021499 C33.9757281,17.6733909 33.5727007,18.27998 32.9525834,18.5369443 C32.3324661,18.7939086 31.6185185,18.6501719 31.1461499,18.173261 L26.4036469,13.4275768 C25.7756815,12.7784124 25.7839446,11.7457176 26.4222177,11.1066852 C27.0604907,10.4676527 28.0931749,10.4581615 28.7430855,11.0853545 L29.7503604,12.0926294 C27.7136858,6.8230373 22.6496365,3.34534334 17.0001615,3.33653582 L17.0001615,3.33931944 Z" id="形状" fill-rule="nonzero"></path>
                    </g>
                </g>
            </g>
        </g>
    </g>
</svg>