<svg height="26" viewBox="0 0 31 26" width="31" xmlns="http://www.w3.org/2000/svg"><path d="m235.586397 318.518519c.849747 0 1.538603.688856 1.538603 1.538602v7.628677c0 .060647-.003509.120474-.010335.17929.006863.092958.010335.187604.010335.28306 0 2.127319-1.724533 3.851852-3.851852 3.851852h-15.546296c-2.127319 0-3.851852-1.724533-3.851852-3.851852 0-.095456.003472-.190102.010298-.283817-.006789-.058059-.010298-.117886-.010298-.178533v-7.628677c0-.849746.688856-1.538602 1.538603-1.538602s1.538603.688856 1.538603 1.538602l.000343 4.317027c.250133-.051048.509088-.077852.774303-.077852h15.546296c.265215 0 .52417.026804.774303.077852l.000343-4.317027c0-.849746.688856-1.538602 1.538603-1.538602zm1.163492-9.124698s4.269213 4.512454 4.250047 4.493494c0 1.687431-1.384675 3.052543-3.096206 3.052543-.249999 0-.499998-.03792-.730766-.094799-.115384-.01896-.230769-.05688-.346153-.0948h-.01923c-.326922-.113759-.653844-.303358-.923073-.530877-.076923-.05688-.153846-.132719-.230769-.208559l-.057692-.056879c-.057692-.05688-.115384-.13272-.173076-.189599-.019231-.03792-.038461-.05688-.057692-.07584l-.153846-.227519c-.01923-.01896-.01923-.037919-.038461-.056879-.230768-.436078-.384614-.929035-.384614-1.478872 0 1.687431-1.384609 3.052543-3.096141 3.052543-1.711531 0-3.096141-1.365112-3.096141-3.052543 0 1.687431-1.384609 3.052543-3.096141 3.052543-1.711531 0-3.096141-1.365112-3.096141-3.052543 0 1.687431-1.384609 3.052543-3.09614 3.052543-1.711532 0-3.096141-1.365112-3.096141-3.052543 0 .455038-.096154.891115-.288461 1.289273-.038461.113759-.096153.208559-.153845.303358-.249999.398158-.596152.739436-.980765.985914h-.019231c-.096154.05688-.192307.0948-.28846.15168-.019231 0-.019231.018959-.038462.018959l-.28846.11376c-.019231 0-.038462.01896-.038462.01896-.326921.113759-.653843.170639-1.019226.170639-1.711531 0-3.096141-1.365112-3.096141-3.052543l4.269213-4.531414zm-1.057688-3.393821c.57692 0 1.057688.455037 1.057688 1.042794v1.099674h-22.461445v-1.099674c0-.568797.461536-1.042794 1.057688-1.042794z" fill="#04264f" fill-opacity=".4" transform="translate(-210 -306)"/></svg>