<?xml version="1.0" encoding="UTF-8"?>
<svg width="570px" height="350px" viewBox="0 0 570 350" version="1.1" xmlns="http://www.w3.org/2000/svg" xmlns:xlink="http://www.w3.org/1999/xlink">
    <!-- Generator: Sketch 62 (91390) - https://sketch.com -->
    <title>多维度统计客服数据，为多客服 管理提供支</title>
    <desc>Created with Sketch.</desc>
    <defs>
        <rect id="path-1" x="0" y="0" width="570" height="350" rx="8"></rect>
        <rect id="path-3" x="31.7884615" y="38.28125" width="462.576923" height="274.53125" rx="8"></rect>
        <filter x="-4.3%" y="-7.3%" width="108.7%" height="114.6%" filterUnits="objectBoundingBox" id="filter-5">
            <feOffset dx="0" dy="0" in="SourceAlpha" result="shadowOffsetOuter1"></feOffset>
            <feGaussianBlur stdDeviation="5" in="shadowOffsetOuter1" result="shadowBlurOuter1"></feGaussianBlur>
            <feColorMatrix values="0 0 0 0 0.183501437   0 0 0 0 0.538298234   0 0 0 0 0.402155277  0 0 0 0.201376748 0" type="matrix" in="shadowBlurOuter1" result="shadowMatrixOuter1"></feColorMatrix>
            <feMerge>
                <feMergeNode in="shadowMatrixOuter1"></feMergeNode>
                <feMergeNode in="SourceGraphic"></feMergeNode>
            </feMerge>
        </filter>
        <linearGradient x1="50%" y1="94.3848649%" x2="50%" y2="0%" id="linearGradient-6">
            <stop stop-color="#5AD8A6" stop-opacity="0" offset="0%"></stop>
            <stop stop-color="#5AD8A6" stop-opacity="0.457222465" offset="100%"></stop>
        </linearGradient>
        <filter x="-6.5%" y="-26.7%" width="113.1%" height="153.5%" filterUnits="objectBoundingBox" id="filter-7">
            <feOffset dx="0" dy="2" in="SourceAlpha" result="shadowOffsetOuter1"></feOffset>
            <feGaussianBlur stdDeviation="5" in="shadowOffsetOuter1" result="shadowBlurOuter1"></feGaussianBlur>
            <feColorMatrix values="0 0 0 0 0.42745098   0 0 0 0 0.764705882   0 0 0 0 0.635294118  0 0 0 0.240302666 0" type="matrix" in="shadowBlurOuter1" result="shadowMatrixOuter1"></feColorMatrix>
            <feMerge>
                <feMergeNode in="shadowMatrixOuter1"></feMergeNode>
                <feMergeNode in="SourceGraphic"></feMergeNode>
            </feMerge>
        </filter>
    </defs>
    <g id="页面-1" stroke="none" stroke-width="1" fill="none" fill-rule="evenodd">
        <g id="首页" transform="translate(-396.000000, -9233.000000)">
            <g id="模块7" transform="translate(0.000000, 8643.000000)">
                <g id="多维度统计客服数据，为多客服-管理提供支" transform="translate(396.000000, 590.000000)">
                    <mask id="mask-2" fill="white">
                        <use xlink:href="#path-1"></use>
                    </mask>
                    <use id="Mask" fill="#F1F1F1" xlink:href="#path-1"></use>
                    <mask id="mask-4" fill="white">
                        <use xlink:href="#path-3"></use>
                    </mask>
                    <use id="Mask" fill="#6DC3A2" xlink:href="#path-3"></use>
                    <g id="line" filter="url(#filter-5)" transform="translate(44.942308, 26.250000)">
                        <path d="M8,0 L454.576923,0 C458.995201,-3.22053779e-14 462.576923,3.581722 462.576923,8 L462.576923,265 C462.576923,269.418278 458.995201,273 454.576923,273 L8,273 C3.581722,273 5.41083001e-16,269.418278 0,265 L0,8 C-5.41083001e-16,3.581722 3.581722,8.11624501e-16 8,0 Z" id="路径" fill="#FFFFFF" fill-rule="nonzero"></path>
                        <g id="编组" transform="translate(13.153846, 15.093750)">
                            <g transform="translate(2.630769, 0.000000)" fill="#04264F" fill-rule="nonzero" font-family="PingFangSC-Regular, PingFang SC" font-size="10.8" font-weight="normal" id="今日访客和咨询趋势">
                                <text>
                                    <tspan x="0" y="11.703125">今日访客和咨询趋势</tspan>
                                </text>
                            </g>
                            <g transform="translate(0.000000, 42.218750)">
                                <g transform="translate(0.657692, 0.218750)">
                                    <g transform="translate(30.034615, 184.625000)">
                                        <path d="M8.69566528,0.328125 L8.69566528,2.953125 M39.7903846,0.328125 L39.7903846,2.953125 M71.5788462,0.328125 L71.5788462,2.953125 M103.367308,0.328125 L103.367308,2.953125 M134.059615,0.328125 L134.059615,2.953125 M165.848077,0.328125 L165.848077,2.953125 M197.636538,0.328125 L197.636538,2.953125 M229.425,0.328125 L229.425,2.953125 M260.117308,0.328125 L260.117308,2.953125 M291.905769,0.328125 L291.905769,2.953125 M323.694231,0.328125 L323.694231,2.953125 M355.482692,0.328125 L355.482692,2.953125 M386.175,0.328125 L386.175,2.953125" id="形状" stroke="#E6E6E6" stroke-width="0.5" opacity="0.6"></path>
                                        <g transform="translate(0.219231, 6.562500)" fill="#CCCCCC" fill-rule="nonzero" font-family="Helvetica" font-size="7.2" font-weight="normal">
                                            <text id="0:00">
                                                <tspan x="0.584126814" y="8.796875">0:00</tspan>
                                            </text>
                                            <text id="2:00">
                                                <tspan x="29.3769231" y="8.796875">2:00</tspan>
                                            </text>
                                            <text id="4:00">
                                                <tspan x="57.8769231" y="8.796875">4:00</tspan>
                                            </text>
                                            <text id="6:00">
                                                <tspan x="86.3769231" y="8.796875">6:00</tspan>
                                            </text>
                                            <text id="8:00">
                                                <tspan x="115.973077" y="8.796875">8:00</tspan>
                                            </text>
                                            <text id="10:00">
                                                <tspan x="144.473077" y="8.796875">10:00</tspan>
                                            </text>
                                            <text id="12:00">
                                                <tspan x="177.357692" y="8.796875">12:00</tspan>
                                            </text>
                                            <text id="14:00">
                                                <tspan x="210.242308" y="8.796875">14:00</tspan>
                                            </text>
                                            <text id="16:00">
                                                <tspan x="243.126923" y="8.796875">16:00</tspan>
                                            </text>
                                            <text id="18:00">
                                                <tspan x="277.107692" y="8.796875">18:00</tspan>
                                            </text>
                                            <text id="20:00">
                                                <tspan x="309.992308" y="8.796875">20:00</tspan>
                                            </text>
                                            <text id="22:00">
                                                <tspan x="342.876923" y="8.796875">22:00</tspan>
                                            </text>
                                            <text id="24:00">
                                                <tspan x="375.761538" y="8.796875">24:00</tspan>
                                            </text>
                                        </g>
                                    </g>
                                    <g>
                                        <g opacity="0.6" transform="translate(22.361538, 6.125000)" id="路径" stroke-dasharray="0,0" stroke-width="0.6">
                                            <path d="M0.173414964,178.828125 L15.9470688,178.828125 L47.4943765,178.828125 L79.0416842,178.828125 L110.588992,178.828125 L142.1363,178.828125 L173.683607,178.828125 L205.230915,178.828125 L236.778223,178.828125 L268.32553,178.828125 L299.872838,178.828125 L331.420146,178.828125 L362.967453,178.828125 L394.514761,178.828125 L410.288415,178.828125" stroke="#EFEFEF"></path>
                                            <path d="M0.173414964,133.546875 L15.9470688,133.546875 L47.4943765,133.546875 L79.0416842,133.546875 L110.588992,133.546875 L142.1363,133.546875 L173.683607,133.546875 L205.230915,133.546875 L236.778223,133.546875 L268.32553,133.546875 L299.872838,133.546875 L331.420146,133.546875 L362.967453,133.546875 L394.514761,133.546875 L410.288415,133.546875" stroke="#E6E6E6"></path>
                                            <path d="M0.173414964,88.265625 L15.9470688,88.265625 L47.4943765,88.265625 L79.0416842,88.265625 L110.588992,88.265625 L142.1363,88.265625 L173.683607,88.265625 L205.230915,88.265625 L236.778223,88.265625 L268.32553,88.265625 L299.872838,88.265625 L331.420146,88.265625 L362.967453,88.265625 L394.514761,88.265625 L410.288415,88.265625" stroke="#E6E6E6"></path>
                                            <path d="M0.173414964,0.328125 L15.9470688,0.328125 L47.4943765,0.328125 L79.0416842,0.328125 L110.588992,0.328125 L142.1363,0.328125 L173.683607,0.328125 L205.230915,0.328125 L236.778223,0.328125 L268.32553,0.328125 L299.872838,0.328125 L331.420146,0.328125 L362.967453,0.328125 L394.514761,0.328125 L410.288415,0.328125" stroke="#E6E6E6"></path>
                                            <path d="M0.173414964,44.078125 L15.9470688,44.078125 L47.4943765,44.078125 L79.0416842,44.078125 L110.588992,44.078125 L142.1363,44.078125 L173.683607,44.078125 L205.230915,44.078125 L236.778223,44.078125 L268.32553,44.078125 L299.872838,44.078125 L331.420146,44.078125 L362.967453,44.078125 L394.514761,44.078125 L410.288415,44.078125" stroke="#E6E6E6"></path>
                                        </g>
                                        <g fill="#CCCCCC" fill-rule="nonzero" font-family="Helvetica" font-size="7.2" font-weight="normal">
                                            <text id="0">
                                                <tspan x="13.1538462" y="187.84375">0</tspan>
                                            </text>
                                            <text id="250">
                                                <tspan x="4.38461538" y="141.90625">250</tspan>
                                            </text>
                                            <text id="500">
                                                <tspan x="4.38461538" y="97.0625">500</tspan>
                                            </text>
                                            <text id="1000">
                                                <tspan x="0" y="8.46875">1000</tspan>
                                            </text>
                                            <text id="750">
                                                <tspan x="4.38461538" y="52.21875">750</tspan>
                                            </text>
                                        </g>
                                    </g>
                                </g>
                            </g>
                            <g transform="translate(38.365385, 59.500000)">
                                <g transform="translate(0.426180, 0.875000)">
                                    <g>
                                        <polyline id="路径" stroke="#3477F4" stroke-width="2" stroke-linecap="round" stroke-linejoin="round" points="0.567764719 107.515625 32.0511179 87.6822917 63.5344712 71.815625 95.0178244 91.6489583 126.501178 73.7989583 157.984531 36.115625 189.467884 28.1822917 220.951237 48.015625 252.434591 18.265625 283.917944 87.6822917 315.401297 117.432292 346.88465 107.515625 378.368003 95.615625"></polyline>
                                        <polygon id="矩形" fill="url(#linearGradient-6)" points="8.22409048e-17 115.9375 32.0511179 97.5989583 63.5344712 107.515625 95.0178244 68.840625 126.501178 63.8822917 158.140396 23.8451385 189.458581 0.415625 220.951237 67.8489583 251.899016 83.78125 283.917944 131.315625 315.401297 139.248958 347.383436 117.432292 379.269231 87.3085403 379.269231 161.875 8.22409048e-17 161.875"></polygon>
                                        <polyline id="路径" stroke="#5AD8A6" stroke-width="2" stroke-linecap="round" stroke-linejoin="round" points="0.567764719 115.448958 32.0511179 97.5989583 63.5344712 107.515625 95.0178244 68.840625 126.501178 63.8822917 157.984531 24.215625 189.467884 0.415625 220.951237 67.8489583 252.434591 83.715625 283.917944 131.315625 315.401297 139.248958 346.88465 117.432292 378.368003 87.6822917"></polyline>
                                    </g>
                                </g>
                            </g>
                            <g transform="translate(3.288462, 24.062500)">
                                <g transform="translate(0.000000, 0.328125)">
                                    <g>
                                        <g>
                                            <line x1="0" y1="7.109375" x2="6.57692308" y2="7.109375" id="路径" stroke="#5B8FF9" stroke-width="1.2" stroke-linecap="round"></line>
                                            <text id="访客数" fill="#8C8C8C" fill-rule="nonzero" font-family="PingFangSC-Regular, PingFang SC" font-size="7.2" font-weight="normal">
                                                <tspan x="10.5230769" y="9.015625">访客数</tspan>
                                            </text>
                                        </g>
                                        <g transform="translate(46.038462, 0.000000)">
                                            <line x1="0" y1="7.109375" x2="6.57692308" y2="7.109375" id="路径" stroke="#5AD8A6" stroke-width="1.2" stroke-linecap="round"></line>
                                            <text id="咨询数" fill="#8C8C8C" fill-rule="nonzero" font-family="PingFangSC-Regular, PingFang SC" font-size="7.2" font-weight="normal">
                                                <tspan x="9.86538462" y="9.015625">咨询数</tspan>
                                            </text>
                                        </g>
                                    </g>
                                </g>
                            </g>
                        </g>
                    </g>
                    <g id="矩形" filter="url(#filter-7)" transform="translate(187.442308, 238.437500)">
                        <rect fill="#FFFFFF" x="0" y="0" width="350.769231" height="85.3125" rx="6"></rect>
                        <g>
                            <rect fill="#FFFFFF" opacity="0.01" x="0" y="0" width="87.6923077" height="85.3125" rx="6"></rect>
                            <text id="访客数" opacity="0.4" font-family="PingFangSC-Regular, PingFang SC" font-size="8" font-weight="normal" line-spacing="10" fill="#04264F">
                                <tspan x="30.6923077" y="52.21875">访客数</tspan>
                            </text>
                            <g id="编组" transform="translate(32.884615, 13.125000)" fill="#3477F4" fill-rule="nonzero">
                                <path d="M11.7039472,11.648183 C11.5392611,11.5223708 11.4571204,11.1133848 11.4571204,10.9721827 C11.4571204,10.3750554 11.6052165,10.1707548 11.6052165,10.1707548 C11.6052166,10.1707548 14.1442957,8.8503034 14.0949303,4.66964335 C14.0285703,3.00368915 12.9558852,0.0172835569 9.67551636,0.0172835569 L9.49464492,0.0172835569 C6.06334753,0.0172835569 5.14118636,2.98752978 5.075231,4.66964335 C5.02586563,8.61483827 7.56494478,10.1707548 7.56494478,10.1707548 C7.56494478,10.1707548 7.87772697,10.5008677 7.87772697,11.1133848 C7.87772697,11.2549716 7.63090014,11.5223708 7.46621404,11.648183 C6.04837607,12.7323998 0.969003895,13.832776 0.640036339,16.1747305 C0.392804892,17.1650691 -1.12497773,18.7525349 3.88843911,19.3812114 C5.27309708,19.5539628 7.15302723,19.6640004 9.67551636,19.6640004 C21.2998455,19.6640004 18.9092671,17.4947972 18.5798949,16.2216697 C18.2339327,13.8643253 13.1051952,12.7323998 11.7039472,11.648183" id="形状"></path>
                                <path d="M21.7801462,14.2913944 C21.5745921,12.6985421 18.5511659,11.9298178 17.650855,11.1884104 C17.5476733,11.1072288 17.4833364,10.8240551 17.4833365,10.7297921 C17.4833365,10.3238841 17.5861135,10.1772955 17.5861135,10.1772955 C17.5861135,10.1772956 19.2070778,9.11116182 19.1686376,6.44024866 C19.1301974,5.30755373 18.4483889,3.28376207 16.3386265,3.28376207 L16.2233058,3.28376207 C15.8246518,3.28222725 15.4301037,3.36035211 15.0652429,3.51309409 C15.5151961,5.07824458 16.0561919,7.95076509 13.7793157,9.86526577 C12.8911438,11.2418903 15.8502331,12.0529368 15.3986615,11.83517 C18.0886691,13.0902145 18.8089179,14.0490038 19.0011191,15.0454983 C19.1686376,15.8827076 19.2592756,16.3817244 19.2592756,16.3817244 C19.2592756,16.3817244 21.2654516,16.0581522 21.7922853,15.6533985 C21.8327487,15.2340243 21.895467,14.749628 21.7801462,14.2913944" id="路径" opacity="0.4"></path>
                            </g>
                            <text id="46890" font-family="PingFangSC-Medium, PingFang SC" font-size="10" font-weight="400" line-spacing="12" fill="#04264F">
                                <tspan x="27.4038462" y="70.625">46890</tspan>
                            </text>
                        </g>
                        <g id="矩形备份-105" transform="translate(87.692308, 0.000000)">
                            <rect id="矩形" fill="#FFFFFF" opacity="0.01" x="0" y="0" width="87.6923077" height="85.3125" rx="6"></rect>
                            <g id="编组" transform="translate(32.884615, 13.125000)" fill-rule="nonzero">
                                <path d="M18.548614,0 L8.67302578,0 C6.85096154,0 5.35686886,1.48380055 5.35686886,3.32950368 L5.35686886,10.8208869 C5.35686886,12.6665901 6.85096154,14.1503906 8.67302578,14.1503906 L14.5036313,14.1503906 L16.8358736,16.2856158 C17.4918167,16.9008502 18.6214965,16.4665671 18.6214965,15.5618107 L18.6214965,14.1142004 C20.4071195,14.1142004 21.8647709,12.6303998 21.8647709,10.8208869 L21.8647709,3.32950368 C21.8647709,1.48380055 20.3706782,0 18.548614,0 Z" id="路径" fill="#F2AB00" opacity="0.4"></path>
                                <path d="M13.1917451,2.9676011 L3.31615691,2.9676011 C1.49409268,2.9676011 0,4.45140165 0,6.29710478 L0,13.7884881 C0,15.5980009 1.45765139,17.0818015 3.24327435,17.1179917 L3.24327435,18.565602 C3.24327435,19.4703585 4.37295417,19.9046415 5.0288973,19.2894072 L7.36113953,17.154182 L13.1917451,17.154182 C15.0138093,17.154182 16.507902,15.6703814 16.507902,13.8246783 L16.507902,6.29710478 C16.507902,4.45140165 15.0138093,2.9676011 13.1917451,2.9676011 Z" id="路径" fill="#F2AB00"></path>
                                <path d="M8.74590835,8.64947151 L4.40939546,8.64947151 C4.00854133,8.64947151 3.68056976,8.32375919 3.68056976,7.92566636 L3.68056976,7.70852482 C3.68056976,7.31043199 4.00854133,6.98471967 4.40939546,6.98471967 L8.74590835,6.98471967 C9.14676248,6.98471967 9.47473404,7.31043199 9.47473404,7.70852482 L9.47473404,7.92566636 C9.47473404,8.32375919 9.14676248,8.64947151 8.74590835,8.64947151 Z M11.2239157,12.087546 L4.40939546,12.087546 C4.00854133,12.087546 3.68056976,11.7618336 3.68056976,11.3637408 L3.68056976,11.1465993 C3.68056976,10.7485064 4.00854133,10.4227941 4.40939546,10.4227941 L11.1874744,10.4227941 C11.5883286,10.4227941 11.9163001,10.7485064 11.9163001,11.1465993 L11.9163001,11.3637408 C11.9527414,11.7618336 11.6247698,12.087546 11.2239157,12.087546 L11.2239157,12.087546 Z" id="形状" fill="#FFFFFF"></path>
                            </g>
                            <text id="咨询数" opacity="0.4" font-family="PingFangSC-Regular, PingFang SC" font-size="8" font-weight="normal" line-spacing="10" fill="#04264F">
                                <tspan x="30.6923077" y="52.21875">咨询数</tspan>
                            </text>
                            <text id="16985" font-family="PingFangSC-Medium, PingFang SC" font-size="10" font-weight="400" line-spacing="12" fill="#04264F">
                                <tspan x="28.5" y="70.625">16985</tspan>
                            </text>
                        </g>
                        <g id="矩形备份-106" transform="translate(175.384615, 0.000000)">
                            <rect id="矩形" fill="#FFFFFF" opacity="0.01" x="0" y="0" width="87.6923077" height="85.3125" rx="6"></rect>
                            <text id="正在咨询数" opacity="0.4" font-family="PingFangSC-Regular, PingFang SC" font-size="8" font-weight="normal" line-spacing="10" fill="#04264F">
                                <tspan x="21.9230769" y="52.21875">正在咨询数</tspan>
                            </text>
                            <g id="编组" transform="translate(31.788462, 13.125000)" fill="#2CC488" fill-rule="nonzero">
                                <path d="M17.6351841,5.3757233 C16.9088539,4.64016528 16.044007,4.05245796 15.0894529,3.64576979 C13.0985236,2.79937931 10.8446413,2.79937931 8.85082236,3.64576979 C7.89725678,4.05180847 7.03326857,4.64085049 6.30509121,5.3757233 C3.91539807,7.79479878 3.28257728,11.423412 4.71870484,14.4944369 C4.74182158,14.5573443 4.76493832,14.9462264 4.46731027,15.6210513 C4.20724693,16.2100933 3.81426233,16.7305091 3.4704008,16.9449661 L1.99092935,17.8714205 L3.66111392,18.383258 C4.17546141,18.5376671 4.71003606,18.6148716 5.2446107,18.6148716 C6.38022062,18.6148716 7.32800702,18.3060535 7.93482148,18.0372673 C9.15134,18.7664213 10.5094486,19.1353153 11.9715824,19.1353153 C13.0436213,19.1381468 14.1041018,18.9208304 15.0894529,18.5004945 C16.0430185,18.0944559 16.9070067,17.5054138 17.6351841,16.770541 C18.366251,16.0328088 18.9499488,15.1635429 19.3487125,14.2084942 C20.1866944,12.2011762 20.1866944,9.9450881 19.3487125,7.93777015 C18.9499488,6.98272143 18.366251,6.11345554 17.6351841,5.3757233 Z M8.17465767,12.3355693 C7.48404502,12.3355693 6.92346405,11.7694027 6.92346405,11.0745619 C6.92346405,10.3768616 7.48404502,9.81355445 8.17465767,9.81355445 C8.86527032,9.81355445 9.4258513,10.3768616 9.4258513,11.0745619 C9.4258513,11.7694027 8.86527032,12.3355693 8.17465767,12.3355693 Z M12.1883019,12.3355693 C11.4976892,12.3355693 10.9371083,11.7694027 10.9371083,11.0745619 C10.9371083,10.3768616 11.4976892,9.81355445 12.1883019,9.81355445 C12.8789145,9.81355445 13.4394955,10.3768616 13.4394955,11.0745619 C13.4394955,11.7694027 12.8789145,12.3355693 12.1883019,12.3355693 Z M16.2019461,12.3355693 C15.5113335,12.3355693 14.9507525,11.7694027 14.9507525,11.0745619 C14.9507525,10.3768616 15.5113335,9.81355445 16.2019461,9.81355445 C16.8925588,9.81355445 17.4531397,10.3768616 17.4531397,11.0745619 C17.4531397,11.7694027 16.8925588,12.3355693 16.2019461,12.3355693 Z" id="形状"></path>
                                <path d="M22.2296364,7.19431905 C20.7559442,3.00811751 16.7365208,0.00285942729 11.9918096,0.00285942729 C7.24709842,0.00285942729 3.22767502,3.00811751 1.75398275,7.19431905 C0.6703855,7.79193936 0,8.92141313 0,10.145248 C0,12.012454 1.17317463,13.5279505 3.06585783,13.5279505 C3.06585783,13.5279505 3.14676642,8.23229116 3.14676642,6.77684267 C4.66958176,3.45132874 8.05329478,1.13233321 11.9918096,1.13233321 C15.9303244,1.13233321 19.316927,3.45132874 20.8368528,6.77684267 C20.8368528,7.28868015 21.0188971,13.5279505 21.0188971,13.5279505 C22.9115803,13.5279505 23.9836192,12.012454 23.9836192,10.1481074 C23.9836192,8.92141313 23.3103441,7.79193936 22.2296364,7.19431905 Z" id="路径" fill-opacity="0.4"></path>
                            </g>
                            <text id="9640" font-family="PingFangSC-Medium, PingFang SC" font-size="10" font-weight="400" line-spacing="12" fill="#04264F">
                                <tspan x="30.6923077" y="70.625">9640</tspan>
                            </text>
                        </g>
                        <g id="矩形备份-107" transform="translate(263.076923, 0.000000)">
                            <rect id="矩形" fill="#FFFFFF" opacity="0.01" x="0" y="0" width="87.6923077" height="85.3125" rx="6"></rect>
                            <text id="已完成咨询数" opacity="0.4" font-family="PingFangSC-Regular, PingFang SC" font-size="8" font-weight="normal" line-spacing="10" fill="#04264F">
                                <tspan x="17.5384615" y="52.21875">已完成咨询数</tspan>
                            </text>
                            <g id="编组" transform="translate(32.884615, 13.125000)" fill-rule="nonzero">
                                <path d="M18.548614,0 L8.67302578,0 C6.85096154,0 5.35686886,1.48380055 5.35686886,3.32950368 L5.35686886,10.8208869 C5.35686886,12.6665901 6.85096154,14.1503906 8.67302578,14.1503906 L14.5036313,14.1503906 L16.8358736,16.2856158 C17.4918167,16.9008502 18.6214965,16.4665671 18.6214965,15.5618107 L18.6214965,14.1142004 C20.4071195,14.1142004 21.8647709,12.6303998 21.8647709,10.8208869 L21.8647709,3.32950368 C21.8647709,1.48380055 20.3706782,0 18.548614,0 Z" id="路径" fill="#6363FA" opacity="0.4"></path>
                                <path d="M13.1917451,2.9676011 L3.31615691,2.9676011 C1.49409268,2.9676011 0,4.45140165 0,6.29710478 L0,13.7884881 C0,15.5980009 1.45765139,17.0818015 3.24327435,17.1179917 L3.24327435,18.565602 C3.24327435,19.4703585 4.37295417,19.9046415 5.0288973,19.2894072 L7.36113953,17.154182 L13.1917451,17.154182 C15.0138093,17.154182 16.507902,15.6703814 16.507902,13.8246783 L16.507902,6.29710478 C16.507902,4.45140165 15.0138093,2.9676011 13.1917451,2.9676011 Z" id="路径" fill="#6363FA"></path>
                                <g transform="translate(4.262821, 6.767578)" fill="#FFFFFF" id="路径">
                                    <path d="M8.27853065,0.207910767 C8.00583383,-0.067618103 7.56371845,-0.067618103 7.29104067,0.207910767 L3.01182542,4.53108582 L1.20139223,2.70203247 C0.928685897,2.42657089 0.486570513,2.42657089 0.213864183,2.70203247 C-0.0588040865,2.97756134 -0.0588040865,3.42420227 0.213864183,3.69973114 L2.51807091,6.02758575 C2.7907487,6.30303772 3.23288311,6.30303772 3.50557041,6.02758575 L8.27853065,1.20551331 C8.55123698,0.930003662 8.55123698,0.483362732 8.27853065,0.207910767 Z"></path>
                                </g>
                            </g>
                            <text id="7345" font-family="PingFangSC-Medium, PingFang SC" font-size="10" font-weight="400" line-spacing="12" fill="#04264F">
                                <tspan x="30.6923077" y="70.625">7345</tspan>
                            </text>
                        </g>
                    </g>
                </g>
            </g>
        </g>
    </g>
</svg>