<?xml version="1.0" encoding="UTF-8"?>
<svg width="31px" height="26px" viewBox="0 0 31 26" version="1.1" xmlns="http://www.w3.org/2000/svg" xmlns:xlink="http://www.w3.org/1999/xlink">
    <!-- Generator: Sketch 62 (91390) - https://sketch.com -->
    <title>电商平台-当前</title>
    <desc>Created with Sketch.</desc>
    <g id="页面-1" stroke="none" stroke-width="1" fill="none" fill-rule="evenodd">
        <g id="智能客服官网首页-hover" transform="translate(-2015.000000, -1571.000000)" fill="#3477F4" fill-rule="nonzero">
            <g id="1备份" transform="translate(1805.000000, 1265.000000)">
                <path d="M235.586397,318.518519 C236.436144,318.518519 237.125,319.207375 237.125,320.057121 L237.125,327.685798 C237.125,327.746445 237.121491,327.806272 237.114665,327.865088 C237.121528,327.958046 237.125,328.052692 237.125,328.148148 C237.125,330.275467 235.400467,332 233.273148,332 L217.726852,332 C215.599533,332 213.875,330.275467 213.875,328.148148 C213.875,328.052692 213.878472,327.958046 213.885298,327.864331 C213.878509,327.806272 213.875,327.746445 213.875,327.685798 L213.875,320.057121 C213.875,319.207375 214.563856,318.518519 215.413603,318.518519 C216.26335,318.518519 216.952206,319.207375 216.952206,320.057121 L216.952549,324.374148 C217.202682,324.3231 217.461637,324.296296 217.726852,324.296296 L233.273148,324.296296 C233.538363,324.296296 233.797318,324.3231 234.047451,324.374148 L234.047794,320.057121 C234.047794,319.207375 234.73665,318.518519 235.586397,318.518519 Z M236.749889,309.393821 C236.749889,309.393821 241.019102,313.906275 240.999936,313.887315 C240.999936,315.574746 239.615261,316.939858 237.90373,316.939858 C237.653731,316.939858 237.403732,316.901938 237.172964,316.845059 C237.05758,316.826099 236.942195,316.788179 236.826811,316.750259 L236.826811,316.750259 L236.807581,316.750259 C236.480659,316.6365 236.153737,316.446901 235.884508,316.219382 C235.807585,316.162502 235.730662,316.086663 235.653739,316.010823 L235.653739,316.010823 L235.596047,315.953944 C235.538355,315.897064 235.480663,315.821224 235.422971,315.764345 C235.40374,315.726425 235.38451,315.707465 235.365279,315.688505 L235.365279,315.688505 L235.211433,315.460986 C235.192203,315.442026 235.192203,315.423067 235.172972,315.404107 C234.942204,314.968029 234.788358,314.475072 234.788358,313.925235 C234.788358,315.612666 233.403749,316.977778 231.692217,316.977778 C229.980686,316.977778 228.596076,315.612666 228.596076,313.925235 C228.596076,315.612666 227.211467,316.977778 225.499935,316.977778 C223.788404,316.977778 222.403794,315.612666 222.403794,313.925235 C222.403794,315.612666 221.019185,316.977778 219.307654,316.977778 C217.596122,316.977778 216.211513,315.612666 216.211513,313.925235 C216.211513,314.380273 216.115359,314.81635 215.923052,315.214508 C215.884591,315.328267 215.826899,315.423067 215.769207,315.517866 C215.519208,315.916024 215.173055,316.257302 214.788442,316.50378 L214.788442,316.50378 L214.769211,316.50378 C214.673057,316.56066 214.576904,316.59858 214.480751,316.65546 C214.46152,316.65546 214.46152,316.674419 214.442289,316.674419 L214.442289,316.674419 L214.153829,316.788179 C214.134598,316.788179 214.115367,316.807139 214.115367,316.807139 C213.788446,316.920898 213.461524,316.977778 213.096141,316.977778 C211.38461,316.977778 210,315.612666 210,313.925235 L210,313.925235 L214.269213,309.393821 Z M235.692201,306 C236.269121,306 236.749889,306.455037 236.749889,307.042794 L236.749889,307.042794 L236.749889,308.142468 L214.288444,308.142468 L214.288444,307.042794 C214.288444,306.473997 214.74998,306 215.346132,306 L215.346132,306 Z" id="电商平台-当前"></path>
            </g>
        </g>
    </g>
</svg>