<?xml version="1.0" encoding="UTF-8"?>
<svg width="32px" height="32px" viewBox="0 0 32 32" version="1.1" xmlns="http://www.w3.org/2000/svg" xmlns:xlink="http://www.w3.org/1999/xlink">
    <!-- Generator: Sketch 62 (91390) - https://sketch.com -->
    <title>特色功能-当前</title>
    <desc>Created with Sketch.</desc>
    <g id="页面-1" stroke="none" stroke-width="1" fill="none" fill-rule="evenodd">
        <g id="首页" transform="translate(-850.000000, -821.000000)" fill="#3477F4" fill-rule="nonzero">
            <g id="模块1" transform="translate(0.000000, 600.000000)">
                <g id="公众号备份-2" transform="translate(842.000000, 197.000000)">
                    <g id="特色功能-当前" transform="translate(8.000000, 24.000000)">
                        <path d="M27.9138964,15.4154244 C30.6365452,15.4154244 31.9985797,17.7216585 32,19.2595933 L32,19.2595933 L32,28.1571673 C32,30.0772475 30.6365452,32 27.9124761,32 L27.9124761,32 L21.1023035,32 C18.3796547,32 17.0176202,30.0772475 17.0176202,28.154495 L17.0176202,28.154495 L17.0176202,19.2582571 C17.0176202,17.338177 18.3796547,15.4154244 21.1023035,15.4154244 L21.1023035,15.4154244 Z M10.8962762,18.8467159 C13.618925,18.8467159 14.9823798,20.8776984 14.9823798,22.692221 L14.9823798,22.692221 L14.9823798,28.1411332 C14.9823798,30.0665581 13.618925,31.9866383 10.894856,31.9866383 L10.894856,31.9866383 L4.08468333,31.9866383 C1.36203453,31.9866383 0,30.0652219 0,28.1411332 L0,28.1411332 L0,22.692221 C0,20.7694685 1.36203453,18.8467159 4.08468333,18.8467159 L4.08468333,18.8467159 Z M10.8962762,0 C13.618925,0 14.9823798,2.30489791 14.9823798,3.84283269 L14.9823798,3.84283269 L14.9823798,12.7417429 C14.9823798,14.661823 13.618925,16.5845756 10.894856,16.5845756 L10.894856,16.5845756 L4.08468333,16.5845756 C1.36203453,16.5845756 0,14.661823 0,12.7390705 L0,12.7390705 L0,3.84283269 C0,1.92275252 1.36203453,0 4.08468333,0 L4.08468333,0 Z M27.9138964,0.0307319721 C30.6365452,0.0307319721 31.9985797,2.06171448 32,3.87490083 L32,3.87490083 L32,9.32514928 C32,11.2505741 30.6365452,13.1706543 27.9124761,13.1706543 L27.9124761,13.1706543 L21.1023035,13.1706543 C18.3796547,13.1706543 17.0176202,11.249238 17.0176202,9.32514928 L17.0176202,9.32514928 L17.0176202,3.876237 C17.0176202,1.95348449 18.3796547,0.0307319721 21.1023035,0.0307319721 L21.1023035,0.0307319721 Z" id="形状结合"></path>
                    </g>
                </g>
            </g>
        </g>
    </g>
</svg>