<?xml version="1.0" encoding="UTF-8"?>
<svg width="70px" height="70px" viewBox="0 0 70 70" version="1.1" xmlns="http://www.w3.org/2000/svg" xmlns:xlink="http://www.w3.org/1999/xlink">
    <!-- Generator: Sketch 62 (91390) - https://sketch.com -->
    <title>多维度统计客服数据</title>
    <desc>Created with Sketch.</desc>
    <g id="页面-1" stroke="none" stroke-width="1" fill="none" fill-rule="evenodd">
        <g id="首页" transform="translate(-1046.000000, -9283.000000)">
            <g id="模块7" transform="translate(0.000000, 8643.000000)">
                <g id="多维度统计客服数据" transform="translate(1046.000000, 640.000000)">
                    <circle id="椭圆形" fill="#EEEFF2" cx="35" cy="35" r="35"></circle>
                    <g id="编组" transform="translate(19.384615, 18.846154)" fill="#3477F4" fill-rule="nonzero">
                        <path d="M17.4715909,2.13477928 L17.4715909,13.8002622 C17.4715909,14.2714707 17.8526552,14.652535 18.3238636,14.652535 L29.9893466,14.652535 C30.6203562,14.652535 31.2144886,14.3739073 31.6242351,13.8945039 C32.0298842,13.4110031 32.2019777,12.775896 32.0954436,12.1571788 C31.0464926,5.96590909 26.1582168,1.08173077 19.9710446,0.0327797203 C19.3523274,-0.0737543706 18.7131228,0.0983391608 18.2337194,0.503988199 C17.7502185,0.909637238 17.4715909,1.50376967 17.4715909,2.13477928 L17.4715909,2.13477928 Z" id="路径" opacity="0.4"></path>
                        <path d="M14.8328234,16.4349323 L14.8328234,4.7694493 C14.8328234,3.45006556 13.6527535,2.44208916 12.3538571,2.66335227 C5.34309441,3.8434222 0,9.94454764 0,17.2913024 C0,25.4985249 6.62969843,32.1241259 14.8328234,32.1241259 C22.1795782,32.1241259 28.2807037,26.7810315 29.4607736,19.7702688 C29.6779392,18.4713724 28.6699628,17.2913024 27.3505791,17.2913024 L15.6891936,17.2913024 C15.463833,17.2913024 15.2466674,17.2011582 15.0868663,17.0413571 C14.9229677,16.8815559 14.8328234,16.6643903 14.8328234,16.4349323 Z" id="路径"></path>
                    </g>
                </g>
            </g>
        </g>
    </g>
</svg>