<?xml version="1.0" encoding="UTF-8"?>
<svg width="47px" height="54px" viewBox="0 0 47 54" version="1.1" xmlns="http://www.w3.org/2000/svg" xmlns:xlink="http://www.w3.org/1999/xlink">
    <!-- Generator: Sketch 62 (91390) - https://sketch.com -->
    <title>2</title>
    <desc>Created with Sketch.</desc>
    <g id="页面-1" stroke="none" stroke-width="1" fill="none" fill-rule="evenodd" opacity="0.04">
        <g id="融智客服官网首页-hover" transform="translate(-1486.000000, -309.000000)" fill="#030F42" fill-rule="nonzero">
            <g id="模块1备份">
                <g id="2" transform="translate(1160.000000, 309.000000)">
                    <g>
                        <path d="M368.780488,51 L368.780488,42.5492958 L343.292683,42.5492958 L343.292683,41.2816901 C343.292683,39.1971831 343.98374,37.2394366 345.365854,35.4084507 C346.747967,33.5774648 349.430894,31.1971831 353.414634,28.2676056 C359.512195,23.8169014 363.800813,19.8732394 366.280488,16.4366197 C368.760163,13 370,9.47887324 370,5.87323944 C370,1.08450704 368.292683,-2.5915493 364.878049,-5.15492958 C361.463415,-7.71830986 356.504065,-9 350,-9 C343.495935,-9 338.536585,-7.71830986 335.121951,-5.15492958 C331.707317,-2.5915493 330,1.08450704 330,5.87323944 L330,5.87323944 L330,11.6197183 L342.682927,11.6197183 L342.682927,5.28169014 C342.682927,1.3943662 345,-0.549295775 349.634146,-0.549295775 C351.910569,-0.549295775 353.638211,-0.0563380282 354.817073,0.929577465 C355.995935,1.91549296 356.585366,3.67605634 356.585366,6.21126761 C356.585366,9.02816901 355.630081,11.7323944 353.719512,14.3239437 C351.808943,16.915493 348.373984,20.0422535 343.414634,23.7042254 C338.373984,27.3661972 334.878049,30.7042254 332.926829,33.7183099 C330.97561,36.7323944 330,40.3521127 330,44.5774648 L330,44.5774648 L330,51 L368.780488,51 Z" transform="translate(350.000000, 21.000000) rotate(8.000000) translate(-350.000000, -21.000000) "></path>
                    </g>
                </g>
            </g>
        </g>
    </g>
</svg>