<svg height="26" viewBox="0 0 29 26" width="29" xmlns="http://www.w3.org/2000/svg"><path d="m373.325 306.088477-7.70385 2.189746c-1.0875.274441-1.9024 1.36787-1.9024 2.555187v19.340838h-1.8125c-.54375 0-.90625.365439-.90625.912876 0 .548881.3625.912876.90625.912876h27.1875c.54375 0 .90625-.365439.90625-.912876s-.3625-1.00243-.90625-1.00243h-1.8125v-12.591045c0-1.094873-.725-2.098748-1.63125-2.373189l-7.1601-2.280745c-.27115-.090999-.54375 0-.8149.090998-.18125.183442-.3625.456438-.3625.730879v16.423102h-.90625v-21.897469c0-.730879-.2726-1.278316-.81635-1.733309-.63365-.456438-1.45-.548881-2.2649-.365439zm9.87885 15.784666c.54375 0 .90625.363995.90625.911431 0 .548882-.3625.912876-.90625.912876h-1.8125c-.54375 0-.90625-.365439-.90625-.912876 0-.547436.3625-.911431.90625-.911431zm-11.32885 0c.54375 0 .90625.363995.90625.911431 0 .548882-.3625.912876-.90625.912876h-3.625c-.54375 0-.90625-.365439-.90625-.912876 0-.547436.3625-.911431.90625-.911431zm0-7.300119c.54375 0 .90625.365439.90625.912876 0 .547436-.3625.912876-.90625.912876h-3.625c-.54375 0-.90625-.36544-.90625-.912876 0-.547437.3625-.912876.90625-.912876z" fill="#04264f" fill-opacity=".4" transform="translate(-361 -306)"/></svg>