<?xml version="1.0" encoding="UTF-8"?>
<svg width="570px" height="350px" viewBox="0 0 570 350" version="1.1" xmlns="http://www.w3.org/2000/svg" xmlns:xlink="http://www.w3.org/1999/xlink">
    <!-- Generator: Sketch 62 (91390) - https://sketch.com -->
    <title>开放接口，方便对接企业原有系统</title>
    <desc>Created with Sketch.</desc>
    <defs>
        <rect id="path-1" x="0" y="0" width="570" height="350" rx="8"></rect>
        <circle id="path-3" cx="180" cy="122" r="37"></circle>
        <filter x="-8.8%" y="-7.4%" width="117.6%" height="117.6%" filterUnits="objectBoundingBox" id="filter-4">
            <feOffset dx="0" dy="1" in="SourceAlpha" result="shadowOffsetOuter1"></feOffset>
            <feGaussianBlur stdDeviation="2" in="shadowOffsetOuter1" result="shadowBlurOuter1"></feGaussianBlur>
            <feColorMatrix values="0 0 0 0 0.203921569   0 0 0 0 0.466666667   0 0 0 0 0.956862745  0 0 0 0.404392483 0" type="matrix" in="shadowBlurOuter1"></feColorMatrix>
        </filter>
        <circle id="path-5" cx="392" cy="274" r="37"></circle>
        <filter x="-8.8%" y="-7.4%" width="117.6%" height="117.6%" filterUnits="objectBoundingBox" id="filter-6">
            <feOffset dx="0" dy="1" in="SourceAlpha" result="shadowOffsetOuter1"></feOffset>
            <feGaussianBlur stdDeviation="2" in="shadowOffsetOuter1" result="shadowBlurOuter1"></feGaussianBlur>
            <feColorMatrix values="0 0 0 0 0.949019608   0 0 0 0 0.670588235   0 0 0 0 0  0 0 0 0.396716565 0" type="matrix" in="shadowBlurOuter1"></feColorMatrix>
        </filter>
        <circle id="path-7" cx="366" cy="72" r="39"></circle>
        <filter x="-8.3%" y="-7.1%" width="116.7%" height="116.7%" filterUnits="objectBoundingBox" id="filter-8">
            <feOffset dx="0" dy="1" in="SourceAlpha" result="shadowOffsetOuter1"></feOffset>
            <feGaussianBlur stdDeviation="2" in="shadowOffsetOuter1" result="shadowBlurOuter1"></feGaussianBlur>
            <feColorMatrix values="0 0 0 0 0.419607843   0 0 0 0 0.756862745   0 0 0 0 0.62745098  0 0 0 0.403245192 0" type="matrix" in="shadowBlurOuter1"></feColorMatrix>
        </filter>
        <linearGradient x1="50%" y1="0%" x2="50%" y2="100%" id="linearGradient-9">
            <stop stop-color="#3477F4" stop-opacity="0" offset="0%"></stop>
            <stop stop-color="#3477F4" stop-opacity="0.502868226" offset="100%"></stop>
        </linearGradient>
    </defs>
    <g id="页面-1" stroke="none" stroke-width="1" fill="none" fill-rule="evenodd">
        <g id="首页" transform="translate(-954.000000, -9703.000000)">
            <g id="模块7" transform="translate(0.000000, 8643.000000)">
                <g id="开放接口，方便对接企业原有系统" transform="translate(954.000000, 1060.000000)">
                    <mask id="mask-2" fill="white">
                        <use xlink:href="#path-1"></use>
                    </mask>
                    <use id="Mask" fill="#E1F1EC" opacity="0.9" xlink:href="#path-1"></use>
                    <circle id="椭圆形备份-15" fill="#6BC1A0" mask="url(#mask-2)" cx="185" cy="245" r="55"></circle>
                    <circle id="椭圆形" stroke="#6CC3A2" fill="#FFFFFF" mask="url(#mask-2)" cx="291" cy="185" r="129.5"></circle>
                    <circle id="椭圆形" fill="#F2AB00" opacity="0.3" mask="url(#mask-2)" cx="386" cy="280" r="37"></circle>
                    <circle id="椭圆形备份-13" fill="#3477F4" opacity="0.3" mask="url(#mask-2)" cx="174" cy="128" r="37"></circle>
                    <g id="椭圆形备份-13" mask="url(#mask-2)">
                        <use fill="black" fill-opacity="1" filter="url(#filter-4)" xlink:href="#path-3"></use>
                        <use fill="#FFFFFF" fill-rule="evenodd" xlink:href="#path-3"></use>
                    </g>
                    <path d="M196.414651,113.499679 L187.587587,103.645777 C187.151502,103.161706 186.750538,103.030951 186.513472,103.000085 L165.332616,103.000085 C164.057905,102.989534 163.014472,103.961457 163,105.173104 L163,110.019376 L163,138.99991 C163,140.10448 163.895431,140.99991 165,140.99991 L190.022639,140.99991 L190.022639,140.99991 L194.667384,140.99991 C195.940967,141.010734 196.983929,140.040493 197,138.829938 L197,114.740458 C197,114.629177 196.956099,114.103376 196.414651,113.499679 Z M187.002238,105.376191 L195.112249,114.426115 L187.695877,114.426115 C187.317148,114.429183 187.007059,114.140646 187.002238,113.780662 L187.002238,105.373409 L187.002238,105.376191 Z" id="形状" fill="#3477F4" fill-rule="nonzero" mask="url(#mask-2)"></path>
                    <path d="M173.274008,122.97514 C173.39774,122.97514 173.504326,123.04855 173.552589,123.154192 L175.386211,125.970708 C175.423484,126.022532 175.445248,126.08482 175.445248,126.152191 C175.445248,126.321255 175.308195,126.458308 175.139131,126.458308 C175.130627,126.458308 175.122204,126.457961 175.113875,126.457281 L174.210683,126.433627 C174.046059,126.479296 174.059985,126.584785 174.044896,126.634275 C174.137776,129.866156 176.788015,132.458189 180.043553,132.458189 C181.219915,132.458189 182.241032,132.176125 183.157195,131.598877 C183.391155,131.463311 183.65354,131.353984 183.65354,131.353984 L183.65354,131.353984 C183.754506,131.305394 183.866938,131.277455 183.985895,131.277455 C184.396478,131.277455 184.729321,131.610297 184.729321,132.02088 C184.729321,132.248821 184.626736,132.452802 184.465217,132.589173 C183.23591,133.479306 181.72282,134.001891 180.087284,134.001891 C175.945967,134.001891 172.587432,130.643356 172.587432,126.502039 L172.58999,126.584652 C172.564858,126.477551 172.455619,126.420417 172.342441,126.389981 L171.34,126.366 L171.306116,126.370846 C171.161205,126.370846 171.039811,126.270154 171.008085,126.134919 L171,126.064729 C171,126.013883 171.012397,125.965933 171.034332,125.923735 L171.034985,125.922604 L171.051867,125.89419 C171.05827,125.884663 171.065193,125.875516 171.072597,125.86679 L173.019101,123.111699 C173.025719,123.101769 173.032902,123.092248 173.040604,123.083181 L173.053166,123.066975 C173.111552,123.010031 173.188705,122.97514 173.274008,122.97514 Z M180.091657,119 C184.232975,119 187.591509,122.358534 187.591509,126.499852 C187.591509,126.511573 187.591482,126.523287 187.591429,126.534995 L188.655,126.528 L188.685004,126.524224 C188.829857,126.520024 188.954121,126.617157 188.989755,126.751418 L188.999871,126.821345 C189.00132,126.87132 188.990531,126.919914 188.969496,126.963429 L188.969033,126.965586 L188.956014,126.988318 C188.951083,126.996494 188.945768,127.004444 188.940083,127.01214 L187.080508,129.807907 C187.069476,129.829902 187.055804,129.850552 187.039754,129.869368 L187.03394,129.875879 C187.014541,129.897377 186.992397,129.915912 186.96757,129.931225 C186.87447,129.988647 186.757805,129.99203 186.661534,129.940099 C186.602167,129.908075 186.556119,129.858018 186.528802,129.798705 L184.617807,127.042115 C184.577348,126.990745 184.554537,126.928751 184.552635,126.863158 C184.549465,126.753837 184.604858,126.651129 184.697948,126.593723 C184.727376,126.575576 184.759158,126.562827 184.791907,126.555517 L184.794917,126.550143 L184.831165,126.549396 C184.848886,126.547801 184.866724,126.547752 184.884472,126.549253 L186.045,126.543 L186.047808,126.456121 C186.047808,123.216654 183.481304,120.576525 180.270753,120.458193 L180.04574,120.454053 C178.856259,120.454053 177.745494,120.799527 176.811839,121.398641 L176.811839,121.398641 L176.41826,121.667586 C176.307954,121.729427 176.180426,121.76598 176.044361,121.76598 C175.633779,121.76598 175.300936,121.433137 175.300936,121.022555 C175.300936,120.741185 175.457248,120.496324 175.687772,120.370072 C176.942283,119.410078 178.374468,119 180.091657,119 Z" id="形状结合" stroke="#FFFFFF" stroke-width="0.6" fill="#FFFFFF" fill-rule="nonzero" mask="url(#mask-2)"></path>
                    <g id="椭圆形" mask="url(#mask-2)">
                        <use fill="black" fill-opacity="1" filter="url(#filter-6)" xlink:href="#path-5"></use>
                        <use fill="#FFFFFF" fill-rule="evenodd" xlink:href="#path-5"></use>
                    </g>
                    <g id="编组" mask="url(#mask-2)" fill="#F2AB00" fill-rule="nonzero" stroke="#F2AB00">
                        <g transform="translate(374.000000, 258.000000)">
                            <path d="M19.7331732,18.4016799 L15.767469,22.3468618 L12.9791181,19.5585109 L16.9243,15.613329 C17.0984635,15.4391129 17.0984635,15.1567086 16.9243,14.9824925 L15.3467626,13.4049551 C15.1725465,13.2307916 14.8901422,13.2307916 14.7159261,13.4049551 L10.7707442,17.350137 L8.68327321,15.262889 C8.16059939,14.7402499 7.31321445,14.7402499 6.79054063,15.262889 L3.65487275,18.3985569 C0.375772108,21.6776576 0.0411700009,26.8082232 2.67337324,30.4665396 L0.133520182,33.0063926 C-0.0406433097,33.1806087 -0.0406433097,33.463013 0.133520182,33.6372291 L1.71105758,35.2147665 C1.88527368,35.38893 2.16767799,35.38893 2.34189409,35.2147665 L4.88174715,32.6749135 C6.48783726,33.8125606 8.38391586,34.3925376 10.2799945,34.3925376 C12.6891296,34.3925376 15.075958,33.4779585 16.9051162,31.6488003 L20.0407841,28.5131325 C20.2918334,28.2621257 20.432875,27.9216619 20.432875,27.5666546 C20.432875,27.2116474 20.2918334,26.8711836 20.0407841,26.6201768 L17.9758429,24.5552357 L21.9225863,20.6084923 C22.0961443,20.4348864 22.0968421,20.1536824 21.9241478,19.9792173 L20.364902,18.4041336 C20.2814997,18.3199266 20.1680187,18.2723664 20.0495004,18.2719479 C19.9704882,18.2716689 19.8650458,18.3149129 19.7331732,18.4016799 Z" id="形状"></path>
                            <path d="M35.1043478,1.70994224 L33.5268104,0.132404842 C33.3525943,-0.04175865 33.07019,-0.04175865 32.8959739,0.132404842 L30.3338141,2.69456471 C28.727724,1.55691754 26.8316453,0.976940559 24.9355667,0.976940559 C22.5264316,0.976940559 20.1396032,1.89151965 18.310445,3.72067783 L14.9911921,7.05733004 C14.4708641,7.58039795 14.4719616,8.42589359 14.9936459,8.94760888 L26.3536105,20.3073504 C26.8762843,20.8299896 27.7236692,20.8299896 28.2463431,20.3073504 L31.5606885,16.9932281 C34.8620959,13.6918206 35.1743912,8.56125498 32.542188,4.90293861 L35.1043478,2.34077875 C35.2785113,2.16656265 35.2785113,1.88415834 35.1043478,1.70994224 L35.1043478,1.70994224 Z" id="路径"></path>
                        </g>
                    </g>
                    <circle id="椭圆形备份-14" fill="#6BC1A0" opacity="0.3" mask="url(#mask-2)" cx="360" cy="78" r="39"></circle>
                    <g id="椭圆形备份-14" mask="url(#mask-2)">
                        <use fill="black" fill-opacity="1" filter="url(#filter-8)" xlink:href="#path-7"></use>
                        <use fill="#FFFFFF" fill-rule="evenodd" xlink:href="#path-7"></use>
                    </g>
                    <g id="编组" mask="url(#mask-2)" fill="#6BC1A0" fill-rule="nonzero">
                        <g transform="translate(341.000000, 50.000000)" id="路径">
                            <polygon points="37.8289402 41.293883 36.0548913 40.6400266 24.773913 36.1493351 17.5402174 43.8829787 15.9470109 43.8829787 15.9470109 33.8089096 37.458288 8.01595745 43.9267663 0.498803191"></polygon>
                            <polygon points="37.458288 7.51715426 10.8490489 30.0656915 1.03125 26.1045213 0 25.6978723 43.9267663 0"></polygon>
                        </g>
                    </g>
                    <path d="M421,55 L502,55 C503.656854,55 505,56.3431458 505,58 L505,82 C505,83.6568542 503.656854,85 502,85 L430,85 C428.343146,85 427,83.6568542 427,82 L427,62.2348633 L427,62.2348633 L421,55 Z" id="矩形" fill="#6BC1A0" mask="url(#mask-2)"></path>
                    <path d="M43,101 L124,101 C125.656854,101 127,102.343146 127,104 L127,128 C127,129.656854 125.656854,131 124,131 L52,131 C50.3431458,131 49,129.656854 49,128 L49,108.234863 L49,108.234863 L43,101 Z" id="矩形备份-11" fill="#3477F4" mask="url(#mask-2)" transform="translate(85.000000, 116.000000) scale(-1, 1) translate(-85.000000, -116.000000) "></path>
                    <path d="M443,259 L524,259 C525.656854,259 527,260.343146 527,262 L527,286 C527,287.656854 525.656854,289 524,289 L452,289 C450.343146,289 449,287.656854 449,286 L449,266.234863 L449,266.234863 L443,259 Z" id="矩形备份-9" fill="#F2AB00" mask="url(#mask-2)" transform="translate(485.000000, 274.000000) scale(1, -1) translate(-485.000000, -274.000000) "></path>
                    <text id="消息推送接口" mask="url(#mask-2)" font-family="PingFangSC-Regular, PingFang SC" font-size="10" font-weight="normal" fill="#FFFFFF">
                        <tspan x="436" y="74">消息推送接口</tspan>
                    </text>
                    <text id="客户资料同步" mask="url(#mask-2)" font-family="PingFangSC-Regular, PingFang SC" font-size="10" font-weight="normal" fill="#FFFFFF">
                        <tspan x="52" y="120">客户资料同步</tspan>
                    </text>
                    <text id="统一接口登录" mask="url(#mask-2)" font-family="PingFangSC-Regular, PingFang SC" font-size="10" font-weight="normal" fill="#FFFFFF">
                        <tspan x="458" y="278">统一接口登录</tspan>
                    </text>
                    <circle id="椭圆形" stroke="#6CC3A2" fill="#FFFFFF" mask="url(#mask-2)" cx="291" cy="185" r="83.5"></circle>
                    <circle id="椭圆形" stroke="#3477F4" stroke-width="3" fill="url(#linearGradient-9)" opacity="0.4" mask="url(#mask-2)" cx="291" cy="185" r="40"></circle>
                    <path d="M256.016289,204.409362 C262.844504,216.690354 275.951841,225 291,225 C313.09139,225 331,207.09139 331,185 C331,162.90861 313.09139,145 291,145" id="路径" stroke="#3477F4" stroke-width="6" stroke-linecap="round" mask="url(#mask-2)"></path>
                    <text id="80%" mask="url(#mask-2)" font-family="PingFangSC-Medium, PingFang SC" font-size="26" font-weight="400" line-spacing="36" fill="#3477F4">
                        <tspan x="271" y="191">80</tspan>
                        <tspan x="303.064" y="191" font-size="14">%</tspan>
                    </text>
                    <text id="对接中…" mask="url(#mask-2)" font-family="PingFangSC-Regular, PingFang SC" font-size="8" font-weight="normal" line-spacing="10" fill="#04264F" fill-opacity="0.600305944">
                        <tspan x="277" y="203">对接中…</tspan>
                    </text>
                    <circle id="椭圆形" fill="#3477F4" mask="url(#mask-2)" cx="279" cy="102" r="5"></circle>
                    <circle id="椭圆形备份-7" fill="#F2AB00" mask="url(#mask-2)" cx="212" cy="206" r="5"></circle>
                    <circle id="椭圆形备份-12" fill="#6AC19F" mask="url(#mask-2)" cx="373" cy="199" r="9"></circle>
                </g>
            </g>
        </g>
    </g>
</svg>