<?xml version="1.0" encoding="UTF-8"?>
<svg width="82px" height="82px" viewBox="0 0 82 82" version="1.1" xmlns="http://www.w3.org/2000/svg" xmlns:xlink="http://www.w3.org/1999/xlink">
    <!-- Generator: Sketch 62 (91390) - https://sketch.com -->
    <title>智能分配客服</title>
    <desc>Created with Sketch.</desc>
    <g id="页面-1" stroke="none" stroke-width="1" fill="none" fill-rule="evenodd">
        <g id="首页" transform="translate(-914.000000, -10373.000000)">
            <g id="模块8" transform="translate(0.000000, 10173.000000)">
                <g id="智能分配客服" transform="translate(914.000000, 200.000000)">
                    <circle id="椭圆形备份-18" fill="#8443E0" fill-rule="evenodd" cx="41" cy="41" r="41"></circle>
                    <path d="M20,35 C20,42.7319865 26.2680135,49 34,49 C41.7319865,49 48,42.7319865 48,35 C48,27.2680135 41.7319865,21 34,21 C26.2680135,21 20,27.2680135 20,35 Z" id="路径" fill="#FFFFFF" fill-rule="nonzero" opacity="0.2"></path>
                    <g id="编组" stroke-width="1" fill-rule="evenodd" transform="translate(24.000000, 23.000000)" fill="#FFFFFF" stroke="#FFFFFF">
                        <path d="M16.962466,0.0240602475 C20.6504189,0.0240602475 23.6346581,3.03293704 23.6346581,6.73782834 C23.6346581,9.81788535 21.5721285,12.4168983 18.7574116,13.2059448 L18.7570602,17.2840602 L25.9444407,17.2849298 C27.3599228,17.2849298 28.6643577,17.8245055 28.762605,19.2089273 L28.7685349,19.3791327 L28.7685802,22.6529612 C31.7128704,23.3526916 33.9008718,26.0147437 33.9008718,29.1871037 C33.9008718,32.891995 30.9166327,35.9008718 27.2286798,35.9008718 C23.5407269,35.9008718 20.5549479,32.891995 20.5549479,29.1871037 C20.5549479,26.0150145 22.7437047,23.353146 25.6879392,22.6531404 L25.6888247,20.3677196 L8.23610734,20.3661798 L8.23699287,22.6531404 C11.1812274,23.353146 13.3699842,26.0150145 13.3699842,29.1871037 C13.3699842,32.891995 10.3842052,35.9008718 6.69625225,35.9008718 C3.00829938,35.9008718 0.0240602475,32.891995 0.0240602475,29.1871037 C0.0240602475,26.0146562 2.21218248,23.3525447 5.15659565,22.6529033 L5.1563972,19.3791327 C5.1563972,17.8685349 6.50838995,17.2849298 7.98049138,17.2849298 L7.98049138,17.2849298 L15.6780602,17.2840602 L15.6778476,13.3273232 C12.6798501,12.7391477 10.4025715,10.1315445 10.2943049,6.97334324 L10.290274,6.73782834 C10.290274,3.03293704 13.2745131,0.0240602475 16.962466,0.0240602475 Z M6.69625225,25.5530457 C4.71445877,25.5530457 3.10377038,27.1775929 3.10377038,29.1871037 C3.10377038,31.1966146 4.71445877,32.8211617 6.69625225,32.8211617 C8.67804573,32.8211617 10.290274,31.1966146 10.290274,29.1871037 C10.290274,27.1775928 8.67804573,25.5530457 6.69625225,25.5530457 Z M27.2286798,25.5530457 C25.2468863,25.5530457 23.6346581,27.1775929 23.6346581,29.1871037 C23.6346581,31.1966146 25.2468863,32.8211617 27.2286798,32.8211617 C29.2104733,32.8211617 30.8211617,31.1966146 30.8211617,29.1871037 C30.8211617,27.1775928 29.2104733,25.5530457 27.2286798,25.5530457 Z M16.962466,3.10377038 C14.9806726,3.10377038 13.3699842,4.72831743 13.3699842,6.73782834 C13.3699842,8.74733925 14.9806726,10.3718863 16.962466,10.3718863 C18.9442595,10.3718863 20.5549479,8.74733921 20.5549479,6.73782834 C20.5549479,4.72831747 18.9442595,3.10377038 16.962466,3.10377038 Z" id="形状结合" stroke-width="0.8" fill-rule="nonzero"></path>
                    </g>
                </g>
            </g>
        </g>
    </g>
</svg>