<?xml version="1.0" encoding="UTF-8"?>
<svg width="29px" height="26px" viewBox="0 0 29 26" version="1.1" xmlns="http://www.w3.org/2000/svg" xmlns:xlink="http://www.w3.org/1999/xlink">
    <!-- Generator: Sketch 62 (91390) - https://sketch.com -->
    <title>企业服务-当前</title>
    <desc>Created with Sketch.</desc>
    <g id="页面-1" stroke="none" stroke-width="1" fill="none" fill-rule="evenodd">
        <g id="智能客服官网首页-hover" transform="translate(-3416.000000, -1571.000000)" fill="#3477F4" fill-rule="nonzero">
            <g id="1备份-2" transform="translate(3055.000000, 1265.000000)">
                <path d="M373.325,306.088477 L365.62115,308.278223 C364.53365,308.552664 363.71875,309.646093 363.71875,310.83341 L363.71875,330.174248 L361.90625,330.174248 C361.3625,330.174248 361,330.539687 361,331.087124 C361,331.636005 361.3625,332 361.90625,332 L389.09375,332 C389.6375,332 390,331.634561 390,331.087124 C390,330.539687 389.6375,330.084694 389.09375,330.084694 L387.28125,330.084694 L387.28125,317.493649 C387.28125,316.398776 386.55625,315.394901 385.65,315.12046 L378.4899,312.839715 C378.21875,312.748716 377.94615,312.839715 377.675,312.930713 C377.49375,313.114155 377.3125,313.387151 377.3125,313.661592 L377.3125,330.084694 L376.40625,330.084694 L376.40625,308.187225 C376.40625,307.456346 376.13365,306.908909 375.5899,306.453916 C374.95625,305.997478 374.1399,305.905035 373.325,306.088477 Z M383.20385,321.873143 C383.7476,321.873143 384.1101,322.237138 384.1101,322.784574 C384.1101,323.333456 383.7476,323.69745 383.20385,323.69745 L381.39135,323.69745 C380.8476,323.69745 380.4851,323.332011 380.4851,322.784574 C380.4851,322.237138 380.8476,321.873143 381.39135,321.873143 L383.20385,321.873143 Z M371.875,321.873143 C372.41875,321.873143 372.78125,322.237138 372.78125,322.784574 C372.78125,323.333456 372.41875,323.69745 371.875,323.69745 L368.25,323.69745 C367.70625,323.69745 367.34375,323.332011 367.34375,322.784574 C367.34375,322.237138 367.70625,321.873143 368.25,321.873143 L371.875,321.873143 Z M371.875,314.573024 C372.41875,314.573024 372.78125,314.938463 372.78125,315.4859 C372.78125,316.033336 372.41875,316.398776 371.875,316.398776 L368.25,316.398776 C367.70625,316.398776 367.34375,316.033336 367.34375,315.4859 C367.34375,314.938463 367.70625,314.573024 368.25,314.573024 L371.875,314.573024 Z" id="企业服务-当前"></path>
            </g>
        </g>
    </g>
</svg>