<?xml version="1.0" encoding="UTF-8"?>
<svg width="39px" height="32px" viewBox="0 0 39 32" version="1.1" xmlns="http://www.w3.org/2000/svg" xmlns:xlink="http://www.w3.org/1999/xlink">
    <!-- Generator: Sketch 62 (91390) - https://sketch.com -->
    <title>解决方案-当前</title>
    <desc>Created with Sketch.</desc>
    <g id="页面-1" stroke="none" stroke-width="1" fill="none" fill-rule="evenodd">
        <g id="首页" transform="translate(-1132.000000, -821.000000)" fill="#3477F4" fill-rule="nonzero">
            <g id="模块1" transform="translate(0.000000, 600.000000)">
                <g id="公众号备份-3" transform="translate(1132.000000, 197.000000)">
                    <g id="解决方案-当前" transform="translate(0.000000, 24.000000)">
                        <path d="M6.9370403,1.19015908e-13 C7.72121664,1.19015908e-13 8.39354535,0.275865804 8.95526917,0.826337748 C9.51699299,1.37680969 9.7978549,2.04568978 9.7978549,2.83297807 L9.7978549,29.1221078 C9.7978549,29.909396 9.51699299,30.5782761 8.95526923,31.1287481 C8.39354541,31.6804797 7.71997401,31.9563455 6.93704036,31.9563455 L2.8608146,31.9563455 C2.07663826,31.9563455 1.40430955,31.6804797 0.842585731,31.1287481 C0.28086191,30.5782761 -1.27978436e-13,29.909396 -1.27978436e-13,29.1221078 L-1.27978436e-13,2.83297807 C-1.27978436e-13,2.04568984 0.28086191,1.37680969 0.842585672,0.826337748 C1.40430949,0.27460614 2.07663814,1.19015908e-13 2.86081454,1.19015908e-13 L6.9370403,1.19015908e-13 Z M19.2427683,1.19015908e-13 C20.0269446,1.19015908e-13 20.6930595,0.275865804 21.2411131,0.826337748 C21.7904094,1.37680969 22.0650575,2.04568978 22.0650575,2.83297807 L22.0650575,29.1221078 C22.0650575,29.909396 21.7904094,30.5782761 21.2411131,31.1287481 C20.6930595,31.6804797 20.0269446,31.9563455 19.2427683,31.9563455 L15.1665425,31.9563455 C14.3836089,31.9563455 13.7162512,31.6804797 13.1681977,31.1287481 C12.6189014,30.5782761 12.345496,29.909396 12.345496,29.1221078 L12.345496,2.83297807 C12.345496,2.04568984 12.5542783,1.37680969 12.9730856,0.826337748 C13.3906502,0.27460614 14.0058123,1.19015908e-13 14.8148437,1.19015908e-13 L19.2427683,1.19015908e-13 Z M6.93704036,19.7552669 L3.01864403,19.7552669 L2.89880362,19.7621271 C2.66549961,19.7895606 2.47041296,19.8992282 2.31276102,20.0903368 C2.13007651,20.3145565 2.03811288,20.6080576 2.03811288,20.9758786 C2.03811288,21.3172468 2.13007651,21.6057093 2.31276102,21.8412659 C2.49668828,22.0768225 2.73032559,22.1952307 3.01864403,22.1952307 L3.01864403,22.1952307 L6.93828305,22.1952307 L7.0577394,22.1879849 C7.28949993,22.159009 7.47834745,22.0431716 7.624282,21.8412659 C7.79329621,21.6057093 7.87904613,21.3172468 7.87904613,20.9758786 C7.87904613,20.6080576 7.79329627,20.3132968 7.624282,20.0903368 C7.45278233,19.8673768 7.22535873,19.7552669 6.93704036,19.7552669 L6.93704036,19.7552669 Z M19.2427682,17.3165628 L15.1665425,17.3165628 L15.0570571,17.3238086 C14.8428183,17.3527845 14.6570142,17.4686219 14.5004275,17.6705276 C14.317743,17.9073439 14.2257794,18.208403 14.2257794,18.5749644 C14.2257794,18.9163326 14.317743,19.2110933 14.5004275,19.4605062 C14.683112,19.7099192 14.9055646,19.8346256 15.1665425,19.8346256 L15.1665425,19.8346256 L19.2427682,19.8346256 L19.3526448,19.8269905 C19.5674054,19.7964502 19.7522964,19.6742888 19.9088831,19.4605062 C20.0915677,19.2110933 20.1835313,18.9163326 20.1835313,18.5749644 C20.1835313,18.2071434 20.0915677,17.9060843 19.9088831,17.6705276 C19.7261987,17.4337113 19.5049889,17.3165628 19.2427682,17.3165628 L19.2427682,17.3165628 Z M6.93704036,14.8362898 L3.01864403,14.8362898 L2.89880362,14.8435357 C2.66549961,14.8725115 2.47041296,14.9883489 2.31276102,15.1902547 C2.13007651,15.4258113 2.03811288,15.72813 2.03811288,16.0959511 C2.03811288,16.4637722 2.13007651,16.7648312 2.31276102,17.0016476 C2.49668828,17.2372042 2.73032559,17.3556124 3.01864403,17.3556124 L3.01864403,17.3556124 L6.93828305,17.3556124 L7.0577394,17.3483666 C7.28949993,17.3193907 7.47834745,17.2035533 7.624282,17.0016476 C7.79329621,16.7660909 7.87904613,16.4637722 7.87904613,16.0959511 C7.87904613,15.72813 7.79329627,15.427071 7.624282,15.1902547 C7.45278233,14.9546981 7.22535873,14.8362898 6.93704036,14.8362898 L6.93704036,14.8362898 Z M19.2427682,12.2779179 L15.1665425,12.2779179 L15.0570571,12.2851637 C14.8428183,12.3141396 14.6570142,12.429977 14.5004275,12.6318827 C14.317743,12.8674394 14.2257794,13.1697581 14.2257794,13.5375792 C14.2257794,13.9041406 14.317743,14.2127576 14.5004275,14.4621705 C14.683112,14.7115834 14.9055646,14.8362899 15.1665425,14.8362899 L15.1665425,14.8362899 L19.2427682,14.8362899 L19.3526448,14.8286548 C19.5674054,14.7981145 19.7522964,14.675953 19.9088831,14.4621705 C20.0915677,14.2127576 20.1835313,13.9041406 20.1835313,13.5375792 C20.1835313,13.1697581 20.0915677,12.8686991 19.9088831,12.6318827 C19.7261987,12.3963261 19.5049889,12.2779179 19.2427682,12.2779179 L19.2427682,12.2779179 Z M6.78045357,9.83921379 L3.01864403,9.83921379 L2.89880362,9.84645959 C2.66549961,9.87543547 2.47041296,9.99127289 2.31276102,10.1931786 C2.13007651,10.4287352 2.03811288,10.731054 2.03811288,11.0976154 C2.03811288,11.4389836 2.13007651,11.7337443 2.31276102,11.9831572 C2.49668828,12.2325701 2.7315684,12.3572766 3.01864403,12.3572766 L3.01864403,12.3572766 L6.78045357,12.3572766 L6.89990992,12.3496415 C7.13167045,12.3191012 7.32051797,12.1969397 7.46645251,11.9831572 C7.63670948,11.7337443 7.72121664,11.4389836 7.72121664,11.0976154 C7.72121664,10.7297943 7.63670954,10.4287353 7.46645251,10.1931786 C7.2974383,9.95636233 7.06752919,9.83921379 6.78045357,9.83921379 L6.78045357,9.83921379 Z" id="形状结合"></path>
                        <path d="M38.4656524,30.0668537 C38.0083198,30.6966843 37.3881866,31.077102 36.6040103,31.2081068 L31.9014376,31.9563456 C31.143359,32.0873503 30.4449325,31.9235944 29.8049154,31.463818 C29.1648982,31.0040417 28.7796452,30.3805094 28.6491563,29.5944808 L24.6524666,4.17073837 C24.600271,3.77772409 24.620155,3.4036047 24.7108759,3.04963987 C24.8028395,2.69567503 24.9532125,2.36690348 25.1619948,2.06584446 C25.3707771,1.76478544 25.6392114,1.51537252 25.9660552,1.31760568 C26.2928989,1.12109851 26.6520541,0.982535803 27.043521,0.904436775 L31.7075684,0.156197995 C32.4905019,0.0251932134 33.196385,0.195247509 33.8239746,0.667620425 C34.4503214,1.1399934 34.8306035,1.76982398 34.9610924,2.55711227 L38.9577821,27.9430648 C39.0857856,28.7290935 38.9229851,29.4370231 38.4656524,30.0668537 Z" id="路径"></path>
                    </g>
                </g>
            </g>
        </g>
    </g>
</svg>