<?xml version="1.0" encoding="UTF-8"?>
<svg width="70px" height="70px" viewBox="0 0 70 70" version="1.1" xmlns="http://www.w3.org/2000/svg" xmlns:xlink="http://www.w3.org/1999/xlink">
    <!-- Generator: Sketch 62 (91390) - https://sketch.com -->
    <title>开放接口</title>
    <desc>Created with Sketch.</desc>
    <g id="页面-1" stroke="none" stroke-width="1" fill="none" fill-rule="evenodd">
        <g id="首页" transform="translate(-436.000000, -9769.000000)">
            <g id="模块7" transform="translate(0.000000, 8643.000000)">
                <g id="开放接口" transform="translate(436.000000, 1126.000000)">
                    <circle id="椭圆形" fill="#EEEFF2" cx="35" cy="35" r="35"></circle>
                    <g id="编组" transform="translate(21.000000, 18.846154)" fill="#3477F4" fill-rule="nonzero" stroke="#3477F4">
                        <path d="M18.0887421,16.8682065 L14.4535133,20.4846233 L11.897525,17.928635 L15.5139417,14.3122182 C15.6735916,14.1525201 15.6735916,13.8936495 15.5139417,13.7339514 L14.0678657,12.2878755 C13.9081677,12.1282256 13.649297,12.1282256 13.489599,12.2878755 L9.87318221,15.9042922 L7.95966711,13.9909816 C7.48054944,13.5118957 6.70377992,13.5118957 6.22466224,13.9909816 L3.35030002,16.8653438 C0.344457765,19.8711861 0.0377391675,24.5742046 2.45059214,27.9276613 L0.1223935,30.2558599 C-0.0372563672,30.415558 -0.0372563672,30.6744286 0.1223935,30.8341267 L1.56846945,32.2802027 C1.72816754,32.4398525 1.98703816,32.4398525 2.14673625,32.2802027 L4.47493488,29.952004 C5.94718415,30.9948472 7.68525621,31.5264928 9.42332826,31.5264928 C11.6317022,31.5264928 13.8196282,30.6881287 15.4963565,29.0114003 L18.3707187,26.1370381 C18.6008472,25.9069485 18.7301354,25.5948567 18.7301354,25.2694334 C18.7301354,24.9440101 18.6008472,24.6319183 18.3707187,24.4018287 L16.477856,22.508966 L20.0957041,18.8911179 C20.2547989,18.7319792 20.2554386,18.4742088 20.0971355,18.3142825 L18.6678268,16.8704558 C18.5913747,16.793266 18.4873505,16.7496692 18.3787087,16.7492855 C18.3062808,16.7490298 18.2096253,16.7886701 18.0887421,16.8682065 Z" id="形状"></path>
                        <path d="M32.1789855,1.56744705 L30.7329096,0.121371105 C30.5732115,-0.0382787625 30.3143409,-0.0382787625 30.1546428,0.121371105 L27.8059962,2.47001765 C26.333747,1.42717442 24.5956749,0.895528846 22.8576028,0.895528846 C20.6492289,0.895528846 18.4613029,1.73389301 16.7845746,3.41062135 L13.7419261,6.46921921 C13.2649587,6.94869812 13.2659648,7.72373579 13.7441754,8.20197481 L24.1574763,18.6150712 C24.6365939,19.0941571 25.4133635,19.0941571 25.8924811,18.6150712 L28.9306311,15.5771257 C31.9569213,12.5508356 32.2431919,7.84781706 29.830339,4.49436039 L32.1789855,2.14571385 C32.3386354,1.98601576 32.3386354,1.72714514 32.1789855,1.56744705 L32.1789855,1.56744705 Z" id="路径" opacity="0.4"></path>
                    </g>
                </g>
            </g>
        </g>
    </g>
</svg>