<?xml version="1.0" encoding="UTF-8"?>
<svg width="45px" height="52px" viewBox="0 0 45 52" version="1.1" xmlns="http://www.w3.org/2000/svg" xmlns:xlink="http://www.w3.org/1999/xlink">
    <!-- Generator: Sketch 62 (91390) - https://sketch.com -->
    <title>3</title>
    <desc>Created with Sketch.</desc>
    <g id="页面-1" stroke="none" stroke-width="1" fill="none" fill-rule="evenodd" opacity="0.04">
        <g id="融智客服官网首页-hover" transform="translate(-1081.000000, -581.000000)" fill="#030F42" fill-rule="nonzero">
            <g id="模块1备份">
                <g id="3" transform="translate(752.000000, 581.000000)">
                    <g>
                        <path d="M352,51 C358.585366,51 363.565041,49.7638889 366.939024,47.2916667 C370.313008,44.8194444 372,41.25 372,36.5833333 L372,36.5833333 L372,31.4166667 C372,28.3055556 371.227642,25.75 369.682927,23.75 C368.138211,21.75 365.617886,20.3055556 362.121951,19.4166667 L362.121951,19.4166667 L362.121951,19.25 C365.373984,18.4166667 367.772358,17.0416667 369.317073,15.125 C370.861789,13.2083333 371.634146,10.6666667 371.634146,7.5 L371.634146,7.5 L371.634146,5.41666667 C371.634146,0.75 369.96748,-2.81944444 366.634146,-5.29166667 C363.300813,-7.76388889 358.422764,-9 352,-9 C345.658537,-9 340.800813,-7.75 337.426829,-5.25 C334.052846,-2.75 332.365854,0.833333333 332.365854,5.5 L332.365854,5.5 L332.365854,8.58333333 L345.04878,8.58333333 L345.04878,4.75 C345.04878,1.13888889 347.203252,-0.666666667 351.512195,-0.666666667 C353.544715,-0.666666667 355.170732,-0.194444444 356.390244,0.75 C357.609756,1.69444444 358.219512,3.16666667 358.219512,5.16666667 L358.219512,5.16666667 L358.219512,9.41666667 C358.219512,11.6388889 357.54878,13.2222222 356.207317,14.1666667 C354.865854,15.1111111 352.853659,15.5833333 350.170732,15.5833333 L350.170732,15.5833333 L345.292683,15.5833333 L345.292683,23.9166667 L349.804878,23.9166667 C352.894309,23.9166667 355.130081,24.4861111 356.512195,25.625 C357.894309,26.7638889 358.585366,28.6666667 358.585366,31.3333333 L358.585366,31.3333333 L358.585366,36.0833333 C358.585366,38.5277778 357.995935,40.2361111 356.817073,41.2083333 C355.638211,42.1805556 353.910569,42.6666667 351.634146,42.6666667 C347,42.6666667 344.682927,40.75 344.682927,36.9166667 L344.682927,36.9166667 L344.682927,31.75 L332,31.75 L332,36.5 C332,41.1666667 333.686992,44.75 337.060976,47.25 C340.434959,49.75 345.414634,51 352,51 Z" transform="translate(352.000000, 21.000000) rotate(8.000000) translate(-352.000000, -21.000000) "></path>
                    </g>
                </g>
            </g>
        </g>
    </g>
</svg>