<svg height="26" viewBox="0 0 26 26" width="26" xmlns="http://www.w3.org/2000/svg"><path d="m525.100546 306c3.862147 0 7.777525 2.081893 9.723385 4.314604l-.011829.011829c.094631.035487.650591.955187.082802 1.534804l-7.54686 7.949045 7.156506 7.271838c.396269.600319-.165606 1.07939-.414013 1.35737-2.348044 2.20314-5.50637 3.56051-8.989991 3.56051-7.233394 0-13.100546-5.819836-13.100546-13s5.867152-13 13.100546-13zm10.439035 11.240446c1.357371 0 2.457462 1.091219 2.457462 2.436761 0 1.345541-1.100091 2.43676-2.457462 2.43676-1.35737 0-2.457461-1.091219-2.457461-2.43676 0-1.345542 1.100091-2.436761 2.457461-2.436761zm-13.71565-4.737489h-1.638308v1.623522h-1.638307v1.623521h1.638307v1.623521h1.638308v-1.623521h1.638307v-1.623521h-1.638307z" fill="#04264f" fill-opacity=".4" transform="translate(-512 -306)"/></svg>