<?xml version="1.0" encoding="UTF-8"?>
<svg width="82px" height="82px" viewBox="0 0 82 82" version="1.1" xmlns="http://www.w3.org/2000/svg" xmlns:xlink="http://www.w3.org/1999/xlink">
    <!-- Generator: Sketch 62 (91390) - https://sketch.com -->
    <title>客服分组</title>
    <desc>Created with Sketch.</desc>
    <g id="页面-1" stroke="none" stroke-width="1" fill="none" fill-rule="evenodd">
        <g id="首页" transform="translate(-1167.000000, -10373.000000)">
            <g id="模块8" transform="translate(0.000000, 10173.000000)">
                <g id="客服分组" transform="translate(1167.000000, 200.000000)">
                    <circle id="椭圆形备份-20" fill="#FD972A" fill-rule="evenodd" cx="41" cy="41" r="41"></circle>
                    <path d="M36,32 C36,39.7319865 42.2680135,46 50,46 C57.7319865,46 64,39.7319865 64,32 C64,24.2680135 57.7319865,18 50,18 C42.2680135,18 36,24.2680135 36,32 Z" id="路径" fill="#FFFFFF" fill-rule="nonzero" opacity="0.2"></path>
                    <path d="M36.7354609,40.415519 C41.3023106,40.415519 45.0044737,36.7407623 45.0044737,32.2077482 C45.0044737,27.674734 41.3023106,24 36.7354609,24 C32.1686113,24 28.4664254,27.674734 28.4664254,32.2077482 C28.4612938,34.3861428 29.3308356,36.4767895 30.882695,38.0171514 C32.4345545,39.5575132 34.5408063,40.4206126 36.7354609,40.415519 L36.7354609,40.415519 Z M36.6331696,27.8472962 L36.7354609,27.8472962 C39.1209965,27.9066739 41.0237245,29.8432587 41.0237245,32.2118644 C41.0237245,34.5804701 39.1209965,36.5170549 36.7354609,36.5764326 L36.6331696,36.5764326 C34.2491473,36.5170739 32.347636,34.5817122 32.347636,32.2146086 C32.347636,29.847505 34.2491473,27.9121432 36.6331696,27.8527845 L36.6331696,27.8472962 Z M48.2777973,39.8502018 C51.44453,38.617411 53.5276087,35.5854975 53.5276087,32.2091203 C53.5276087,28.832743 51.44453,25.8008295 48.2777973,24.5680387 C47.289845,24.2261271 46.2070089,24.7255353 45.8331699,25.6955103 C45.4593309,26.6654853 45.9298768,27.7547455 46.8954816,28.1546408 C48.5688431,28.8150319 49.6671717,30.4216873 49.6671717,32.2091203 C49.6671717,33.9965532 48.5688431,35.6032086 46.8954816,36.2635997 C46.1532613,36.5504748 45.6639259,37.2594371 45.6624551,38.0500404 C45.6618663,38.6804831 45.9729785,39.2710813 46.4949146,39.6303344 C47.0168507,39.9895874 47.6831618,40.0717577 48.2777973,39.8502018 L48.2777973,39.8502018 Z M48.3966765,47.0728006 C47.9616595,44.3569234 45.6019881,42.3579764 42.8314733,42.3583535 L30.6339193,42.3583535 C27.8629388,42.3593424 25.5035928,44.3591772 25.0687161,47.0755448 L24.0485671,53.472155 C23.8681625,54.6023247 24.195524,55.7542208 24.9443597,56.6242051 C25.6931953,57.4941894 26.7883593,57.9949589 27.9411682,57.9945122 L45.5242244,57.9945122 C46.677599,57.9950867 47.7732981,57.4939485 48.5222385,56.6233145 C49.2711789,55.7526805 49.598128,54.6000077 49.4168255,53.4694108 L48.3966765,47.0728006 Z M44.3188451,54.1527038 L29.1493122,54.1527038 C28.828818,54.1506173 28.5250002,54.0106175 28.316552,53.7689664 C28.1081037,53.5273153 28.0155312,53.2077854 28.062812,52.8931396 L28.9364356,47.4048426 C29.0477564,46.712901 29.6487529,46.2035712 30.3546915,46.2029056 L43.1134657,46.2029056 C43.8194043,46.2035712 44.4204009,46.712901 44.5317217,47.4048426 L45.4053452,52.8931396 C45.452626,53.2077854 45.3600535,53.5273153 45.1516052,53.7689664 C44.943157,54.0106175 44.6393392,54.1506173 44.3188451,54.1527038 L44.3188451,54.1527038 Z M57.9512428,53.5297821 L56.5191637,44.5975787 C56.313633,43.3071401 55.1923924,42.3571886 53.876176,42.3583524 L51.5428271,42.3583524 C50.4740224,42.3583524 49.6075851,43.2183715 49.6075851,44.2792575 C49.6075851,45.3401434 50.4740224,46.2001614 51.5428271,46.2001614 L52.0515193,46.2001614 C52.5320927,46.2007205 52.9394287,46.5512853 53.0080818,47.023406 L53.9701735,53.0605327 C54.0092985,53.3359751 53.9265442,53.6147575 53.7432063,53.8251384 C53.5598685,54.0355194 53.2938512,54.1569538 53.013611,54.1581921 C52.550679,54.1580918 52.1109501,54.3593428 51.8104233,54.7088556 C51.5098965,55.0583685 51.3787553,55.5210397 51.4515942,55.9748184 L51.5151808,56.3782082 C51.6634179,57.3116116 52.4735587,57.999377 53.4255411,58 L54.1249929,58 C55.2612643,57.9956921 56.3388292,57.498442 57.0745384,56.6389111 C57.8102475,55.7793801 58.1305362,54.6435142 57.9512428,53.5297821 L57.9512428,53.5297821 Z" id="形状" fill="#FFFFFF" fill-rule="nonzero"></path>
                </g>
            </g>
        </g>
    </g>
</svg>