<?xml version="1.0" encoding="UTF-8"?>
<svg width="26px" height="26px" viewBox="0 0 26 26" version="1.1" xmlns="http://www.w3.org/2000/svg" xmlns:xlink="http://www.w3.org/1999/xlink">
    <!-- Generator: Sketch 62 (91390) - https://sketch.com -->
    <title>游戏娱乐</title>
    <desc>Created with Sketch.</desc>
    <g id="页面-1" stroke="none" stroke-width="1" fill="none" fill-rule="evenodd">
        <g id="智能客服官网首页-hover" transform="translate(-4817.000000, -1571.000000)" fill="#3477F4" fill-rule="nonzero">
            <g id="1备份-3" transform="translate(4305.000000, 1265.000000)">
                <path d="M525.100546,306 C528.962693,306 532.878071,308.081893 534.823931,310.314604 L534.823931,310.314604 L534.812102,310.326433 C534.906733,310.36192 535.462693,311.28162 534.894904,311.861237 L534.894904,311.861237 L527.348044,319.810282 L534.50455,327.08212 C534.900819,327.682439 534.338944,328.16151 534.090537,328.43949 C531.742493,330.64263 528.584167,332 525.100546,332 C517.867152,332 512,326.180164 512,319 C512,311.819836 517.867152,306 525.100546,306 Z M535.539581,317.240446 C536.896952,317.240446 537.997043,318.331665 537.997043,319.677207 C537.997043,321.022748 536.896952,322.113967 535.539581,322.113967 C534.182211,322.113967 533.08212,321.022748 533.08212,319.677207 C533.08212,318.331665 534.182211,317.240446 535.539581,317.240446 Z M521.823931,312.502957 L520.185623,312.502957 L520.185623,314.126479 L518.547316,314.126479 L518.547316,315.75 L520.185623,315.75 L520.185623,317.373521 L521.823931,317.373521 L521.823931,315.75 L523.462238,315.75 L523.462238,314.126479 L521.823931,314.126479 L521.823931,312.502957 Z" id="游戏娱乐"></path>
            </g>
        </g>
    </g>
</svg>