<?xml version="1.0" encoding="UTF-8"?>
<svg width="82px" height="82px" viewBox="0 0 82 82" version="1.1" xmlns="http://www.w3.org/2000/svg" xmlns:xlink="http://www.w3.org/1999/xlink">
    <!-- Generator: Sketch 62 (91390) - https://sketch.com -->
    <title>关键字转人工</title>
    <desc>Created with Sketch.</desc>
    <g id="页面-1" stroke="none" stroke-width="1" fill="none" fill-rule="evenodd">
        <g id="首页" transform="translate(-1419.000000, -10373.000000)">
            <g id="模块8" transform="translate(0.000000, 10173.000000)">
                <g id="关键字转人工" transform="translate(1419.000000, 200.000000)">
                    <circle id="椭圆形备份-21" fill="#4FBBF9" fill-rule="evenodd" cx="41" cy="41" r="41"></circle>
                    <path d="M38,48 C38,55.7319865 44.2680135,62 52,62 C59.7319865,62 66,55.7319865 66,48 C66,40.2680135 59.7319865,34 52,34 C44.2680135,34 38,40.2680135 38,48 Z" id="路径" fill="#FFFFFF" fill-rule="nonzero" opacity="0.2"></path>
                    <g id="形状" stroke-width="1" fill-rule="evenodd" transform="translate(26.000000, 24.000000)" fill="#FFFFFF">
                        <path d="M12.7354609,16.415519 C17.3023106,16.415519 21.0044737,12.7407623 21.0044737,8.20774818 C21.0044737,3.67473403 17.3023106,3.62376795e-13 12.7354609,3.62376795e-13 C8.16861131,3.62376795e-13 4.46642542,3.67473403 4.46642542,8.20774818 C4.46129382,10.3861428 5.33083557,12.4767895 6.88269501,14.0171514 C8.43455445,15.5575132 10.5408063,16.4206126 12.7354609,16.415519 L12.7354609,16.415519 Z M12.6331696,3.84729621 L12.7354609,3.84729621 C15.1209965,3.90667393 17.0237245,5.84325869 17.0237245,8.21186441 C17.0237245,10.5804701 15.1209965,12.5170549 12.7354609,12.5764326 L12.6331696,12.5764326 C10.2491473,12.5170739 8.347636,10.5817122 8.347636,8.21460856 C8.347636,5.84750496 10.2491473,3.91214323 12.6331696,3.8527845 L12.6331696,3.84729621 Z M24.3966765,23.0728006 C23.9616595,20.3569234 21.6019881,18.3579764 18.8314733,18.3583535 L6.63391928,18.3583535 C3.86293882,18.3593424 1.50359275,20.3591772 1.06871613,23.0755448 L0.0485671148,29.472155 C-0.131837468,30.6023247 0.195524044,31.7542208 0.944359666,32.6242051 C1.69319529,33.4941894 2.78835932,33.9949589 3.94116822,33.9945122 L21.5242244,33.9945122 C22.677599,33.9950867 23.7732981,33.4939485 24.5222385,32.6233145 C25.2711789,31.7526805 25.598128,30.6000077 25.4168255,29.4694108 L24.3966765,23.0728006 Z M20.3188451,30.1527038 L5.14931218,30.1527038 C4.82881802,30.1506173 4.52500024,30.0106175 4.31655199,29.7689664 C4.10810374,29.5273153 4.01553121,29.2077854 4.06281201,28.8931396 L4.93643555,23.4048426 C5.04775637,22.712901 5.64875291,22.2035712 6.3546915,22.2029056 L19.1134657,22.2029056 C19.8194043,22.2035712 20.4204009,22.712901 20.5317217,23.4048426 L21.4053452,28.8931396 C21.452626,29.2077854 21.3600535,29.5273153 21.1516052,29.7689664 C20.943157,30.0106175 20.6393392,30.1506173 20.3188451,30.1527038 L20.3188451,30.1527038 Z" fill-rule="nonzero"></path>
                        <path d="M32.0655738,15.3360656 C32.6721311,15.3360656 33.147541,15.8278689 33.147541,16.4180328 C33.147541,17.0081967 32.6557377,17.5 32.0655738,17.5 L26.984,17.5 L27.6885246,18.204918 C28.1147541,18.6311475 28.1147541,19.3196721 27.6885246,19.7459016 C27.4843228,19.9505225 27.2071142,20.0655126 26.9180328,20.0655126 C26.6289514,20.0655126 26.3517427,19.9505225 26.147541,19.7459016 L23.6229508,17.2213115 C23.4736525,17.0723189 23.3720705,16.88446 23.3280552,16.6814812 C23.3062586,16.5979303 23.295082,16.5094718 23.295082,16.4180328 C23.295082,15.8114754 23.7868852,15.3360656 24.3770492,15.3360656 L32.0655738,15.3360656 Z M30,8.31967213 L32.5245902,10.8442623 C32.7259363,11.0456084 32.8321687,11.305486 32.8432875,11.5685959 C32.8490558,11.6156088 32.852459,11.6640215 32.852459,11.7131148 C32.852459,12.3196721 32.3606557,12.795082 31.7704918,12.795082 L24.0819672,12.795082 C23.4754098,12.795082 23,12.3032787 23,11.7131148 C23,11.1229508 23.4918033,10.6311475 24.0819672,10.6311475 L29.23,10.631 L28.4590164,9.86065574 C28.2543955,9.65645399 28.1394054,9.37924532 28.1394054,9.09016393 C28.1394054,8.80108255 28.2543955,8.52387387 28.4590164,8.31967213 C28.8852459,7.89344262 29.5737705,7.89344262 30,8.31967213 Z" id="形状结合" stroke="#FFFFFF" stroke-width="0.6" fill-rule="nonzero"></path>
                    </g>
                </g>
            </g>
        </g>
    </g>
</svg>