<?xml version="1.0" encoding="UTF-8"?>
<svg width="82px" height="82px" viewBox="0 0 82 82" version="1.1" xmlns="http://www.w3.org/2000/svg" xmlns:xlink="http://www.w3.org/1999/xlink">
    <!-- Generator: Sketch 62 (91390) - https://sketch.com -->
    <title>客服协同</title>
    <desc>Created with Sketch.</desc>
    <g id="页面-1" stroke="none" stroke-width="1" fill="none" fill-rule="evenodd">
        <g id="首页" transform="translate(-409.000000, -10571.000000)">
            <g id="模块8" transform="translate(0.000000, 10173.000000)">
                <g id="客服协同" transform="translate(409.000000, 398.000000)">
                    <circle id="椭圆形备份-19" fill="#FD972A" fill-rule="evenodd" cx="41" cy="41" r="41"></circle>
                    <path d="M38,32 C38,39.7319865 44.2680135,46 52,46 C59.7319865,46 66,39.7319865 66,32 C66,24.2680135 59.7319865,18 52,18 C44.2680135,18 38,24.2680135 38,32 Z" id="路径" fill="#FFFFFF" fill-rule="nonzero" opacity="0.2"></path>
                    <g id="编组" stroke-width="1" fill-rule="evenodd" transform="translate(23.000000, 24.000000)">
                        <path d="M33.6448545,16.1111147 C36.4533324,19.9277643 36.1592824,25.154654 32.9007903,28.6158056 L32.6887768,28.8343016 L32.6887768,31.9231678 C32.6887768,32.2574606 32.4456547,32.530973 32.1251756,32.5779398 L32.0268769,32.5850677 L31.879788,32.5850677 L27.3935776,31.5554456 C23.6749225,32.1847565 20.0452746,30.6333902 17.8894051,27.7668288 C18.3570826,27.6426693 18.8157652,27.4953352 19.2651015,27.3252541 C21.142808,29.4911716 24.0638677,30.6390357 26.9588332,30.2063411 L27.2464888,30.1581014 L27.5406665,30.1581014 L31.2914326,31.0406346 L31.2914326,28.4665794 C31.2914326,28.2459461 31.364977,28.0988572 31.5120659,27.9517684 C33.2771323,26.4073353 34.2332099,24.1274579 34.2332099,21.774036 C34.2332099,18.0485148 31.7606517,14.8460347 28.3448606,13.7341542 C28.3308849,13.294784 28.2957981,12.8578469 28.2406046,12.4245911 C30.3444405,12.9871779 32.272465,14.2460726 33.6448545,16.1111147 Z" id="形状结合" stroke="#FFFFFF" stroke-width="1.6" fill="#FFFFFF" fill-rule="nonzero"></path>
                        <path d="M21.6571118,23.8332801 C21.510023,23.9068245 21.510023,23.9068245 21.510023,23.980369 L21.510023,24.0539134 C22.9073672,25.671891 24.3782559,26.5544242 25.8491446,26.5544242 C28.4231997,26.3337908 29.7469995,24.2745467 29.8940884,24.0539134 L29.8940884,23.980369 C29.8940884,23.980369 29.8940884,23.9068246 29.8205439,23.9068245 L29.7469995,23.9068245 C29.7469995,23.9068245 29.6734551,23.9068245 29.6734551,23.980369 C29.5263662,24.2010023 28.2025664,26.186702 26.2168667,26.3337908 C24.8195225,26.4073353 23.3486338,25.6718909 21.8042007,23.980369 C21.7306563,23.8332801 21.6571119,23.8332801 21.6571118,23.8332801 Z" id="路径" fill="#000000" fill-rule="nonzero"></path>
                        <path d="M21.7633938,25.0103073 C21.5807967,24.8264032 21.398321,24.6301793 21.2158452,24.4216356 C21.0687564,24.2745468 22.0983784,23.3920135 22.1719229,23.5391024 C22.3227316,23.7057858 22.4726837,23.8630462 22.6217792,24.0108835 C23.8541534,25.2328586 25.0280011,25.8110426 26.1433223,25.7454354 C27.9083886,25.5983465 29.158644,23.6861913 29.2321885,23.6126468 C29.3057329,23.465558 29.4528218,23.3920135 29.6734551,23.3184691 C29.8205439,23.2449247 30.0411772,23.3184691 30.1882661,23.3920135 C30.3353549,23.465558 30.4088994,23.6126468 30.4824438,23.7597357 C30.5559882,23.9068245 30.4824438,24.0539134 30.4088994,24.2010023 C30.1147217,24.6422689 28.643833,26.8486019 25.922689,27.0692352 C24.4958765,27.0692352 23.1262565,26.3829259 21.7633938,25.0103073 Z" id="路径" stroke="#FFFFFF" fill="#FFFFFF" fill-rule="nonzero"></path>
                        <path d="M20.7745787,1.76995022 C26.952311,4.93236085 29.8205439,12.1397153 27.6142109,18.6851698 C25.407878,25.2306244 18.7153345,29.2020238 11.9492467,28.0253128 L5.55088099,29.6432904 L5.33024771,29.6432904 C4.81543669,29.6432904 4.37417009,29.2020238 4.37417005,28.6872127 L4.37417005,24.2010023 C-0.479762531,19.3470697 -1.06811798,11.5513598 2.97682584,5.96198289 C7.02176966,0.372605965 14.5968463,-1.39246042 20.7745787,1.76995022 Z M14.3026685,2.06412792 C7.61012511,2.06412792 2.16783708,7.50641599 2.16783708,14.2725038 C2.16783708,17.6555478 3.56518129,20.8179584 5.99214758,23.1713802 C6.2127809,23.3184691 6.28632532,23.6126468 6.28632532,23.8332801 L6.28632532,27.5105018 L11.6550689,26.2602464 L12.0227911,26.2602464 C16.5090015,27.0692352 21.1423008,25.2306243 23.8634449,21.6269471 C26.5845889,18.02327 27.0993999,13.0222485 25.0401558,8.97730467 C22.9809117,4.93236085 18.8624234,2.13767238 14.3026685,2.06412792 Z" id="形状结合" stroke="#FFFFFF" stroke-width="1.6" fill="#FFFFFF" fill-rule="nonzero"></path>
                        <path d="M20.1126787,17.1407367 C20.3333121,17.2142812 20.3333121,17.2878256 20.3333121,17.36137 C20.3333121,17.4349144 20.3333121,17.4349144 20.2597676,17.5084589 C18.2005235,19.7883363 16.1412794,21.0385917 14.0820352,21.0385917 L13.6407686,21.0385917 C10.478358,20.7444139 8.56620273,17.7290922 8.41911387,17.5084589 L8.41911387,17.36137 C8.41911387,17.2878256 8.4926583,17.2878256 8.49265834,17.2142812 C8.56620277,17.2142812 8.56620277,17.1407367 8.63974719,17.2142812 C8.71329162,17.2142812 8.71329162,17.2878256 8.78683604,17.2878256 C8.93392489,17.5820033 10.9196246,20.3766918 13.7878575,20.5973251 C15.7735572,20.7444139 17.9063458,19.7147919 20.0391343,17.2142812 C20.0391343,17.2142812 20.0391343,17.1407367 20.1126787,17.1407367 Z" id="路径" fill="#000000" fill-rule="nonzero"></path>
                        <path d="M14.0820352,21.774036 L13.6407686,21.774036 C10.0370914,21.4798583 7.97784728,18.2439032 7.757214,17.8761811 C7.61012515,17.5820033 7.61012515,17.36137 7.68366958,17.1407367 C7.757214,16.9201034 7.90430289,16.6994701 8.12493617,16.5523812 C8.34556949,16.4052924 8.56620277,16.4052924 8.86038051,16.4052924 C9.08101383,16.4788368 9.3016471,16.6259257 9.44873596,16.7730146 C9.52228038,16.9201034 11.3608912,19.567703 13.8614019,19.7883363 C15.7000128,19.9354252 17.5386236,18.9058031 19.5243233,16.6259257 C19.6714121,16.4052924 19.8920455,16.331748 20.1862232,16.331748 L20.3333121,16.331748 L20.4804009,16.4052924 C20.6274898,16.4788368 21.0687564,16.6994701 21.1423008,17.2142812 C21.1423008,17.4349145 21.0687564,17.7290922 20.9216675,17.8761811 C18.6417901,20.5237807 16.3619127,21.774036 14.0820352,21.774036 L14.0820352,21.774036 Z" id="路径" stroke="#FFFFFF" fill="#FFFFFF" fill-rule="nonzero"></path>
                    </g>
                </g>
            </g>
        </g>
    </g>
</svg>