<?xml version="1.0" encoding="UTF-8"?>
<svg width="82px" height="82px" viewBox="0 0 82 82" version="1.1" xmlns="http://www.w3.org/2000/svg" xmlns:xlink="http://www.w3.org/1999/xlink">
    <!-- Generator: Sketch 62 (91390) - https://sketch.com -->
    <title>会话分类</title>
    <desc>Created with Sketch.</desc>
    <g id="页面-1" stroke="none" stroke-width="1" fill="none" fill-rule="evenodd">
        <g id="首页" transform="translate(-662.000000, -10571.000000)">
            <g id="模块8" transform="translate(0.000000, 10173.000000)">
                <g id="会话分类" transform="translate(662.000000, 398.000000)">
                    <circle id="椭圆形备份-22" fill="#4FBBF9" fill-rule="evenodd" cx="41" cy="41" r="41"></circle>
                    <path d="M16,46 C16,53.7319865 22.2680135,60 30,60 C37.7319865,60 44,53.7319865 44,46 C44,38.2680135 37.7319865,32 30,32 C22.2680135,32 16,38.2680135 16,46 Z" id="路径" fill="#FFFFFF" fill-rule="nonzero" opacity="0.2"></path>
                    <g id="编组" stroke-width="1" fill-rule="evenodd" transform="translate(20.000000, 26.000000)" fill="#FFFFFF">
                        <path d="M40.173913,6.02347997 L22.3695652,6.02347997 L22.3695652,1.77347997 C22.3695652,0.988153887 21.3652174,0.0180451929 20.6347826,0.0180451929 L1.3695652,0.0180451929 C0.593478252,0.0180451929 0,0.988153887 0,1.77347997 L0,13.5995669 C0,14.3386974 0.639130447,15.2626104 1.3695652,15.2626104 L4.15434785,15.2626104 L7.80652175,19.2816321 C8.0804348,19.6050017 8.4456522,19.697393 8.85652175,19.697393 C9.03913045,19.697393 9.0847826,19.6511974 9.2673913,19.558806 C9.8152174,19.3740234 10.0891304,18.8196756 10.0891304,18.2191321 L10.0891304,15.2626104 L12.8282609,15.2626104 L12.8282609,23.8550017 C12.8282609,24.871306 13.8782609,25.8876104 14.8826087,25.8876104 L27.3913043,25.8876104 L27.3913043,31.52348 C27.3913043,32.2626104 27.7565217,32.9555452 28.4869565,33.2327191 C28.7152174,33.3251104 28.8978261,33.371306 29.126087,33.371306 C29.6282609,33.371306 30.0847826,33.2789147 30.45,32.9093495 L37.2521739,25.8876104 L40.173913,25.8876104 C41.1782609,25.8876104 42,24.871306 42,23.8550017 L42,8.28706691 C42,7.27076254 41.1782609,6.02347997 40.173913,6.02347997 Z M8.85652175,12.4908713 C8.0804348,12.4908713 7.30434785,12.8142408 7.30434785,13.5995669 L7.30434785,14.52348 L5.7521739,12.8142408 C5.47826085,12.4908713 5.15869565,12.4908713 4.79347825,12.4908713 L2.73913045,12.4908713 L2.73913045,2.78978429 L19.173913,2.78978429 L19.173913,6.02347997 L14.8369565,6.02347997 C13.8326087,6.02347997 12.7826087,7.27076258 12.7826087,8.28706691 L12.7826087,12.4908713 L8.85652175,12.4908713 Z M37.0188151,22.4216309 C36.4917318,22.4216309 36.0604817,22.5184051 35.6771484,22.9055018 L31.3167318,27.3571147 L31.3167318,24.1151793 C31.3167318,23.0506631 30.3104818,22.3732438 29.2563151,22.3732438 L16.2180176,22.3732438 L16.2180176,9.35711474 L38.6943359,9.30872766 L38.6943359,22.3732438 L37.0188151,22.4216309 Z M19.0826087,13.8767408 C19.0826087,13.0914147 19.7217391,12.4908713 20.4521739,12.4908713 L29.1717391,12.4908713 C29.9478261,12.4908713 30.5413043,13.0914147 30.5413043,13.8767408 C30.5413043,14.6620669 29.9021739,15.2626104 29.1717391,15.2626104 L20.4521739,15.2626104 C19.676087,15.2626104 19.0826087,14.6620669 19.0826087,13.8767408 Z M32.3673913,14.8468495 C32.0934783,14.5696756 31.9565217,14.246306 31.9565217,13.8767408 C31.9565217,13.5071756 32.0934783,13.1376104 32.3673913,12.9066321 C32.8695652,12.39848 33.8282609,12.39848 34.3304348,12.9066321 C34.6043478,13.183806 34.7413043,13.5071756 34.7413043,13.8767408 C34.7413043,14.246306 34.6043478,14.6158713 34.3304348,14.8468495 C34.0565217,15.1240234 33.7369565,15.2626104 33.3717391,15.2626104 C32.9608696,15.2164147 32.5956522,15.0778278 32.3673913,14.8468495 Z" id="形状" fill-rule="nonzero"></path>
                    </g>
                </g>
            </g>
        </g>
    </g>
</svg>