<?xml version="1.0" encoding="UTF-8"?>
<svg width="14px" height="14px" viewBox="0 0 14 14" version="1.1" xmlns="http://www.w3.org/2000/svg" xmlns:xlink="http://www.w3.org/1999/xlink">
    <!-- Generator: Sketch 62 (91390) - https://sketch.com -->
    <title>成功</title>
    <desc>Created with Sketch.</desc>
    <g id="页面-1" stroke="none" stroke-width="1" fill="none" fill-rule="evenodd" opacity="0.9">
        <g id="首页" transform="translate(-444.000000, -3996.000000)" fill-rule="nonzero">
            <g id="模块4" transform="translate(0.000000, 3753.000000)">
                <g id="1" transform="translate(396.000000, 120.000000)">
                    <g id="成功" transform="translate(48.000000, 123.000000)">
                        <rect id="矩形" fill="#000000" opacity="0" x="0" y="0" width="14" height="14"></rect>
                        <path d="M7,14 C3.1339,14 0,10.8661 0,7 C0,3.1339 3.1339,0 7,0 C10.8661,0 14,3.1339 14,7 C14,10.8661 10.8661,14 7,14 Z M6.14075,7.6013 L5.03545,6.4876 C4.90572917,6.35640154 4.72890076,6.28256952 4.5444,6.28256952 C4.35989924,6.28256952 4.18307083,6.35640154 4.05335,6.4876 C3.78218811,6.76181846 3.78218811,7.20318154 4.05335,7.4774 L5.52685,8.96245 C5.6938,9.13045 5.92445,9.1952 6.14075,9.15635 C6.36472739,9.19683541 6.59426494,9.12429474 6.7543,8.96245 L9.9463,5.7449 C10.2174619,5.47068154 10.2174619,5.02931846 9.9463,4.7551 C9.81659258,4.62400963 9.63983948,4.55024645 9.455425,4.55024645 C9.27101052,4.55024645 9.09425742,4.62400963 8.96455,4.7551 L6.14075,7.6013 L6.14075,7.6013 Z" id="形状" fill="#54BC73"></path>
                    </g>
                </g>
            </g>
        </g>
    </g>
</svg>