<?xml version="1.0" encoding="UTF-8"?>
<svg width="82px" height="82px" viewBox="0 0 82 82" version="1.1" xmlns="http://www.w3.org/2000/svg" xmlns:xlink="http://www.w3.org/1999/xlink">
    <!-- Generator: Sketch 62 (91390) - https://sketch.com -->
    <title>客服转接</title>
    <desc>Created with Sketch.</desc>
    <g id="页面-1" stroke="none" stroke-width="1" fill="none" fill-rule="evenodd">
        <g id="首页" transform="translate(-914.000000, -10571.000000)">
            <g id="模块8" transform="translate(0.000000, 10173.000000)">
                <g id="客服转接" transform="translate(914.000000, 398.000000)">
                    <circle id="椭圆形备份-25" fill="#FCD528" fill-rule="evenodd" cx="41" cy="41" r="41"></circle>
                    <path d="M38,32 C38,39.7319865 44.2680135,46 52,46 C59.7319865,46 66,39.7319865 66,32 C66,24.2680135 59.7319865,18 52,18 C44.2680135,18 38,24.2680135 38,32 Z" id="路径" fill="#FFFFFF" fill-rule="nonzero" opacity="0.2"></path>
                    <g id="编组" stroke-width="1" fill-rule="evenodd" transform="translate(24.000000, 25.000000)" fill="#FFFFFF" stroke="#FFFFFF">
                        <path d="M24.5704218,34 C20.9773679,34 15.6503525,32.1185682 8.59831381,25.265103 C6.33701368,23.1129615 -4.31254798,11.8243705 1.94401363,3.89709054 C3.00762911,2.82327572 4.07571356,1.61410609 4.60752129,1.20804167 C6.2029445,-0.402680556 9.13459052,-0.402680556 10.7300137,1.20804167 L14.4571369,5.10626016 C16.1866293,6.85233719 16.1866293,9.54138606 14.4571369,11.2874631 L11.9276984,13.976512 C11.65956,14.2472216 11.65956,14.3780646 11.5299598,14.3780646 C11.5299598,14.5134194 11.7980982,14.914972 12.3299059,15.4518794 C12.7276445,15.9887868 17.3887829,20.5592675 17.7865214,20.9608201 L17.9205906,21.0961749 C18.7205367,21.7684371 19.5160138,22.4406993 19.9182214,22.7068971 L20.0522905,22.5715423 L22.3135907,20.1532031 C23.243137,19.2147431 24.4452906,18.6733238 25.7725754,18.6733238 C26.8361909,18.6733238 27.9042754,19.0748764 28.5656833,19.8824934 L32.2928064,23.7807119 C34.0222988,25.526789 34.0222988,28.2158378 32.2928064,29.9619149 L30.2951757,31.9787015 C30.1611065,32.1185682 28.1634758,34 24.5704218,34 Z M7.66876751,2.5525661 C7.27102895,2.5525661 6.86882142,2.68792091 6.47108286,3.08947351 L3.94164438,5.64316757 C3.14169829,6.58162758 -0.451355671,12.4966327 10.4618754,23.3836712 C20.3114909,33.06154 26.4339834,32.1185682 28.5656833,29.9664267 L30.5633141,27.94964 C31.229191,27.2773778 31.229191,26.203563 30.5633141,25.5313008 L26.8361909,21.6330823 C26.5680526,21.3623727 26.170314,21.2315297 25.9066446,21.2315297 C25.3748369,21.2315297 24.8430291,21.5022393 24.4408216,21.9037919 L22.1795215,24.3221312 C20.3159599,26.3389178 18.9842061,25.2605912 16.4547676,23.1129615 L16.3206984,22.9776067 C15.1230138,21.9037919 11.5299598,18.1409282 10.4618754,17.0626016 C9.3982599,15.7180772 8.06650607,14.1073549 10.193737,11.9552135 L12.7231755,9.26616462 C13.3890524,8.5939024 13.3890524,7.52008758 12.7231755,6.84782537 L8.99605237,2.94960687 C8.46424463,2.68792091 8.06650607,2.5525661 7.66876751,2.5525661 Z M32.5743517,9.65418173 L25.8753618,9.65418173 L25.8753618,4.97541718 L27.6987026,6.81624258 C28.2573242,7.38022095 29.1645256,7.38022095 29.7231472,6.81624258 C30.2817688,6.25226421 30.2817688,5.33636333 29.7231472,4.77238497 L25.4239956,0.432007431 C24.865374,-0.131970939 23.9581726,-0.131970939 23.399551,0.432007431 L19.1003994,4.77238497 C18.5417778,5.33636333 18.5417778,6.25226421 19.1003994,6.81624258 C19.6590209,7.38022095 20.5662224,7.38022095 21.124844,6.81624258 L23.0152194,4.90773977 L23.0152194,11.1927147 C23.0554401,11.8018114 23.4710546,12.307136 24.0296761,12.4785854 C24.1592763,12.5191919 24.2978145,12.541751 24.4408216,12.541751 L32.5698827,12.541751 C33.3564219,12.541751 33.9999771,11.8920479 33.9999771,11.0979664 C34.0044229,10.3038848 33.3608909,9.65418173 32.5743517,9.65418173 Z M24.4484844,3.52093411 L24.4939416,3.56682721 L24.4030272,3.56682721 L24.4484844,3.52093411 Z" id="形状" stroke-width="0.8" fill-rule="nonzero"></path>
                    </g>
                </g>
            </g>
        </g>
    </g>
</svg>