<?xml version="1.0" encoding="UTF-8"?>
<svg width="82px" height="82px" viewBox="0 0 82 82" version="1.1" xmlns="http://www.w3.org/2000/svg" xmlns:xlink="http://www.w3.org/1999/xlink">
    <!-- Generator: Sketch 62 (91390) - https://sketch.com -->
    <title>指定客服</title>
    <desc>Created with Sketch.</desc>
    <g id="页面-1" stroke="none" stroke-width="1" fill="none" fill-rule="evenodd">
        <g id="首页" transform="translate(-1167.000000, -10571.000000)">
            <g id="模块8" transform="translate(0.000000, 10173.000000)">
                <g id="指定客服" transform="translate(1167.000000, 398.000000)">
                    <circle id="椭圆形备份-23" fill="#39CEA5" fill-rule="evenodd" cx="41" cy="41" r="41"></circle>
                    <path d="M16,44 C16,51.7319865 22.2680135,58 30,58 C37.7319865,58 44,51.7319865 44,44 C44,36.2680135 37.7319865,30 30,30 C22.2680135,30 16,36.2680135 16,44 Z" id="路径" fill="#FFFFFF" fill-rule="nonzero" opacity="0.2"></path>
                    <g id="编组" stroke-width="1" fill-rule="evenodd" transform="translate(24.000000, 24.000000)" fill="#FFFFFF" stroke="#FFFFFF">
                        <path d="M16.9999179,0 C7.52743796,0 0.0209444573,7.67230321 0.0209444573,17.128863 C0.0209444573,17.6641399 0.378396529,18.1994169 0.914574637,18.3778426 C1.09330067,18.5562682 1.27202671,18.5562682 1.62947878,18.5562682 L6.81253382,18.5562682 C7.52743796,18.5562682 8.06361607,17.8425656 8.06361607,17.128863 C8.06361607,16.4151603 7.52743796,15.8798834 6.63380778,15.7014577 L2.88056103,15.7014577 C3.59546517,7.85072886 10.5657806,2.31953353 18.4297262,3.03323615 C26.2936717,3.74693878 31.8341788,10.7055394 31.1192747,18.5562682 C30.5830966,24.2658892 26.4723978,29.0833819 20.9318907,30.6892128 C20.3957125,29.4402332 19.1446303,28.7265306 17.893548,28.7265306 L14.4977534,28.7265306 C12.710493,28.7265306 11.1019587,30.3323615 11.1019587,32.1166181 C11.1019587,33.9008746 12.710493,35.5067055 14.4977534,35.5067055 L17.893548,35.5067055 C19.1446303,35.5067055 20.3957125,34.7930029 20.9318907,33.5440233 L21.1106167,33.5440233 C30.2256445,31.2244898 35.7661516,21.76793 33.4427132,12.6682216 C31.4767268,5.35276968 24.6851374,0 16.9999179,0 Z M17.893548,33.187172 L14.4977534,33.187172 C13.9615753,33.187172 13.4253971,32.651895 13.4253971,32.1166181 C13.4253971,31.5813411 13.9615753,31.0460641 14.4977534,31.0460641 L17.893548,31.0460641 C18.4297262,31.0460641 18.9659043,31.5813411 18.9659043,32.1166181 C18.7871782,32.8303207 18.4297262,33.187172 17.893548,33.187172 Z" id="形状" stroke-width="1.2" fill-rule="nonzero"></path>
                        <path d="M16.2850137,25.5148688 C18.0722741,25.5148688 19.8595344,24.8011662 21.1106167,23.5521866 C21.6467948,23.0169096 21.6467948,22.1247813 21.1106167,21.5895044 C20.5744386,21.0542274 19.6808084,21.0542274 19.1446303,21.5895044 C17.536096,23.1953353 14.8552054,23.1953353 13.2466711,21.5895044 C12.710493,21.0542274 11.8168628,21.0542274 11.2806847,21.5895044 C10.7445066,22.1247813 10.7445066,23.0169096 11.2806847,23.5521866 C12.531767,24.8011662 14.3190273,25.5148688 16.2850137,25.5148688 L16.2850137,25.5148688 Z" id="路径" stroke-width="1.2" fill-rule="nonzero"></path>
                    </g>
                </g>
            </g>
        </g>
    </g>
</svg>