<svg height="25" viewBox="0 0 28 25" width="28" xmlns="http://www.w3.org/2000/svg"><g fill="#617a90" transform=""><path d="m24.1748663 12.3014897v-.3135218c0-2.47563024-2.0140947-4.48964857-4.4895722-4.48964857h-5.3256302v-1.91829641c1.2083269-.32039725 2.1015278-1.42291826 2.1015278-2.73044309 0-1.55771581-1.2671123-2.82478991-2.8247517-2.82478991-1.5576012 0-2.8249045 1.2670741-2.8249045 2.82478991 0 1.30752483.8932773 2.41008404 2.1014897 2.73044309v1.91829641h-5.32559204c-2.47559206 0-4.48964859 2.01405653-4.48964859 4.48964857v.3135218c-1.75324675.3388464-3.0815508 1.8850649-3.0815508 3.7355615 0 1.852903 1.33113063 3.4000764 3.08705118 3.7368602.1171505 2.3717723 2.08365164 4.265508 4.48414821 4.265508h12.09789914c2.4004202 0 4.3668067-1.8937357 4.4840336-4.265508 1.7559588-.3367838 3.0871658-1.8839572 3.0871658-3.7368602-.0000382-1.850573-1.328304-3.3967151-3.0816654-3.7355615zm-21.07708173 5.9797937c-.9474026-.3060733-1.63472116-1.1961421-1.63472116-2.2442704 0-1.0478992.68731856-1.9379297 1.63472116-2.2440795zm9.16050423-15.43170357c0-.75985485.6181436-1.37807486 1.3780748-1.37807486.7598549 0 1.3780749.61825821 1.3780749 1.37807486 0 .75981666-.61822 1.37807487-1.3780749 1.37807487-.7599312 0-1.3780748-.61829641-1.3780748-1.37807487zm10.4699771 16.70019097c-.0000382 1.6778839-1.3651643 3.042819-3.0429718 3.042819h-12.09786094c-1.67792208 0-3.04293354-1.3649351-3.04293354-3.042819v-7.5618029c0-1.6778075 1.36501146-3.04281893 3.04293354-3.04281893h12.09789914c1.6778075 0 3.0429336 1.36501143 3.0429336 3.04281893zm1.4466004-1.2684874v-4.4883117c.9473644.3061498 1.6347976 1.1961803 1.6347976 2.2440795 0 1.0480519-.6874332 1.9381971-1.6347976 2.2442322z"/><path d="m18.9121085 12.055424c-1.1766998 0-2.1338808.9573338-2.1338808 2.1338808 0 1.1766998.9572574 2.133919 2.1338808 2.133919s2.1339572-.9572956 2.1339572-2.133919c0-1.1765088-.9573338-2.1338808-2.1339572-2.1338808zm0 2.8210466c-.3789152 0-.6871658-.3080596-.6871658-.6870894 0-.3789152.3082506-.6872804.6871658-.6872804.3789534 0 .6872421.3083652.6872421.6872804 0 .3789534-.3082887.6870894-.6872421.6870894z"/><path d="m8.36061879 12.055424c-1.17673796 0-2.13391902.9573338-2.13391902 2.1338808 0 1.1766998.95721925 2.133919 2.13391902 2.133919 1.17658518 0 2.13391901-.9572956 2.13391901-2.133919 0-1.1765088-.95733383-2.1338808-2.13391901-2.1338808zm0 2.8210466c-.3789152 0-.68720397-.3080596-.68720397-.6870894 0-.3789152.30828877-.6872804.68720397-.6872804.37887701 0 .68720398.3083652.68720398.6872804 0 .3789534-.30832697.6870894-.68720398.6870894z"/><path d="m15.6074866 18.5722307h-3.9422842c-.3995416 0-.7234148.3238732-.7234148.7232238 0 .3995799.3238732.7233767.7234148.7233767h3.9423606c.3994271 0 .7233385-.3238732.7233385-.7233767-.0000382-.399427-.3239114-.7232238-.7234149-.7232238z"/></g></svg>