<svg height="34" viewBox="0 0 33 34" width="33" xmlns="http://www.w3.org/2000/svg"><path d="m45.2316514 16.5556424c0-2.3059393-.6237741-4.4185235-1.8713224-6.3377525l-16.2181272 16.1773818c1.96453 1.2747118 4.0939658 1.9120677 6.3883074 1.9120677 1.5916995 0 3.1081159-.3115166 4.5492492-.9345499s2.6850967-1.457325 3.73189-2.5028751c1.0467934-1.0455502 1.8784922-2.2951974 2.4950965-3.7489418.6166043-1.4537443.9249065-2.9755211.9249065-4.5653302zm-21.4720966 6.4535319 16.2496195-16.20889201c-1.9370407-1.30416373-4.0893082-1.95624559-6.4568025-1.95624559-2.1235705 0-4.082134.52309863-5.8756902 1.56929591-1.7935562 1.04619727-3.2140528 2.47217849-4.2614896 4.27794369-1.0474369 1.8057651-1.5711553 3.7691764-1.5711553 5.8902339 0 2.3216981.638506 4.4642528 1.9155181 6.4276641zm26.2404452-6.4820622c0 2.2465426-.436849 4.3929208-1.3105469 6.4391346-.8736979 2.0462139-2.0445963 3.8062441-3.5126953 5.2800904-1.4680989 1.4738464-3.2226562 2.6471998-5.2636719 3.5200603-2.0410156.8728604-4.1787109 1.3092907-6.4130859 1.3092907s-4.3720703-.4364303-6.4130859-1.3092907c-2.0410157-.8728605-3.795573-2.0462139-5.2636719-3.5200603-1.468099-1.4738463-2.6389974-3.2338765-3.5126953-5.2800904-.8736979-2.0462138-1.3105469-4.192592-1.3105469-6.4391346 0-2.2465425.436849-4.3893434 1.3105469-6.4284027.8736979-2.03905926 2.0445963-3.79551208 3.5126953-5.26935845 1.4680989-1.47384636 3.2226562-2.64719978 5.2636719-3.52006025 2.0410156-.87286047 4.1787109-1.3092907 6.4130859-1.3092907s4.3720703.43643023 6.4130859 1.3092907c2.0410157.87286047 3.795573 2.04621389 5.2636719 3.52006025 1.468099 1.47384637 2.6389974 3.23029919 3.5126953 5.26935845.8736979 2.0390593 1.3105469 4.1818602 1.3105469 6.4284027z" fill="#617a90" transform="translate(-17)"/></svg>