<svg height="161" viewBox="0 0 182 161" width="182" xmlns="http://www.w3.org/2000/svg"><path d="m2.5 0h176.333333c1.380712 0 2.5 1.11928813 2.5 2.5v128.333333c0 1.380712-1.119288 2.5-2.5 2.5h-34.833333v10.925206c0 5.062417 2.798422 11.430525 8.293162 16.274827-13.032279-1.28745-47.644391-9.857545-52.9771512-27.200033-32.2720036 0-64.5440072 0-96.8160108 0-1.38071187 0-2.5-1.119288-2.5-2.5v-128.333333c0-1.38071187 1.11928813-2.5 2.5-2.5zm34.8333333 83.1999817v11.8402815c23.6267512 9.8842568 41.404529 14.8263848 53.3333334 14.8263848 11.9288043 0 29.7065823-4.942128 53.3333333-14.8263848v-11.8402815c-23.709758 4.6058494-41.487536 6.9087741-53.3333333 6.9087741-11.8457978 0-29.6235756-2.3029247-53.3333334-6.9087741zm90.6666667-22.3999939c8.836556 0 16-7.163444 16-16s-7.163444-16-16-16-16 7.163444-16 16 7.163444 16 16 16zm-74.6666667 0c8.836556 0 16-7.163444 16-16s-7.163444-16-16-16-16 7.163444-16 16 7.163444 16 16 16z" fill="#617a90" fill-rule="evenodd"/></svg>