<svg height="34" viewBox="0 0 34 34" width="34" xmlns="http://www.w3.org/2000/svg"><g fill="none" fill-rule="evenodd" stroke="#617a90"><g stroke-linecap="round" stroke-linejoin="round" transform="translate(7.62069 1)"><path d="m13.2413793 0v4.4137931"/><path d="m13.2413793 20.9655172v4.4137931"/><path d="m3.31034483 3.31034483 3.31034483 3.31034483"/><path d="m18.7586207 18.7586207 3.3103448 3.3103448"/><path d="m0 13.2413793h4.4137931"/><path d="m20.9655172 13.2413793h4.4137931"/><path d="m3.31034483 22.0689655 3.31034483-3.3103448"/><path d="m18.7586207 6.62068966 3.3103448-3.31034483"/></g><g stroke-width="2" transform="translate(1 10.931034)"><path d="m0 18.1142007 11.9515086-12.23836388 5.0632218-5.18474723c.3764527-.38548808.9906405-.40340889 1.3889291-.04052626l2.90006 2.6422582c.4082482.37195681.4376681 1.00443793.0657113 1.4126861-.0077731.00853148-.0156933.01692775-.023757.02518504l-3.97447 4.06986364-12.9574107 13.26840919" fill="#fff" stroke-linecap="round"/><path d="m14.3448276 4.4137931 4.4137931 4.41379311"/></g></g></svg>