<svg xmlns="http://www.w3.org/2000/svg" xmlns:xlink="http://www.w3.org/1999/xlink" width="286" height="194"><defs><path id="a" d="M133.4 32.6H.78V.2H132.1a16.26 16.26 0 111.3 32.4z"/><path id="b" d="M10.12-9.35l25.5 1.05 1.13 11.02 4.91-1.26v4.58l-4.2 3.46 3.31 32.03h-24.9z"/><path id="c" d="M56.2 16.5l-14.8-1.23V.93h-6.52l-6.85 13.21-25.51-2.13L.7 43.43l53.14 6.3z"/><path id="d" d="M26.76.8c16.4 5.24 8.3 29.53 16.4 40.4C69.34 76.35 11.8 99.48.76 60.2-6.13 35.75 37.19 29.13 26.76.8z"/><mask id="e" fill="#fff"><use fill="none" xlink:href="#a"/></mask><mask id="f" fill="#fff"><use fill="none" xlink:href="#b"/></mask><mask id="g" fill="#fff"><use fill="none" xlink:href="#c"/></mask><mask id="h" fill="#fff"><use fill="none" xlink:href="#d"/></mask></defs><g fill="none"><ellipse cx="148.8" cy="188.6" fill="#ecf0f5" rx="124.8" ry="5.4"/><ellipse cx="155.4" cy="152" fill="#18133c" rx="52.2" ry="16.8"/><g transform="translate(81 154.2)"><use fill="#403882" xlink:href="#a"/><g fill="#17133c"><g mask="url(#e)"><path d="M35-31.55l15.28 15.28L-14.2 48.2l-15.27-15.27z" opacity=".2"/><path d="M35-25.27L50.29-10-14.2 54.49-29.48 39.2z" opacity=".1"/><path d="M31-14.75L46.29.53-18.2 65l-15.27-15.27z" opacity=".2"/></g><g mask="url(#e)"><path d="M182-27.55l15.28 15.28L132.8 52.2l-15.27-15.27z" opacity=".2"/><path d="M183-24.27L198.29-9l-64.49 64.49-15.27-15.28z" opacity=".1"/><path d="M178-13.75l15.28 15.28L128.8 66l-15.27-15.27z" opacity=".2"/></g></g></g><g stroke-width="2.4"><g stroke="#504a86"><path d="M267.04 23.4l-7.99-6.13m7.82 174.2V22.8"/><path d="M26.55 23.4l6.67-4.93"/><path d="M276.32 11.4l-9.28 12"/></g><path stroke="#1f1950" d="M285.4 20.76H.04"/><g stroke="#504a86"><path d="M26.87 191.48V22.8"/><path d="M17.85 11.4l9.28 12"/></g></g><g transform="translate(67.2 154.4)"><circle cx="16.8" cy="16.8" r="16.8" fill="#1f1858"/><circle cx="16.8" cy="16.8" r="10.031" stroke="#504a86" stroke-width="1.2"/><g stroke="#272062" stroke-width=".96"><path d="M45.91 8H152.1M45.9 15.2h41.85m18.15 0h52.19m-88.75 9.6h82.75"/></g></g><g transform="translate(84.84 123.76)"><g transform="translate(9)"><use fill="#403882" transform="rotate(-90 25.89 16.09)" xlink:href="#b"/><g fill="#17133c" mask="url(#f)"><path d="M76.26-26.7l15.28 15.27-64.5 64.49-15.27-15.28z" opacity=".2"/><path d="M77.26-23.43L92.54-8.16l-64.5 64.5-15.27-15.28z" opacity=".1"/><path d="M72.26-12.9L87.54 2.36l-64.5 64.49L7.78 51.58z" opacity=".2"/></g></g><g stroke="#272062" stroke-width=".96"><path d="M57.68 6.08l-28.17 5.76m32.97.96l-28.17 5.76m24.33.96l-28.17 5.76"/></g><circle cx="13.44" cy="19.24" r="13.44" fill="#1f1858"/><circle cx="13.44" cy="19.24" r="7.905" stroke="#504a86" stroke-width="1.2"/></g><g transform="translate(143.184 104.192)"><g transform="translate(4)"><use fill="#403882" xlink:href="#c"/><g fill="#17133c" mask="url(#g)"><path d="M-14-12.1L-29.27 3.18l64.49 64.48L50.49 52.4z" opacity=".2"/><path d="M-15-8.82L-30.27 6.45l64.49 64.49 15.27-15.27z" opacity=".1"/><path d="M-10 1.7l-15.27 15.28 64.49 64.48L54.49 66.2z" opacity=".2"/></g></g><g stroke="#272062" stroke-width=".96"><path d="M43.01 22.1L8.32 17.84m26.38 12.6L0 26.14m40.64 14.98l-34.7-4.29"/></g><circle cx="59.4" cy="33.384" r="16.632" fill="#1f1858"/><circle cx="59.4" cy="33.384" r="9.925" stroke="#504a86" stroke-width="1.2"/></g><g><g transform="translate(122.2 70.8)"><use fill="#feba5e" xlink:href="#d"/><g fill="#fd845a" mask="url(#h)" opacity=".6"><g opacity=".4"><path d="M0 39.01l-12.6 12.6 53.2 53.2 12.6-12.6z"/><path d="M0 45.94l-12.6 12.6 53.2 53.2 12.6-12.6z"/><path d="M0 52.87l-12.6 12.6 53.2 53.2 12.6-12.6z"/></g></g></g><path fill="#feba5e" d="M157.4 72.61c1.52-1.61 2.28-3.42 2.28-5.41s-.76-3.8-2.28-5.41a7.72 7.72 0 00-2.28 5.41c0 2 .76 3.8 2.28 5.41z"/><path fill="#ffedcb" d="M147.2 141.6a10.8 10.8 0 006-19.77c-1.71-1.15-3.1-5.75-2.12-10.5-3.89 6.43-7.14 9.05-8.56 9.73a10.8 10.8 0 004.67 20.54z"/></g><g><path fill="#fd845a" d="M203.9 32.87l11.2 8.2-5.7 1.57-2.54 5.34-7.54-11.72c-4.27-1.01-10.84-5.99-16.85-13.15-8.1-9.65-12.11-19.61-8.96-22.25 3.14-2.65 12.26 3.04 20.36 12.69 6.21 7.4 10.02 15 10.03 19.32zm-27.3-27.6a1.1 1.1 0 101.7-1.41 1.1 1.1 0 00-1.7 1.41z"/><path stroke="#f2f4f6" stroke-width="1.2" d="M181.03 9.25l15.1 18.72"/><path stroke="#1f1950" stroke-linecap="round" stroke-linejoin="round" stroke-width="2.4" d="M199.97 20.7h-5.05"/></g><g><path fill="#fd845a" d="M153.5 32.87l11.2 8.2-5.7 1.57-2.54 5.34-7.54-11.72c-4.27-1.01-10.84-5.99-16.85-13.15-8.1-9.65-12.11-19.61-8.96-22.25 3.14-2.65 12.26 3.04 20.36 12.69 6.21 7.4 10.02 15 10.03 19.32zm-27.3-27.6a1.1 1.1 0 101.7-1.41 1.1 1.1 0 00-1.7 1.41z"/><path stroke="#f2f4f6" stroke-width="1.2" d="M130.63 9.25l15.1 18.72"/><path stroke="#1f1950" stroke-linecap="round" stroke-linejoin="round" stroke-width="2.4" d="M149.57 20.7h-5.05"/></g><g><path fill="#fd845a" d="M107.9 32.87l11.2 8.2-5.7 1.57-2.54 5.34-7.54-11.72c-4.28-1.01-10.84-5.99-16.85-13.15C78.37 13.46 74.36 3.5 77.5.86 80.65-1.8 89.77 3.9 97.87 13.55c6.21 7.4 10.02 15 10.03 19.32zM80.6 5.27a1.1 1.1 0 101.7-1.41 1.1 1.1 0 00-1.7 1.41z"/><path stroke="#f2f4f6" stroke-width="1.2" d="M85.03 9.25l15.1 18.72"/><path stroke="#1f1950" stroke-linecap="round" stroke-linejoin="round" stroke-width="2.4" d="M103.97 20.7h-5.05"/></g></g></svg>