<svg xmlns="http://www.w3.org/2000/svg" width="123" height="180"><g fill="none"><g><path fill="#3c89ff" d="M67.99 142.87c21.59-18.5 13-38.21 5.57-48.83-7.44-10.6 1.46-31.87-18.76-50.19-20.22-18.32-13.47-10.96-17-30.97-3.53-20-41.58-15.3-36.74 12.14C5.9 52.47 2.9 43.21 3.39 56.62c.67 18.55 2.27 23.2 8.98 32.56 7.64 10.65 1.96 33.5 8.5 41.92 18.16 23.34 44.2 14.26 47.12 11.77z"/><g stroke-width="1.831"><path stroke="#fdfdfe" d="M20.45 24.67c33.65 63.24 51.09 114.6 52.3 154.09"/><path stroke="#000" d="M67.75 141.02c2.72 12.47 4.67 27.02 5 37.74"/><path stroke="#fdfdfe" d="M63.84 47.34L46.04 76.4l-37.5-6.35m66.83 18.62l-17.8 29.05-37.5-6.35"/></g></g><g><path fill="#fdc861" d="M90.37 157.22c-8.42-4.86-9.16-19.34-1.65-32.35s20.43-19.62 28.85-14.76 5.1 17.4-2.42 30.4-16.37 21.57-24.78 16.71z"/><g stroke="#000" stroke-width="1.831"><path d="M113.9 114.24c-16.72 27.64-29.47 49.23-38.25 64.78m31.92-36.07l-13.82 5.76-1.37-16.69"/></g></g></g></svg>