<svg xmlns="http://www.w3.org/2000/svg" width="127" height="167"><g fill="none"><g><path fill="#fd845a" d="M38.8 65.26c5.42-6.46 1.73-18.48-8.25-26.85-9.98-8.37-22.46-9.93-27.88-3.47s1 15.68 10.98 24.05c9.98 8.38 19.74 12.72 25.15 6.27z"/><path stroke="#000" stroke-width="1.5" d="M25.46 48.6c22.6 42.27 35.1 81.67 37.5 118.21"/></g><path fill="#fdc861" d="M54.63 60.4c10.43-6.02 11.34-23.96 2.04-40.08S31.37-3.98 20.94 2.05c-10.43 6.02-6.32 21.54 2.99 37.65 9.3 16.12 20.28 26.72 30.7 20.7z"/><path stroke="#000" stroke-width="1.5" d="M42.18 29.57c16.86 54.96 24.1 100.7 21.69 137.24"/><g><path fill="#fdc861" d="M88.03 65.26c-5.42-6.46-1.72-18.48 8.26-26.85 9.98-8.37 22.46-9.93 27.87-3.47s-1 15.68-10.98 24.05c-9.98 8.38-19.73 12.72-25.15 6.27z"/><path stroke="#000" stroke-width="1.5" d="M101.37 48.6c-22.6 42.27-35.1 81.67-37.5 118.21"/></g></g></svg>