<svg height="147" viewBox="0 0 133 147" width="133" xmlns="http://www.w3.org/2000/svg"><path d="m128.278 69.831c-3.256-5.602-7.836-10.093-13.562-13.474-4.279-2.491-8.716-4.072-13.716-4.751v-17.8c5-2.123 8.103-6.822 8.103-12.304 0-7.472-5.992-13.527-13.458-13.527-7.472 0-13.569 6.055-13.569 13.527 0 5.482 2.924 10.181 7.924 12.304v17.808c-4 .578-8.148 1.825-11.936 3.741-7.737-5.876-33.107-25.153-47.948-36.412.352-1.269.623-2.577.623-3.957 0-8.276-6.702-14.984-14.981-14.984s-14.978 6.708-14.978 14.984c0 8.275 6.706 14.985 14.985 14.985 2.824 0 5.436-.826 7.69-2.184l3.132 2.376 43.036 31.008c-2.275 2.089-4.394 4.465-6.089 7.131-3.435 5.435-5.534 11.415-5.534 17.938v1.361c0 4.579.87 8.902 2.352 12.963 1.305 3.546 3.213 6.77 5.576 9.685l-14.283 14.318c-4.2276325-1.573525-8.9848217-.530275-12.166 2.668-2.1783343 2.167611-3.398407 5.116961-3.388 8.19.001 3.093 1.206 6 3.394 8.187 2.1661963 2.179947 5.114808 3.402173 8.188 3.394 3.0740106.007859 6.0234382-1.214257 8.191-3.394 2.1769114-2.167498 3.3974037-5.115041 3.39-8.187 0-1.197-.185-2.365-.533-3.475l14.763-14.765c2.024 1.398 4.21 2.575 6.56 3.59 4.635 2.004 9.751 3.225 15.35 3.225h1.026c6.19 0 12.029-1.454 17.518-4.428 5.784-3.143 10.311-7.441 13.731-12.928 3.438-5.502 5.331-11.581 5.331-18.269v-.334c0-6.579-1.523-12.649-4.722-18.21zm-18.038 30.973c-4.007 4.453-8.613 7.196-13.82 7.196h-.858c-2.974 0-5.883-.822-8.731-2.317-3.21-1.646-5.65-3.994-7.647-6.967-2.064-2.918-3.184-6.104-3.184-9.482v-1.026c0-3.321.637-6.47 2.243-9.444 1.717-3.251 4.036-5.779 7.12-7.789 3.028-1.996 6.262-2.975 9.864-2.975h.335c3.266 0 6.358.644 9.276 2.137 2.973 1.592 5.402 3.767 7.285 6.628 1.829 2.862 2.917 5.949 3.267 9.312.055.699.083 1.415.083 2.099 0 4.564-1.744 8.791-5.233 12.628z" fill="#617a90"/></svg>