<svg xmlns="http://www.w3.org/2000/svg" width="50" height="68"><g transform="translate(.539 .538)"><g><g transform="translate(.399 .57)"><path fill="#FDC861" stroke="none" d="M18.08 26.34c3.94-2.31 4.3-9.16.8-15.3C15.39 4.9 9.36 1.8 5.4 4.1 1.46 6.41 3 12.33 6.5 18.47c3.5 6.14 7.63 10.17 11.58 7.87z"/><path fill="none" stroke="#000" stroke-width="1.077" d="M13.41 14.6s9.6 21.05 8.23 41.86"/><g transform="translate(21.644 12.192)"><path fill="#FDC861" stroke="none" d="M9.18 15.96c-2.05-2.45-.65-7.02 3.14-10.2 3.78-3.19 8.52-3.78 10.57-1.33 2.06 2.46-.38 5.96-4.17 9.15-3.78 3.18-7.48 4.83-9.54 2.38z"/><path fill="none" stroke="#000" stroke-width="1.077" d="M14.24 9.63S1.37 23.45 0 44.27"/></g></g></g><path fill="#1F1950" stroke="none" d="M35 66.02c0-6.84-3.57-10.41-12.4-12.4-8.83-1.97-12.4 5.56-12.4 12.4H35z"/></g></svg>