<svg xmlns="http://www.w3.org/2000/svg" xmlns:xlink="http://www.w3.org/1999/xlink" width="578" height="351"><defs><filter id="b" color-interpolation-filters="sRGB" filterUnits="userSpaceOnUse"><feFlood flood-opacity="0" result="BackgroundImageFix"/><feColorMatrix in="SourceAlpha" values="0 0 0 0 0 0 0 0 0 0 0 0 0 0 0 0 0 0 127 0"/><feOffset dy="-20"/><feGaussianBlur stdDeviation="23.5"/><feColorMatrix values="0 0 0 0 0.1882353 0 0 0 0 0.282353 0 0 0 0 0.3411765 0 0 0 0.07450981 0"/><feBlend in2="BackgroundImageFix" result="effect0_dropShadow"/><feBlend in="SourceGraphic" in2="effect0_dropShadow" result="shape"/></filter><path id="a" d="M4.5 0h566.4q.11 0 .22 0 .11.01.22.02t.22.03q.11.01.22.04.1.02.21.04.11.03.22.06.1.04.2.07.11.04.21.08.1.04.2.1.1.04.2.1.1.04.2.1.09.06.18.12.1.06.18.13.09.06.17.13.09.07.17.15.08.07.16.15.08.08.15.16.08.08.15.16.07.09.13.18.07.09.13.18.06.1.12.19.06.1.1.19.06.1.1.2.05.1.1.2.04.1.08.2.03.1.07.21.03.1.05.22.03.1.05.21.03.11.04.22.02.1.03.22 0 .1.01.22.01.1.01.22v339.6q0 .11 0 .22-.01.11-.02.22t-.03.22q-.01.11-.04.22-.02.1-.04.21-.03.11-.06.22-.04.1-.07.2-.04.11-.08.21-.04.1-.1.2-.04.1-.1.2-.04.1-.1.2-.06.09-.12.18-.06.1-.13.18-.06.09-.13.18-.07.08-.15.16-.07.08-.15.16-.08.08-.16.15-.08.08-.16.15-.09.07-.18.13-.09.07-.18.13-.1.06-.19.12-.1.06-.19.1-.1.06-.2.1-.1.05-.2.1-.1.04-.2.08-.1.03-.21.07-.1.03-.22.05-.1.03-.21.05-.11.03-.22.04-.1.02-.22.03-.1 0-.22.02-.1 0-.22 0H4.5q-.11 0-.22 0-.11-.01-.22-.02t-.22-.03q-.11-.01-.22-.04-.1-.02-.21-.05-.11-.02-.22-.05-.1-.04-.2-.07-.11-.04-.21-.08-.1-.05-.2-.1-.1-.04-.2-.1-.1-.04-.2-.1-.09-.06-.18-.12-.1-.06-.18-.13-.09-.06-.18-.13-.08-.07-.16-.15-.08-.07-.16-.15-.08-.08-.15-.16-.08-.08-.15-.17-.07-.08-.13-.17-.07-.09-.13-.18-.06-.1-.12-.19-.06-.1-.1-.19-.06-.1-.1-.2-.06-.1-.1-.2-.04-.1-.08-.2-.03-.1-.07-.21-.03-.1-.06-.22-.02-.1-.04-.21-.03-.11-.04-.22-.02-.1-.03-.22 0-.1-.01-.22-.01-.1-.01-.22V4.5q0-.11 0-.22.01-.11.02-.22t.03-.22q.01-.11.04-.22.02-.1.04-.21.03-.11.06-.22.04-.1.07-.2.04-.11.08-.21.04-.1.1-.2.04-.1.1-.2.04-.1.1-.2Q.7 2.1.76 2q.06-.1.13-.18.06-.09.13-.18.07-.08.15-.16.07-.08.15-.16.08-.08.16-.15.08-.08.16-.15.09-.07.18-.13Q1.9.82 2 .76q.1-.06.19-.12.1-.06.19-.1.1-.06.2-.1.1-.06.2-.1.1-.04.2-.08.1-.03.21-.07.1-.03.22-.06.1-.02.21-.04.11-.03.22-.04.1-.02.22-.03.1 0 .22-.01.1-.01.22-.01z"/><clipPath id="c"><use xlink:href="#a"/></clipPath></defs><g transform="translate(.932 .932)"><g><g filter="url(#b)"><path fill="#FFF" stroke="none" d="M4.5 0h566.4q.11 0 .22 0 .11.01.22.02t.22.03q.11.01.22.04.1.02.21.04.11.03.22.06.1.04.2.07.11.04.21.08.1.04.2.1.1.04.2.1.1.04.2.1.09.06.18.12.1.06.18.13.09.06.17.13.09.07.17.15.08.07.16.15.08.08.15.16.08.08.15.16.07.09.13.18.07.09.13.18.06.1.12.19.06.1.1.19.06.1.1.2.05.1.1.2.04.1.08.2.03.1.07.21.03.1.05.22.03.1.05.21.03.11.04.22.02.1.03.22 0 .1.01.22.01.1.01.22v339.6q0 .11 0 .22-.01.11-.02.22t-.03.22q-.01.11-.04.22-.02.1-.04.21-.03.11-.06.22-.04.1-.07.2-.04.11-.08.21-.04.1-.1.2-.04.1-.1.2-.04.1-.1.2-.06.09-.12.18-.06.1-.13.18-.06.09-.13.18-.07.08-.15.16-.07.08-.15.16-.08.08-.16.15-.08.08-.16.15-.09.07-.18.13-.09.07-.18.13-.1.06-.19.12-.1.06-.19.1-.1.06-.2.1-.1.05-.2.1-.1.04-.2.08-.1.03-.21.07-.1.03-.22.05-.1.03-.21.05-.11.03-.22.04-.1.02-.22.03-.1 0-.22.02-.1 0-.22 0H4.5q-.11 0-.22 0-.11-.01-.22-.02t-.22-.03q-.11-.01-.22-.04-.1-.02-.21-.05-.11-.02-.22-.05-.1-.04-.2-.07-.11-.04-.21-.08-.1-.05-.2-.1-.1-.04-.2-.1-.1-.04-.2-.1-.09-.06-.18-.12-.1-.06-.18-.13-.09-.06-.18-.13-.08-.07-.16-.15-.08-.07-.16-.15-.08-.08-.15-.16-.08-.08-.15-.17-.07-.08-.13-.17-.07-.09-.13-.18-.06-.1-.12-.19-.06-.1-.1-.19-.06-.1-.1-.2-.06-.1-.1-.2-.04-.1-.08-.2-.03-.1-.07-.21-.03-.1-.06-.22-.02-.1-.04-.21-.03-.11-.04-.22-.02-.1-.03-.22 0-.1-.01-.22-.01-.1-.01-.22V4.5q0-.11 0-.22.01-.11.02-.22t.03-.22q.01-.11.04-.22.02-.1.04-.21.03-.11.06-.22.04-.1.07-.2.04-.11.08-.21.04-.1.1-.2.04-.1.1-.2.04-.1.1-.2Q.7 2.1.76 2q.06-.1.13-.18.06-.09.13-.18.07-.08.15-.16.07-.08.15-.16.08-.08.16-.15.08-.08.16-.15.09-.07.18-.13Q1.9.82 2 .76q.1-.06.19-.12.1-.06.19-.1.1-.06.2-.1.1-.06.2-.1.1-.04.2-.08.1-.03.21-.07.1-.03.22-.06.1-.02.21-.04.11-.03.22-.04.1-.02.22-.03.1 0 .22-.01.1-.01.22-.01z"/></g><g clip-path="url(#c)"><g fill="none" stroke="#979797" stroke-width="1" transform="translate(184.1 62.3)"><path d="M0 286.3V42.9q0-.25.01-.5.01-.24.04-.48.02-.25.06-.49.03-.24.08-.48t.11-.48q.06-.24.13-.47.07-.24.15-.47.09-.23.18-.46.1-.22.2-.45.1-.22.22-.43.12-.22.24-.43.13-.21.27-.42.13-.2.28-.4.14-.2.3-.38.16-.2.32-.38.17-.18.34-.35.17-.17.35-.34.19-.16.38-.32t.38-.3q.2-.15.4-.28.2-.14.42-.27.2-.12.43-.24.21-.12.43-.22.23-.1.45-.2.23-.1.46-.18.23-.08.47-.15.23-.07.47-.13.24-.06.48-.1.24-.06.48-.1.24-.03.49-.05.24-.03.49-.04.24-.01.49-.01h274q.25 0 .5.01.24.01.48.04.25.02.49.06.24.03.48.08t.48.11q.24.06.47.13.24.07.47.15.23.09.46.18.22.1.45.2.22.1.43.22.22.12.43.24.21.13.42.27.2.13.4.28.2.14.38.3.2.16.38.32.18.17.35.34.18.17.34.35.16.19.32.38t.3.38q.15.2.29.4.13.2.26.42.12.2.24.43.12.21.22.43.1.23.2.45.1.23.18.46.08.23.15.47.07.23.13.47.06.24.1.48.06.24.1.48.03.24.05.49.03.24.04.49.01.24.01.49v28.5"/><path d="M142.1 32.2V0"/></g><path fill="#3C88FE" stroke="none" d="M262.5 45.5h127.4q.41 0 .82.02.42.02.83.06.4.04.82.1.4.06.8.14.41.08.81.18.4.1.8.22t.78.26q.39.14.77.3.38.16.75.33.38.18.74.37.36.2.72.41.35.21.7.44.34.23.67.48.33.24.65.5t.62.54q.3.28.6.57.3.3.57.6.27.3.54.62.26.32.5.65.25.33.48.68.23.34.44.7.21.35.4.71.2.36.38.74.17.37.33.75t.3.77q.14.39.26.78.12.4.22.8t.18.8q.08.4.14.81.06.41.1.82.04.41.06.82.02.42.02.83t-.02.83q-.02.4-.06.82-.04.4-.1.82-.06.4-.14.8-.08.41-.18.81-.1.4-.22.8t-.26.78q-.14.39-.3.77-.16.38-.33.75-.18.38-.37.74-.2.36-.41.72-.21.35-.44.7-.23.34-.48.67-.24.33-.5.65-.27.32-.54.62-.28.3-.57.6-.3.3-.6.57-.3.28-.62.54t-.65.5q-.33.25-.68.48-.34.23-.7.44-.35.21-.71.4-.36.2-.74.38-.37.17-.75.33t-.77.3q-.39.14-.78.26-.4.12-.8.22t-.8.18q-.4.08-.81.14-.41.06-.82.1-.41.04-.83.06-.4.02-.82.02H262.5q-.41 0-.83-.02-.4-.02-.82-.06-.4-.04-.82-.1-.4-.06-.8-.14-.41-.08-.81-.18-.4-.1-.8-.22t-.78-.26q-.39-.14-.77-.3-.38-.16-.75-.33-.38-.18-.74-.37-.36-.2-.72-.41-.35-.21-.7-.44-.34-.23-.67-.48-.33-.24-.65-.5t-.62-.54q-.3-.28-.6-.57-.3-.3-.57-.6-.28-.3-.54-.62t-.5-.65q-.25-.33-.48-.68-.23-.34-.44-.7-.21-.35-.4-.71-.2-.36-.38-.74-.17-.37-.33-.75t-.3-.77q-.14-.39-.26-.78-.12-.4-.22-.8t-.18-.8q-.08-.4-.14-.81-.06-.41-.1-.82-.04-.41-.06-.82-.02-.42-.02-.83t.02-.83q.02-.4.06-.82.04-.4.1-.82.06-.4.14-.8.08-.41.18-.81.1-.4.22-.8t.26-.78q.14-.39.3-.77.16-.38.33-.75.18-.38.37-.74.2-.36.41-.72.21-.35.44-.7.23-.34.48-.67.24-.33.5-.65t.54-.62q.28-.3.57-.6.3-.3.6-.57.3-.28.62-.54t.65-.5q.33-.25.68-.48.34-.23.7-.44.35-.21.71-.4.36-.2.74-.38.37-.17.75-.33t.77-.3q.39-.14.78-.26.4-.12.8-.22t.8-.18q.4-.08.81-.14.41-.06.82-.1.41-.04.82-.06.42-.02.83-.02z"/><g stroke="none" transform="translate(107.1 119.7)"><path fill="#FD845A" d="M16.8 0h127.4q.41 0 .83.02.4.02.82.06.4.04.82.1.4.06.8.14.41.08.81.18.4.1.8.22t.78.26q.39.14.77.3.38.16.75.33.38.18.74.37.36.2.72.41.35.21.7.44.34.23.67.48.33.24.65.5t.62.54q.3.28.6.57.3.3.57.6.28.3.54.62t.5.65q.25.33.48.68.23.34.44.7.21.35.4.71.2.36.38.74.17.37.33.75t.3.77q.14.39.26.78.12.4.22.8t.18.8q.08.4.14.81.06.41.1.82.04.41.06.82.02.42.02.83t-.02.83q-.02.4-.06.82-.04.4-.1.82-.06.4-.14.8-.08.41-.18.81-.1.4-.22.8t-.26.78q-.14.39-.3.77-.16.38-.33.75-.18.38-.37.74-.2.36-.41.72-.21.35-.44.7-.23.34-.48.67-.24.33-.5.65t-.54.62q-.28.3-.57.6-.3.3-.6.57-.3.28-.62.54t-.65.5q-.33.25-.68.48-.34.23-.7.44-.35.21-.71.4-.36.2-.74.38-.37.17-.75.33t-.77.3q-.39.14-.78.26-.4.12-.8.22t-.8.18q-.4.08-.81.14-.41.06-.82.1-.41.04-.82.06-.42.02-.83.02H16.8q-.41 0-.83-.02-.4-.02-.82-.06-.4-.04-.82-.1-.4-.06-.8-.14-.41-.08-.81-.18-.4-.1-.8-.22t-.78-.26q-.39-.14-.77-.3-.38-.16-.75-.33-.38-.18-.74-.37-.36-.2-.72-.41-.35-.21-.7-.44-.34-.23-.67-.48-.33-.24-.65-.5t-.62-.54q-.3-.28-.6-.57-.3-.3-.57-.6-.28-.3-.54-.62t-.5-.65q-.25-.33-.48-.68-.23-.34-.44-.7-.21-.35-.4-.71-.2-.36-.38-.74-.17-.37-.33-.75t-.3-.77q-.14-.39-.26-.78-.12-.4-.22-.8t-.18-.8q-.08-.4-.14-.81-.06-.41-.1-.82-.04-.41-.06-.82Q0 17.2 0 16.8t.02-.83q.02-.4.06-.82.04-.4.1-.82.06-.4.14-.8.08-.41.18-.81.1-.4.22-.8t.26-.78q.14-.39.3-.77.16-.38.33-.75.18-.38.37-.74.2-.36.41-.72.21-.35.44-.7.23-.34.48-.67.24-.33.5-.65t.54-.62q.28-.3.57-.6.3-.3.6-.57.3-.28.62-.54t.65-.5q.33-.25.68-.48.34-.23.7-.44.35-.21.71-.4.36-.2.74-.38.37-.17.75-.33t.77-.3q.39-.14.78-.26.4-.12.8-.22t.8-.18q.4-.08.81-.14.41-.06.82-.1.41-.04.82-.06.42-.02.83-.02z"/><path fill="#2D2664" d="M16.8 73.5h127.4q.41 0 .83.02.4.02.82.06.4.04.82.1.4.06.8.14.41.08.81.18.4.1.8.22t.78.26q.39.14.77.3.38.16.75.33.38.18.74.37.36.2.72.41.35.21.7.44.34.23.67.48.33.24.65.5t.62.54q.3.28.6.57.3.3.57.6.28.3.54.62t.5.65q.25.33.48.68.23.34.44.7.21.35.4.71.2.36.38.74.17.37.33.75t.3.77q.14.39.26.78.12.4.22.8t.18.8q.08.4.14.81.06.41.1.82.04.41.06.82.02.42.02.83t-.02.83q-.02.4-.06.82-.04.4-.1.82-.06.4-.14.8-.08.41-.18.81-.1.4-.22.8t-.26.78q-.14.39-.3.77-.16.38-.33.75-.18.38-.37.74-.2.36-.41.72-.21.35-.44.7-.23.34-.48.67-.24.33-.5.65t-.54.62q-.28.3-.57.6-.3.3-.6.57-.3.28-.62.54t-.65.5q-.33.25-.68.48-.34.23-.7.44-.35.21-.71.4-.36.2-.74.38-.37.17-.75.33t-.77.3q-.39.14-.78.26-.4.12-.8.22t-.8.18q-.4.08-.81.14-.41.06-.82.1-.41.04-.82.06-.42.02-.83.02H16.8q-.41 0-.83-.02-.4-.02-.82-.06-.4-.04-.82-.1-.4-.06-.8-.14-.41-.08-.81-.18-.4-.1-.8-.22t-.78-.26q-.39-.14-.77-.3-.38-.16-.75-.33-.38-.18-.74-.37-.36-.2-.72-.41-.35-.21-.7-.44-.34-.23-.67-.48-.33-.24-.65-.5t-.62-.54q-.3-.28-.6-.57-.3-.3-.57-.6-.28-.3-.54-.62t-.5-.65q-.25-.33-.48-.68-.23-.34-.44-.7-.21-.35-.4-.71-.2-.36-.38-.74-.17-.37-.33-.75t-.3-.77q-.14-.39-.26-.78-.12-.4-.22-.8t-.18-.8q-.08-.4-.14-.81-.06-.41-.1-.82-.04-.41-.06-.82Q0 90.7 0 90.3t.02-.83q.02-.4.06-.82.04-.4.1-.82.06-.4.14-.8.08-.41.18-.81.1-.4.22-.8t.26-.78q.14-.39.3-.77.16-.38.33-.75.18-.38.37-.74.2-.36.41-.72.21-.35.44-.7.23-.34.48-.67.24-.33.5-.65t.54-.62q.28-.3.57-.6.3-.3.6-.57.3-.28.62-.54t.65-.5q.33-.25.68-.48.34-.23.7-.44.35-.21.71-.4.36-.2.74-.38.37-.17.75-.33t.77-.3q.39-.14.78-.26.4-.12.8-.22t.8-.18q.4-.08.81-.14.41-.06.82-.1.41-.04.82-.06.42-.02.83-.02z"/><path fill="#2D2664" d="M16.8 147h127.4q.41 0 .83.02.4.02.82.06.4.04.82.1.4.06.8.14.41.08.81.18.4.1.8.22t.78.26q.39.14.77.3.38.16.75.33.38.18.74.37.36.2.72.41.35.21.7.44.34.23.67.48.33.24.65.5t.62.54q.3.28.6.57.3.3.57.6.28.3.54.62t.5.65q.25.33.48.68.23.34.44.7.21.35.4.71.2.36.38.74.17.37.33.75t.3.77q.14.39.26.78.12.4.22.8t.18.8q.08.4.14.81.06.41.1.82.04.41.06.82.02.42.02.83t-.02.83q-.02.4-.06.82-.04.4-.1.82-.06.4-.14.8-.08.41-.18.81-.1.4-.22.8t-.26.78q-.14.39-.3.77-.16.38-.33.75-.18.38-.37.74-.2.36-.41.72-.21.35-.44.7-.23.34-.48.67-.24.33-.5.65t-.54.62q-.28.3-.57.6-.3.3-.6.57-.3.28-.62.54t-.65.5q-.33.25-.68.48-.34.23-.7.44-.35.21-.71.4-.36.2-.74.38-.37.17-.75.33t-.77.3q-.39.14-.78.26-.4.12-.8.22t-.8.18q-.4.08-.81.14-.41.06-.82.1-.41.04-.82.06-.42.02-.83.02H16.8q-.41 0-.83-.02-.4-.02-.82-.06-.4-.04-.82-.1-.4-.06-.8-.14-.41-.08-.81-.18-.4-.1-.8-.22t-.78-.26q-.39-.14-.77-.3-.38-.16-.75-.33-.38-.18-.74-.37-.36-.2-.72-.41-.35-.21-.7-.44-.34-.23-.67-.48-.33-.24-.65-.5t-.62-.54q-.3-.28-.6-.57-.3-.3-.57-.6-.28-.3-.54-.62t-.5-.65q-.25-.33-.48-.68-.23-.34-.44-.7-.21-.35-.4-.71-.2-.36-.38-.74-.17-.37-.33-.75t-.3-.77q-.14-.39-.26-.78-.12-.4-.22-.8t-.18-.8q-.08-.4-.14-.81-.06-.41-.1-.82-.04-.41-.06-.82-.02-.42-.02-.83t.02-.83q.02-.4.06-.82.04-.4.1-.82.06-.4.14-.8.08-.41.18-.81.1-.4.22-.8t.26-.78q.14-.39.3-.77.16-.38.33-.75.18-.38.37-.74.2-.36.41-.72.21-.35.44-.7.23-.34.48-.67.24-.33.5-.65t.54-.62q.28-.3.57-.6.3-.3.6-.57.3-.28.62-.54t.65-.5q.33-.25.68-.48.34-.23.7-.44.35-.21.71-.4.36-.2.74-.38.37-.17.75-.33t.77-.3q.39-.14.78-.26.4-.12.8-.22t.8-.18q.4-.08.81-.14.41-.06.82-.1.41-.04.82-.06.42-.02.83-.02z"/></g><path fill="#FD845A" stroke="none" d="M409.5 119.7h127.4q.41 0 .82.02.42.02.83.06.4.04.82.1.4.06.8.14.41.08.81.18.4.1.8.22t.78.26q.39.14.77.3.38.16.75.33.38.18.74.37.36.2.72.41.35.21.7.44.34.23.67.48.33.24.65.5t.62.54q.3.28.6.57.3.3.57.6.27.3.54.62.26.32.5.65.25.33.48.68.23.34.44.7.21.35.4.71.2.36.38.74.17.37.33.75t.3.77q.14.39.26.78.12.4.22.8t.18.8q.08.4.14.81.06.41.1.82.04.41.06.82.02.42.02.83t-.02.83q-.02.4-.06.82-.04.4-.1.82-.06.4-.14.8-.08.41-.18.81-.1.4-.22.8t-.26.78q-.14.39-.3.77-.16.38-.33.75-.18.38-.37.74-.2.36-.41.72-.21.35-.44.7-.23.34-.48.67-.24.33-.5.65-.27.32-.54.62-.28.3-.57.6-.3.3-.6.57-.3.28-.62.54t-.65.5q-.33.25-.68.48-.34.23-.7.44-.35.21-.71.4-.36.2-.74.38-.37.17-.75.33t-.77.3q-.39.14-.78.26-.4.12-.8.22t-.8.18q-.4.08-.81.14-.41.06-.82.1-.41.04-.82.06-.42.02-.83.02H409.5q-.41 0-.83-.02-.4-.02-.82-.06-.4-.04-.82-.1-.4-.06-.8-.14-.41-.08-.81-.18-.4-.1-.8-.22t-.78-.26q-.39-.14-.77-.3-.38-.16-.75-.33-.38-.18-.74-.37-.36-.2-.72-.41-.35-.21-.7-.44-.34-.23-.67-.48-.33-.24-.65-.5t-.62-.54q-.3-.28-.6-.57-.3-.3-.57-.6-.28-.3-.54-.62t-.5-.65q-.25-.33-.48-.68-.23-.34-.44-.7-.21-.35-.4-.71-.2-.36-.38-.74-.17-.37-.33-.75t-.3-.77q-.14-.39-.26-.78-.12-.4-.22-.8t-.18-.8q-.08-.4-.14-.81-.06-.41-.1-.82-.04-.41-.06-.82-.02-.42-.02-.83t.02-.83q.02-.4.06-.82.04-.4.1-.82.06-.4.14-.8.08-.41.18-.81.1-.4.22-.8t.26-.78q.14-.39.3-.77.16-.38.33-.75.18-.38.37-.74.2-.36.41-.72.21-.35.44-.7.23-.34.48-.67.24-.33.5-.65t.54-.62q.28-.3.57-.6.3-.3.6-.57.3-.28.62-.54t.65-.5q.33-.25.68-.48.34-.23.7-.44.35-.21.71-.4.36-.2.74-.38.37-.17.75-.33t.77-.3q.39-.14.78-.26.4-.12.8-.22t.8-.18q.4-.08.81-.14.41-.06.82-.1.41-.04.82-.06.42-.02.83-.02z"/><path fill="#504A86" stroke="none" d="M-16.1-24.5h58.8v399h-58.8v-399z"/><g transform="translate(8.89 53.9)"><g transform="translate(1.26 .915)"><g transform="translate(1.913)"><g><path fill="none" stroke="none" d="M0 0h18.06v18.06H0V0z"/></g><path fill="none" stroke="#7792B2" stroke-width=".864" d="M7.84 12.02l2.09 2.62 1.57-2.62 4.18-.52-.52-7.84L2.6 5.23l.53 7.31 4.7-.52z"/></g><g transform="translate(1.896 30.24)"><g><path fill="none" stroke="none" d="M0 0h18.06v18.06H0V0z"/><path fill="none" stroke="#7792B2" stroke-width=".864" d="M9.03 15.23a6.2 6.2 0 100-12.4 6.2 6.2 0 000 12.4z"/><path fill="#7792B2" stroke="none" d="M14.28 12.03s-1.3-1.3-2.61-1.3c-1.31 0-1.31 0-2.62-1.3-1.3-1.32-1.33-2.5-2.61-1.32-1.28 1.2-1.3 6.54 0 6.54s2.61 1.3 5.23 0c2.6-1.3 2.6-2.62 2.6-2.62z"/><path fill="#7792B2" stroke="none" d="M6.6 3.26s-1.3 0 1.31 1.3c2.62 1.31 1.31 5.23 3.92 3.92 2.62-1.3 1.31-3.92 1.31-3.92s-2.61-1.3-2.61-1.3-3.92 0-3.92 0z"/></g></g><g transform="translate(.98 151.685)"><path fill="none" stroke="none" d="M0 0h19.35v19.35H0V0z"/><g><g fill="none"><path stroke="none" d="M0 0h19.35v19.35H0V0z"/><g stroke="#7792B2" stroke-width="1.864" transform="translate(3.377 3.377)"><path d="M.7 12.6V9.8"/><path d="M6.3 12.6V5"/><path d="M11.9 12.6V1.1"/></g></g></g></g><g transform="translate(.84 59.565)"><path fill="none" stroke="none" d="M0 0h19.35v19.35H0V0z"/><g><g><path fill="none" stroke="none" d="M0 0h19.35v19.35H0V0z"/><g transform="translate(4.103 3.665)"><g><path fill="none" stroke="#7792B2" stroke-width=".864" d="M1 0h9.2q.1 0 .2.02t.18.06q.1.03.18.09.08.05.15.12.07.07.12.15.06.09.1.18.03.09.05.18.02.1.02.2v9.78q0 .1-.02.2-.02.09-.06.18-.03.1-.09.17-.05.08-.12.15-.07.07-.15.13-.09.05-.18.1-.09.03-.18.05-.1.02-.2.02H1q-.1 0-.2-.02t-.18-.06q-.1-.04-.18-.1-.08-.05-.15-.12-.07-.07-.12-.15-.06-.08-.1-.17-.03-.1-.05-.19-.02-.1-.02-.2V1Q0 .9.02.8T.08.62Q.1.52.17.44.22.36.29.3.36.22.44.17.53.1.62.07.7.05.8.03.9 0 1 0z"/><path fill="#7792B2" stroke="none" d="M5.59 6.39a2.1 2.1 0 100-4.2 2.1 2.1 0 000 4.2z"/><path fill="none" stroke="#7792B2" stroke-width=".864" d="M8.64 9.72a3.31 3.31 0 00-6.1.06"/></g></g></g></g></g><g transform="translate(.76 120.909)"><g><g fill="none"><path stroke="none" d="M0 0h19.35v19.35H0V0z"/><path stroke="#7792B2" stroke-width=".778" d="M11.95 2.62s1 2.06 1 2.06-5.99 0-5.99 0a.5.5 0 00-.5.5c0 .29.5 1.77.5 1.77h7.5s0 9.78 0 9.78-8.06 0-8.06 0c-.83 0-1.51-.67-1.51-1.51 0 0 0-11.09 0-11.09 0-.83.68-1.51 1.51-1.51 0 0 5.54 0 5.54 0z"/></g></g></g><g transform="translate(.7 89.805)"><path fill="none" stroke="none" d="M0 0h19.35v19.35H0V0z"/><g><g><path fill="none" stroke="none" d="M0 0h19.35v19.35H0V0z"/><path fill="none" stroke="#7792B2" stroke-width=".864" d="M7.58 10.41l1.4 4.2 1.33-2.73 2.52.42 1.26-7.56-8.82 5.04 2.3.63z"/></g></g></g></g><g transform="translate(0 197.54)"><path fill="none" stroke="none" d="M1.96 1.96h19.35v19.35H1.96V1.96z"/><g><g><g stroke="none"><path fill="#7792B2" d="M0 0h23.22v23.22H0V0z"/><g fill="#504A86" transform="translate(4.892 4.892)"><path d="M0 0h5.15v5.15H0V0z"/><path d="M0 7.93h5.15v5.16H0V7.93z"/><path d="M7.7 0h5.15v5.15H7.69V0z"/></g></g></g></g></g></g></g></g><path fill="none" stroke="none" d="M11.2 58.8h19.35v19.35H11.2V58.8z"/></g></svg>