<svg width="75px" height="196px" viewBox="0 0 75 196" version="1.1" xmlns:xlink="http://www.w3.org/1999/xlink" xmlns="http://www.w3.org/2000/svg">
  <path d="M67.5545 193.947L22.3574 193.947Q21.9155 193.947 21.4742 193.925Q21.0329 193.903 20.5931 193.86Q20.1534 193.817 19.7164 193.752Q19.2793 193.687 18.8459 193.601Q18.4126 193.515 17.984 193.407Q17.5553 193.3 17.1325 193.172Q16.7097 193.043 16.2937 192.895Q15.8777 192.746 15.4694 192.577Q15.0612 192.408 14.6618 192.219Q14.2624 192.03 13.8727 191.821Q13.483 191.613 13.104 191.386Q12.725 191.159 12.3576 190.913Q11.9903 190.668 11.6354 190.405Q11.2805 190.141 10.9389 189.861Q10.5974 189.581 10.27 189.284Q9.94257 188.987 9.63014 188.675Q9.3177 188.362 9.02097 188.035Q8.72424 187.708 8.44394 187.366Q8.16363 187.025 7.90042 186.67Q7.63721 186.315 7.39173 185.947Q7.14625 185.58 6.9191 185.201Q6.69194 184.822 6.48365 184.432Q6.27536 184.043 6.08645 183.643Q5.89753 183.244 5.72845 182.836Q5.55936 182.427 5.4105 182.011Q5.26165 181.595 5.13338 181.173Q5.00512 180.75 4.89776 180.321Q4.7904 179.892 4.7042 179.459Q4.618 179.026 4.55316 178.589Q4.48833 178.152 4.44502 177.712Q4.40171 177.272 4.38003 176.831Q4.35835 176.39 4.35835 175.948L4.35835 172.721Q4.35835 172.279 4.38003 171.837Q4.40171 171.396 4.44502 170.956Q4.48833 170.517 4.55316 170.08Q4.618 169.642 4.7042 169.209Q4.7904 168.776 4.89776 168.347Q5.00512 167.919 5.13338 167.496Q5.26165 167.073 5.4105 166.657Q5.55936 166.241 5.72845 165.833Q5.89753 165.424 6.08645 165.025Q6.27536 164.626 6.48365 164.236Q6.69194 163.846 6.9191 163.467Q7.14625 163.088 7.39173 162.721Q7.63721 162.353 7.90042 161.999Q8.16363 161.644 8.44394 161.302Q8.72424 160.961 9.02097 160.633Q9.3177 160.306 9.63014 159.993Q9.94257 159.681 10.27 159.384Q10.5974 159.087 10.9389 158.807Q11.2805 158.527 11.6354 158.264Q11.9903 158 12.3576 157.755Q12.725 157.509 13.104 157.282Q13.483 157.055 13.8727 156.847Q14.2624 156.639 14.6618 156.45Q15.0612 156.261 15.4694 156.092Q15.8777 155.923 16.2937 155.774Q16.7097 155.625 17.1325 155.497Q17.5553 155.368 17.984 155.261Q18.4126 155.154 18.8459 155.067Q19.2793 154.981 19.7163 154.916Q20.1534 154.852 20.5931 154.808Q21.0329 154.765 21.4742 154.743Q21.9155 154.722 22.3574 154.722L55.0034 154.722Q55.4453 154.722 55.8866 154.7Q56.3279 154.678 56.7676 154.635Q57.2074 154.592 57.6444 154.527Q58.0815 154.462 58.5149 154.376Q58.9482 154.289 59.3768 154.182Q59.8054 154.075 60.2283 153.946Q60.6511 153.818 61.0671 153.669Q61.4831 153.521 61.8913 153.351Q62.2995 153.182 62.699 152.993Q63.0984 152.805 63.4881 152.596Q63.8778 152.388 64.2567 152.161Q64.6357 151.934 65.0031 151.688Q65.3705 151.443 65.7254 151.179Q66.0803 150.916 66.4219 150.636Q66.7634 150.356 67.0908 150.059Q67.4182 149.762 67.7306 149.45Q68.0431 149.137 68.3398 148.81Q68.6365 148.483 68.9168 148.141Q69.1972 147.799 69.4604 147.445Q69.7236 147.09 69.969 146.722Q70.2145 146.355 70.4417 145.976Q70.6688 145.597 70.8771 145.207Q71.0854 144.818 71.2743 144.418Q71.4632 144.019 71.6323 143.61Q71.8014 143.202 71.9503 142.786Q72.0991 142.37 72.2274 141.947Q72.3557 141.525 72.463 141.096Q72.5704 140.667 72.6566 140.234Q72.7428 139.801 72.8076 139.364Q72.8725 138.926 72.9158 138.487Q72.9591 138.047 72.9808 137.606Q73.0024 137.164 73.0024 136.723L73.0024 80.1055Q73.0024 79.6637 72.9807 79.2224Q72.9591 78.7811 72.9158 78.3413Q72.8725 77.9016 72.8076 77.4645Q72.7428 77.0275 72.6566 76.5941Q72.5704 76.1607 72.463 75.7321Q72.3557 75.3035 72.2274 74.8807Q72.0991 74.4579 71.9503 74.0419Q71.8014 73.6258 71.6323 73.2176Q71.4632 72.8094 71.2743 72.41Q71.0854 72.0105 70.8771 71.6209Q70.6688 71.2312 70.4417 70.8522Q70.2145 70.4732 69.969 70.1058Q69.7236 69.7384 69.4604 69.3835Q69.1971 69.0286 68.9168 68.6871Q68.6365 68.3455 68.3398 68.0181Q68.0431 67.6908 67.7306 67.3783Q67.4182 67.0659 67.0908 66.7692Q66.7634 66.4724 66.4219 66.1921Q66.0803 65.9118 65.7254 65.6486Q65.3705 65.3854 65.0031 65.1399Q64.6357 64.8944 64.2568 64.6673Q63.8778 64.4401 63.4881 64.2318Q63.0984 64.0235 62.699 63.8346Q62.2995 63.6457 61.8913 63.4766Q61.4831 63.3075 61.0671 63.1587Q60.6511 63.0098 60.2283 62.8816Q59.8054 62.7533 59.3768 62.6459Q58.9482 62.5386 58.5149 62.4524Q58.0815 62.3662 57.6444 62.3013Q57.2074 62.2365 56.7676 62.1932Q56.3279 62.1499 55.8866 62.1282Q55.4453 62.1065 55.0034 62.1065L17.999 62.1065Q17.5571 62.1065 17.1158 62.0849Q16.6745 62.0632 16.2348 62.0199Q15.7951 61.9766 15.358 61.9117Q14.9209 61.8469 14.4876 61.7607Q14.0542 61.6745 13.6256 61.5671Q13.197 61.4598 12.7742 61.3315Q12.3513 61.2032 11.9353 61.0544Q11.5193 60.9055 11.1111 60.7364Q10.7029 60.5673 10.3034 60.3784Q9.90401 60.1895 9.51433 59.9812Q9.12465 59.7729 8.74567 59.5458Q8.36668 59.3186 7.99929 59.0732Q7.63191 58.8277 7.27701 58.5645Q6.92211 58.3013 6.58056 58.021Q6.239 57.7406 5.91161 57.4439Q5.58422 57.1472 5.27178 56.8348Q4.95935 56.5223 4.66262 56.1949Q4.36589 55.8675 4.08558 55.526Q3.80528 55.1844 3.54207 54.8295Q3.27886 54.4746 3.03338 54.1072Q2.7879 53.7399 2.56074 53.3609Q2.33359 52.9819 2.1253 52.5922Q1.91701 52.2025 1.7281 51.8031Q1.53918 51.4037 1.37009 50.9954Q1.201 50.5872 1.05215 50.1712Q0.903293 49.7552 0.775031 49.3324Q0.646768 48.9095 0.539407 48.4809Q0.432047 48.0523 0.345846 47.619Q0.259645 47.1856 0.194812 46.7485Q0.129979 46.3115 0.0866701 45.8717Q0.0433612 45.432 0.0216806 44.9907Q0 44.5494 0 44.1075L0 0" transform="translate(0.8999023 0.8999939)" id="Path-171" fill="none" stroke="#3886F8" stroke-width="1.80000007" stroke-linecap="round" stroke-linejoin="round" />
</svg>