<svg xmlns="http://www.w3.org/2000/svg" width="142" height="198"><g transform="translate(.977 .977)"><g transform="rotate(-10 73.613 3.541)"><path fill="#3C89FF" stroke="none" d="M50.07 148.56c24.47-14.46 19.44-35.37 13.97-47.11C58.56 89.7 71 70.3 54.28 48.75 37.55 27.2 42.91 35.64 42.91 15.32S4.62-7 4.62 20.89c0 27.87-1.34 18.23-3.19 31.53-2.56 18.37-1.8 23.23 3.2 33.61 5.66 11.81-3.9 33.33 1.1 42.76 13.82 26.14 41.04 21.72 44.34 19.77z"/><path fill="none" stroke="#FDFDFE" stroke-width="1.831" d="M23.78 23.9s33.24 102.2 24.75 160.83"/><path fill="none" stroke="#000" stroke-width="1.831" d="M50.16 146.7c.51 12.75-.1 27.42-1.63 38.03"/><path fill="none" stroke="#FDFDFE" stroke-width="1.831" d="M62.58 53.77L40 79.29 4.17 66.53"/><path fill="none" stroke="#FDFDFE" stroke-width="1.831" d="M66.75 96.46l-22.58 25.52-35.82-12.76"/></g><g transform="scale(-1 1) rotate(-15 373.403 584.686)"><path fill="#FDC861" stroke="none" d="M26.93 57.05c9.4-2.45 13.8-16.17 9.8-30.66C32.76 11.91 21.9 2.15 12.49 4.6 3.08 7.05 3.12 19.97 7.1 34.46c4 14.48 10.42 25.04 19.83 22.6z"/><path fill="none" stroke="#000" stroke-width="1.831" d="M15.14 9.5s13.5 46.53 20.18 72.46"/><path fill="none" stroke="#000" stroke-width="1.831" d="M13.82 38.86l11.86 9.15 5.64-15.77"/></g></g></svg>