<svg xmlns="http://www.w3.org/2000/svg" width="136" height="172"><g transform="translate(.769 .77)"><g transform="matrix(-1 0 0 1 66.852 31.122)"><path fill="#FD845A" stroke="none" d="M23.84 40.39c-5.25-6.18-1.67-17.69 8-25.7 9.66-8.01 21.75-9.5 27-3.32 5.24 6.18-.98 15.01-10.64 23.02-9.67 8.02-19.12 12.18-24.36 6z"/><path fill="none" stroke="#000" stroke-width="1.538" d="M36.76 24.45S3.93 85.13.44 137.6"/></g><path fill="#FDC861" stroke="none" d="M58.34 66.86c10.1-5.76 10.98-22.93 1.97-38.36-9-15.42-24.5-23.25-34.6-17.5-10.1 5.77-6.11 20.63 2.9 36.05 9 15.43 19.63 25.57 29.73 19.81z"/><path fill="none" stroke="#000" stroke-width="1.538" d="M46.29 37.35s24.49 78.9 21 131.37"/><g transform="translate(66.852 31.122)"><path fill="#FDC861" stroke="none" d="M23.84 40.39c-5.25-6.18-1.67-17.69 8-25.7 9.66-8.01 21.75-9.5 27-3.32 5.24 6.18-.98 15.01-10.64 23.02-9.67 8.02-19.12 12.18-24.36 6z"/><path fill="none" stroke="#000" stroke-width="1.538" d="M36.76 24.45S3.93 85.13.44 137.6"/></g></g></svg>