<svg xmlns="http://www.w3.org/2000/svg" xmlns:xlink="http://www.w3.org/1999/xlink" width="357" height="236"><defs><path id="a" d="M4.86 0h344.4q.12 0 .24 0 .12.01.23.02.12.02.24.03.12.02.23.04.12.03.24.06.11.02.23.06.11.03.22.07.12.04.23.09.1.05.21.1.11.05.22.1.1.06.2.12t.2.13q.1.07.2.14t.19.14q.1.08.18.16.09.08.17.16.09.09.17.18.08.08.15.18.08.09.15.18.07.1.14.2.06.1.13.2.06.1.11.2.06.11.11.22.05.1.1.22.04.11.08.22t.08.23q.03.11.06.23.03.11.05.23.03.12.04.24.02.11.03.23.02.12.02.24t0 .24V229.4q0 .12 0 .24t-.02.24q0 .12-.03.24-.01.11-.04.23-.02.12-.05.23-.03.12-.06.23-.04.12-.08.23-.04.11-.08.22-.05.11-.1.22-.05.1-.1.21-.06.1-.13.21-.06.1-.12.2-.07.1-.14.2t-.15.19q-.07.09-.15.18-.08.08-.17.17-.08.08-.17.16-.09.08-.18.16-.1.07-.19.15-.1.07-.2.13-.1.07-.2.13t-.2.12q-.1.05-.22.1-.1.06-.21.1-.11.05-.23.09-.1.04-.22.07-.12.04-.23.07-.12.03-.24.05-.11.02-.23.04-.12.02-.24.03-.12.01-.23.02-.12 0-.24 0H4.86q-.12 0-.24 0-.12-.01-.24-.02t-.23-.03q-.12-.02-.24-.04t-.23-.05q-.12-.03-.23-.07-.12-.03-.23-.07-.11-.04-.22-.09-.11-.04-.22-.1-.1-.05-.21-.1-.1-.06-.2-.12-.11-.06-.21-.13-.1-.06-.2-.13-.1-.08-.18-.15-.1-.08-.18-.16-.1-.08-.18-.16-.08-.09-.16-.17-.08-.1-.16-.18-.07-.1-.14-.2-.07-.09-.14-.19t-.13-.2q-.06-.1-.12-.2-.05-.11-.1-.22-.05-.1-.1-.22-.05-.1-.09-.22-.04-.11-.07-.23-.04-.11-.06-.23-.03-.11-.06-.23-.02-.12-.04-.23-.01-.12-.03-.24 0-.12-.01-.24T0 229.4V4.86q0-.12 0-.24.01-.12.02-.24.02-.12.03-.23.02-.12.04-.24.03-.12.06-.23.02-.12.06-.23.03-.12.07-.23.04-.11.09-.22.05-.11.1-.22.05-.1.1-.21.06-.1.12-.2.06-.11.13-.21.07-.1.14-.2t.14-.18q.08-.1.16-.18.08-.1.16-.18.09-.08.18-.16.08-.08.18-.16.09-.07.18-.14.1-.07.2-.14t.2-.13q.1-.06.2-.12.11-.05.22-.1.1-.05.22-.1.11-.05.22-.09.11-.04.23-.07.11-.04.23-.06.11-.03.23-.06.12-.02.24-.04.11-.01.23-.03.12 0 .24-.01T4.86 0z" transform="translate(.84)"/><clipPath id="b"><use xlink:href="#a"/></clipPath></defs><g stroke="none" transform="translate(.45 .45)"><path fill="#504A86" d="M5.7 0h344.4q.12 0 .24 0 .12.01.23.02.12.02.24.03.12.02.24.04.11.03.23.06.11.02.23.06.11.03.22.07.12.04.23.09.1.05.22.1.1.05.2.1.11.06.22.12.1.06.2.13t.2.14q.09.07.18.14.1.08.18.16.09.08.17.16.09.09.17.18.08.08.15.18.08.09.15.18.07.1.14.2.06.1.13.2.06.1.11.2.06.11.11.22.05.1.1.22.04.11.08.22t.08.23q.03.11.06.23.03.11.05.23.03.12.04.24.02.11.03.23.02.12.02.24t0 .24V229.4q0 .12 0 .24t-.02.24q0 .12-.03.24-.01.11-.04.23-.02.12-.05.23-.03.12-.06.23-.04.12-.08.23-.04.11-.08.22-.05.11-.1.22-.05.1-.1.21-.06.1-.12.21-.07.1-.13.2-.07.1-.14.2t-.15.19q-.07.09-.15.18-.08.08-.17.17-.08.08-.17.16-.09.08-.18.16-.1.07-.19.15-.1.07-.2.13-.1.07-.2.13t-.2.12q-.1.05-.21.1-.11.06-.22.1-.11.05-.23.09-.1.04-.22.07-.12.04-.23.07-.12.03-.23.05-.12.02-.24.04t-.24.03q-.11.01-.23.02-.12 0-.24 0H5.7q-.12 0-.24 0-.12-.01-.24-.02T5 234.2q-.12-.02-.24-.04t-.23-.05q-.12-.03-.23-.07-.12-.03-.23-.07-.11-.04-.22-.09-.11-.04-.22-.1-.1-.05-.21-.1-.1-.06-.2-.12-.11-.06-.21-.13-.1-.06-.2-.13-.1-.08-.18-.15-.1-.08-.18-.16-.1-.08-.18-.16-.08-.09-.16-.17-.08-.1-.16-.18-.07-.1-.14-.2-.07-.09-.14-.19t-.13-.2q-.06-.1-.12-.2-.05-.11-.1-.22-.05-.1-.1-.22-.05-.1-.09-.22-.04-.11-.07-.23-.04-.11-.06-.23-.03-.11-.06-.23-.02-.12-.04-.23-.01-.12-.03-.24 0-.12-.01-.24t-.01-.24V4.86q0-.12 0-.24.01-.12.02-.24.02-.12.03-.23.02-.12.04-.24.03-.12.06-.23.02-.12.06-.23.03-.12.07-.23.04-.11.09-.22.05-.11.1-.22.05-.1.1-.21.06-.1.12-.2.06-.11.13-.21.07-.1.14-.2t.14-.18q.08-.1.16-.18.08-.1.16-.18.09-.08.18-.16.08-.08.18-.16.09-.07.18-.14.1-.07.2-.14t.2-.13q.1-.06.2-.12.11-.05.22-.1.1-.05.22-.1.11-.05.22-.09.11-.04.23-.07.11-.04.23-.06.11-.03.23-.06.12-.02.24-.04.11-.01.23-.03.12 0 .24-.01T5.7 0z"/><g clip-path="url(#b)"><g transform="translate(15.254 7.627)"><path fill="#FEBA5E" d="M5.45 10.9a5.45 5.45 0 100-10.9 5.45 5.45 0 000 10.9z"/><path fill="#2D2664" d="M21.8 10.9a5.45 5.45 0 100-10.9 5.45 5.45 0 000 10.9z"/><path fill="#2D2664" d="M38.14 10.9a5.45 5.45 0 100-10.9 5.45 5.45 0 000 10.9z"/></g><path fill="#2D2664" d="M-16.34 26.42h401.8v217.92h-401.8V26.42z"/><path fill="#3886F8" d="M43.9 42.5h61.01v10.89H43.89v-10.9z"/><path fill="#FEBA5E" d="M43.9 63.2h113.85v10.9H43.9V63.2z"/><path fill="#FD845A" d="M147.67 183.05h62.66q.27 0 .53.01.27.02.54.04.26.03.53.07.26.04.52.09.27.05.53.12.25.06.51.14.26.08.5.17.26.09.5.19.25.1.5.22.24.11.47.24.24.12.47.26.23.14.45.29.22.14.44.3.21.16.42.33.2.17.4.35.2.18.4.37.18.19.36.39t.35.4q.17.21.33.42.16.22.3.44.16.22.3.45.13.23.26.47.12.23.24.48.11.24.21.49.1.24.2.5.09.25.16.5.08.26.15.52.06.26.11.52.06.26.1.53.03.26.06.53.03.26.04.53.01.27.01.53 0 .27-.01.54t-.04.53q-.03.27-.06.54-.04.26-.1.52-.05.26-.11.52-.07.26-.15.52-.07.26-.16.5-.1.26-.2.5-.1.25-.21.5-.12.24-.24.47-.13.24-.27.47-.13.23-.28.45-.15.22-.31.44-.16.21-.33.42-.17.2-.35.4-.18.2-.37.4-.19.18-.39.36t-.4.35q-.2.17-.42.33-.22.16-.44.3-.22.15-.45.3-.23.13-.47.26-.23.12-.47.24-.25.11-.5.21-.24.1-.5.2-.24.09-.5.16-.26.08-.51.15-.26.06-.53.11-.26.05-.52.1-.27.03-.53.06-.27.03-.54.04-.26.01-.53.01h-62.66q-.26 0-.53-.01t-.53-.04q-.27-.03-.53-.07-.27-.04-.53-.09-.26-.05-.52-.11-.26-.07-.52-.15-.25-.07-.5-.17-.26-.09-.5-.19-.25-.1-.5-.21-.24-.12-.47-.24-.24-.13-.47-.27-.23-.14-.45-.28-.22-.15-.44-.31-.21-.16-.42-.33-.2-.17-.4-.35-.2-.18-.39-.37t-.37-.39q-.18-.2-.35-.4-.17-.2-.33-.42-.16-.22-.3-.44-.15-.22-.29-.45-.14-.23-.26-.47-.13-.23-.24-.47-.12-.25-.22-.5-.1-.24-.2-.5-.08-.24-.16-.5t-.14-.52q-.07-.26-.12-.52-.05-.26-.1-.52-.03-.27-.06-.54-.02-.26-.04-.53-.01-.27-.01-.53 0-.27.01-.54.02-.27.04-.53.03-.27.07-.53.04-.27.09-.53.05-.26.12-.52.06-.26.14-.52.08-.25.17-.5.09-.26.19-.5.1-.25.22-.5.11-.24.24-.47.12-.24.26-.47.14-.23.29-.45.14-.22.3-.44.16-.21.33-.42.17-.2.35-.4.18-.2.37-.39t.39-.37q.2-.18.4-.35.21-.17.42-.33.22-.16.44-.3.22-.15.45-.29.23-.14.47-.26.23-.13.48-.24.24-.12.49-.22.24-.1.5-.2.25-.08.5-.16.26-.08.52-.14.26-.07.52-.12.26-.05.53-.1.26-.03.53-.06.26-.02.53-.04.27-.01.53-.01z"/><path fill="#504A86" d="M48.75 86.08h260.5q.12 0 .24 0t.24.02q.12.01.24.03.11.02.23.04.12.02.23.05.12.03.23.07.12.03.23.07.11.04.22.09.11.04.22.1.1.04.21.1.1.06.21.12.1.06.2.13.1.06.2.13t.18.15q.1.08.19.16.08.08.17.16.08.08.16.17.08.1.16.18.07.1.15.2.07.09.13.19.07.1.13.2t.12.2q.05.11.1.22.06.1.1.22.05.1.09.22.04.11.07.23.04.11.07.23.02.11.05.23.02.12.04.23.02.12.03.24 0 .12.02.24 0 .12 0 .24v67.1q0 .11 0 .23-.01.12-.02.24t-.03.24q-.02.11-.04.23-.03.12-.05.23-.03.12-.07.23-.03.12-.07.23-.04.11-.09.22-.04.11-.1.22-.05.1-.1.21-.06.11-.12.21-.06.1-.13.2-.06.1-.13.2-.08.1-.15.19-.08.09-.16.18t-.16.17q-.09.08-.17.16-.1.08-.19.16t-.18.15q-.1.07-.2.13-.1.07-.2.13t-.2.12q-.11.06-.22.1-.1.06-.22.1-.1.05-.22.09-.11.04-.23.07-.11.04-.23.07-.11.03-.23.05-.12.02-.23.04-.12.02-.24.03-.12.01-.24.02-.12 0-.24 0H48.75q-.12 0-.24 0t-.23-.02q-.12-.01-.24-.03-.12-.02-.24-.04-.11-.02-.23-.05-.11-.03-.23-.07-.11-.03-.22-.07-.12-.04-.23-.09-.1-.04-.22-.1-.1-.04-.2-.1-.11-.06-.22-.12-.1-.06-.2-.13-.1-.06-.2-.13-.09-.07-.18-.15-.1-.08-.18-.16-.09-.08-.17-.16-.09-.08-.17-.17-.08-.1-.15-.18-.08-.1-.15-.2-.07-.09-.14-.19-.06-.1-.13-.2-.06-.1-.11-.2-.06-.11-.11-.22-.05-.1-.1-.22-.04-.1-.08-.22-.04-.11-.08-.23-.03-.11-.06-.23-.03-.11-.05-.23-.03-.12-.04-.23-.02-.12-.03-.24-.02-.12-.02-.24t0-.24v-67.1q0-.11 0-.23 0-.12.02-.24 0-.12.03-.24.01-.11.04-.23.02-.12.05-.23.03-.12.06-.23.04-.12.08-.23.04-.11.08-.22.05-.11.1-.22.05-.1.1-.21.06-.11.12-.21.07-.1.13-.2.07-.1.14-.2t.15-.19q.07-.09.15-.18.08-.09.17-.17.08-.08.17-.16.09-.08.18-.16.1-.08.19-.15.1-.07.2-.13.1-.07.2-.13t.2-.12q.1-.06.21-.1.11-.06.22-.1.11-.05.23-.09.1-.04.22-.07.12-.04.23-.07.12-.03.23-.05.12-.02.24-.04t.24-.03q.11-.01.23-.02.12 0 .24 0z"/></g></g></svg>