<svg width="502px" height="322px" viewBox="0 0 502 322" version="1.1" xmlns:xlink="http://www.w3.org/1999/xlink" xmlns="http://www.w3.org/2000/svg">
  <defs>
    <linearGradient x1="0.5056236" y1="1.11236644" x2="0.5056236" y2="0.589001536" id="gradient_1">
      <stop offset="0" stop-color="#F3F6F9" />
      <stop offset="1" stop-color="#E4EAF1" />
    </linearGradient>
    <path d="M4.859 0L287.641 0Q287.76 0 287.879 0.00585288Q287.999 0.0117058 288.117 0.0233974Q288.236 0.0350891 288.354 0.0525913Q288.472 0.0700936 288.589 0.0933643Q288.706 0.116635 288.822 0.145618Q288.937 0.174601 289.051 0.209227Q289.166 0.243853 289.278 0.284037Q289.39 0.324222 289.5 0.369869Q289.611 0.415516 289.718 0.466516Q289.826 0.517516 289.931 0.573745Q290.037 0.629974 290.139 0.691297Q290.241 0.75262 290.34 0.818889Q290.44 0.885159 290.535 0.956215Q290.631 1.02727 290.724 1.10294Q290.816 1.17861 290.904 1.25872Q290.992 1.33882 291.077 1.42317Q291.161 1.50751 291.241 1.59589Q291.321 1.68428 291.397 1.77648Q291.473 1.86869 291.544 1.9645Q291.615 2.0603 291.681 2.15948Q291.747 2.25866 291.809 2.36097Q291.87 2.46329 291.926 2.56848Q291.982 2.67368 292.033 2.78151Q292.084 2.88934 292.13 2.99954Q292.176 3.10974 292.216 3.22205Q292.256 3.33436 292.291 3.44851Q292.325 3.56265 292.354 3.67836Q292.383 3.79407 292.407 3.91106Q292.43 4.02805 292.447 4.14604Q292.465 4.26403 292.477 4.38274Q292.488 4.50144 292.494 4.62058Q292.5 4.73972 292.5 4.859L292.5 188.641Q292.5 188.76 292.494 188.879Q292.488 188.999 292.477 189.117Q292.465 189.236 292.447 189.354Q292.43 189.472 292.407 189.589Q292.383 189.706 292.354 189.822Q292.325 189.937 292.291 190.052Q292.256 190.166 292.216 190.278Q292.176 190.39 292.13 190.5Q292.084 190.611 292.033 190.718Q291.982 190.826 291.926 190.932Q291.87 191.037 291.809 191.139Q291.747 191.241 291.681 191.341Q291.615 191.44 291.544 191.536Q291.473 191.631 291.397 191.724Q291.321 191.816 291.241 191.904Q291.161 191.993 291.077 192.077Q290.992 192.161 290.904 192.241Q290.816 192.321 290.724 192.397Q290.631 192.473 290.535 192.544Q290.44 192.615 290.34 192.681Q290.241 192.747 290.139 192.809Q290.037 192.87 289.932 192.926Q289.826 192.982 289.718 193.033Q289.611 193.084 289.5 193.13Q289.39 193.176 289.278 193.216Q289.166 193.256 289.051 193.291Q288.937 193.325 288.822 193.354Q288.706 193.383 288.589 193.407Q288.472 193.43 288.354 193.447Q288.236 193.465 288.117 193.477Q287.999 193.488 287.879 193.494Q287.76 193.5 287.641 193.5L4.859 193.5Q4.73972 193.5 4.62058 193.494Q4.50144 193.488 4.38274 193.477Q4.26403 193.465 4.14604 193.447Q4.02805 193.43 3.91106 193.407Q3.79407 193.383 3.67836 193.354Q3.56265 193.325 3.44851 193.291Q3.33436 193.256 3.22205 193.216Q3.10974 193.176 2.99954 193.13Q2.88934 193.084 2.78151 193.033Q2.67368 192.982 2.56848 192.926Q2.46329 192.87 2.36097 192.809Q2.25866 192.747 2.15948 192.681Q2.0603 192.615 1.9645 192.544Q1.86869 192.473 1.77648 192.397Q1.68428 192.321 1.5959 192.241Q1.50751 192.161 1.42317 192.077Q1.33882 191.993 1.25872 191.904Q1.17861 191.816 1.10294 191.724Q1.02727 191.631 0.956215 191.536Q0.885159 191.44 0.818889 191.341Q0.75262 191.241 0.691297 191.139Q0.629974 191.037 0.573745 190.932Q0.517515 190.826 0.466516 190.718Q0.415516 190.611 0.369869 190.5Q0.324222 190.39 0.284037 190.278Q0.243853 190.166 0.209227 190.051Q0.174601 189.937 0.145618 189.822Q0.116635 189.706 0.0933643 189.589Q0.0700936 189.472 0.0525913 189.354Q0.0350891 189.236 0.0233974 189.117Q0.0117058 188.999 0.00585288 188.879Q0 188.76 0 188.641L0 4.859Q0 4.73972 0.00585288 4.62058Q0.0117058 4.50144 0.0233974 4.38274Q0.0350891 4.26403 0.0525913 4.14604Q0.0700936 4.02805 0.0933643 3.91106Q0.116635 3.79407 0.145618 3.67836Q0.174601 3.56265 0.209227 3.44851Q0.243853 3.33436 0.284037 3.22205Q0.324222 3.10974 0.369869 2.99954Q0.415516 2.88934 0.466516 2.78151Q0.517516 2.67368 0.573745 2.56848Q0.629974 2.46329 0.691297 2.36097Q0.75262 2.25866 0.818889 2.15948Q0.885159 2.0603 0.956215 1.9645Q1.02727 1.86869 1.10294 1.77648Q1.17861 1.68428 1.25872 1.5959Q1.33882 1.50751 1.42317 1.42317Q1.50751 1.33882 1.59589 1.25872Q1.68428 1.17861 1.77648 1.10294Q1.86869 1.02727 1.9645 0.956215Q2.0603 0.885159 2.15948 0.818889Q2.25866 0.75262 2.36097 0.691297Q2.46329 0.629974 2.56848 0.573745Q2.67368 0.517515 2.78151 0.466516Q2.88934 0.415516 2.99954 0.369869Q3.10974 0.324222 3.22205 0.284037Q3.33436 0.243853 3.44851 0.209227Q3.56265 0.174601 3.67836 0.145618Q3.79407 0.116635 3.91106 0.0933643Q4.02805 0.0700936 4.14604 0.0525913Q4.26403 0.0350891 4.38274 0.0233974Q4.50144 0.0117058 4.62058 0.00585288Q4.73972 0 4.859 0Z" transform="translate(0.6945547 0)" id="path_1" />
    <path d="M0 0C0 0 6.85204 37.5043 25.8357 72.3293C28.896 112.172 33.4748 159.371 33.4748 159.371L48.1178 159.371C48.1178 159.371 53.7825 110.323 50.6731 70.9736C47.5637 31.6239 37.1257 0 37.1257 0L0 0Z" transform="translate(0 0.1275651)" id="path_2" />
    <path d="M7.66595 -3.22037e-13L6.98304e-16 17.5125C6.98304e-16 17.5125 8.97216 25.8554 16.0616 20.6294L15.5438 4.67113L7.66595 -3.22037e-13Z" transform="matrix(0.9848077 -0.1736482 0.1736482 0.9848077 0.2062341 2.890557)" id="path_3" />
    <path d="M24.024 12.584C24.024 12.584 22.88 0 16.016 0C9.152 0 0 3.432 0 8.008C2.4737e-16 12.584 11.44 11.8104 12.584 12.9544C13.728 14.0984 13.728 23.2504 18.304 33.176C22.88 43.1016 30.888 57.2 38.896 56.056C46.904 54.912 52.624 50.336 46.904 38.896C41.184 27.456 24.024 12.584 24.024 12.584Z" id="path_4" />
    <clipPath id="mask_1">
      <use xlink:href="#path_1" />
    </clipPath>
    <clipPath id="mask_2">
      <use xlink:href="#path_2" />
    </clipPath>
    <clipPath id="mask_3">
      <use xlink:href="#path_3" />
    </clipPath>
    <clipPath id="mask_4">
      <use xlink:href="#path_4" />
    </clipPath>
  </defs>
  <g id="Group-13" transform="translate(0.5302734 0.5305176)">
    <path d="M0 247C0 247 4.76586 25.4186 47.7575 18.6197C90.7491 11.8209 98.0903 81.2913 146.069 86.9457C194.047 92.6002 169.841 -15.2051 211.965 1.82701C254.088 18.8592 201.496 130.413 269.115 124.493C336.733 118.574 341.717 10.6285 403.116 27.0738C445.02 38.2973 397.631 158.919 463.043 158.919C528.455 158.919 478.092 246.603 478.092 246.603L0 247Z" transform="translate(0 73)" id="Path-11" fill="url(#gradient_1)" stroke="none" />
    <g id="Rectangle" transform="translate(180.5 0)">
      <path d="M4.859 0L287.641 0Q287.76 0 287.879 0.00585288Q287.999 0.0117058 288.117 0.0233974Q288.236 0.0350891 288.354 0.0525913Q288.472 0.0700936 288.589 0.0933643Q288.706 0.116635 288.822 0.145618Q288.937 0.174601 289.051 0.209227Q289.166 0.243853 289.278 0.284037Q289.39 0.324222 289.5 0.369869Q289.611 0.415516 289.718 0.466516Q289.826 0.517516 289.931 0.573745Q290.037 0.629974 290.139 0.691297Q290.241 0.75262 290.34 0.818889Q290.44 0.885159 290.535 0.956215Q290.631 1.02727 290.724 1.10294Q290.816 1.17861 290.904 1.25872Q290.992 1.33882 291.077 1.42317Q291.161 1.50751 291.241 1.59589Q291.321 1.68428 291.397 1.77648Q291.473 1.86869 291.544 1.9645Q291.615 2.0603 291.681 2.15948Q291.747 2.25866 291.809 2.36097Q291.87 2.46329 291.926 2.56848Q291.982 2.67368 292.033 2.78151Q292.084 2.88934 292.13 2.99954Q292.176 3.10974 292.216 3.22205Q292.256 3.33436 292.291 3.44851Q292.325 3.56265 292.354 3.67836Q292.383 3.79407 292.407 3.91106Q292.43 4.02805 292.447 4.14604Q292.465 4.26403 292.477 4.38274Q292.488 4.50144 292.494 4.62058Q292.5 4.73972 292.5 4.859L292.5 188.641Q292.5 188.76 292.494 188.879Q292.488 188.999 292.477 189.117Q292.465 189.236 292.447 189.354Q292.43 189.472 292.407 189.589Q292.383 189.706 292.354 189.822Q292.325 189.937 292.291 190.052Q292.256 190.166 292.216 190.278Q292.176 190.39 292.13 190.5Q292.084 190.611 292.033 190.718Q291.982 190.826 291.926 190.932Q291.87 191.037 291.809 191.139Q291.747 191.241 291.681 191.341Q291.615 191.44 291.544 191.536Q291.473 191.631 291.397 191.724Q291.321 191.816 291.241 191.904Q291.161 191.993 291.077 192.077Q290.992 192.161 290.904 192.241Q290.816 192.321 290.724 192.397Q290.631 192.473 290.535 192.544Q290.44 192.615 290.34 192.681Q290.241 192.747 290.139 192.809Q290.037 192.87 289.932 192.926Q289.826 192.982 289.718 193.033Q289.611 193.084 289.5 193.13Q289.39 193.176 289.278 193.216Q289.166 193.256 289.051 193.291Q288.937 193.325 288.822 193.354Q288.706 193.383 288.589 193.407Q288.472 193.43 288.354 193.447Q288.236 193.465 288.117 193.477Q287.999 193.488 287.879 193.494Q287.76 193.5 287.641 193.5L4.859 193.5Q4.73972 193.5 4.62058 193.494Q4.50144 193.488 4.38274 193.477Q4.26403 193.465 4.14604 193.447Q4.02805 193.43 3.91106 193.407Q3.79407 193.383 3.67836 193.354Q3.56265 193.325 3.44851 193.291Q3.33436 193.256 3.22205 193.216Q3.10974 193.176 2.99954 193.13Q2.88934 193.084 2.78151 193.033Q2.67368 192.982 2.56848 192.926Q2.46329 192.87 2.36097 192.809Q2.25866 192.747 2.15948 192.681Q2.0603 192.615 1.9645 192.544Q1.86869 192.473 1.77648 192.397Q1.68428 192.321 1.5959 192.241Q1.50751 192.161 1.42317 192.077Q1.33882 191.993 1.25872 191.904Q1.17861 191.816 1.10294 191.724Q1.02727 191.631 0.956215 191.536Q0.885159 191.44 0.818889 191.341Q0.75262 191.241 0.691297 191.139Q0.629974 191.037 0.573745 190.932Q0.517515 190.826 0.466516 190.718Q0.415516 190.611 0.369869 190.5Q0.324222 190.39 0.284037 190.278Q0.243853 190.166 0.209227 190.051Q0.174601 189.937 0.145618 189.822Q0.116635 189.706 0.0933643 189.589Q0.0700936 189.472 0.0525913 189.354Q0.0350891 189.236 0.0233974 189.117Q0.0117058 188.999 0.00585288 188.879Q0 188.76 0 188.641L0 4.859Q0 4.73972 0.00585288 4.62058Q0.0117058 4.50144 0.0233974 4.38274Q0.0350891 4.26403 0.0525913 4.14604Q0.0700936 4.02805 0.0933643 3.91106Q0.116635 3.79407 0.145618 3.67836Q0.174601 3.56265 0.209227 3.44851Q0.243853 3.33436 0.284037 3.22205Q0.324222 3.10974 0.369869 2.99954Q0.415516 2.88934 0.466516 2.78151Q0.517516 2.67368 0.573745 2.56848Q0.629974 2.46329 0.691297 2.36097Q0.75262 2.25866 0.818889 2.15948Q0.885159 2.0603 0.956215 1.9645Q1.02727 1.86869 1.10294 1.77648Q1.17861 1.68428 1.25872 1.5959Q1.33882 1.50751 1.42317 1.42317Q1.50751 1.33882 1.59589 1.25872Q1.68428 1.17861 1.77648 1.10294Q1.86869 1.02727 1.9645 0.956215Q2.0603 0.885159 2.15948 0.818889Q2.25866 0.75262 2.36097 0.691297Q2.46329 0.629974 2.56848 0.573745Q2.67368 0.517515 2.78151 0.466516Q2.88934 0.415516 2.99954 0.369869Q3.10974 0.324222 3.22205 0.284037Q3.33436 0.243853 3.44851 0.209227Q3.56265 0.174601 3.67836 0.145618Q3.79407 0.116635 3.91106 0.0933643Q4.02805 0.0700936 4.14604 0.0525913Q4.26403 0.0350891 4.38274 0.0233974Q4.50144 0.0117058 4.62058 0.00585288Q4.73972 0 4.859 0Z" transform="translate(0.6945547 0)" id="Mask" fill="#504A86" stroke="none" />
      <g clip-path="url(#mask_1)">
        <g id="Group-42" transform="translate(12.6 6.3)">
          <path d="M4.5 9C6.98528 9 9 6.98528 9 4.5C9 2.01472 6.98528 0 4.5 0C2.01472 0 0 2.01472 0 4.5C0 6.98528 2.01472 9 4.5 9Z" id="Oval" fill="#FEBA5E" stroke="none" />
          <path d="M4.5 9C6.98528 9 9 6.98528 9 4.5C9 2.01472 6.98528 0 4.5 0C2.01472 0 0 2.01472 0 4.5C0 6.98528 2.01472 9 4.5 9Z" transform="translate(13.5 0)" id="Oval-Copy" fill="#2D2664" stroke="none" />
          <path d="M4.5 9C6.98528 9 9 6.98528 9 4.5C9 2.01472 6.98528 0 4.5 0C2.01472 0 0 2.01472 0 4.5C0 6.98528 2.01472 9 4.5 9Z" transform="translate(27 0)" id="Oval-Copy-2" fill="#2D2664" stroke="none" />
        </g>
        <path d="M0 0L331.895 0L331.895 180L0 180L0 0Z" transform="translate(-13.5 21.82501)" id="Rectangle" fill="#2D2664" stroke="none" />
        <g id="Group-11" transform="translate(61.94456 39.75)">
          <path d="M0 0L167.5 0L167.5 9L0 9L0 0Z" transform="translate(1 105)" id="Rectangle-Copy-2" fill="#504A86" stroke="none" />
          <path d="M0 0L167.5 0L167.5 9L0 9L0 0Z" transform="translate(1 87)" id="Rectangle-Copy-3" fill="#FEBA5E" stroke="none" />
          <path d="M4.859 0L164.141 0Q164.26 0 164.379 0.00585288Q164.499 0.0117058 164.617 0.0233974Q164.736 0.0350891 164.854 0.0525913Q164.972 0.0700936 165.089 0.0933643Q165.206 0.116635 165.322 0.145618Q165.437 0.174601 165.551 0.209227Q165.666 0.243853 165.778 0.284037Q165.89 0.324222 166 0.369869Q166.111 0.415516 166.218 0.466516Q166.326 0.517516 166.432 0.573745Q166.537 0.629974 166.639 0.691297Q166.741 0.75262 166.84 0.818889Q166.94 0.885159 167.035 0.956215Q167.131 1.02727 167.224 1.10294Q167.316 1.17861 167.404 1.25872Q167.492 1.33882 167.577 1.42317Q167.661 1.50751 167.741 1.59589Q167.821 1.68428 167.897 1.77648Q167.973 1.86869 168.044 1.9645Q168.115 2.0603 168.181 2.15948Q168.247 2.25866 168.309 2.36097Q168.37 2.46329 168.426 2.56848Q168.482 2.67368 168.533 2.78151Q168.584 2.88934 168.63 2.99954Q168.676 3.10974 168.716 3.22205Q168.756 3.33436 168.791 3.44851Q168.825 3.56265 168.854 3.67836Q168.883 3.79407 168.907 3.91106Q168.93 4.02805 168.947 4.14604Q168.965 4.26403 168.977 4.38274Q168.988 4.50144 168.994 4.62058Q169 4.73972 169 4.859L169 69.36Q169 69.4793 168.994 69.5984Q168.988 69.7176 168.977 69.8363Q168.965 69.955 168.947 70.073Q168.93 70.191 168.907 70.308Q168.883 70.425 168.854 70.5407Q168.825 70.6564 168.791 70.7705Q168.756 70.8847 168.716 70.997Q168.676 71.1093 168.63 71.2195Q168.584 71.3297 168.533 71.4375Q168.482 71.5453 168.426 71.6505Q168.37 71.7557 168.309 71.858Q168.247 71.9604 168.181 72.0595Q168.115 72.1587 168.044 72.2545Q167.973 72.3503 167.897 72.4426Q167.821 72.5348 167.741 72.6231Q167.661 72.7115 167.577 72.7959Q167.492 72.8802 167.404 72.9603Q167.316 73.0404 167.223 73.1161Q167.131 73.1918 167.035 73.2628Q166.94 73.3339 166.84 73.4001Q166.741 73.4664 166.639 73.5277Q166.537 73.5891 166.432 73.6453Q166.326 73.7015 166.218 73.7525Q166.111 73.8035 166 73.8492Q165.89 73.8948 165.778 73.935Q165.666 73.9752 165.551 74.0098Q165.437 74.0444 165.322 74.0734Q165.206 74.1024 165.089 74.1257Q164.972 74.1489 164.854 74.1664Q164.736 74.1839 164.617 74.1956Q164.499 74.2073 164.379 74.2132Q164.26 74.219 164.141 74.219L4.859 74.219Q4.73972 74.219 4.62058 74.2132Q4.50144 74.2073 4.38274 74.1956Q4.26403 74.1839 4.14604 74.1664Q4.02805 74.1489 3.91106 74.1257Q3.79407 74.1024 3.67836 74.0734Q3.56265 74.0444 3.44851 74.0098Q3.33436 73.9752 3.22205 73.935Q3.10974 73.8948 2.99954 73.8492Q2.88934 73.8035 2.78151 73.7525Q2.67368 73.7015 2.56848 73.6453Q2.46329 73.5891 2.36097 73.5277Q2.25866 73.4664 2.15948 73.4001Q2.0603 73.3339 1.9645 73.2628Q1.86869 73.1918 1.77648 73.1161Q1.68428 73.0404 1.5959 72.9603Q1.50751 72.8802 1.42317 72.7959Q1.33882 72.7115 1.25872 72.6231Q1.17861 72.5348 1.10294 72.4426Q1.02727 72.3503 0.956215 72.2545Q0.885159 72.1587 0.818889 72.0595Q0.75262 71.9603 0.691297 71.858Q0.629974 71.7557 0.573745 71.6505Q0.517515 71.5453 0.466516 71.4375Q0.415516 71.3297 0.369869 71.2195Q0.324222 71.1093 0.284037 70.997Q0.243853 70.8847 0.209227 70.7705Q0.174601 70.6564 0.145618 70.5407Q0.116635 70.425 0.0933643 70.308Q0.0700936 70.191 0.0525913 70.073Q0.0350891 69.955 0.0233974 69.8363Q0.0117058 69.7176 0.00585288 69.5984Q0 69.4793 0 69.36L0 4.859Q0 4.73972 0.00585288 4.62058Q0.0117058 4.50144 0.0233974 4.38274Q0.0350891 4.26403 0.0525913 4.14604Q0.0700936 4.02805 0.0933643 3.91106Q0.116635 3.79407 0.145618 3.67836Q0.174601 3.56265 0.209227 3.44851Q0.243853 3.33436 0.284037 3.22205Q0.324222 3.10974 0.369869 2.99954Q0.415516 2.88934 0.466516 2.78151Q0.517516 2.67368 0.573745 2.56848Q0.629974 2.46329 0.691297 2.36097Q0.75262 2.25866 0.818889 2.15948Q0.885159 2.0603 0.956215 1.9645Q1.02727 1.86869 1.10294 1.77648Q1.17861 1.68428 1.25872 1.5959Q1.33882 1.50751 1.42317 1.42317Q1.50751 1.33882 1.59589 1.25872Q1.68428 1.17861 1.77648 1.10294Q1.86869 1.02727 1.9645 0.956215Q2.0603 0.885159 2.15948 0.818889Q2.25866 0.75262 2.36097 0.691297Q2.46329 0.629974 2.56848 0.573745Q2.67368 0.517515 2.78151 0.466516Q2.88934 0.415516 2.99954 0.369869Q3.10974 0.324222 3.22205 0.284037Q3.33436 0.243853 3.44851 0.209227Q3.56265 0.174601 3.67836 0.145618Q3.79407 0.116635 3.91106 0.0933643Q4.02805 0.0700936 4.14604 0.0525913Q4.26403 0.0350891 4.38274 0.0233974Q4.50144 0.0117058 4.62058 0.00585288Q4.73972 0 4.859 0Z" transform="translate(0.3054394 0.8904821)" id="Rectangle" fill="#504A86" stroke="none" />
        </g>
      </g>
    </g>
    <g id="Group-7" transform="translate(53.5 10)">
      <path d="M22.3923 8C22.3923 8 16.3923 25 10.3923 29C4.3923 33 -1.6077 37 0.392305 50C2.3923 63 44.3923 62 44.3923 62L57.3923 54C57.3923 54 60.3923 44 55.3923 36C50.3923 28 48.3923 5 48.3923 5C48.3923 5 39.3923 0 38.3923 0C37.3923 0 29.3923 4 29.3923 4C29.3923 4 22.3923 8 22.3923 8Z" transform="translate(12.87313 9.552268)" id="Path-189" fill="#1F1950" stroke="none" />
      <path d="M1.20182 4.79679e-18C1.20182 4.79679e-18 8.72987 0.170103 10.178 5.51556C11.6261 10.861 9.9014 16.2371 3.8721 21.3045C-2.15721 26.3719 1.20182 4.79679e-18 1.20182 4.79679e-18Z" transform="matrix(0.9876884 0.1564345 -0.1564345 0.9876884 64.4969 6.824799)" id="Path-3" fill="#1F1950" stroke="none" />
      <path d="M61.6501 0.560108C63.7535 0.560108 61.7204 3.7954 63.6164 6.35996C65.5123 8.92452 73.8706 0 78.0664 0C80.5161 0 76.6234 5.69389 66.3883 17.0817C66.3883 17.0817 32.1385 56.7204 23.9291 56.7204C15.7197 56.7204 7.74333 44.96 0 21.4394L15.1316 8.86663L26.4928 37.32L56.8648 14.6282C58.6091 6.19738 60.2759 0.560108 61.6501 0.560108Z" transform="matrix(0.9563048 0.2923717 -0.2923717 0.9563048 64.965 57.31764)" id="Path" fill="#FDA181" stroke="none" />
      <g id="Group-6" transform="translate(33.27278 129.7955)">
        <path d="M0 0C0 0 6.85204 37.5043 25.8357 72.3293C28.896 112.172 33.4748 159.371 33.4748 159.371L48.1178 159.371C48.1178 159.371 53.7825 110.323 50.6731 70.9736C47.5637 31.6239 37.1257 0 37.1257 0L0 0Z" transform="translate(0 0.1275651)" id="Mask" fill="#2D2664" stroke="none" />
        <g clip-path="url(#mask_2)">
          <g id="Group-6" transform="matrix(-0.7071067 -0.7071068 -0.7071068 0.7071067 96.71843 -6.340736)">
            <path d="M0 0L25.4571 0L25.4571 106.642L0 106.642L0 0Z" transform="matrix(-1 8.742278E-08 -8.742278E-08 -1 39.45786 120.5326)" id="Rectangle-9" fill="#00031B" fill-opacity="0.2" stroke="none" />
            <path d="M0 0L25.4571 0L25.4571 106.642L0 106.642L0 0Z" transform="matrix(-1 8.742278E-08 -8.742278E-08 -1 32.4575 113.5872)" id="Rectangle-9-Copy" fill="#00031B" fill-opacity="0.1" stroke="none" />
            <path d="M0 0L25.4571 0L25.4571 106.642L0 106.642L0 0Z" transform="matrix(-1 8.742278E-08 -8.742278E-08 -1 25.45715 106.6418)" id="Rectangle-9-Copy-2" fill="#00031B" fill-opacity="0.1" stroke="none" />
          </g>
        </g>
      </g>
      <path d="M2.039 8.91461C3.65261 19.8376 6.90425 39.5849 12.0751 61.2739C12.0751 61.2739 0 159.371 0 159.371C0 159.371 16.8937 159.371 16.8937 159.371C16.8937 159.371 32.3727 103.412 35.6717 79.4778C38.9708 55.5434 38.7937 0 38.7937 0L9.8099 0C4.83989 0 1.31268 3.99796 2.039 8.91461Z" transform="translate(16.17617 129.9231)" id="Path-39" fill="#504A86" stroke="none" />
      <path d="M74.2654 33.5547L63.91 33.7333C63.91 33.7333 66.2654 39.5547 65.2654 45.5547C64.4238 50.6048 59.1493 52.0226 59.2654 54.5547C59.6967 63.9565 66.5892 92.1377 66.5892 92.1377C59.7154 97.271 40.4921 101.814 10.9201 90.4913L14.2654 68.5547L16.2654 36.5547L0.26544 35.5547C-2.73456 4.55471 20.2654 -1.44529 40.4147 0.264301C52.8334 4.00826 68.2654 3.55471 74.2654 33.5547Z" transform="translate(7 47.99756)" id="Path" fill="#3C88FE" stroke="none" />
      <path d="M2.38189 0L0 10.3391" transform="translate(29.6356 74.07741)" id="Path-43" fill="none" stroke="#1D1B56" stroke-width="0.7973438" />
      <path d="M0.298616 0.750276L1.32072 7.41187" transform="translate(69.53836 74.21044)" id="Path-42" fill="none" stroke="#1D1B56" stroke-width="0.7973438" />
      <path d="M20.7399 0C20.7399 0 30.2663 7.02446e-14 35.3829 7.02446e-14L34.1507 19.7721L-1.63269e-13 19.7721L21.5566 7.70588L20.7399 0Z" transform="matrix(-1 0 0 1 102.1305 289.2944)" id="Path-70-Copy-2" fill="#1D1B56" stroke="none" />
      <path d="M14.2035 0C14.2035 0 25.9806 7.02446e-14 31.0971 7.02446e-14L35.0079 19.7721L-2.17167e-13 19.7721L15.8774 7.70588L14.2035 0Z" transform="matrix(-1 0 0 1 47.27332 289.2944)" id="Path-70-Copy-3" fill="#1D1B56" stroke="none" />
      <path d="M14.6783 0.425201L0 0.425201" transform="translate(15.57073 281.2594)" id="Path-38" fill="none" stroke="#1D1B56" stroke-width="0.7973438" />
      <path d="M14.6783 0.425201L0 0.425201" transform="translate(71.28502 281.2594)" id="Path-38" fill="none" stroke="#1D1B56" stroke-width="0.7973438" />
      <path d="M0.0261872 0.0190511L20.0754 2.4643e-13L21.4795 27.6119Q21.4869 27.758 21.4855 27.9043Q21.484 28.0506 21.4737 28.1965Q21.4634 28.3425 21.4443 28.4875Q21.4251 28.6325 21.3972 28.7761Q21.3693 28.9198 21.3328 29.0614Q21.2962 29.2031 21.2511 29.3423Q21.2061 29.4814 21.1526 29.6176Q21.0992 29.7538 21.0376 29.8865Q20.976 30.0192 20.9065 30.1479Q20.837 30.2767 20.7598 30.4009Q20.6826 30.5252 20.598 30.6446Q20.5134 30.7639 20.4217 30.8779Q20.3301 30.9919 20.2316 31.1002Q20.1332 31.2084 20.0284 31.3105Q19.9236 31.4126 19.8128 31.5081Q19.702 31.6037 19.5856 31.6923Q19.4693 31.7809 19.3477 31.8624Q19.2262 31.9438 19.0999 32.0177Q18.9737 32.0916 18.8431 32.1577Q18.7126 32.2238 18.5784 32.2819Q18.4441 32.34 18.3065 32.3898Q18.169 32.4396 18.0287 32.481Q17.8884 32.5224 17.7458 32.5553Q17.6032 32.5881 17.4589 32.6122Q17.3146 32.6363 17.1691 32.6516Q17.0236 32.6669 16.8775 32.6734Q16.7313 32.6799 16.5851 32.6774Q16.4388 32.675 16.2929 32.6638Q16.1471 32.6525 16.0021 32.6324Q15.8572 32.6123 15.7138 32.5835Q15.5704 32.5546 15.429 32.5171Q15.2876 32.4796 15.1487 32.4337L-9.47042e-18 27.417L0.0261872 0.0190511Z" transform="matrix(0.9876884 0.1564345 -0.1564345 0.9876884 49.29061 8.625086)" id="Rectangle" fill="#FDA181" stroke="none" />
      <g id="Group" transform="matrix(0.9876884 0.1564345 -0.1564345 0.9876884 38.78111 28.50905)">
        <path d="M7.66595 -3.22037e-13L6.98304e-16 17.5125C6.98304e-16 17.5125 8.97216 25.8554 16.0616 20.6294L15.5438 4.67113L7.66595 -3.22037e-13Z" transform="matrix(0.9848077 -0.1736482 0.1736482 0.9848077 0.2062341 2.890557)" id="Mask" fill="#FDA181" stroke="none" />
        <g clip-path="url(#mask_3)">
          <path d="M6.04677 2.14538L0 0L6.66762 8.97847L6.04677 2.14538Z" transform="translate(13.04823 8.01937)" id="Path-10" fill="#CF613B" stroke="none" />
        </g>
      </g>
      <path d="M2.2542 9.96078C9.03723 -5.39407 29.7166 0.121355 35.4679 5.93514C35.3707 15.6408 25.8141 25.2772 13.1195 26.0112C13.0368 27.9192 12.8983 29.7132 12.708 31.4037C12.708 31.4037 11.6679 35.5767 11.1479 37.6633C5.63866 35.5551 -4.52883 25.3156 2.2542 9.96078Z" transform="matrix(0.9876884 0.1564345 -0.1564345 0.9876884 37.63666 0.4576447)" id="Path" fill="#1F1950" stroke="none" />
      <path d="M3.22128 6.41096C5.00203 6.40927 6.44699 4.97276 6.44868 3.20242C6.45037 1.43208 5.00816 -0.00169061 3.2274 1.4962e-06C1.44665 0.0016936 0.00169359 1.43821 1.48745e-06 3.20855C-0.00169062 4.97888 1.44052 6.41266 3.22128 6.41096Z" transform="matrix(0.9876884 0.1564345 -0.1564345 0.9876884 44.69838 25.26117)" id="Oval" fill="#FDA181" stroke="none" />
      <path d="M0 0C0 0 4.24419 5.64211 6.6839 11.5889" transform="matrix(0.9961947 0.08715574 -0.08715574 0.9961947 25.35903 114.419)" id="Path-40" fill="none" stroke="#1D1B56" stroke-width="0.7973438" />
      <path d="M8.85509 4.83588e-10L25.8822 5.92273L15.0049 32.9724L21.1478 73.2249C21.1478 73.2249 21.5577 75.4231 23.339 80.095C25.1202 84.767 25.2546 87.9264 25.6646 90.1246C26.0745 92.3228 20.717 92.8671 16.0519 87.3682C14.9916 86.1183 13.4904 81.9102 11.8038 76.7874C7.09673 62.49 -0.579201 38.2432 0.0346898 30.7604C0.86854 20.5965 8.85509 4.83588e-10 8.85509 4.83588e-10Z" transform="matrix(0.9612617 -0.2756374 0.2756374 0.9612617 0.7533865 85.99306)" id="Path-186" fill="#FDA181" stroke="none" />
      <path d="M0 0C0 0 8 2 9 4C10 6 2 4 2 4L0 0Z" transform="matrix(0.9702957 0.2419219 -0.2419219 0.9702957 41.52216 151.199)" id="Path-187" fill="#FDA181" stroke="none" />
    </g>
    <g id="Group-13-Copy-2" transform="translate(243 106)">
      <g id="Group-14">
        <path d="M0 0L53.014 0L53.014 53.014L0 53.014L0 0Z" transform="translate(27 160)" id="Rectangle" fill="#FD845A" stroke="none" />
        <path d="M6.91749 0C6.91749 0 15.8235 6.91006 17.5085 7.73244C19.1934 8.55483 22.608 8.76842 22.608 9.33628C22.608 9.90415 18.183 9.70616 16.6989 9.33628C15.2147 8.9664 0 3.81468 0 3.81468L6.91749 0Z" transform="matrix(-0.9961947 -0.08715574 -0.08715574 0.9961947 145.6201 175.7364)" id="Path-105-Copy" fill="#2D2664" stroke="none" />
        <path d="M0 0L53.014 0L53.014 53.014L0 53.014L0 0Z" transform="translate(80.01396 160)" id="Rectangle" fill="#FEBA5E" stroke="none" />
        <path d="M0 0L53.014 0L53.014 53.014L0 53.014L0 0Z" transform="translate(7 107)" id="Rectangle" fill="#2D2664" stroke="none" />
        <path d="M0 0L53.014 0L53.014 53.014L0 53.014L0 0Z" transform="translate(60.01396 107)" id="Rectangle" fill="#504A86" stroke="none" />
        <path d="M0 0L53.014 0L53.014 53.014L0 53.014L0 0Z" transform="translate(27 54)" id="Rectangle" fill="#2F77E7" stroke="none" />
        <path d="M0 0L53.014 0L53.014 53.014L0 53.014L0 0Z" transform="translate(0.4930206 0.9860411)" id="Rectangle-Copy" fill="#FD845A" stroke="none" />
        <path d="M0 0L53.014 0L53.014 53.014L0 53.014L0 0Z" transform="translate(80.01396 54)" id="Rectangle" fill="#4E94FF" stroke="none" />
        <path d="M0 0L53.014 0L53.014 53.014L0 53.014L0 0Z" transform="translate(53.50698 0.9860411)" id="Rectangle-Copy-4" fill="#FEBA5E" stroke="none" />
        <g id="Group-4" transform="translate(122.2 143.45)">
          <path d="M5.88343 0C5.88343 0 -0.980572 5.72 0.163429 11.44C1.30743 17.16 10.4594 20.592 10.4594 20.592C10.4594 20.592 5.88343 21.736 5.88343 22.88C5.88343 24.024 20.7554 24.024 20.7554 22.88C20.7554 21.736 15.0354 17.16 15.0354 11.44C15.0354 5.72 18.4674 3.432 18.4674 3.432L5.88343 0Z" transform="translate(20.10527 44.93088)" id="Path-126-Copy" fill="#2D2664" stroke="none" />
          <g id="Group-8" transform="translate(0.05343031 0)">
            <g id="Path-129" transform="translate(0 3.432)">
              <path d="M24.024 12.584C24.024 12.584 22.88 0 16.016 0C9.152 0 0 3.432 0 8.008C2.4737e-16 12.584 11.44 11.8104 12.584 12.9544C13.728 14.0984 13.728 23.2504 18.304 33.176C22.88 43.1016 30.888 57.2 38.896 56.056C46.904 54.912 52.624 50.336 46.904 38.896C41.184 27.456 24.024 12.584 24.024 12.584Z" id="Mask" fill="#2D2664" stroke="none" />
              <g clip-path="url(#mask_4)">
                <path d="M0 4.76667C0 4.76667 16.016 -0.953333 17.16 0.190667C18.304 1.33467 15.777 10.157 26.884 26.8175C31.46 33.6815 34.892 30.2495 42.9 38.2575C50.908 46.2655 46.904 49.3827 46.904 49.3827C46.904 49.3827 28.6 49.3827 28.6 50.5267C28.6 51.6707 17.16 49.3827 16.016 47.0947C14.872 44.8067 5.72 29.9347 4.576 28.7907C3.432 27.6467 0 4.76667 0 4.76667Z" transform="translate(-2.288 6.673334)" id="Path-129" fill="#504A86" stroke="none" />
              </g>
            </g>
            <path d="M0 4.576C0 4.576 2.288 3.36239e-16 5.72 0C9.152 0 5.72 5.72 5.72 5.72L0 4.576Z" transform="translate(13.728 0)" id="Path-127" fill="#2D2664" stroke="none" />
            <path d="M5.096 41.5727C5.096 41.5727 -0.624 18.6927 11.96 6.10871C24.544 -6.47529 41.704 2.67671 41.704 12.9727C41.704 23.2687 19.968 16.4047 17.68 28.9887C15.392 41.5727 6.24 49.5807 1.664 47.2927C-2.912 45.0047 5.096 41.5727 5.096 41.5727Z" transform="translate(41.91525 9.148161)" id="Path-128" fill="#2D2664" stroke="none" />
          </g>
          <path d="M7.34048 1.51042e-12C7.34048 1.51042e-12 16.8971 9.00656 18.582 9.82895C20.2669 10.6513 23.6815 10.8649 23.6815 11.4328C23.6815 12.0007 19.2565 11.8027 17.7724 11.4328C16.2883 11.0629 8.21619e-17 5.75198 8.21619e-17 5.75198L7.34048 1.51042e-12Z" transform="matrix(-0.9961947 -0.08715574 -0.08715574 0.9961947 31.32277 31.28894)" id="Path-105" fill="#2D2664" stroke="none" />
          <path d="M4.76667 0C4.76667 0 -0.953334 5.72 0.190667 11.44C1.33467 17.16 10.4867 20.592 10.4867 20.592C10.4867 20.592 5.91067 21.736 5.91067 22.88C5.91067 24.024 20.7827 24.024 20.7827 22.88C20.7827 21.736 15.0627 17.16 15.0627 11.44C15.0627 5.72 18.4947 3.432 18.4947 3.432L4.76667 0Z" transform="translate(31.32277 44.93088)" id="Path-126" fill="#2D2664" stroke="none" />
        </g>
      </g>
    </g>
  </g>
</svg>