<svg xmlns="http://www.w3.org/2000/svg" width="90" height="112"><g transform="matrix(-1 0 0 1 88.742 .542)"><g transform="translate(.874 .292)"><g transform="translate(1.298)"><g transform="matrix(-1 0 0 1 41.823 19.739)"><path fill="#FD845A" stroke="none" d="M14.86 25.76c-3.4-3.93-1.1-11.23 5.15-16.3 6.23-5.08 14.05-6.01 17.45-2.08 3.4 3.92-.62 9.53-6.85 14.6-6.24 5.08-12.35 7.71-15.75 3.78z"/><path fill="none" stroke="#000" stroke-width="1.083" d="M23.24 15.65S2.24 54.62 0 88.3"/></g><path fill="#FDC861" stroke="none" d="M36.96 42.47c6.51-3.6 7-14.46 1.07-24.26C32.1 8.4 22 3.35 15.5 6.95c-6.52 3.59-3.86 13.01 2.07 22.82 5.92 9.8 12.87 16.29 19.39 12.7z"/><path fill="none" stroke="#000" stroke-width="1.083" d="M28.95 23.69s15.66 50.67 13.43 84.35"/><g transform="translate(42.381 19.739)"><path fill="#FDC861" stroke="none" d="M14.86 25.76c-3.4-3.93-1.1-11.23 5.15-16.3 6.23-5.08 14.05-6.01 17.45-2.08 3.4 3.92-.62 9.53-6.85 14.6-6.24 5.08-12.35 7.71-15.75 3.78z"/><path fill="none" stroke="#000" stroke-width="1.083" d="M23.24 15.65S2.24 54.62 0 88.3"/></g></g></g></g></svg>