<svg xmlns="http://www.w3.org/2000/svg" width="69" height="89"><g fill="none"><g><g><path fill="#fd845a" d="M21.21 35.7c2.94-3.5.93-10.02-4.48-14.56-5.41-4.54-12.18-5.38-15.12-1.88-2.94 3.5.54 8.5 5.96 13.05 5.4 4.54 10.7 6.9 13.64 3.4z"/><path stroke="#000" stroke-width="1.538" d="M13.97 26.68c12.26 13.16 19.05 29.65 20.35 49.48"/></g><path fill="#fdc861" d="M29.8 33.07c5.65-3.26 6.15-13 1.1-21.74S17.18-1.85 11.52 1.41s-3.43 11.7 1.62 20.44 11 14.49 16.66 11.22z"/><path stroke="#000" stroke-width="1.538" d="M23.04 16.35c9.15 20.05 13.07 39.98 11.77 59.8"/><g><path fill="#fdc861" d="M47.92 35.7c-2.94-3.5-.94-10.02 4.48-14.56 5.41-4.54 12.18-5.38 15.12-1.88 2.94 3.5-.54 8.5-5.96 13.05-5.41 4.54-10.7 6.9-13.64 3.4z"/><path stroke="#000" stroke-width="1.538" d="M55.16 26.68C42.89 39.84 36.1 56.33 34.8 76.16"/></g></g><path fill="#1f1950" d="M53.3 89c0-9.78-5.09-14.88-17.7-17.7S17.9 79.22 17.9 89z"/></g></svg>