<svg xmlns="http://www.w3.org/2000/svg" width="83" height="96"><g transform="translate(.586 .586)"><g transform="rotate(15 -82.697 202.803)"><path fill="#2472E4" stroke="none" d="M16.9 36.2c6.12-.52 14.2-8.55 14.07-18.53C30.85 7.69 26.17.3 20.05.83c-6.12.53-9.66 9.38-9.7 19.22-.05 9.84.43 16.7 6.55 16.16z"/><path fill="none" stroke="#000" stroke-width=".75" d="M17.91 18.48S20.02 39.38 0 53.3"/><path fill="none" stroke="#000" stroke-width=".75" d="M14.38 24.71l3.66 3.46 5.94-5.3"/></g><g transform="rotate(15 11.105 84.354)"><path fill="#3886F8" stroke="none" d="M28.35 59.75c9.92-2.56 14.54-16.92 10.33-32.07C34.46 12.53 23 2.32 13.08 4.88 3.18 7.42 3.23 20.93 7.44 36.08c4.22 15.16 11 26.21 20.92 23.66z"/><path fill="none" stroke="#000" stroke-width=".75" d="M15.9 9.98s14.23 48.7 21.27 75.84"/><path fill="none" stroke="#000" stroke-width=".75" d="M14.52 40.71l12.5 9.57 5.94-16.5"/></g></g></svg>