<svg width="402px" height="368px" viewBox="0 0 402 368" version="1.1" xmlns:xlink="http://www.w3.org/1999/xlink" xmlns="http://www.w3.org/2000/svg">
  <defs>
    <path d="M-5.89133e-17 4.57455C-5.89133e-17 4.57455 0 23.9282 15.259 35.5463C30.518 47.1644 103.374 49.4779 103.374 49.4779L120.021 138.839L137.682 138.839C137.682 138.839 141.817 43.2818 134.494 23.9282C127.171 4.57455 34.8223 0 34.8223 0L-5.89133e-17 4.57455Z" id="path_1" />
    <path d="M84.7454 49.5705C84.7454 62.2578 71.3773 77.2293 71.3773 77.2293C71.3773 77.2293 72.9912 86.9295 74.6313 96.6293C66.57 100.77 29.0673 108.294 10.9796 104.153L5.22402 47.0167C-2.00689 36.096 -2.45054 19.3241 8.47621 9.45375C25.6005 -6.01498 62.3 3.82705 62.3 3.82705C69.1787 5.19609 84.7454 45.5415 84.7454 49.5705Z" id="path_2" />
    <path d="M11.0417 0L0 25.2802C0 25.2802 11.8072 36.4355 21.1279 29.4581L21.4067 6.24817L11.0417 0Z" transform="matrix(0.9848077 -0.1736482 0.1736482 0.9848077 0 3.717285)" id="path_3" />
    <clipPath id="mask_1">
      <use xlink:href="#path_1" />
    </clipPath>
    <clipPath id="mask_2">
      <use xlink:href="#path_2" />
    </clipPath>
    <clipPath id="mask_3">
      <use xlink:href="#path_3" />
    </clipPath>
  </defs>
  <g id="Group-14-Copy" transform="translate(0.9282227 0.9282227)">
    <g id="Group-12" transform="translate(0 39.49854)">
      <g id="Group-9">
        <path d="M13.2989 0C13.2989 0 23.1875 0.23402 25.0964 7.29308C27.0053 14.3521 25.0964 20.2297 16.8332 28.1303C8.56997 36.0308 25.6799 38.9825 25.6799 50.0631C25.6799 61.1436 14.4723 68.6649 0 61.1436L13.2989 0Z" transform="translate(61.58301 2.92334)" id="Path-3" fill="#1F1950" stroke="none" />
        <g id="Group-6-Copy" transform="translate(57.38525 157.02)">
          <path d="M-5.89133e-17 4.57455C-5.89133e-17 4.57455 0 23.9282 15.259 35.5463C30.518 47.1644 103.374 49.4779 103.374 49.4779L120.021 138.839L137.682 138.839C137.682 138.839 141.817 43.2818 134.494 23.9282C127.171 4.57455 34.8223 0 34.8223 0L-5.89133e-17 4.57455Z" id="Mask" fill="#1250C0" stroke="none" />
          <g clip-path="url(#mask_1)">
            <g id="Group-6-Copy" transform="matrix(-0.7071067 -0.7071068 -0.7071068 0.7071067 142.3833 -7.09033)">
              <path d="M1.86812e-05 0L27.9529 0L27.9529 117.931L0 117.931L1.86812e-05 0Z" transform="matrix(-0.9999999 8.42937E-08 -8.42937E-08 -0.9999999 43.32715 133.2926)" id="Rectangle-9" fill="#00031B" fill-opacity="0.2" stroke="none" />
              <path d="M3.73624e-05 0L27.9529 3.8077e-05L27.9529 117.931L0 117.931L3.73624e-05 0Z" transform="matrix(-0.9999999 8.42937E-08 -8.42937E-08 -0.9999999 35.63965 125.6119)" id="Rectangle-9-Copy" fill="#00031B" fill-opacity="0.1" stroke="none" />
              <path d="M3.73624e-05 0L27.9529 3.8077e-05L27.9529 117.931L0 117.931L3.73624e-05 0Z" transform="matrix(-0.9999999 8.42937E-08 -8.42937E-08 -0.9999999 27.95313 117.9313)" id="Rectangle-9-Copy-2" fill="#00031B" fill-opacity="0.1" stroke="none" />
            </g>
          </g>
        </g>
        <path d="M-5.89133e-17 4.57455C-5.89133e-17 4.57455 0 23.9282 15.259 35.5463C30.518 47.1644 103.374 49.4779 103.374 49.4779L91.7852 138.839L109.447 138.839C109.447 138.839 141.817 43.2818 134.494 23.9282C127.171 4.57455 34.8223 0 34.8223 0L-5.89133e-17 4.57455Z" transform="translate(27.70215 157.02)" id="Path-16" fill="#3C88FE" stroke="none" />
        <g id="Group-11-Copy" transform="matrix(0.9396926 0.3420201 -0.3420201 0.9396926 71.4043 63.44287)">
          <path d="M0 18.7446L14.2129 0L51.49 27.6695C55.7096 30.8015 56.7461 36.6814 53.8516 41.0656C50.9788 45.4168 45.1632 46.6952 40.7282 43.9504L0 18.7446Z" transform="translate(0 -0.0001220703)" id="Path-5" fill="#F18F6C" stroke="none" />
          <path d="M11.9714 26.2924C11.2832 26.5018 10.5729 26.6305 9.85492 26.6758C4.74789 26.9976 0.34668 23.1218 0.0245389 18.0187C-0.387401 11.4932 4.4342 5.80846 10.944 5.14448L61.3822 0L69.4422 8.8005L11.9714 26.2924Z" transform="translate(37.45313 18.4021)" id="Path-8" fill="#F18F6C" stroke="none" />
          <path d="M3.12548e-13 1.84922C3.12548e-13 1.84922 20.1833 3.505e-13 24.1413 1.92782e-13C28.0994 3.51112e-14 43.9872 10.9347 43.9872 13.0656C43.9872 15.1964 32.8066 9.83032 30.453 9.83032C28.0994 9.83032 17.023 12.8777 5.13889 9.83032L3.12548e-13 1.84922Z" transform="translate(96.86328 16.76514)" id="Path-17" fill="#F18F6C" stroke="none" />
        </g>
        <g id="Group" transform="translate(16.72217 60.26318)">
          <path d="M84.7454 49.5705C84.7454 62.2578 71.3773 77.2293 71.3773 77.2293C71.3773 77.2293 72.9912 86.9295 74.6313 96.6293C66.57 100.77 29.0673 108.294 10.9796 104.153L5.22402 47.0167C-2.00689 36.096 -2.45054 19.3241 8.47621 9.45375C25.6005 -6.01498 62.3 3.82705 62.3 3.82705C69.1787 5.19609 84.7454 45.5415 84.7454 49.5705Z" id="Mask" fill="#FEBA5E" stroke="none" />
          <g clip-path="url(#mask_2)">
            <g id="Group" transform="matrix(0.7071068 -0.7071068 0.7071068 0.7071068 47.64307 69.63892)">
              <path d="M47.3177 46.4867L2.46249e-16 46.4867L0 -8.2577e-14L47.3177 46.4867Z" transform="translate(-0.0004882813 2.73584)" id="Path-19" fill="#623A04" fill-opacity="0.4" stroke="none" />
              <path d="M47.3177 46.4867L2.46249e-16 46.4867L0 -8.2577e-14L47.3177 46.4867Z" transform="translate(4.846802 0.03759766)" id="Path-19" fill="#623A04" fill-opacity="0.4" stroke="none" />
              <path d="M47.3177 46.4867L2.46249e-16 46.4867L0 -8.2577e-14L47.3177 46.4867Z" transform="translate(12.35376 -0.0004882813)" id="Path-19" fill="#623A04" fill-opacity="0.4" stroke="none" />
            </g>
          </g>
        </g>
        <path d="M0 0L26.3354 0L28.3113 38.3359Q28.3192 38.4895 28.3178 38.6433Q28.3164 38.7971 28.3056 38.9505Q28.2948 39.104 28.2748 39.2565Q28.2547 39.409 28.2254 39.56Q28.1961 39.711 28.1577 39.86Q28.1193 40.0089 28.072 40.1552Q28.0246 40.3016 27.9684 40.4448Q27.9122 40.588 27.8475 40.7275Q27.7827 40.867 27.7096 41.0023Q27.6365 41.1377 27.5553 41.2683Q27.4741 41.399 27.3851 41.5244Q27.2961 41.6499 27.1997 41.7697Q27.1032 41.8896 26.9997 42.0033Q26.8962 42.1171 26.7859 42.2243Q26.6757 42.3316 26.5591 42.432Q26.4425 42.5323 26.3201 42.6254Q26.1976 42.7185 26.0698 42.804Q25.9419 42.8895 25.8091 42.9671Q25.6762 43.0447 25.539 43.114Q25.4017 43.1834 25.2604 43.2443Q25.1192 43.3052 24.9745 43.3574Q24.8298 43.4096 24.6822 43.4529Q24.5346 43.4963 24.3846 43.5306Q24.2347 43.5648 24.0829 43.59Q23.9312 43.6151 23.7782 43.6309Q23.6252 43.6468 23.4715 43.6533Q23.3178 43.6599 23.164 43.657Q23.0102 43.6542 22.8569 43.6421Q22.7036 43.6299 22.5512 43.6085Q22.3989 43.5871 22.2482 43.5564Q22.0974 43.5258 21.9488 43.4861Q21.8003 43.4463 21.6543 43.3976L0 36.1716L0 0Z" transform="translate(53.98486 8.416504)" id="Rectangle" fill="#FDA181" stroke="none" />
        <g id="Path-10" transform="translate(43.73584 36.75415)">
          <path d="M11.0417 0L0 25.2802C0 25.2802 11.8072 36.4355 21.1279 29.4581L21.4067 6.24817L11.0417 0Z" transform="matrix(0.9848077 -0.1736482 0.1736482 0.9848077 0 3.717285)" id="Mask" fill="#FDA181" stroke="none" />
          <g clip-path="url(#mask_3)">
            <path d="M7.94147 2.83282L0 0L8.75686 11.8555L7.94147 2.83282Z" transform="translate(17.84717 10.32593)" id="Path-10" fill="#CF613B" stroke="none" />
          </g>
        </g>
        <path d="M7.02269 74.01C-1.47669 67.0988 -2.90123 50.5274 6.30473 41.5236C20.6599 27.4837 32.7833 36.1659 44.8242 14.2258C56.865 -7.71424 76.1789 0.329513 83.7408 8.01227C83.6253 20.8259 71.0844 33.5361 54.4104 34.4893C54.3357 36.2614 54.3323 37.9817 54.3554 39.6534L49.1447 61.1779C40.3801 61.7781 31.4745 64.0476 25.1984 69.7169C21.8764 72.7178 19.6054 76.3565 18.2565 80.2747C13.7036 78.9506 9.87201 76.3269 7.02269 74.01Z" id="Combined-Shape" fill="#1F1950" fill-rule="evenodd" stroke="none" />
        <path d="M4.23529 8.46395C6.57438 8.46395 8.47059 6.56923 8.47059 4.23197C8.47059 1.89472 6.57438 0 4.23529 0C1.89621 0 0 1.89472 0 4.23197C0 6.56923 1.89621 8.46395 4.23529 8.46395Z" transform="translate(51.43652 31.03442)" id="Oval" fill="#FDA181" stroke="none" />
        <g id="Group-11" transform="translate(38.73926 96.54102)">
          <path d="M0 18.7446L14.2129 0L51.49 27.6695C55.7096 30.8015 56.7461 36.6814 53.8516 41.0656C50.9788 45.4168 45.1632 46.6952 40.7282 43.9504L0 18.7446Z" id="Path-5" fill="#FDA181" stroke="none" />
          <path d="M11.9714 26.2924C11.2832 26.5018 10.5729 26.6305 9.85492 26.6758C4.74789 26.9976 0.34668 23.1218 0.0245389 18.0187C-0.387401 11.4932 4.4342 5.80846 10.944 5.14448L61.3822 0L69.4422 8.8005L11.9714 26.2924Z" transform="translate(37.45313 18.4021)" id="Path-8" fill="#FDA181" stroke="none" />
          <path d="M3.12548e-13 1.84922C3.12548e-13 1.84922 20.1833 3.505e-13 24.1413 1.92782e-13C28.0994 3.51112e-14 43.9872 10.9347 43.9872 13.0656C43.9872 15.1964 32.8066 9.83032 30.453 9.83032C28.0994 9.83032 17.023 12.8777 5.13889 9.83032L3.12548e-13 1.84922Z" transform="translate(96.86328 16.76489)" id="Path-17" fill="#FDA181" stroke="none" />
        </g>
        <path d="M8.33765 30.9746L20.1809 24.9274C20.1809 24.9274 10.6909 5.15463 0 0L8.33765 30.9746Z" transform="translate(79.02246 64.09009)" id="Path-18" fill="#FEBA5E" stroke="none" />
        <path d="M25.1626 1.03574e-13C25.1626 1.03574e-13 34.8679 1.03574e-13 42.3529 1.03574e-13L46.1975 29.1536L9.84759e-13 29.1536L27.3016 11.3622L25.1626 1.03574e-13Z" transform="matrix(-1 0 0 1 161.8398 295.8591)" id="Path-70" fill="#1D1B56" stroke="none" />
        <path d="M30.8097 1.03574e-13C30.8097 1.03574e-13 40.5149 1.03574e-13 48 1.03574e-13L46.1975 29.1536L-1.47049e-13 29.1536L28.2428 11.3622L30.8097 1.03574e-13Z" transform="matrix(-1 0 0 1 225.877 295.8591)" id="Path-70-Copy-2" fill="#1D1B56" stroke="none" />
        <path d="M0 0L16.0952 9.8148" transform="translate(26.86572 108.1477)" id="Path-20" fill="none" stroke="#1D1B56" stroke-width="0.9375" />
        <path d="M0 0L6.15157 13.4682" transform="translate(91.16943 83.07275)" id="Path-21" fill="none" stroke="#1D1B56" stroke-width="0.9375" />
        <path d="M-3.20816e-13 2.48423C-3.20816e-13 2.48423 22.1125 83.1577 22.1125 83.1577C26.0331 97.461 39.042 107.378 53.8836 107.378C53.8836 107.378 114.159 107.378 114.159 107.378C114.159 107.378 114.159 105.497 114.159 105.497C101.372 103.901 53.8836 97.9739 53.8836 97.9739C43.2824 97.9739 33.9904 90.8901 31.19 80.6735L11.566 9.07913C10.1916 4.06486 9.07746 0 9.07746 0C9.07746 0 -3.20816e-13 2.48423 -3.20816e-13 2.48423Z" transform="translate(2.990723 98.70605)" id="Path-23" fill="#2D2664" stroke="none" />
      </g>
      <g id="Group-8-Copy" transform="translate(328.4707 209.7178)">
        <path d="M0 0C13.2959 13.5695 19.057 27.8952 17.2832 42.977" transform="translate(33.87842 72.32764)" id="Shape" fill="none" stroke="#000000" stroke-width="1.153845" />
        <path d="M0.0166551 27.6531C-0.195184 22.9009 1.61379 13.6832 5.44357 0L5.44357 0" transform="translate(51.02441 76.30762)" id="Path" fill="none" stroke="#000000" stroke-width="1.153845" />
        <path d="M3.75866 37.7083C1.51684 32.4256 0.263953 19.8562 0 0L0 0" transform="translate(44.21582 55.08813)" id="Path" fill="none" stroke="#000000" stroke-width="1.153845" />
        <path d="M4.78827 68.1832C-2.24614 44.1309 -1.5299 21.4032 6.93699 0C11.1672 3.54079 13.1563 11.9219 12.9043 25.1432C12.6523 38.3645 9.94693 52.7112 4.78827 68.1832Z" transform="translate(39.70508 0)" id="Path-13" fill="#1450C0" stroke="none" />
        <path d="M0.00653323 50.5591C-0.228372 25.1667 5.87134 8.31363 18.3057 0C19.7741 2.53369 18.5073 9.71243 14.5053 21.5362C10.5032 33.36 5.6703 43.0343 0.00653323 50.5591Z" transform="translate(52.07861 42.44385)" id="Path-14" fill="#1450C0" stroke="none" />
        <path d="M39.4744 46.8895C27.7176 40.9304 18.8011 34.5903 12.7249 27.8691C6.64874 21.1478 2.4071 11.8581 0 0C15.5259 8.90522 28.6841 24.535 39.4744 46.8895Z" transform="translate(0 31.30762)" id="Path-15" fill="#3D89FE" stroke="none" />
      </g>
      <path d="M20.7059 -7.41055e-14L28.9882 -7.41055e-14L4.14118 121.188L0 121.188L20.7059 -7.41055e-14Z" transform="translate(25.41162 204.2034)" id="Rectangle" fill="#2D2664" stroke="none" />
      <path d="M20.7059 -7.41055e-14L28.9882 -7.41055e-14L4.14118 121.188L0 121.188L20.7059 -7.41055e-14Z" transform="matrix(-1 0 0 1 127.8115 204.2034)" id="Rectangle" fill="#2D2664" stroke="none" />
      <path d="M24.8471 3.28891e-15L33.1294 3.28891e-15L4.14118 180.564L1.00044e-12 180.564L24.8471 3.28891e-15Z" transform="translate(102.3999 144.8276)" id="Rectangle-Copy" fill="#FEBA5E" stroke="none" />
      <path d="M24.8471 3.28891e-15L33.1294 3.28891e-15L4.14118 180.564L1.95491e-12 180.564L24.8471 3.28891e-15Z" transform="matrix(-1 0 0 1 331.8589 144.8276)" id="Rectangle-Copy" fill="#FEBA5E" stroke="none" />
      <path d="M0 0L235.671 0L235.671 7.52351L0 7.52351L0 0Z" transform="translate(100.3296 142.9468)" id="Rectangle" fill="#2D2664" stroke="none" />
      <g id="Group-50" transform="matrix(-1 0 0 1 250.353 92.16309)">
        <path d="M0 0L64.7166 0L74.8285 50.4528L10.112 50.4528L0 0Z" id="Rectangle-13" fill="#FEBA5E" stroke="none" />
        <path d="M4.09273 11.5331C6.35786 11.5298 8.198 8.94527 8.20278 5.76047C8.20757 2.57569 6.37519 -0.00335926 4.11006 3.77444e-06C1.84492 0.00337058 0.00479061 2.58787 9.50518e-06 5.77265C-0.0047773 8.95744 1.82759 11.5365 4.09273 11.5331Z" transform="matrix(0.9396926 -0.3420201 0.3420201 0.9396926 28.5708 23.37256)" id="Oval-12" fill="#F1F4F8" stroke="none" />
        <path d="M0 2.01811L74.4758 2.01811" transform="translate(10.04443 48.01782)" id="Path-29" fill="none" stroke="#FEBA5E" stroke-width="1.60944521" />
      </g>
    </g>
    <g id="Group-63" transform="translate(118.5884 67.71167)">
      <path d="M12.749 0L171.722 0Q172.035 0 172.347 0.0153567Q172.66 0.0307135 172.971 0.0613899Q173.283 0.0920664 173.592 0.137989Q173.902 0.183911 174.209 0.244968Q174.516 0.306026 174.819 0.382071Q175.123 0.458117 175.422 0.548968Q175.722 0.639818 176.017 0.745255Q176.311 0.850691 176.6 0.97046Q176.89 1.09023 177.172 1.22404Q177.455 1.35785 177.731 1.50539Q178.007 1.65292 178.276 1.81382Q178.544 1.97472 178.805 2.14859Q179.065 2.32247 179.316 2.50891Q179.568 2.69534 179.809 2.89389Q180.051 3.09244 180.283 3.30261Q180.515 3.51279 180.736 3.7341Q180.958 3.9554 181.168 4.18729Q181.378 4.41919 181.577 4.66112Q181.775 4.90305 181.962 5.15443Q182.148 5.40581 182.322 5.66603Q182.496 5.92626 182.657 6.1947Q182.818 6.46315 182.965 6.73916Q183.113 7.01518 183.247 7.2981Q183.38 7.58102 183.5 7.87017Q183.62 8.15932 183.725 8.45399Q183.831 8.74867 183.922 9.04816Q184.012 9.34765 184.089 9.65125Q184.165 9.95484 184.226 10.2618Q184.287 10.5687 184.333 10.8783Q184.379 11.1879 184.409 11.4994Q184.44 11.8108 184.455 12.1234Q184.471 12.436 184.471 12.749L184.471 25.6007Q184.471 25.9137 184.455 26.2263Q184.44 26.5389 184.409 26.8504Q184.379 27.1618 184.333 27.4714Q184.287 27.781 184.226 28.0879Q184.165 28.3949 184.089 28.6985Q184.012 29.0021 183.922 29.3016Q183.831 29.6011 183.725 29.8958Q183.62 30.1904 183.5 30.4796Q183.38 30.7687 183.247 31.0516Q183.113 31.3346 182.965 31.6106Q182.818 31.8866 182.657 32.155Q182.496 32.4235 182.322 32.6837Q182.148 32.9439 181.962 33.1953Q181.775 33.4467 181.577 33.6886Q181.378 33.9306 181.168 34.1624Q180.958 34.3943 180.736 34.6157Q180.515 34.837 180.283 35.0471Q180.051 35.2573 179.809 35.4559Q179.568 35.6544 179.316 35.8408Q179.065 36.0273 178.805 36.2011Q178.544 36.375 178.276 36.5359Q178.007 36.6968 177.731 36.8444Q177.455 36.9919 177.172 37.1257Q176.89 37.2595 176.6 37.3793Q176.311 37.499 176.017 37.6045Q175.722 37.7099 175.422 37.8008Q175.123 37.8916 174.819 37.9677Q174.516 38.0437 174.209 38.1048Q173.902 38.1658 173.592 38.2118Q173.283 38.2577 172.971 38.2884Q172.66 38.319 172.347 38.3344Q172.035 38.3497 171.722 38.3497L148.057 38.3497L141.068 48.9028L131.538 38.3497L12.749 38.3497Q12.436 38.3497 12.1234 38.3344Q11.8108 38.319 11.4994 38.2884Q11.1879 38.2577 10.8783 38.2118Q10.5687 38.1658 10.2618 38.1048Q9.95484 38.0437 9.65125 37.9677Q9.34765 37.8916 9.04816 37.8008Q8.74867 37.7099 8.45399 37.6045Q8.15932 37.499 7.87017 37.3793Q7.58102 37.2595 7.2981 37.1257Q7.01518 36.9919 6.73916 36.8444Q6.46315 36.6968 6.1947 36.5359Q5.92626 36.375 5.66603 36.2011Q5.40581 36.0273 5.15443 35.8408Q4.90305 35.6544 4.66112 35.4559Q4.41919 35.2573 4.18729 35.0471Q3.9554 34.837 3.7341 34.6156Q3.51279 34.3943 3.30261 34.1624Q3.09244 33.9306 2.89389 33.6886Q2.69534 33.4467 2.50891 33.1953Q2.32247 32.9439 2.14859 32.6837Q1.97472 32.4235 1.81382 32.155Q1.65292 31.8866 1.50539 31.6106Q1.35785 31.3346 1.22404 31.0516Q1.09023 30.7687 0.97046 30.4796Q0.850691 30.1904 0.745255 29.8958Q0.639818 29.6011 0.548968 29.3016Q0.458117 29.0021 0.382071 28.6985Q0.306026 28.3949 0.244968 28.0879Q0.183911 27.781 0.137989 27.4714Q0.0920664 27.1618 0.0613899 26.8504Q0.0307135 26.5389 0.0153567 26.2263Q0 25.9137 0 25.6007L0 12.749Q0 12.436 0.0153567 12.1234Q0.0307135 11.8108 0.0613899 11.4994Q0.0920664 11.1879 0.137989 10.8783Q0.183911 10.5687 0.244968 10.2618Q0.306026 9.95484 0.382071 9.65125Q0.458117 9.34765 0.548968 9.04816Q0.639818 8.74867 0.745255 8.45399Q0.850691 8.15932 0.97046 7.87017Q1.09023 7.58102 1.22404 7.2981Q1.35785 7.01518 1.50539 6.73916Q1.65292 6.46315 1.81382 6.1947Q1.97472 5.92626 2.14859 5.66603Q2.32247 5.40581 2.50891 5.15443Q2.69534 4.90305 2.89389 4.66112Q3.09244 4.41919 3.30261 4.18729Q3.51279 3.9554 3.7341 3.7341Q3.9554 3.51279 4.18729 3.30261Q4.41919 3.09244 4.66112 2.89389Q4.90305 2.69534 5.15443 2.50891Q5.40581 2.32247 5.66603 2.14859Q5.92626 1.97472 6.1947 1.81382Q6.46315 1.65292 6.73916 1.50539Q7.01518 1.35785 7.2981 1.22404Q7.58102 1.09023 7.87017 0.97046Q8.15932 0.850691 8.45399 0.745255Q8.74867 0.639818 9.04816 0.548968Q9.34766 0.458117 9.65125 0.382071Q9.95484 0.306026 10.2618 0.244968Q10.5688 0.183911 10.8783 0.137989Q11.1879 0.0920664 11.4994 0.0613899Q11.8108 0.0307135 12.1234 0.0153567Q12.436 0 12.749 0Z" transform="matrix(-1 0 0 1 184.4707 0)" id="Rectangle-48" fill="#504A86" stroke="none" />
      <path d="M0 0.940439L45.1765 0.940439" transform="translate(24.4707 11.28516)" id="Path-44" fill="none" stroke="#1D1B56" stroke-width="0.9375" />
      <path d="M0 0.940439L84.7059 0.940439" transform="translate(24.4707 22.57056)" id="Path-44-Copy" fill="none" stroke="#1D1B56" stroke-width="0.9375" />
    </g>
    <g id="Group-62" transform="translate(188.2354 0)">
      <path d="M12.749 0L171.722 0Q172.035 0 172.347 0.0153567Q172.66 0.0307135 172.971 0.0613899Q173.283 0.0920664 173.592 0.137989Q173.902 0.183911 174.209 0.244968Q174.516 0.306026 174.819 0.382071Q175.123 0.458117 175.422 0.548968Q175.722 0.639818 176.017 0.745255Q176.311 0.850691 176.6 0.97046Q176.89 1.09023 177.172 1.22404Q177.455 1.35785 177.731 1.50539Q178.007 1.65292 178.276 1.81382Q178.544 1.97472 178.805 2.14859Q179.065 2.32247 179.316 2.50891Q179.568 2.69534 179.809 2.89389Q180.051 3.09244 180.283 3.30261Q180.515 3.51279 180.736 3.7341Q180.958 3.9554 181.168 4.18729Q181.378 4.41919 181.577 4.66112Q181.775 4.90305 181.962 5.15443Q182.148 5.40581 182.322 5.66603Q182.496 5.92626 182.657 6.1947Q182.818 6.46315 182.965 6.73916Q183.113 7.01518 183.247 7.2981Q183.38 7.58102 183.5 7.87017Q183.62 8.15932 183.725 8.45399Q183.831 8.74867 183.922 9.04816Q184.012 9.34765 184.089 9.65125Q184.165 9.95484 184.226 10.2618Q184.287 10.5687 184.333 10.8783Q184.379 11.1879 184.409 11.4994Q184.44 11.8108 184.455 12.1234Q184.471 12.436 184.471 12.749L184.471 25.6007Q184.471 25.9137 184.455 26.2263Q184.44 26.5389 184.409 26.8504Q184.379 27.1618 184.333 27.4714Q184.287 27.781 184.226 28.0879Q184.165 28.3949 184.089 28.6985Q184.012 29.0021 183.922 29.3016Q183.831 29.6011 183.725 29.8958Q183.62 30.1904 183.5 30.4796Q183.38 30.7687 183.247 31.0516Q183.113 31.3346 182.965 31.6106Q182.818 31.8866 182.657 32.155Q182.496 32.4235 182.322 32.6837Q182.148 32.9439 181.962 33.1953Q181.775 33.4467 181.577 33.6886Q181.378 33.9306 181.168 34.1624Q180.958 34.3943 180.736 34.6157Q180.515 34.837 180.283 35.0471Q180.051 35.2573 179.809 35.4559Q179.568 35.6544 179.316 35.8408Q179.065 36.0273 178.805 36.2011Q178.544 36.375 178.276 36.5359Q178.007 36.6968 177.731 36.8444Q177.455 36.9919 177.172 37.1257Q176.89 37.2595 176.6 37.3793Q176.311 37.499 176.017 37.6045Q175.722 37.7099 175.422 37.8008Q175.123 37.8916 174.819 37.9677Q174.516 38.0437 174.209 38.1048Q173.902 38.1658 173.592 38.2118Q173.283 38.2577 172.971 38.2884Q172.66 38.319 172.347 38.3344Q172.035 38.3497 171.722 38.3497L148.057 38.3497L141.068 48.9028L131.538 38.3497L12.749 38.3497Q12.436 38.3497 12.1234 38.3344Q11.8108 38.319 11.4994 38.2884Q11.1879 38.2577 10.8783 38.2118Q10.5687 38.1658 10.2618 38.1048Q9.95484 38.0437 9.65125 37.9677Q9.34765 37.8916 9.04816 37.8008Q8.74867 37.7099 8.45399 37.6045Q8.15932 37.499 7.87017 37.3793Q7.58102 37.2595 7.2981 37.1257Q7.01518 36.9919 6.73916 36.8444Q6.46315 36.6968 6.1947 36.5359Q5.92626 36.375 5.66603 36.2011Q5.40581 36.0273 5.15443 35.8408Q4.90305 35.6544 4.66112 35.4559Q4.41919 35.2573 4.18729 35.0471Q3.9554 34.837 3.7341 34.6156Q3.51279 34.3943 3.30261 34.1624Q3.09244 33.9306 2.89389 33.6886Q2.69534 33.4467 2.50891 33.1953Q2.32247 32.9439 2.14859 32.6837Q1.97472 32.4235 1.81382 32.155Q1.65292 31.8866 1.50539 31.6106Q1.35785 31.3346 1.22404 31.0516Q1.09023 30.7687 0.97046 30.4796Q0.850691 30.1904 0.745255 29.8958Q0.639818 29.6011 0.548968 29.3016Q0.458117 29.0021 0.382071 28.6985Q0.306026 28.3949 0.244968 28.0879Q0.183911 27.781 0.137989 27.4714Q0.0920664 27.1618 0.0613899 26.8504Q0.0307135 26.5389 0.0153567 26.2263Q0 25.9137 0 25.6007L0 12.749Q0 12.436 0.0153567 12.1234Q0.0307135 11.8108 0.0613899 11.4994Q0.0920664 11.1879 0.137989 10.8783Q0.183911 10.5687 0.244968 10.2618Q0.306026 9.95484 0.382071 9.65125Q0.458117 9.34765 0.548968 9.04816Q0.639818 8.74867 0.745255 8.45399Q0.850691 8.15932 0.97046 7.87017Q1.09023 7.58102 1.22404 7.2981Q1.35785 7.01518 1.50539 6.73916Q1.65292 6.46315 1.81382 6.1947Q1.97472 5.92626 2.14859 5.66603Q2.32247 5.40581 2.50891 5.15443Q2.69534 4.90305 2.89389 4.66112Q3.09244 4.41919 3.30261 4.18729Q3.51279 3.9554 3.7341 3.7341Q3.9554 3.51279 4.18729 3.30261Q4.41919 3.09244 4.66112 2.89389Q4.90305 2.69534 5.15443 2.50891Q5.40581 2.32247 5.66603 2.14859Q5.92626 1.97472 6.1947 1.81382Q6.46315 1.65292 6.73916 1.50539Q7.01518 1.35785 7.2981 1.22404Q7.58102 1.09023 7.87017 0.97046Q8.15932 0.850691 8.45399 0.745255Q8.74867 0.639818 9.04816 0.548968Q9.34766 0.458117 9.65125 0.382071Q9.95484 0.306026 10.2618 0.244968Q10.5688 0.183911 10.8783 0.137989Q11.1879 0.0920664 11.4994 0.0613899Q11.8108 0.0307135 12.1234 0.0153567Q12.436 0 12.749 0Z" id="Rectangle-48-Copy" fill="#FEBA5E" stroke="none" />
      <path d="M0 0.940439L45.1765 0.940439" transform="translate(26.35303 11.28516)" id="Path-44" fill="none" stroke="#1D1B56" stroke-width="0.9375" />
      <path d="M0 0.940439L84.7059 0.940439" transform="translate(26.35303 22.57056)" id="Path-44-Copy" fill="none" stroke="#1D1B56" stroke-width="0.9375" />
    </g>
  </g>
</svg>