<svg width="505px" height="334px" viewBox="0 0 505 334" version="1.1" xmlns:xlink="http://www.w3.org/1999/xlink" xmlns="http://www.w3.org/2000/svg">
  <defs>
    <linearGradient x1="0.5056236" y1="1.11236644" x2="0.5056236" y2="0.589001536" id="gradient_1">
      <stop offset="0" stop-color="#F3F6F9" />
      <stop offset="1" stop-color="#E4EAF1" />
    </linearGradient>
    <filter filterUnits="userSpaceOnUse" color-interpolation-filters="sRGB" id="filter_1">
      <feFlood flood-opacity="0" result="BackgroundImageFix" />
      <feColorMatrix in="SourceAlpha" type="matrix" values="0 0 0 0 0 0 0 0 0 0 0 0 0 0 0 0 0 0 127 0" />
      <feOffset dx="0" dy="-14" />
      <feGaussianBlur stdDeviation="17" />
      <feColorMatrix type="matrix" values="0 0 0 0 0.1882353 0 0 0 0 0.282353 0 0 0 0 0.3411765 0 0 0 0.07450981 0" />
      <feBlend mode="normal" in2="BackgroundImageFix" result="effect0_dropShadow" />
      <feBlend mode="normal" in="SourceGraphic" in2="effect0_dropShadow" result="shape" />
    </filter>
    <filter filterUnits="userSpaceOnUse" color-interpolation-filters="sRGB" id="filter_2">
      <feFlood flood-opacity="0" result="BackgroundImageFix" />
      <feColorMatrix in="SourceAlpha" type="matrix" values="0 0 0 0 0 0 0 0 0 0 0 0 0 0 0 0 0 0 127 0" />
      <feOffset dx="0" dy="-11" />
      <feGaussianBlur stdDeviation="13.5" />
      <feColorMatrix type="matrix" values="0 0 0 0 0.1882353 0 0 0 0 0.282353 0 0 0 0 0.3411765 0 0 0 0.07450981 0" />
      <feBlend mode="normal" in2="BackgroundImageFix" result="effect0_dropShadow" />
      <feBlend mode="normal" in="SourceGraphic" in2="effect0_dropShadow" result="shape" />
    </filter>
    <path d="M0 19.1049L37.1131 -1.59177e-12C84.0124 14.9456 112.367 24.8982 122.176 29.8579C131.986 34.8176 129.283 44.9768 112.068 56.8714C64.6544 51.5802 33.8167 44.5813 21.5548 39.3389C9.29281 34.0965 2.10789 27.3518 0 19.1049Z" transform="matrix(0.8660254 0.5 -0.5 0.8660254 28.78077 0.9698753)" id="path_1" />
    <path d="M22.2143 7.55413e-11C22.2143 7.55413e-11 37.9566 18.648 54.1411 41.271C60.2142 49.2814 60.8288 66.6285 41.5216 54.6646C22.2143 42.7007 2.01338e-11 13.1029 2.01338e-11 13.1029L22.2143 7.55413e-11Z" transform="matrix(-0.3420201 0.9396926 -0.9396926 -0.3420201 75.45962 20.21296)" id="path_2" />
    <path d="M0 0L38.5864 6.34447L11.8248 22.2957L8.83635 15.9589L0 19.2703L5.78559 6.34447L0 0Z" transform="translate(0.05189516 0.389168)" id="path_3" />
    <path d="M0 0L30.6712 4.96524L9.39919 17.4488L7.02377 12.4895L0 15.0811L4.5988 4.96524L0 0Z" transform="translate(0.04125 0.3045663)" id="path_4" />
    <clipPath id="mask_1">
      <use xlink:href="#path_1" />
    </clipPath>
    <clipPath id="mask_2">
      <use xlink:href="#path_2" />
    </clipPath>
    <clipPath id="mask_3">
      <use xlink:href="#path_3" />
    </clipPath>
    <clipPath id="mask_4">
      <use xlink:href="#path_4" />
    </clipPath>
  </defs>
  <g id="Group-3" transform="translate(2.161133 2.161377)">
    <path d="M0 183C0 183 31.2328 19.659 77.156 19.659C123.079 19.659 110.48 77.6473 153.034 82.0503C195.589 86.4532 179.817 1.76981e-15 217.139 0C254.461 0 254.661 74.3879 314.635 69.7786C374.609 65.1693 342.437 -2.53964e-15 396.947 0C440.646 2.53964e-15 403.8 122.22 461.817 122.22C519.835 122.22 489.697 183 489.697 183L0 183Z" transform="translate(0 146)" id="Path-11" fill="url(#gradient_1)" stroke="none" />
    <g id="Group-8-Copy" transform="translate(29 225)">
      <path d="M0 0C11.6811 11.8924 16.7424 24.4475 15.1841 37.6652" transform="translate(29.76396 63.38828)" id="Shape" fill="none" stroke="#000000" stroke-width="1.26922941" />
      <path d="M0.0146323 24.2353C-0.171478 20.0705 1.41779 11.992 4.78243 0L4.78243 0" transform="translate(44.82713 66.87633)" id="Path" fill="none" stroke="#000000" stroke-width="1.26922941" />
      <path d="M3.30216 33.0477C1.33261 28.4179 0.231895 17.402 0 0L0 0" transform="translate(38.84579 48.2795)" id="Path" fill="none" stroke="#000000" stroke-width="1.26922941" />
      <path d="M4.20672 59.7561C-1.97334 38.6765 -1.34409 18.7578 6.09447 0C9.81089 3.10316 11.5584 10.4484 11.337 22.0356C11.1156 33.6228 8.73885 46.1963 4.20672 59.7561Z" transform="translate(34.88266 -2.842171E-14)" id="Path-13" fill="#1450C0" stroke="none" />
      <path d="M0.00573975 44.3103C-0.200636 22.0562 5.15824 7.2861 16.0824 0C17.3725 2.22053 16.2595 8.51202 12.7435 18.8745C9.22756 29.2369 4.98162 37.7155 0.00573975 44.3103Z" transform="translate(45.75356 37.19802)" id="Path-14" fill="#1450C0" stroke="none" />
      <path d="M34.6801 41.0942C24.3512 35.8716 16.5177 30.3151 11.1794 24.4246C5.84123 18.534 2.11475 10.3925 0 0C13.6403 7.80457 25.2003 21.5026 34.6801 41.0942Z" transform="translate(1.705303E-13 27.43804)" id="Path-15" fill="#3D89FE" stroke="none" />
    </g>
    <g id="Group-27" transform="translate(66 0)">
      <path d="M11.6325 3.11372C17.2464 1.03791 20.7329 0 22.092 0C23.1372 0 21.5041 0.791701 19.4236 2.25664C25.2592 2.66174 40.2001 4.10103 40.2001 4.82719C40.2001 5.39004 36.4417 6.05056 28.9247 6.80874C34.6076 8.39026 37.2538 9.42172 36.8631 9.90311C34.1947 13.1913 15.1905 15.5369 3.92858 15.5369L0 5.67146C4.76405 4.55973 8.64156 3.70715 11.6325 3.11372Z" transform="translate(199.5267 67.57285)" id="Path" fill="#FDA181" stroke="none" />
      <g id="Group-34" transform="translate(40.07279 120.7321)">
        <g id="Group-73">
          <path d="M0 19.1049L37.1131 -1.59177e-12C84.0124 14.9456 112.367 24.8982 122.176 29.8579C131.986 34.8176 129.283 44.9768 112.068 56.8714C64.6544 51.5802 33.8167 44.5813 21.5548 39.3389C9.29281 34.0965 2.10789 27.3518 0 19.1049Z" transform="matrix(0.8660254 0.5 -0.5 0.8660254 28.78077 0.9698753)" id="Mask" fill="#504A86" stroke="none" />
          <g clip-path="url(#mask_1)">
            <g id="Group-73" transform="matrix(-0.6427876 -0.7660444 -0.7660444 0.6427876 109.3179 49.30084)">
              <path d="M-2.60949e-13 -8.56825e-18L18.7148 0.0100065L18.7571 79.0282L0.0422495 79.0182L-2.60949e-13 -8.56825e-18Z" transform="matrix(0.7071068 0.7071068 -0.7071068 0.7071068 56.64037 0.7968268)" id="Rectangle-9" fill="#00031B" fill-opacity="0.2" stroke="none" />
              <path d="M-2.60941e-13 -8.56825e-18L18.7148 0.0100065L18.7571 79.0282L0.0422495 79.0182L-2.60941e-13 -8.56825e-18Z" transform="matrix(0.7071068 0.7071068 -0.7071068 0.7071068 56.64037 8.078706)" id="Rectangle-9-Copy" fill="#00031B" fill-opacity="0.1" stroke="none" />
              <path d="M-2.60949e-13 -8.56825e-18L18.7148 0.0100065L18.7571 79.0282L0.0422495 79.0182L-2.60949e-13 -8.56825e-18Z" transform="matrix(0.7071068 0.7071068 -0.7071068 0.7071068 56.64037 15.36059)" id="Rectangle-9-Copy-2" fill="#00031B" fill-opacity="0.1" stroke="none" />
            </g>
          </g>
        </g>
        <g id="Group-55-Copy-3" transform="translate(83.4539 184.1128)">
          <path d="M3 0L0.743994 15.0474Q0.726773 15.1623 0.715747 15.2779Q0.70472 15.3935 0.69992 15.5096Q0.69512 15.6256 0.696559 15.7417Q0.697999 15.8579 0.705675 15.9738Q0.71335 16.0897 0.727239 16.205Q0.741129 16.3203 0.761191 16.4347Q0.781254 16.5491 0.807433 16.6622Q0.833611 16.7754 0.86583 16.887Q0.898049 16.9986 0.936215 17.1083Q0.97438 17.218 1.01838 17.3255Q1.06239 17.4329 1.1121 17.5379Q1.16181 17.6429 1.21709 17.745Q1.27237 17.8472 1.33305 17.9462Q1.39374 18.0452 1.45966 18.1409Q1.52557 18.2365 1.59653 18.3284Q1.66749 18.4204 1.74329 18.5084Q1.81908 18.5964 1.89949 18.6802Q1.9799 18.764 2.0647 18.8434Q2.1495 18.9228 2.23844 18.9975Q2.32738 19.0722 2.4202 19.142Q2.51302 19.2118 2.60946 19.2765Q2.7059 19.3412 2.80567 19.4007Q2.90545 19.4601 3.00827 19.5141Q3.1111 19.5682 3.21667 19.6166Q3.32225 19.665 3.43028 19.7076Q3.5383 19.7503 3.64846 19.7871Q3.75862 19.8239 3.8706 19.8547Q3.98258 19.8856 4.09605 19.9104Q4.20952 19.9351 4.32416 19.9538Q4.4388 19.9724 4.55428 19.9849Q4.66975 19.9973 4.78573 20.0036Q4.90171 20.0098 5.01786 20.0098L35.3859 20.0098L35.0178 15.982Q34.9921 15.7011 34.9465 15.4227Q34.9009 15.1443 34.8356 14.8699Q34.7704 14.5954 34.6857 14.3263Q34.6011 14.0572 34.4976 13.7948Q34.394 13.5324 34.2721 13.278Q34.1501 13.0236 34.0104 12.7785Q33.8707 12.5335 33.7139 12.299Q33.557 12.0644 33.384 11.8417Q33.2109 11.6189 33.0224 11.409Q32.8339 11.1991 32.631 11.0032Q32.428 10.8072 32.2117 10.6262Q31.9953 10.4452 31.7666 10.28Q31.5379 10.1148 31.2981 9.96628Q31.0582 9.81777 30.8084 9.6867Q30.5586 9.55563 30.3001 9.44265Q30.0416 9.32968 29.7758 9.23537L14.9253 3.96783L15.7659 0L3 0Z" transform="translate(0.9671044 0.5339652)" id="Path-32" fill="#1F1950" stroke="none" />
          <path d="M0 1.6438L31.5237 1.6438" transform="translate(3.183697 17.60612)" id="Path-33" fill="none" stroke="#403B6C" stroke-width="4.32262754" stroke-linecap="round" stroke-linejoin="round" />
        </g>
        <path d="M77.6595 -1.38281e-12C99.5455 1.40588 108.193 8.24542 101.603 17.0545C95.0133 25.8636 63.4909 36.6846 7.03597 49.5176L-2.36104e-12 32.9267L77.6595 -1.38281e-12Z" transform="matrix(0.5 -0.8660254 0.8660254 0.5 54.89822 168.931)" id="Path-48-Copy" fill="#504A86" stroke="none" />
      </g>
      <path d="M22.2143 0L54.1411 41.271L92.6805 63.91L89.8201 74.8001C89.8201 74.8001 60.8288 66.6285 41.5216 54.6646C22.2143 42.7007 0 13.1029 0 13.1029L22.2143 0Z" transform="matrix(0.8660254 -0.5 0.5 0.8660254 92.03507 63.18077)" id="Path-79" fill="#FEBA5E" stroke="none" />
      <g id="Group" transform="translate(35.83586 33.9747)" />
      <g id="Group" transform="translate(35.32274 96.34882)" />
      <g id="Group-31" transform="translate(91.52668 0)">
        <path d="M37.8415 8.26179L41.0782 27.4643L34.4622 27.8701L20.5882 38.3955L19.1679 45.38C18.1532 50.3699 13.2899 53.5916 8.30525 52.5758C8.01672 52.517 7.73118 52.4444 7.44959 52.3582C2.03719 50.7017 -1.09735 45.0568 0.354403 39.5806L10.8473 0L37.8415 8.26179Z" transform="matrix(0.9848077 -0.1736482 0.1736482 0.9848077 0.7309413 13.06036)" id="Path-21" fill="#FDA181" stroke="none" />
        <path d="M9.1412 29.8125L0 32.033L5.47786 1.98941C21.7476 -2.95782 32.7973 1.32196 38.627 14.8287L23.2205 10.1135L16.8503 30.9716L31.1123 32.963L26.2704 46.0848C18.9703 45.4621 13.7385 42.818 10.5752 38.1524L13.882 27.3248C14.4896 25.3354 13.3521 23.2239 11.3413 22.6085C9.33062 21.9931 7.20809 23.1069 6.60054 25.0962C5.99299 27.0855 7.13048 29.1971 9.1412 29.8125Z" transform="matrix(0.9848077 -0.1736482 0.1736482 0.9848077 3.291044 7.703818)" id="Path" fill="#1F1950" stroke="none" />
      </g>
      <g id="Group-55-Copy-3" transform="matrix(0.7660444 0.6427876 -0.6427876 0.7660444 41.74345 279.5516)">
        <path d="M0 0L0 15.6882Q0 15.7943 0.00520559 15.9002Q0.0104112 16.0062 0.0208098 16.1118Q0.0312085 16.2174 0.0467751 16.3223Q0.0623417 16.4272 0.0830389 16.5313Q0.103736 16.6353 0.129514 16.7382Q0.155292 16.8412 0.186088 16.9427Q0.216884 17.0442 0.252625 17.1441Q0.288365 17.244 0.328964 17.342Q0.369563 17.44 0.414922 17.5359Q0.460282 17.6318 0.510292 17.7254Q0.560303 17.8189 0.614844 17.9099Q0.669385 18.0009 0.728325 18.0891Q0.787266 18.1774 0.850464 18.2626Q0.913661 18.3478 0.980964 18.4298Q1.04827 18.5118 1.11951 18.5904Q1.19076 18.669 1.26578 18.744Q1.34079 18.819 1.4194 18.8903Q1.49801 18.9615 1.58002 19.0288Q1.66202 19.0961 1.74724 19.1593Q1.83245 19.2225 1.92066 19.2815Q2.00887 19.3404 2.09987 19.395Q2.19086 19.4495 2.28443 19.4995Q2.37799 19.5495 2.47389 19.5949Q2.5698 19.6402 2.66781 19.6808Q2.76583 19.7214 2.86571 19.7572Q2.9656 19.7929 3.06713 19.8237Q3.16865 19.8545 3.27156 19.8803Q3.37447 19.9061 3.47852 19.9268Q3.58257 19.9475 3.68751 19.963Q3.79246 19.9786 3.89803 19.989Q4.00361 19.9994 4.10958 20.0046Q4.21554 20.0098 4.32163 20.0098L35.3859 20.0098L35.0256 16.0679Q34.9996 15.7831 34.9531 15.501Q34.9066 15.2189 34.8399 14.9409Q34.7733 14.6629 34.6867 14.3904Q34.6002 14.1179 34.4942 13.8523Q34.3882 13.5868 34.2634 13.3296Q34.1386 13.0723 33.9955 12.8248Q33.8525 12.5772 33.692 12.3406Q33.5314 12.104 33.3543 11.8796Q33.1772 11.6552 32.9843 11.4441Q32.7914 11.2331 32.5839 11.0364Q32.3763 10.8398 32.1551 10.6587Q31.9339 10.4775 31.7002 10.3128Q31.4665 10.1481 31.2216 10.0006Q30.9766 9.85312 30.7217 9.7237Q30.4667 9.59427 30.2031 9.48355Q29.9395 9.37284 29.6686 9.2814L13.9253 3.96783L12.7659 0L0 0Z" transform="translate(0.9671044 0.5339652)" id="Path-32" fill="#1F1950" stroke="none" />
        <path d="M0 1.6438L31.5237 1.6438" transform="translate(3.183697 17.60612)" id="Path-33" fill="none" stroke="#403B6C" stroke-width="4.32262754" stroke-linecap="round" stroke-linejoin="round" />
      </g>
      <path d="M62.179 0C84.065 1.40588 91.0604 10.3213 84.4703 19.1304C77.8802 27.9395 56.3821 34.547 4.43789 52.0788L-6.2895e-12 33.9879L62.179 0Z" transform="matrix(0.8660254 -0.5 0.5 0.8660254 23.79443 252.2294)" id="Path-48-Copy" fill="#504A86" stroke="none" />
      <path d="M-4.06881e-12 19.1049L37.1131 -9.51099e-12C84.0124 14.9456 99.3763 17.3982 109.186 22.3579C118.995 27.3176 115.292 35.7448 98.0775 47.6394C50.3051 44.4087 33.8167 44.5813 21.5548 39.3389C9.29281 34.0965 2.10789 27.3518 -4.06881e-12 19.1049Z" transform="matrix(0.5 0.8660254 -0.8660254 0.5 71.26013 118.4559)" id="Path-48-Copy" fill="#504A86" stroke="none" />
      <g id="Group" transform="translate(0.5266829 34)">
        <g id="Group" transform="translate(35.30918 0.297381)">
          <path d="M22.2143 7.55413e-11C22.2143 7.55413e-11 37.9566 18.648 54.1411 41.271C60.2142 49.2814 60.8288 66.6285 41.5216 54.6646C22.2143 42.7007 2.01338e-11 13.1029 2.01338e-11 13.1029L22.2143 7.55413e-11Z" transform="matrix(-0.3420201 0.9396926 -0.9396926 -0.3420201 75.45962 20.21296)" id="Mask" fill="#FEBA5E" stroke="none" />
          <g clip-path="url(#mask_2)">
            <g id="Group" transform="matrix(0.1736482 0.9848077 -0.9848077 0.1736482 85.82081 0.05813169)">
              <path d="M40 40L2.08167e-16 40L0 -7.10543e-14L40 40Z" transform="translate(0 6)" id="Path-19" fill="#623A04" fill-opacity="0.4" stroke="none" />
              <path d="M40 40L2.08167e-16 40L0 -7.10543e-14L40 40Z" transform="translate(3 3)" id="Path-19" fill="#623A04" fill-opacity="0.4" stroke="none" />
              <path d="M40 40L2.08167e-16 40L0 -7.10543e-14L40 40Z" transform="translate(6 0)" id="Path-19" fill="#623A04" fill-opacity="0.4" stroke="none" />
            </g>
          </g>
        </g>
        <path d="M26.7906 4.89468C26.7906 4.89468 18.0555 18.9325 15.7377 19.8878C13.42 20.8432 1.44349 22.32 0.148228 22.32C-1.14703 22.32 6.3376 15.2316 11.2551 11.16C15.47 3.50378 16.7227 0 16.7227 0L26.7906 4.89468Z" transform="matrix(0.9945219 -0.1045285 0.1045285 0.9945219 0.4868623 92.42087)" id="Path-108" fill="#FDA181" stroke="none" />
        <path d="M13.9155 -7.53853e-13L59.6172 29.5799L54.7568 41.47C54.7568 41.47 27.7656 32.2984 8.45827 20.3345C-10.849 8.3706 13.9155 -7.53853e-13 13.9155 -7.53853e-13Z" transform="matrix(-4.371139E-08 1 -1 -4.371139E-08 56.33287 42.26846)" id="Mask" fill="#FEBA5E" stroke="none" />
        <path d="M40.118 117.023C2.26137 94.689 0 75.972 0 75.972C0 75.972 21.6206 10.6821 35.6969 2.65977C44.5678 -2.39592 63.9591 -1.86334 65.9281 18.8139C67.8906 39.4225 60.7128 70.5391 40.118 117.023Z" transform="matrix(-0.7660444 -0.6427876 -0.6427876 0.7660444 151.5426 49.51173)" id="Mask" fill="#FEBA5E" stroke="none" />
        <path d="M4.04007 0L-1.87649e-12 7.09185" transform="translate(67.01854 46.56401)" id="Path-112" fill="none" stroke="#1D1B56" stroke-width="1.01377416" />
        <path d="M0 0L9.89787 3.47118" transform="translate(111.7446 46.39526)" id="Path-111" fill="none" stroke="#1D1B56" stroke-width="1.01377416" />
      </g>
    </g>
    <g id="Group-119-Copy" transform="matrix(0.9876884 0.1564345 -0.1564345 0.9876884 378.0391 3.091111)">
      <g filter="url(#filter_1)">
        <path d="M0 0L38.5864 6.34447L11.8248 22.2957L8.83635 15.9589L0 19.2703L5.78559 6.34447L0 0Z" transform="translate(0.05189516 0.389168)" id="Path-83" fill="#3886F8" stroke="none" />
      </g>
      <g clip-path="url(#mask_3)">
        <path d="M0 12.69L5.56835 0L24.1454 1.25804L8.52703 9.57082L0 12.69Z" transform="translate(0.3805542 6.739907)" id="Path-84" fill="#2D76E2" stroke="none" />
      </g>
    </g>
    <g id="Group-119-Copy-2" transform="matrix(0.9876884 0.1564345 -0.1564345 0.9876884 427.5988 88.68607)">
      <g filter="url(#filter_2)">
        <path d="M0 0L30.6712 4.96524L9.39919 17.4488L7.02377 12.4895L0 15.0811L4.5988 4.96524L0 0Z" transform="translate(0.04125 0.3045663)" id="Path-83" fill="#3886F8" stroke="none" />
      </g>
      <g clip-path="url(#mask_4)">
        <path d="M0 9.93127L4.42612 -2.82264e-13L6.77789 7.4902L0 9.93127Z" transform="translate(0.3024918 5.27471)" id="Path-84" fill="#2D76E2" stroke="none" />
      </g>
    </g>
    <path d="M0 0L117.562 17.3974" transform="translate(301.4946 86.6026)" id="Path-107" fill="none" stroke="#000000" stroke-width="2" stroke-dasharray="4 4" />
    <path d="M62.4413 0C62.4413 0 31.2206 13.8917 0 31.5241" transform="translate(301.4946 27.0424)" id="Path-109" fill="none" stroke="#000000" stroke-width="2" stroke-dasharray="4 4" />
  </g>
</svg>