<svg xmlns="http://www.w3.org/2000/svg" width="221" height="156"><g transform="translate(.753 .753)"><path fill="#2D2664" stroke="none" d="M99.34 139.93c20.27-3.53 37.81-44.16 48.12-69.92 12.07-30.17 51.13-2.89 68.51-23.18 8.1-9.46 2.3-52.32-55.9-46.24-58.2 6.08-59.66 71.32-53.5 93C100.82 78.05 75.85 64.77 57 50.1c-12.48-9.72-14.48-17.61-24.5-18.1.08-4.56-1.7-8.23-4.29-8.5-2.87-.3-5.65 3.72-6.2 8.99a16.85 16.85 0 00-.02 3.37C11.13 43.7-3.86 61.7 1.05 70.22c.05.07.1.15.14.22 2.44 5.38 16.49 3.94 33.5-1.21 9.45 24.4 16.7 33.66 35.61 59.29 2.43 3.28 22.5 12.55 29.05 11.41z"/><path fill="#2D2664" stroke="none" d="M43.03 43.15c-2.6-.46-3.98-5.06-3.06-10.28.92-5.22 3.77-9.07 6.38-8.6 2.6.45 3.98 5.06 3.06 10.27-.92 5.22-3.77 9.07-6.38 8.61z"/><path fill="#2D2664" stroke="none" d="M44.45 77.29S31.58 91.06 29.98 91.06c-1.6 0-9.82-8.67-18.11-3.79C3.57 92.15-2.1 102.4.74 102.4s11.38-7.9 15.5-7.82c4.13.08 7.7 10.65 17.29 10.65 9.58 0 19.54-14.5 19.54-14.5L44.45 77.3z"/><path fill="#504A86" stroke="none" d="M50.48 87.86C40.32 65.41 40.2 52.94 32.08 58.3c-7.59 5-15.57 13.62-27.62 14.75 5.58 1.94 17.01.18 30.23-3.82 9.79 25.28 17.23 34.32 37.72 62.15 1.82 2.47 13.85-2.29 8.49-7.77-13.7-14-25.78-25.49-30.42-35.75z"/><path fill="#2D2664" stroke="none" d="M58.14 114.09c-13.76 11.64 11.01 33.78 11.01 33.78s-11 4.76-11 5.84 31.82 0 33 0c.77 0-4.37-8.71-.87-16.82 1.8-4.16 13.2-8 13.57-10.75 1.1-8.1-31.94-23.7-45.7-12.05z"/><path fill="#2D2664" stroke="none" d="M50.2 80.55s-15.88 55-18.49 58.95c-2.61 3.97-7.77 5.86-7.77 6.99s8.08-.33 12.12-3.66c4.04-3.33 25.05-42 25.05-42L50.2 80.56z"/><path fill="none" stroke="#1D1B56" stroke-width=".814" d="M81.48 113.11s-12.5-7.17-22.37 0"/><path fill="none" stroke="#1D1B56" stroke-width=".814" d="M63 93.34s-4.02 11.73-7.02 16.19"/><path fill="none" stroke="#1D1B56" stroke-width=".814" d="M106.78 98.08l-1.12-8.76"/></g></svg>