<svg xmlns="http://www.w3.org/2000/svg" width="81" height="101"><g transform="translate(.781 .781)"><g transform="rotate(20 -67.135 170.174)"><path fill="#2472E4" stroke="none" d="M13.43 35.78c5.64-1.5 11.26-10.35 8.9-19.06C19.99 8.02 16.07.5 10.43 2 4.78 3.5 2.2 12.94 4.56 21.64c2.36 8.7 3.23 15.64 8.87 14.14z"/><path fill="none" stroke="#000" stroke-width="1" d="M11.19 6.52S16.85 41.25.93 59.5"/><path fill="none" stroke="#000" stroke-width="1" d="M8.92 27.08l3.48 3.3 5.63-5.06"/></g><g transform="rotate(20 13.575 82.067)"><path fill="#3886F8" stroke="none" d="M26.93 57.05c9.4-2.45 13.8-16.17 9.8-30.66C32.76 11.91 21.9 2.15 12.49 4.6 3.08 7.05 3.12 19.97 7.1 34.46c4 14.48 10.42 25.04 19.83 22.6z"/><path fill="none" stroke="#000" stroke-width="1" d="M15.14 9.5s13.5 46.53 20.17 72.46"/><path fill="none" stroke="#000" stroke-width="1" d="M13.82 38.86L25.68 48l5.64-15.76"/></g></g></svg>