<?xml version="1.0" encoding="UTF-8"?>
<svg width="18px" height="15px" viewBox="0 0 18 15" version="1.1" xmlns="http://www.w3.org/2000/svg" xmlns:xlink="http://www.w3.org/1999/xlink">
    <!-- Generator: Sketch 52.2 (67145) - http://www.bohemiancoding.com/sketch -->
    <title>Routing Assigned Icon</title>
    <desc>Created with Sketch.</desc>
    <g id="Page-1" stroke="none" stroke-width="1" fill="none" fill-rule="evenodd">
        <g id="Routing-Assigned-Icon" fill="#617A90">
            <g id="One" opacity="0.420000017" transform="translate(0.250000, 0.000000)">
                <path d="M0,11.1922885 C0,10.6369193 0.397612893,9.98658171 0.902296124,9.74117553 C0.902296124,9.74117553 4.3537873,7.93163969 6.170644,7.93163969 C8.01348304,7.93163969 11.4435227,9.74117553 11.4435227,9.74117553 C11.9393448,9.98723388 12.341288,10.6298913 12.341288,11.1922885 L12.341288,11.7254445 C12.341288,12.2808137 11.902055,12.7310295 11.3313486,12.7310295 L1.00993939,12.7310295 C0.452165269,12.7310295 0,12.2878417 0,11.7254445 L0,11.1922885 Z" id="Basis"></path>
                <rect id="Head" x="2.74250845" y="0" width="6.85627111" height="8.22752534" rx="3.42813556"></rect>
            </g>
            <g id="One" transform="translate(4.000000, 1.000000)">
                <path d="M0,11.9750284 C0,11.4201301 0.394322811,10.7715593 0.899980553,10.5248663 C0.899980553,10.5248663 4.68869401,8.54176582 6.64530892,8.54176582 C8.62990482,8.54176582 12.3951974,10.5248663 12.3951974,10.5248663 C12.8897245,10.7708704 13.2906178,11.4227586 13.2906178,11.9750284 L13.2906178,12.7056072 C13.2906178,13.2605055 12.8484152,13.7103394 12.2916614,13.7103394 L0.998956462,13.7103394 C0.447248042,13.7103394 0,13.257877 0,12.7056072 L0,11.9750284 Z" id="Basis"></path>
                <path d="M2.95347063,3.69345256 C2.95347063,1.65361504 4.61051178,0 6.64530892,0 L6.64530892,0 C8.68425491,0 10.3371472,1.64581036 10.3371472,3.69345256 L10.3371472,5.16695934 C10.3371472,7.20679686 8.68010607,8.8604119 6.64530892,8.8604119 L6.64530892,8.8604119 C4.60636294,8.8604119 2.95347063,7.21460154 2.95347063,5.16695934 L2.95347063,3.69345256 Z" id="Head"></path>
            </g>
        </g>
    </g>
</svg>