<svg height="290" viewBox="0 0 297 290" width="297" xmlns="http://www.w3.org/2000/svg"><path d="m295.838 112.347.003-.001-.092-.76c-.001-.013-.002-.023-.004-.036-.001-.011-.002-.021-.004-.032l-.344-2.858c-.069-.574-.148-1.228-.238-1.974l-.072-.594-.147.018c-3.617-20.571-13.553-40.093-28.942-56.762-15.317-16.589-35.217-29.687-57.548-37.878-19.133-7.018-39.434-10.577-60.337-10.577-28.22 0-55.627 6.637-79.257 19.193-45.567 24.211-72.441 68.713-68.469 113.375 2.056 23.111 11.11 45.11 26.184 63.621 14.188 17.423 33.381 31.483 55.503 40.66 13.602 5.642 27.051 8.301 41.291 11.116l1.667.33c3.921.776 4.975 1.842 5.247 2.264.503.784.24 2.329.038 3.18-.186.785-.378 1.568-.57 2.352-1.529 6.235-3.11 12.683-1.868 19.792 1.428 8.172 6.531 12.859 14.001 12.86h.002c8.035 0 17.18-5.39 23.231-8.956l.808-.475c14.436-8.478 28.036-18.041 38.271-25.425 22.397-16.159 47.783-34.475 66.815-58.17 19.165-23.865 28.193-54.532 24.831-84.263zm-203.495 45.214h-25.582c-3.866 0-7-3.134-7-7v-53.696c0-3.866 3.134-7 7-7s7 3.134 7 7v46.696h18.581c3.866 0 7 3.134 7 7 .001 3.866-3.133 7-6.999 7zm26.687-7.19c0 3.866-3.134 7-7 7s-7-3.134-7-7v-53.696c0-3.866 3.134-7 7-7s7 3.134 7 7zm63.274 0c0 3.033-1.953 5.721-4.838 6.658-.712.231-1.441.343-2.161.343-2.199 0-4.323-1.039-5.666-2.888l-25.207-34.717v30.605c0 3.866-3.134 7-7 7s-7-3.134-7-7v-52.16c0-3.033 1.953-5.721 4.838-6.658 2.886-.936 6.045.09 7.827 2.545l25.207 34.717v-32.141c0-3.866 3.134-7 7-7s7 3.134 7 7zm51.007 5.898h-34.645c-3.866 0-7-3.134-7-7v-26.847-26.849c0-3.866 3.134-7 7-7h33.57c3.866 0 7 3.134 7 7s-3.134 7-7 7h-26.57v12.849h21.562c3.866 0 7 3.134 7 7s-3.134 7-7 7h-21.562v12.847h27.645c3.866 0 7 3.134 7 7s-3.134 7-7 7z" fill="#617a90"/></svg>