<svg height="33" viewBox="0 0 36 33" width="36" xmlns="http://www.w3.org/2000/svg"><path d="m388.66718 99.8181818-3.66718 9.7316782c.474576 0 1.456086.014417 2.94453.043252 1.488444.028834 2.642527.043252 3.46225.043252.273241 0 .683102-.014418 1.229584-.043252-1.251156-3.647577-2.574217-6.905887-3.969184-9.7749302zm-15.66718 22.9090912.043269-1.683239c.331731-.099432.735577-.18821 1.211539-.266335.475961-.078125.887019-.152699 1.233173-.223722.346154-.071022.703125-.174005 1.070913-.308949.367789-.134943.688702-.340909.962741-.617897.274038-.276989.497596-.635654.670673-1.075995l5.127404-13.125 6.057692-15.426136h2.769231c.115384.1988636.194711.3480114.23798.4474432l4.435097 10.2272728c.475961 1.107954 1.240384 2.93679 2.293269 5.486506 1.052884 2.549716 1.875 4.499289 2.466346 5.848721.216346.482955.634615 1.509233 1.254808 3.078835.620192 1.569603 1.139423 2.766336 1.557692 3.590199.288461.639205.540865 1.044034.757211 1.214489.274039.213068.908654.422585 1.903847.628551.995192.205966 1.600961.351563 1.817307.43679.086539.539773.129808.944602.129808 1.214488 0 .071023-.003606.166904-.010817.287643-.007212.120738-.010818.209517-.010818.266335-.908653 0-2.278846-.056818-4.110577-.170455-1.83173-.113636-3.209134-.170454-4.132211-.170454-1.096154 0-2.646635.049716-4.651442.149147-2.004808.099432-3.288462.15625-3.850962.170455 0-.610796.028846-1.164773.086539-1.661932l2.834134-.596591c.014423 0 .104567-.017755.270433-.053267.165865-.035511.277644-.060369.335336-.074574.057693-.014204.16226-.046164.313702-.09588.151443-.049716.259616-.095881.32452-.138495.064903-.042613.14423-.099432.23798-.170454.09375-.071023.158654-.149148.194712-.234375.036058-.085228.054086-.184659.054086-.298296 0-.227272-.223557-.912642-.670673-2.056108-.447115-1.143466-.966346-2.404119-1.557692-3.78196s-.894231-2.088068-.908654-2.130682l-9.735577-.042613c-.375.823863-.926682 2.212358-1.655048 4.165483-.728365 1.953125-1.092548 3.107244-1.092548 3.462358 0 .3125.100962.578835.302885.799005.201923.220171.515625.394176.941105.522017.425481.127841.775241.223722 1.049279.287642.274039.063921.685096.12429 1.233173.181108s.84375.085228.88702.085228c.014423.269886.021634.681818.021634 1.235795 0 .127841-.014423.319602-.043269.575284-.836538 0-2.094952-.071023-3.77524-.213068-1.680289-.142046-2.938702-.213068-3.775241-.213068-.115384 0-.30649.028409-.573317.085227s-.421875.085227-.465144.085227c-1.153846.198864-2.509616.298296-4.067308.298296z" fill="#617a90" transform="translate(-373 -90)"/></svg>