<svg height="34" viewBox="0 0 27 34" width="27" xmlns="http://www.w3.org/2000/svg"><g fill="#617a90" transform=""><path d="m26.1538462 13.2735128c0-7.2219487-5.8545385-13.07692306-13.0769231-13.07692306-7.22194874 0-13.0769231 5.85497436-13.0769231 13.07692306 0 3.0887693 1.07405128 5.9264616 2.86471795 8.1639231.0004359.0004359.00087179.0013077.0004359.0017436-.0004359.0004359-.0008718.0008718-.00174359.0008718 3.37646153 4.2168718 8.14823074 10.1768974 9.70264104 12.1179487.1242308.1547436.3121025.2449744.5104359.2454103.1987692 0 .3870769-.0897949.5108718-.2449744 1.5535384-1.9406154 6.324-7.8980256 9.7004615-12.1153333.0004359-.0004359.0008718-.0013077.0004359-.0017436s-.0008718-.0008718-.0017436-.0008718c1.7924103-2.2383334 2.8673334-5.0760257 2.8673334-8.1669744zm-4.9836154 6.6295641-8.0933077 10.1088975-8.01484618-10.0099488-.08194871-.102c-.02397436-.0326923-.04838462-.0649487-.07366667-.0967692-1.49905128-1.8730513-2.29107692-4.131-2.29107692-6.5297436 0-5.76866665 4.69330769-10.46153844 10.46153848-10.46153844 5.7682307 0 10.4615384 4.69287179 10.4615384 10.46153844 0 2.4000513-.7928974 4.6588718-2.2936923 6.532359-.025282.0318205-.0501282.0640769-.0745384.0972051z"/><circle cx="13.076923" cy="13.273513" r="4.576923"/></g></svg>