<svg xmlns="http://www.w3.org/2000/svg" xmlns:xlink="http://www.w3.org/1999/xlink" width="130" height="377"><defs><path id="a" d="M12.66 35.46l31.5 31.32A1794.23 1794.23 0 00105.2 90.8c6.92.47 18.66 4.3 18.66 5.69 0 .7-7.98-1.68-10.9.82-1.13.95-6.04 2.58-8.25 1.18-23.52-10.21-49.71-9.1-62.37-17.79a2004.6 2004.6 0 00-39.1-25.85z"/><path id="b" d="M.3 2.67l22.5 196.88h14.81L41.58.73z"/><path id="c" d="M.54.9C2.52 20.25-1.75 33.8 11.2 32.2c0 0 1.11 4.05 3.34 12.16l20.05-3.8-1.48-12.02L25.1 2.1z"/><path id="d" d="M20.84 1.88L49.6.64C59.72-.43 65.97-.01 68.36 1.88c13.77 10.92-.74 28.05-.74 79.92l6.02 33.26c-20.3 12.34-43.54 12.34-69.76 0l-1.4-28.35C.85 45.55.03 22.6.03 17.83 5.94 6.3 12.88.98 20.84 1.88z"/><mask id="e" fill="#fff"><use fill="none" xlink:href="#a"/></mask><mask id="f" fill="#fff"><use fill="none" xlink:href="#b"/></mask><mask id="g" fill="#fff"><use fill="none" xlink:href="#c"/></mask><mask id="h" fill="#fff"><use fill="none" xlink:href="#d"/></mask></defs><g fill="none"><g transform="translate(-2 -28)"><use fill="#f29270" transform="scale(-1 1) rotate(-50 0 203.539)" xlink:href="#a"/><g fill="#00031b" mask="url(#e)" opacity=".2"><g opacity=".4"><path d="M109.14 43.56l13.31 13.31-56.18 56.18-13.3-13.3z"/><path d="M109.14 50.88l13.31 13.3-56.18 56.2-13.3-13.31z"/><path d="M109.14 58.2l13.31 13.3-56.18 56.19-13.3-13.3z"/></g></g></g><g><g transform="translate(84.333 165.3)"><use fill="#2d2664" xlink:href="#b"/><g fill="#00031b" mask="url(#f)" opacity=".4"><path d="M52.27-20.18L74.45 1.99-19.2 95.63l-22.18-22.18z"/><path d="M52.27-7.99L74.45 14.2l-93.64 93.64-22.18-22.18z"/><path d="M52.27 4.2L74.45 26.4l-93.64 93.63-22.18-22.17z"/></g></g><path stroke="#000" d="M102.07 351.41h16.77"/><path fill="#504a86" d="M58.91 172.53v193.22H74.8l8.36-108.52 24.24-84.7z"/><path stroke="#000" d="M54.52 351.41H71.3"/><g><g transform="rotate(7 -74.858 603.88)"><use fill="#fda181" xlink:href="#c"/><path fill="#cf613b" d="M10.98 32.09l5.22-1.3-3.25 7.59z" mask="url(#g)"/></g><path fill="#1f1950" d="M73.28 14.77l5.95 3.9-.77 10.95c-.03.41.27.78.68.83a.73.73 0 00.82-.65c.45-4.25.76-6.75.93-7.5.63-2.67 9.8-5.85 5.68 7.3l-1.67 3.75 1.67 13.2h15.94l1.02-12.1c8.07-11.53 7.9-20.4-.52-26.59C94.73.4 87-1.6 79.88 1.9s-13.96 3.5-20.5 0c-.11 7.5 4.52 12.83 13.9 16z"/></g><g transform="translate(54.845 57.285)"><use fill="#3c88fe" xlink:href="#d"/><g fill="#00031b" mask="url(#h)" opacity=".2"><g opacity=".4"><path d="M53.3-44.02L31.13-21.85l93.63 93.64 22.18-22.18z"/><path d="M53.3-31.83L31.13-9.65l93.63 93.64 22.18-22.18z"/><path d="M53.3-19.63L31.13 2.55l93.63 93.63 22.18-22.17z"/></g></g></g><g fill="#1f1950" opacity=".54"><path d="M73.71 83.42l4.43 43.9-19.05 30.52z" opacity=".4"/><path d="M72.14 83.42l4.44 43.9-19.05 30.52z" opacity=".3"/><path d="M69.5 83.36l4.43 43.9-19.05 30.53z" opacity=".3"/></g><path fill="#fda181" d="M54.31 76.73l2.7 44.25a2815.16 2815.16 0 01-21.86 63.83c-4.09 5.61-9.22 14.32-8.43 15.5 4.34 6.42 5.65-6.35 9.44-6.99 1.45-.24 6.84-2.73 5.49-6.04 12.23-25.7 23.56-42.89 27.18-58.72 2.42-10.56 4.13-25.65 5.13-45.28z"/><g fill="#1d1b56"><path d="M58.24 362.7h17.33v13.44H32.6a9.6 9.6 0 017.5-9.36zm48.59 0h17.33v13.44H81.18a9.6 9.6 0 017.5-9.36z"/></g></g></g></svg>