<svg xmlns="http://www.w3.org/2000/svg" xmlns:xlink="http://www.w3.org/1999/xlink" width="200" height="402"><defs><path id="a" d="M5.3 1.41s-1.7-8.54-4.1 34.6c-2.4 43.15 0 176.2 0 176.2l26.22 1.28L56.33 6.05 5.31 1.41z" transform="rotate(-3 64.67 -5.849)"/><clipPath id="b"><use xlink:href="#a"/></clipPath></defs><g transform="translate(2.263 2.263)"><g transform="rotate(-1 21162.586 -5749.311)"><path fill="#1F1950" stroke="none" d="M.03.68V21.5q0 .11 0 .22 0 .12.02.23.01.1.03.22.01.1.03.22.03.1.05.21.03.11.06.22.04.1.07.2.04.11.08.21.04.1.1.2.04.1.1.2.04.1.1.2.06.1.12.19t.13.18q.06.09.13.17.08.09.15.17.07.08.15.16.08.08.16.15.09.08.17.15.09.07.18.14.09.06.18.12.1.07.19.12.1.06.19.11.1.05.2.1t.2.1q.1.03.2.07.11.04.22.07.1.03.21.06.11.03.22.05.1.02.22.04.1.01.22.03.1 0 .22.01.11 0 .22 0h40.37l-.56-6.12q-.02-.3-.07-.6-.05-.29-.12-.58-.07-.3-.16-.58-.1-.28-.2-.56-.12-.28-.25-.55t-.28-.53q-.15-.26-.31-.5-.17-.25-.36-.49-.18-.23-.39-.45-.2-.22-.42-.43-.21-.2-.44-.4-.24-.18-.48-.36-.25-.17-.5-.32-.26-.16-.53-.3-.26-.13-.54-.24-.27-.12-.56-.22L17.7 5.7 16.22.69H.02z"/><path fill="none" stroke="#403B6C" stroke-linecap="round" stroke-linejoin="round" stroke-width="4.525" d="M2.84 24.4h40"/></g><path fill="#FDA181" stroke="none" d="M57.25 174.7c6.45 3.63 11.5 6.24 12.4 9.78 1.48 5.92 2.37 11.09-2.54 10.22-3.58-.63-7.66-3.14-8.89-3.89-1.57-.97-8.98-8.25-10.15-10.13-.46-.75-32.34-37-35.73-44.97-3.38-7.96-1.19-19.01 9.27-20.9 4.6-.83 9.38.94 12.53 6.16 3.15 5.21 23.1 53.73 23.1 53.73z"/><g transform="rotate(-1 21176.368 -2109.407)"><path fill="#1F1950" stroke="none" d="M.03.68V21.5q0 .11 0 .22 0 .12.02.23.01.1.03.22.01.1.03.22.03.1.05.21.03.11.06.22.04.1.07.2.04.11.08.21.04.1.1.2.04.1.1.2.04.1.1.2.06.1.12.19t.13.18q.06.09.13.17.08.09.15.17.07.08.15.16.08.08.16.15.09.08.17.15.09.07.18.14.09.06.18.12.1.07.19.12.1.06.19.11.1.05.2.1t.2.1q.1.03.2.07.11.04.22.07.1.03.21.06.11.03.22.05.1.02.22.04.1.01.22.03.1 0 .22.01.11 0 .22 0h40.37l-.56-6.1q-.02-.3-.07-.6t-.12-.59q-.07-.29-.16-.57-.1-.29-.2-.57-.12-.28-.25-.55t-.28-.53q-.15-.26-.32-.5-.17-.25-.35-.49-.2-.23-.4-.45t-.42-.43q-.21-.2-.45-.4-.23-.19-.48-.36-.24-.17-.5-.32-.26-.16-.52-.3-.27-.13-.55-.24-.28-.12-.56-.21L19.3 6.34l.08-4.8L.03.68z"/><path fill="none" stroke="#403B6C" stroke-linecap="round" stroke-linejoin="round" stroke-width="4.525" d="M2.84 24.4h40"/></g><g transform="translate(26.493 157.718)"><path fill="#2D2664" stroke="none" d="M5.77 4.51s-2.16-8.45-2.3 34.77c-.13 43.21 9.23 175.94 9.23 175.94l26.25-.08L56.97 6.47 5.77 4.51z"/><g clip-path="url(#b)"><g fill="#00031B" stroke="none" transform="scale(1 -1) rotate(6 788.511 -217.31)"><path fill-opacity=".2" d="M67.89.96l15.85 15.86-66.93 67L.95 67.97 67.9.96z"/><path fill-opacity=".1" d="M67.89 9.68l15.85 15.87-66.93 67L.95 76.7l66.94-67z"/><path fill-opacity=".1" d="M67.89 18.41l15.85 15.87-66.93 67L.95 85.41l66.94-67z"/></g></g></g><path fill="#504A86" stroke="none" d="M51.06 165.5s3.6 32.37 10.79 55.14c7.2 22.77 39.55 152.22 39.55 152.22h25.17S109.72 168.2 107.32 159.8c-2.4-8.4-56.26 5.7-56.26 5.7z"/><path fill="#FDA181" stroke="none" d="M50.35 98.1L30.1 133.56q-.13.23-.27.44-.14.22-.29.43-.15.21-.3.41-.17.2-.34.4t-.35.38q-.18.19-.37.36-.19.18-.39.34-.2.17-.4.32-.2.16-.42.3-.22.15-.44.28-.22.14-.44.26-.23.12-.47.23-.23.12-.47.22-.24.1-.48.18-.24.09-.49.16-.25.08-.5.14-.25.06-.5.11-.26.05-.51.09-.26.03-.52.05-.25.03-.51.04-.26 0-.52 0t-.51-.01q-.26-.02-.52-.05-.26-.03-.51-.07-.26-.04-.5-.1-.26-.05-.51-.12-.25-.07-.5-.15-.24-.08-.48-.17-.24-.1-.48-.2t-.47-.22q-.23-.11-.45-.24-.23-.13-.44-.27-.24-.15-.47-.3-.22-.17-.44-.34t-.43-.35q-.22-.17-.42-.36-.2-.2-.4-.39-.2-.2-.38-.4-.19-.2-.37-.42-.17-.21-.34-.43t-.33-.45q-.15-.23-.3-.47-.15-.23-.29-.47-.13-.24-.26-.49-.12-.25-.24-.5t-.22-.5q-.1-.27-.2-.53-.09-.26-.17-.52-.08-.27-.15-.54-.07-.27-.12-.54-.06-.27-.1-.54-.05-.28-.08-.55-.04-.28-.06-.55-.02-.28-.03-.56 0-.28 0-.55 0-.28.02-.56.01-.27.04-.55t.07-.55q.04-.28.1-.55.05-.27.11-.54t.14-.54q.08-.26.16-.53.1-.26.2-.52t.2-.51l16.1-36.92 23.25 13.54z"/><g stroke="none" transform="rotate(-4 89.817 -674.31)"><path fill="#FDA181" d="M47.26 16.44l7.82 22-7.73 1.85-14.18 15.3-.22 8.55A11.04 11.04 0 0120.57 74.8a12.63 12.63 0 01-11.04-13.6l4.15-48.9 33.58 4.13z"/><path fill="#1F1950" d="M20.94 41.43L10.6 45.95l.21-36.6C29 .13 42.93 2.88 52.62 17.61l-19.16-2.36-3.18 25.94 17.25-.61-2.99 16.5c-8.74.78-15.47-1.26-20.17-6.1l1.65-13.47a4.54 4.54 0 00-3.98-5.04 4.54 4.54 0 00-5.08 3.92 4.54 4.54 0 003.98 5.04z"/></g><path fill="#FEBA5E" stroke="none" d="M101.4 69.63c-2.5-2.52-11.22-8.15-27.57-9.6-14.87-1.3-27.79 2.52-32.36 4.8-5.12 2.56-5.95 26.9-8 69.55-.5 10.53-3.98 33.53-3.98 33.53s16.78 4.79 38.35 4.79c21.58 0 43.15-4.8 43.15-4.8s-5.49-27.55-6.09-37.15c-2.6-41.64-.9-58.53-3.5-61.12z"/><path fill="#FDA181" stroke="none" d="M122.95 93.4l27.88 49.27q.13.22.24.45.12.23.23.47.1.24.2.48.09.24.17.49.08.24.16.5.07.24.12.5.06.25.11.5.05.26.08.51.04.26.06.52.02.26.03.52 0 .25 0 .51t-.01.52q-.02.26-.04.52-.03.26-.07.51-.04.26-.1.51-.04.26-.1.5-.07.26-.15.5-.07.25-.16.5-.09.24-.19.48t-.2.48q-.12.23-.24.46t-.25.45q-.13.22-.28.44-.14.22-.3.43-.14.2-.3.4-.17.21-.34.4-.17.2-.35.38-.18.19-.37.36-.2.18-.4.35-.19.17-.4.32-.2.16-.41.3-.22.16-.44.3-.22.14-.46.27-.23.13-.47.25-.23.12-.48.23-.24.1-.49.2-.24.1-.5.19-.25.09-.5.16-.26.08-.52.14-.25.06-.52.12-.26.05-.52.09-.26.04-.53.07-.26.03-.53.04-.26.02-.53.02t-.53 0q-.27 0-.53-.03-.27-.02-.53-.05-.27-.03-.53-.08-.26-.04-.52-.1-.26-.05-.52-.12-.26-.07-.51-.14-.26-.08-.5-.17-.26-.1-.5-.2-.25-.1-.5-.2-.23-.12-.47-.24-.23-.13-.46-.26-.23-.14-.46-.28-.22-.14-.44-.3-.22-.15-.43-.32-.2-.16-.4-.33-.21-.17-.4-.36-.2-.18-.39-.37-.18-.19-.36-.39t-.34-.4L93 106.99l29.94-13.6z"/><path fill="#FEBA5E" stroke="none" d="M78.34 67.6s9.59-4.8 19.18-1.2c9.59 3.6 34.75 33.56 34.75 33.56S99.3 114.9 96.32 114.34c-2.98-.57-17.98-46.74-17.98-46.74z"/><path fill="#FDA181" stroke="none" d="M172.18 98.5c3.11-12.68 7.19-14.38 9.59-16.78 2.4-2.4 10.78-1.2 11.98 0 2.06 2.06-5.99-1.2-12.75 24.46l-29.35 47.14a9.8 9.8 0 01-15.55 1.51 13.82 13.82 0 01.09-18.87l35.99-37.46z"/><path fill="none" stroke="#1D1B56" stroke-width="1.399" d="M88.55 95.2l10.13 19.57"/><path fill="#FEBA5E" stroke="none" d="M41.47 64.83s-8.38 6-11.98 10.79c-3.6 4.8-11.99 23.97-11.99 23.97l29.97 4.8 3.6-33.57-9.6-5.99z"/><path fill="none" stroke="#1D1B56" stroke-width="1.399" d="M33.09 101.99l1.2-19.18"/></g></svg>