<?xml version="1.0" encoding="UTF-8"?>
<svg width="69px" height="101px" viewBox="0 0 69 101" version="1.1" xmlns="http://www.w3.org/2000/svg" xmlns:xlink="http://www.w3.org/1999/xlink">
    <!-- Generator: Sketch 52.2 (67145) - http://www.bohemiancoding.com/sketch -->
    <title>mobile</title>
    <desc>Created with Sketch.</desc>
    <g id="Page-1" stroke="none" stroke-width="1" fill="none" fill-rule="evenodd">
        <g id="mobile" fill="#617A90">
            <circle id="Oval" cx="35" cy="86.5" r="4"></circle>
            <path d="M59,0 L10,0 C4.5,0 0,4.5 0,10 L0,91 C0,96.5 4.5,101 10,101 L59,101 C64.5,101 69,96.5 69,91 L69,10 C69,4.5 64.5,0 59,0 Z M63,89.2580646 C63,92.416129 60.4770492,95 57.3934426,95 L11.6065574,95 C8.52295082,95 6,92.416129 6,89.2580646 L6,11.7419354 C6,8.58387096 8.52295082,6 11.6065574,6 L57.3934426,6 C60.4770492,6 63,8.58387096 63,11.7419354 L63,89.2580646 Z" id="Shape" fill-rule="nonzero"></path>
            <path d="M12.5,12 L12.5,77.5306119 L57.097222,77.5306119 L57.097222,12 L12.5,12 Z M54.3667798,74.8001698 L15.2304422,74.8001698 L15.2304422,14.7304422 L54.3667798,14.7304422 L54.3667798,74.8001698 Z" id="Shape" stroke="#617A90" stroke-width="2" fill-rule="nonzero"></path>
        </g>
    </g>
</svg>