<svg height="34" viewBox="0 0 34 34" width="34" xmlns="http://www.w3.org/2000/svg"><g fill="none" fill-rule="evenodd" stroke="#617a90" transform="translate(1 1)"><path d="m32 21.3333333c0 1.9636791-1.5918764 3.5555556-3.5555556 3.5555556h-21.33333329l-7.11111111 7.1111111v-28.44444444c0-1.96367911 1.59187645-3.55555556 3.55555556-3.55555556h24.88888884c1.9636792 0 3.5555556 1.59187645 3.5555556 3.55555556z" stroke-linecap="round" stroke-linejoin="round" stroke-width="2"/><g transform="translate(11.2 6.4)"><path d="m1.8 4.8h6.8c.55228475 0 1 .44771525 1 1v4.4c0 .5522847-.44771525 1-1 1h-6.8c-.55228475 0-1-.4477153-1-1v-4.4c0-.55228475.44771525-1 1-1z" fill="#617a90" stroke-width=".8"/><path d="m2.4 4.8c.03702998-2.66666667.96452935-4 2.7824981-4s2.75713605 1.33333333 2.8175019 4"/></g></g></svg>