<?xml version="1.0" encoding="UTF-8"?>
<svg width="51px" height="67px" viewBox="0 0 51 67" version="1.1" xmlns="http://www.w3.org/2000/svg" xmlns:xlink="http://www.w3.org/1999/xlink">
    <!-- Generator: Sketch 52.2 (67145) - http://www.bohemiancoding.com/sketch -->
    <title>notify</title>
    <desc>Created with Sketch.</desc>
    <g id="Page-1" stroke="none" stroke-width="1" fill="none" fill-rule="evenodd">
        <g id="notify" fill="#617A90">
            <path d="M49.2,49.4 L44.1,43.1 C43.6,42.4 43.3,41.6 43.3,40.7 L43.3,27.7 C43.3,19.6 37.9,12.4 30.1,10.2 L30.1,5.1 C30.1,2.3 27.8,0.1 25.1,0.1 C22.4,0.1 20.1,2.4 20.1,5.1 L20.1,10.1 C12.2,12.4 6.8,19.6 6.9,27.7 L6.9,40.7 C6.9,41.6 6.6,42.4 6.1,43.1 L1,49.4 C0.6,49.9 0.3,50.6 0.3,51.3 L0.3,59.2 L50.1,59.2 L50.1,51.3 C49.9,50.6 49.6,49.9 49.2,49.4 Z M23.2378049,5.79230769 C23.2378049,4.86153846 24.0280488,4.1 24.9939024,4.1 C25.9597561,4.1 26.75,4.86153846 26.75,5.79230769 L26.75,9.6 C25.5207317,9.43076923 24.3792683,9.43076923 23.15,9.6 L23.15,5.79230769 L23.2378049,5.79230769 Z M43.890847,54.5 L6.1,54.5 L6.1,50.1393593 L10.5003041,44.4160183 C11.3631088,43.3258581 11.7945112,41.9631579 11.7945112,40.509611 L11.7945112,28.6995423 C11.7945112,21.0684211 17.6615833,14.8 24.9954235,14.8 C32.3292637,14.8 38.1963358,20.9775744 38.1963358,28.6995423 L38.1963358,40.509611 C38.1963358,41.9631579 38.6277382,43.3258581 39.4905429,44.4160183 L43.890847,50.1393593 L43.890847,54.5 Z" id="Shape" fill-rule="nonzero"></path>
            <path d="M25,63.4 C22.1,63.4 20.1,60.6 20.1,57.7 L16.8,58.7 C16.8,63.2 20.5,66.9 25,66.9 C29.5,66.9 33.2,63.2 33.2,58.7 L29.9,57.7 C29.9,60.6 27.9,63.4 25,63.4 Z" id="Path"></path>
        </g>
    </g>
</svg>