<svg height="94" viewBox="0 0 74 94" width="74" xmlns="http://www.w3.org/2000/svg"><path d="m44.137599.6490765c-10.2880163 0-16.2376178 4.6166392-19.1078879 7.8060029-.3411-2.7476628-2.1534885-6.312708-9.2269909-6.312708h-15.36050349v16.0772851h6.29541716c1.06574103 0 1.40841292.3395281 1.40841292 1.4036972v73.4119523h18.30936811v-27.5536501c0-.7435037-.014147-1.4382788-.0330097-2.060747 2.8592669 2.6266272 8.3215826 6.2435448 16.8537984 6.2435448 17.8959612 0 30.408201-14.1863021 30.408201-34.5045448 0-20.6404801-11.8803403-34.5108324-29.5468056-34.5108324m-3.7190903 53.0669871c-9.8573187 0-14.3356316-9.4376242-14.3356316-18.1820451 0-13.7728951 7.5324941-18.6819058 14.5792744-18.6819058 8.64382 0 14.4566671 7.4523278 14.4566671 18.5530109 0 12.6584256-7.3894522 18.31094-14.7003099 18.31094" fill="#617a90"/></svg>