<svg height="98" viewBox="0 0 86 98" width="86" xmlns="http://www.w3.org/2000/svg"><g fill="none" fill-rule="evenodd" transform="translate(3 -9)"><circle cx="14.451653" cy="14.297872" fill="#617a90" r="14.297872" transform="translate(31.98762 78.066799)"/><g transform="matrix(.97029573 .2419219 -.2419219 .97029573 20.142707 .475639)"><circle cx="37.585815" cy="9.22535" fill="#617a90" r="8.597683"/><circle cx="37.585815" cy="9.22535" fill="#fff" r="3.333458"/><g fill="#617a90"><path d="m35.106383 0c15.6342818 0 28.4269213 12.1665176 29.4264858 27.5481203 1.0156721 14.4660355 7.6782866 35.9740589 7.6782866 35.9740589-38.7299747 17.7746961-72.11474947 0-72.11474947 0 5.49047216-26.1530476 5.49047216-35.9740589 5.49047216-35.9740589 1.0925836-15.3816027 13.88522301-27.5481203 29.51950491-27.5481203z" transform="translate(1.787234 10.723404)"/><path d="m.01504261 71.8575823s35.85155629 18.6765861 76.33365179 0" stroke="#617a90" stroke-linecap="round" stroke-width="11.2"/></g></g></g></svg>