<svg height="33" viewBox="0 0 36 33" width="36" xmlns="http://www.w3.org/2000/svg"><path d="m314.379464 105.020089c-.803571 1.232143-1.720982 3.060268-2.752232 5.484375-.294643-.602678-.542411-1.088169-.743303-1.456473-.200893-.368303-.472099-.793527-.813617-1.27567-.341517-.482142-.683035-.860491-1.024553-1.135044-.341518-.274554-.763393-.508929-1.265625-.703125-.502232-.194197-1.047991-.291295-1.637277-.291295h-4.5c-.1875 0-.341518-.060268-.462053-.180803-.120536-.120536-.180804-.274554-.180804-.462054v-3.857143c0-.1875.060268-.341518.180804-.462053.120535-.120536.274553-.180804.462053-.180804h4.5c3.348214 0 6.09375 1.506696 8.236607 4.520089zm22.620536 16.05134c0 .1875-.060268.341517-.180804.462053l-6.428571 6.428572c-.120536.120535-.274554.180803-.462054.180803-.174107 0-.324776-.063616-.452009-.190848-.127232-.127232-.190848-.277902-.190848-.452009v-3.857143c-.428571 0-.997768.003348-1.707589.010045-.709821.006696-1.252232.013393-1.627232.020089-.375.006697-.863839 0-1.466518-.020089-.602679-.02009-1.078125-.053572-1.426339-.100447-.348215-.046875-.776786-.117187-1.285715-.210937-.508928-.09375-.930803-.217634-1.265625-.371652-.334821-.154018-.723214-.344866-1.165178-.572545-.441964-.227678-.837054-.495535-1.185268-.803571s-.716518-.666295-1.104911-1.074777-.763393-.873884-1.125-1.396205c.790179-1.245536 1.700893-3.073661 2.732143-5.484375.294643.602678.542411 1.088169.743304 1.456473s.472098.793527.813616 1.27567.683036.860491 1.024553 1.135044c.341518.274554.763393.508929 1.265625.703125.502232.194197 1.047991.291295 1.637277.291295h5.142857v-3.857143c0-.1875.060268-.341518.180804-.462053.120536-.120536.274553-.180804.462053-.180804.160715 0 .321429.066964.482143.200893l6.408482 6.408482c.120536.120536.180804.274554.180804.462054zm0-18c0 .1875-.060268.341517-.180804.462053l-6.428571 6.428572c-.120536.120535-.274554.180803-.462054.180803-.174107 0-.324776-.063616-.452009-.190848-.127232-.127232-.190848-.277902-.190848-.452009v-3.857143h-5.142857c-.642857 0-1.225446.100447-1.747768.301339-.522321.200893-.984375.502233-1.38616.904018-.401786.401786-.743304.813616-1.024554 1.235491s-.582589.940849-.904018 1.55692c-.428571.830357-.950893 1.975446-1.566964 3.435268-.388393.883928-.719866 1.627232-.99442 2.229911-.274553.602678-.636161 1.305803-1.084821 2.109375-.448661.803571-.877232 1.473214-1.285714 2.008928-.408483.535714-.904018 1.091518-1.486608 1.667411-.582589.575893-1.185268 1.034598-1.808035 1.376116-.622768.341518-1.335938.622768-2.139509.84375-.803572.220982-1.660715.331473-2.571429.331473h-4.5c-.1875 0-.341518-.060268-.462053-.180803-.120536-.120536-.180804-.274554-.180804-.462054v-3.857143c0-.1875.060268-.341518.180804-.462053.120535-.120536.274553-.180804.462053-.180804h4.5c.642857 0 1.225447-.100446 1.747768-.301339s.984375-.502232 1.386161-.904018c.401785-.401786.743303-.813616 1.024553-1.235491s.58259-.940848.904018-1.55692c.428572-.830357.950893-1.975446 1.566964-3.435268.388393-.883928.719867-1.627232.99442-2.22991.274554-.602679.636161-1.305804 1.084821-2.109375.448661-.803572.877233-1.473215 1.285715-2.008929s.904018-1.091518 1.486607-1.667411 1.185268-1.034598 1.808036-1.376116 1.335937-.622768 2.139509-.84375c.803571-.220982 1.660714-.331473 2.571428-.331473h5.142857v-3.8571429c0-.1875.060268-.3415178.180804-.4620535s.274553-.1808036.462053-.1808036c.160715 0 .321429.0669643.482143.2008929l6.408482 6.4084821c.120536.120536.180804.274554.180804.462054z" fill="#617a90" transform="translate(-301 -96)"/></svg>