<svg height="33" viewBox="0 0 33 33" width="33" xmlns="http://www.w3.org/2000/svg"><path d="m64.38125 29.49375-6.4040625-6.4040625c1.810875-2.4151875 2.8978125-5.4016875 2.8978125-8.6521875 0-7.973625-6.463875-14.4375-14.4375-14.4375s-14.4375 6.463875-14.4375 14.4375 6.463875 14.4375 14.4375 14.4375c3.2505 0 6.237-1.0869375 8.650125-2.8978125l6.406125 6.4040625c.3795.3795.78375.61875 1.44375.61875 1.1405625 0 2.0625-.9219375 2.0625-2.0625 0-.4516875-.111375-.936375-.61875-1.44375zm-28.25625-15.05625c0-5.696625 4.615875-10.3125 10.3125-10.3125s10.3125 4.615875 10.3125 10.3125-4.615875 10.3125-10.3125 10.3125-10.3125-4.615875-10.3125-10.3125z" fill="#617a90" transform="translate(-32)"/></svg>