<svg height="34" viewBox="0 0 34 34" width="34" xmlns="http://www.w3.org/2000/svg"><path d="m73.0372596 15.8557692c.8445513 0 1.5494792.2758414 2.1147837.8275241s.8479567 1.2429888.8479567 2.0739182c0 1.3213141-.6334135 2.2067308-1.9002404 2.65625l-3.5144231 1.2055289 1.1442308 3.4122596c.0953526.2860577.1430289.6061699.1430289.9603365 0 .8036859-.2860577 1.4983975-.8581731 2.0841347-.5721154.5857371-1.260016.8786057-2.0637019.8786057-.6402244 0-1.2225561-.1838942-1.7469952-.5516827-.5244391-.3677884-.8888222-.858173-1.0931491-1.4711538l-1.1237981-3.3713942-6.3341346 2.1658653 1.1237981 3.3509616c.1089744.3269231.1634615.6470352.1634615.9603365 0 .8036859-.2860576 1.4983975-.858173 2.0841346-.5721154.5857372-1.266827.8786058-2.0841346.8786058-.6402244 0-1.2191507-.1838942-1.7367789-.5516827s-.8786058-.8581731-1.0829327-1.4711538l-1.1237981-3.3305289-3.1262019 1.0829327c-.395032.1225962-.7355769.1838942-1.0216346.1838942-.8309295 0-1.5222356-.2724359-2.0739183-.8173077-.5516827-.5448717-.827524-1.2327724-.827524-2.0637019 0-.6402243.1872997-1.2191506.561899-1.7367788.3745994-.5176282.8615786-.8786058 1.4609375-1.0829327l3.1875-1.0829327-2.1454327-6.3954327-3.1875 1.1033654c-.3541666.1089743-.6810897.1634615-.9807692.1634615-.8173077 0-1.5052083-.2758413-2.0637019-.827524s-.8377404-1.2361779-.8377404-2.0534856c0-.6402244.1872997-1.2191506.561899-1.7367788.3745994-.5176282.8615786-.8786058 1.4609375-1.0829327l3.2079327-1.0829327-1.0829327-3.2487981c-.1089743-.32692308-.1634615-.64703526-.1634615-.96033654 0-.81730769.2860577-1.51542468.8581731-2.09435096s1.2668269-.86838942 2.0841346-.86838942c.6402244 0 1.2191506.18389423 1.7367788.55168269s.8786058.85817308 1.0829327 1.47115385l1.1033654 3.26923076 6.3341346-2.14543269-1.1033654-3.26923077c-.1089743-.32692307-.1634615-.64703525-.1634615-.96033654 0-.80368589.2894631-1.49839743.8683894-2.08413461s1.2702324-.87860577 2.0739183-.87860577c.6402244 0 1.2225561.18729968 1.7469952.56189904s.8888221.86157852 1.093149 1.4609375l1.0829327 3.28966346 3.3100962-1.12379808c.2860577-.08173077.5789263-.12259615.8786057-.12259615.8173077 0 1.5154247.26903045 2.094351.80709135.5789263.53806089.8683894 1.20893429.8683894 2.01262019 0 .61298077-.2043269 1.16806891-.6129807 1.66526442-.4086539.49719551-.9126603.84795673-1.5120193 1.05228365l-3.2079327 1.10336542 2.1454327 6.4567307 3.3509616-1.1442307c.326923-.1089744.6402243-.1634616.9399038-.1634616zm-16.2235577 5.3533654 6.3341346-2.1454327-2.1454327-6.4362981-6.3341346 2.1862981z" fill="#617a90" transform="translate(-42)"/></svg>