<svg height="26" viewBox="0 0 26 26" width="26" xmlns="http://www.w3.org/2000/svg"><g fill="none" fill-rule="evenodd" transform="translate(1 1)"><path d="m23.999962 11.3333534c.0045883 1.7598209-.4065742 3.4958406-1.1999981 5.0666586-1.9187181 3.8390977-5.8414474 6.264996-10.1333173 6.2666568-1.7598209.0045883-3.49584056-.4065742-5.06665863-1.1999981l-7.59998797 2.5333293 2.53332932-7.599988c-.79342389-1.570818-1.20458643-3.3068377-1.1999981-5.0666586.00166074-4.29186991 2.42755912-8.21459919 6.26665675-10.13331732 1.57081807-.79342389 3.30683773-1.20458642 5.06665863-1.1999981h.6666656c5.7544035.31746576 10.3491841 4.91224633 10.6666498 10.66664982z" stroke="#617a90" stroke-linecap="round" stroke-linejoin="round" stroke-width="2"/><path d="m8.77231165 11.0567082c-.02723688-.0258185-.07684617-.0608574-.14882936-.1051176-.07198319-.0442603-.159529-.0875978-.26264005-.1300138-.10311105-.0424161-.21497514-.078377-.33559562-.1078839-.12062048-.0295068-.24318461-.04426-.36769607-.04426-.22178604 0-.38715035.0387272-.49609788.1161826s-.16342047.1862602-.16342047.3264177c0 .0811438.02042735.1484552.06128267.2019364.04085533.0534811.10019193.1005069.17801159.1410788.07781967.0405719.17606552.0774549.29474051.1106501.11867498.0331952.25583008.068234.41146941.1051175.20233113.051637.38617732.1069615.55154411.1659751.16536678.0590137.30544008.1327797.42022408.2213002s.20330254.1945591.26555827.3181189c.06225574.1235599.09338313.2757022.09338313.4564316 0 .2102362-.04182744.3900407-.12548358.5394191-.08365613.1493783-.19649295.2701701-.33851384.3623789-.14202089.0922089-.30543973.1595203-.49026143.2019364s-.37839521.0636238-.58072634.0636238c-.31127865 0-.61866171-.0442596-.9221584-.1327801s-.57586142-.2139226-.81710238-.3762102l.35602318-.6583679c.03501885.0331952.09824638.0765327.18968448.1300138.09143811.0534811.19941127.1069615.32392273.1604426s.2626393.0986628.41438764.1355463c.15174834.0368836.30738534.0553251.46691565.0553251.44357208 0 .66535479-.1346229.66535479-.4038728 0-.0848321-.02529101-.156754-.07587379-.2157676-.05058278-.0590137-.12256489-.1106499-.21594849-.1549101-.09338359-.0442603-.20622041-.0848315-.33851384-.1217151-.13229343-.0368835-.28014857-.0774548-.44356987-.1217151-.19844014-.0516369-.37061356-.1078835-.51652543-.1687413-.14591187-.0608579-.26750327-.1327797-.36477785-.2157677-.09727458-.0829879-.17022942-.1788837-.21886671-.2876901-.04863729-.1088065-.07295557-.238819-.07295557-.3900415 0-.1991711.03890925-.3762095.11672891-.5311204.07781967-.1549108.18579283-.2840013.32392273-.3872752.13812991-.1032739.29863056-.1816503.48150676-.2351314.18287621-.0534811.37936792-.0802213.58948101-.0802213.29182374 0 .56029755.0433375.80542949.1300138.24513194.0866764.45913281.1890266.64200901.307054zm5.03797035 2.8990318v-2.6002767l-1.0680695 1.9363763h-.4377334l-1.0680696-1.9363763v2.6002767h-.8054295v-3.9280775h.863794l1.2256536 2.2351314 1.2373264-2.2351314h.8579575v3.9280775zm4.6877837-2.8990318c-.0272369-.0258185-.0768462-.0608574-.1488294-.1051176-.0719832-.0442603-.159529-.0875978-.26264-.1300138-.1031111-.0424161-.2149752-.078377-.3355957-.1078839-.1206204-.0295068-.2431846-.04426-.367696-.04426-.2217861 0-.3871504.0387272-.4960979.1161826s-.1634205.1862602-.1634205.3264177c0 .0811438.0204274.1484552.0612827.2019364.0408553.0534811.1001919.1005069.1780116.1410788s.1760655.0774549.2947405.1106501.2558301.068234.4114694.1051175c.2023311.051637.3861773.1069615.5515441.1659751.1653668.0590137.3054401.1327797.4202241.2213002s.2033025.1945591.2655583.3181189c.0622557.1235599.0933831.2757022.0933831.4564316 0 .2102362-.0418274.3900407-.1254836.5394191-.0836561.1493783-.1964929.2701701-.3385138.3623789-.1420209.0922089-.3054398.1595203-.4902615.2019364s-.3783952.0636238-.5807263.0636238c-.3112786 0-.6186617-.0442596-.9221584-.1327801s-.5758614-.2139226-.8171024-.3762102l.3560232-.6583679c.0350189.0331952.0982464.0765327.1896845.1300138s.1994113.1069615.3239227.1604426c.1245115.0534811.2626393.0986628.4143877.1355463.1517483.0368836.3073853.0553251.4669156.0553251.4435721 0 .6653548-.1346229.6653548-.4038728 0-.0848321-.025291-.156754-.0758738-.2157676-.0505828-.0590137-.1225649-.1106499-.2159485-.1549101-.0933836-.0442603-.2062204-.0848315-.3385138-.1217151-.1322935-.0368835-.2801486-.0774548-.4435699-.1217151-.1984401-.0516369-.3706136-.1078835-.5165254-.1687413-.1459119-.0608579-.2675033-.1327797-.3647779-.2157677-.0972746-.0829879-.1702294-.1788837-.2188667-.2876901-.0486373-.1088065-.0729556-.238819-.0729556-.3900415 0-.1991711.0389093-.3762095.116729-.5311204.0778196-.1549108.1857928-.2840013.3239227-.3872752s.2986305-.1816503.4815068-.2351314c.1828762-.0534811.3793679-.0802213.589481-.0802213.2918237 0 .5602975.0433375.8054294.1300138.245132.0866764.4591329.1890266.6420091.307054z" fill="#617a90"/></g></svg>