<svg height="26" viewBox="0 0 30 26" width="30" xmlns="http://www.w3.org/2000/svg"><path d="m80.9745579.16637289-26.5740524 10.24966611c-1.8137219.7276996-1.8029656 1.7393141-.3305923 2.1904007l6.6276489 2.0686242 2.535894 7.7748561c.3082903.850956.1563165 1.1884575 1.049905 1.1884575.6896071 0 .9955295-.3144083 1.3796094-.6896071.2442435-.239013 1.6944113-1.6489194 3.3136276-3.2232316l6.8939981 5.0935991c1.2685885.6998693 2.1845779.3373028 2.5004671-1.1781946l4.5253748-21.32532085c.4633237-1.85753767-.7081604-2.70010601-1.9218802-2.14924956zm-19.2368613 14.03342711 14.9387574-9.42496018c.7457579-.45227055 1.4295423-.20911196.8681259.28924436l-12.7914815 11.54114942-.4980594 5.3121852z" fill="#617a90" transform="translate(-53)"/></svg>