<svg height="28" viewBox="0 0 32 28" width="32" xmlns="http://www.w3.org/2000/svg"><path d="m15.537826 7.35170544.0693653 1.19535069-1.1560883-.14636945c-4.2081612-.56108306-7.88452177-2.46388611-11.00596002-5.65961949l-1.52603651-1.58566923-.39306996 1.17095563c-.83238356 2.61025556-.30058298 5.36688058 1.43354938 7.22089381.92487054 1.0245863.71677469 1.1709558-.87862706.5610831-.55492232-.19515946-1.04047941-.34152891-1.08672305-.26834404-.16185222.17076434.39307011 2.39070124.83238356 3.26891814.60116597 1.2197456 1.82661949 2.4150961 3.16768175 3.1225486l1.13296654.5610829-1.3410624.0243949c-1.29481876 0-1.34106225.0243949-1.20233163.536688.46243534 1.5856694 2.28905469 3.2689183 4.32377003 4.0007656l1.43354923.5122932-1.24857527.7806371c-1.84974109 1.1221659-4.02318705 1.7564337-6.19663286 1.8052235-1.04047942.0243948-1.89598473.1219744-1.89598473.1951593 0 .243949 2.82085527 1.6100642 4.46250065 2.1467522 4.92493585 1.5856692 10.77474235.9026116 15.16787765-1.8052235 3.1214383-1.9271981 6.2428767-5.7571991 7.6995478-9.4652257.7861399-1.9759878 1.57228-5.5864346 1.57228-7.31847344 0-1.12216582.0693652-1.26853527 1.364184-2.61025542.7630183-.78063723 1.479793-1.63445905 1.6185236-1.87840828.2312176-.46350328.208096-.46350328-.971114-.04878982-1.9653501.73184741-2.2428114.63426778-1.2716972-.46350327.7167747-.78063724 1.57228-2.19554197 1.57228-2.61025557 0-.07318472-.3468265.04878997-.7398964.268344-.4161919.24394924-1.3410624.60987288-2.0347154.82942706l-1.2485752.41471345-1.1329666-.80503214c-.6242877-.43910837-1.5029146-.92700655-1.9653499-1.073376-1.1792101-.34152873-2.9827077-.29273891-4.046309.09757963-2.8902205 1.09777106-4.71684 3.9275808-4.508744 7.02573454 0 0-.208096-3.09815374 0 0z" fill="#617a90" fill-rule="evenodd" transform=""/></svg>