<svg height="24" viewBox="0 0 24 24" width="24" xmlns="http://www.w3.org/2000/svg"><path d="m15.9692195 10.1538462h6.6525377c.7654251 0 1.3782428.6199134 1.3782428 1.3846153 0 .7700334-.6170603 1.3846154-1.3782428 1.3846154h-3.2371418v.9230769h2.3140648c.7654252 0 1.3782429.6199135 1.3782429 1.3846154 0 .7700334-.6170603 1.3846154-1.3782429 1.3846154h-3.2371417v.9230769h2.3140648c.7654252 0 1.3782429.6199135 1.3782429 1.3846154 0 .7700334-.6170604 1.3846154-1.3782429 1.3846154h-3.2371418v.9230769h1.3830687c.7666027 0 1.3861621.6199135 1.3861621 1.3846154 0 .7700334-.6206059 1.3846154-1.3861621 1.3846154h-3.4592184-3.4623118l-5.53846154-1.8461538h-5.53575754c-.52158275 0-.92578092-.4126567-.92578092-.9216945v-10.1566111c0-.5086273.41325917-.9216944.92304019-.9216944h6.00003673c.00000573-.0000013 3.05052554-.66801715 4.49639428-3.41421282 1.4458698-2.74619835-.2233324-6.73963298 2.4266826-6.73963338 2.9090671-.0000004 3.2314453 5.07692308 2.1230657 10.1538462z" fill="#617a90" transform=""/></svg>