<svg height="36" viewBox="0 0 36 36" width="36" xmlns="http://www.w3.org/2000/svg"><path d="m496.499859 84.007875c.000618 1.2980612-.233542 2.5855326-.691171 3.80025-1.215162.4575648-2.502922.6920884-3.801375.6922969h-.015188c-1.337063-.0016875-2.618156-.2460938-3.80025-.6917344-.457916-1.2148556-.692314-2.5025211-.691875-3.8008125v-.01575c-.000626-1.2978158.233289-2.5850628.690469-3.7996875 1.215075-.4584191 2.503122-.6930165 3.801797-.6924375h.015187c1.298529-.0006257 2.586437.2339249 3.801375.6922969.457683 1.2145073.691845 2.5018041.691172 3.7996875v.01575zm13.25011-3.0078281h-10.506938l7.429078-7.4296406c-.583105-.8191172-1.233549-1.5881451-1.944562-2.2990782v-.0005625c-.711034-.710173-1.479851-1.360034-2.298516-1.942875l-7.42964 7.4296406v-10.5069375c-.988134-.1662288-1.988373-.2500485-2.990391-.2505937h-.018563c-1.01925.0005625-2.017546.0871875-2.99039.2505937v10.5069375l-7.429641-7.4296406c-.818798.5826839-1.587288 1.2330098-2.29739 1.9441406l-.003938.0028126c-.709799.7100465-1.359333 1.4778788-1.941891 2.2955625l7.430204 7.4296406h-10.506797s-.250594 1.9733906-.250594 2.9937656v.012375c0 1.020375.086484 2.0203594.250594 2.9937656h10.506937l-7.430203 7.4296406c1.168827 1.6402508 2.602828 3.0742516 4.243078 4.2430782l7.429641-7.4302031v10.5075002c.987047.165403 1.986066.24903 2.986875.250031h.025453c1.000813-.000905 1.99984-.084533 2.986875-.250031v-10.5075002l7.430344 7.4302031c.818494-.5830422 1.587123-1.2330914 2.297953-1.9434375l.001687-.0016875c.710032-.7109624 1.359884-1.4795805 1.942875-2.2979532l-7.430203-7.4296406h10.508063c.163547-.9717187.248906-1.96875.250031-2.986875v-.0261562c-.001125-1.018125-.086484-2.0151563-.250031-2.986875z" fill="#617a90" transform="translate(-474 -66)"/></svg>