<svg height="166" viewBox="0 0 135 166" width="135" xmlns="http://www.w3.org/2000/svg"><g fill="none"><g fill="#617a90"><path d="m134.2 111.5-7.344511 34.357958-15.767643-103.6688992 6.691412-37.40245188z"/><path d="m7.5 18 107.9-17.3-7.150491 39.3826523-108.249509 16.550127z"/><path d="m108.1 43.8 15.9 104.9-106.8 16.7-17.2-105z"/></g><path d="m96.6 132c-.8-1-2-1.7-3.4-2.2s-3.1-.7-5.2-.7c-1.9 0-4.1.2-6.5.6l-28.2 4.8c.3-2.2 1.4-5 3.3-8.5 2.1-3.9 5.3-8.6 9.4-14 1.4-1.9 2.5-3.3 3.3-4.3.5-.7 1.3-1.6 2.3-2.9 6.5-8.5 10.4-15.4 12-20.8.9-3.1 1.4-6.2 1.6-9.3.1-.9.1-1.7.1-2.5 0-2.2-.2-4.4-.6-6.6-.3-2-.8-3.6-1.5-4.9s-1.5-2.3-2.5-2.9c-1.1-.7-2.8-1-4.9-1-1.7 0-3.8.2-6.3.6l-32.6 5.6c-3.9.7-6.9 1.8-8.7 3.6-1.5 1.4-2.2 3.2-2.2 5.2 0 .5 0 1.1.1 1.7.5 2.8 1.9 4.8 4.2 5.8 1.4.6 3 .9 5 .9 1.3 0 2.8-.1 4.4-.4l27.2-4.8c0 .5.1 1 .1 1.4 0 1.7-.3 3.4-.9 5-.8 2.3-2.8 5.5-6.1 9.6-.9 1.1-2.3 2.9-4.2 5.2-7.4 8.9-12.6 16.5-15.8 22.8-2.3 4.4-3.8 8.6-4.7 12.9-.5 2.5-.8 4.8-.8 7.1 0 1.6.1 3.2.4 4.7.4 2.2.9 4 1.6 5.4s1.7 2.5 2.8 3.1 2.6.8 4.8.8c2.7 0 6.4-.4 11.1-1.2l29.6-5.1c5.2-.9 8.9-2.2 11-3.9 1.7-1.4 2.6-3.3 2.6-5.5 0-.6-.1-1.2-.2-1.8-.2-1.3-.7-2.5-1.6-3.5z" fill="#fff"/></g></svg>